<svg xmlns="http://www.w3.org/2000/svg" xmlns:xlink="http://www.w3.org/1999/xlink" viewBox="0 0 3840 182"><defs><clipPath id="clip-path"><rect x="0.5" y="-218" width="1920" height="400" style="fill:none"/></clipPath><linearGradient id="linear-gradient" x1="968.6435" y1="52.8515" x2="968.6435" y2="227.9882" gradientUnits="userSpaceOnUse"><stop offset="0.2527" stop-color="#445c1c" stop-opacity="0.99"/><stop offset="1" stop-color="#212b0f"/></linearGradient><clipPath id="clip-path-2"><rect x="1920.5" y="-218" width="1920" height="400" transform="translate(5761 -36) rotate(-180)" style="fill:none"/></clipPath><linearGradient id="linear-gradient-2" x1="1240.6435" y1="52.8515" x2="1240.6435" y2="227.9882" gradientTransform="matrix(-1, 0, 0, 1, 4113, 0)" xlink:href="#linear-gradient"/></defs><title>bg_bushes</title><g id="bg"><g style="clip-path:url(#clip-path)"><path d="M-17.0686,100.0153C-16.3529,78.3726-14.774,54.5882.274,39.0165s48.1686-12.6462,51.78,8.705c34.8117-29.8274,93.1466-26.378,124.2006,7.3442-2.2784-11.8191,12.7349-19.77,24.749-19.0337s24.2791,5.7573,35.7192,2.0149c10.31-3.3726,20.403-13.5764,30.1005-8.7156,7.338,3.6782,9.4224,14.5072,17.2332,17.03,7.3822,2.3846,14.2854-4.08,21.0479-7.8814,12.4273-6.9859,27.8646-5.2151,41.6689-1.6541a187.4183,187.4183,0,0,1,67.7875,33.2452c7.1149,5.5158,14.3051,11.7713,23.1862,13.245,14.5246,2.41,27.3928-8.4823,40.5965-14.9967s34.1749-5.2453,36.8988,9.2237c23.3458-23.4778,60.6878-31.8151,91.8025-20.4965,22.919-23.6243,69.9718-12.5617,79.9628,18.8C695.69,47.8,729.2862,30.303,757.2441,39.2685c17.31,5.5509,31.3985,19.3658,49.2,23.0473,18.989,3.9272,38.2031-4.3871,57.5476-5.7275s43.292,10.2484,41.6873,29.5727c25.6462-29.8465,79.5372-27.5308,102.5286,4.4057,12.9471-15.1209,30.8174-31.8233,49.8538-26.0022,6.1877,1.8921,11.4375,6.031,17.4223,8.4908,26.007,10.6888,52.2583-12.1428,77.6857-24.1454,40.3318-19.0381,92.5429-8.6587,122.5265,24.3578,22.641-30.3067,78.1616-24,93.4288,10.6121,29.4527-24.75,80.4361-16.0513,100.0165,17.0638,14.1533-22.7877,29.301-46.5435,52.7818-59.5144s57.8218-10.471,71.7172,12.4748c15.92-25.6521,61.5364-22.25,73.4756,5.48,41.5207-13.1209,96.0644-22.1822,120.61,13.7853C1796.5,51,1808.1851,50.8262,1836.5,60c-2.7778-20.2821,78.7346-6.5365,91,11,8.6631,12.3862,17.7678,32.49,22,47,7,24,.8059,37.62,4,60,1.8966,13.2888-18.1788,2.2731-25.07,13.7925-9.1508,15.2957-29.2971,19.0853-47.033,20.8556-141.3479,14.1083-283.7541-3.5062-425.8034-3.9985-84.2934-.2921-168.4726,5.4508-252.6561,9.7608C845.4656,236.712,487.232,229.1918,129.3709,221.6665c-41.2748-.8679-94.1067,1.1071-131.4914-19.5527-18.6434-10.3028-15.202-16.23-15.6073-37.4436C-18.14,143.0981-17.7846,121.6658-17.0686,100.0153Z" style="fill:#364718"/><path d="M.2388,93.7738C-.2982,66.93,44.7042,55.7153,56.827,79.6716,61.65,56.925,91.63,47.5739,113.3825,55.7882s36.7532,27.8631,50.5537,46.5771c17.0778-24.9935,50.8884-37.1615,79.9765-28.7825a187.3635,187.3635,0,0,1,102.7044-5.5454c30.9244,7.1075,59.8394,22.1948,84.1373,42.6019,13.0842-22.5561,54.0385-17.2639,60.9591,7.8772-10.9569-5.3253,1.4483-21.239,12.9823-25.1609C549.3767,78.1627,595.5,53,643.5,91c25.312,20.0387,64.7329-26.8742,96.92-29.3737,10.52-.8169,21.5473-1.5369,31.1908,2.7459,9.6836,4.3005,15.7485,20.6788,26.027,18.1058C835.5,73,859.353,109.1328,869.5,110c48.0681,4.1081,53.8684-12.674,101.9364-8.566,10.8778-4.3172,24.7242,1.9583,28.6482,12.984,5.3014-18.06,33.35-23.5071,45.0261-8.7444,14.3247-18.874,47.49-18.1614,60.9912,1.31-8.0641-15.2325,9.5972-28.1,25.3981-34.984s27.7843-11.4413,44.8557-9.0693l53.3372,7.4108c17.622,2.4484,39.2344,8.506,42.3838,26.0162,9.4365-10.0532,25.7947-7.1227,39.0759-3.4183l69.0692,19.2643c22.8037-6.0011,102.1343-5.9708,121.2782,7.7963,48.9687-15.5107,22-54,92.9594-41.8628,19.5689,3.3471,44.8318-9.3429,53.844,8.3468,20.976-28.7825,74.3059-20.8825,86.0369,12.745,13.6973-5.9535,28.302-12.04,43.0778-9.8632s28.8387,16.2313,25.2269,30.7232c9.0049-36.2954,58.7947-39.5044,95.8777-34.6778l10.2111,1.329c-.5742-.5741,42.69,5.3155,34.7662,6.26,36.9239,60.0557,3.0235,65.6514,4,96-476.3333,48.3327-984.8883,38.5168-1463.6663,37.5-160.026-.34-320.8721-.804-478.7824-26.7412-7.0083-1.1511-14.4388-2.5574-19.635-7.399-5.5637-5.184-7.36-13.1983-8.229-20.7529C-26.2892,141.4-16.0283,119.4629.2388,93.7738Z" style="fill:url(#linear-gradient)"/></g><g style="clip-path:url(#clip-path-2)"><path d="M3858.0686,100.0153c-.7157-21.6427-2.2946-45.4271-17.3426-60.9988s-48.1686-12.6462-51.78,8.705c-34.8117-29.8274-93.1466-26.378-124.2006,7.3442,2.2784-11.8191-12.7349-19.77-24.749-19.0337s-24.2791,5.7573-35.7192,2.0149c-10.31-3.3726-20.403-13.5764-30.1005-8.7156-7.338,3.6782-9.4224,14.5072-17.2332,17.03-7.3822,2.3846-14.2854-4.08-21.0479-7.8814-12.4273-6.9859-27.8646-5.2151-41.6689-1.6541a187.4183,187.4183,0,0,0-67.7875,33.2452c-7.1149,5.5158-14.3051,11.7713-23.1862,13.245-14.5246,2.41-27.3928-8.4823-40.5965-14.9967s-34.1749-5.2453-36.8988,9.2237c-23.3458-23.4778-60.6878-31.8151-91.8025-20.4965-22.919-23.6243-69.9718-12.5617-79.9628,18.8C3145.31,47.8,3111.7138,30.303,3083.7559,39.2685c-17.31,5.5509-31.3985,19.3658-49.2,23.0473-18.989,3.9272-38.2031-4.3871-57.5476-5.7275s-43.292,10.2484-41.6873,29.5727c-25.6462-29.8465-79.5372-27.5308-102.5286,4.4057-12.9471-15.1209-30.8174-31.8233-49.8538-26.0022-6.1877,1.8921-11.4375,6.031-17.4223,8.4908-26.007,10.6888-52.2583-12.1428-77.6857-24.1454-40.3318-19.0381-92.5429-8.6587-122.5265,24.3578-22.641-30.3067-78.1616-24-93.4288,10.6121-29.4527-24.75-80.4361-16.0513-100.0165,17.0638-14.1533-22.7877-29.301-46.5435-52.7818-59.5144s-57.8218-10.471-71.7172,12.4748c-15.92-25.6521-61.5364-22.25-73.4756,5.48-41.5207-13.1209-96.0644-22.1822-120.61,13.7853C2044.5,51,2032.8149,50.8262,2004.5,60c2.7778-20.2821-78.7346-6.5365-91,11-8.6631,12.3862-17.7678,32.49-22,47-7,24-.8059,37.62-4,60-1.8966,13.2888,18.1788,2.2731,25.07,13.7925,9.1508,15.2957,29.2971,19.0853,47.033,20.8556,141.3479,14.1083,283.7541-3.5062,425.8034-3.9985,84.2934-.2921,168.4726,5.4508,252.6561,9.7608,357.4716,18.3016,715.7052,10.7814,1073.5663,3.2561,41.2748-.8679,94.1067,1.1071,131.4914-19.5527,18.6434-10.3028,15.202-16.23,15.6073-37.4436C3859.14,143.0981,3858.7846,121.6658,3858.0686,100.0153Z" style="fill:#364718"/><path d="M3840.7612,93.7738c.537-26.8435-44.4654-38.0585-56.5882-14.1022-4.8225-22.7466-34.8026-32.0977-56.5555-23.8834s-36.7532,27.8631-50.5537,46.5771c-17.0778-24.9935-50.8884-37.1615-79.9765-28.7825a187.3635,187.3635,0,0,0-102.7044-5.5454c-30.9244,7.1075-59.8394,22.1948-84.1373,42.6019-13.0842-22.5561-54.0385-17.2639-60.9591,7.8772,10.9569-5.3253-1.4483-21.239-12.9823-25.1609C3291.6233,78.1627,3245.5,53,3197.5,91c-25.312,20.0387-64.7329-26.8742-96.92-29.3737-10.52-.8169-21.5473-1.5369-31.1908,2.7459-9.6836,4.3005-15.7485,20.6788-26.027,18.1058C3005.5,73,2981.647,109.1328,2971.5,110c-48.0681,4.1081-53.8684-12.674-101.9364-8.566-10.8778-4.3172-24.7242,1.9583-28.6482,12.984-5.3014-18.06-33.35-23.5071-45.0261-8.7444-14.3247-18.874-47.49-18.1614-60.9912,1.31,8.0641-15.2325-9.5972-28.1-25.3981-34.984s-27.7843-11.4413-44.8557-9.0693l-53.3372,7.4108c-17.622,2.4484-39.2344,8.506-42.3838,26.0162-9.4365-10.0532-25.7947-7.1227-39.0759-3.4183l-69.0692,19.2643c-22.8037-6.0011-102.1343-5.9708-121.2782,7.7963-48.9687-15.5107-22-54-92.9594-41.8628-19.5689,3.3471-44.8318-9.3429-53.844,8.3468-20.976-28.7825-74.3059-20.8825-86.0369,12.745-13.6973-5.9535-28.302-12.04-43.0778-9.8632s-28.8387,16.2313-25.2269,30.7232c-9.0049-36.2954-58.7947-39.5044-95.8777-34.6778l-10.2111,1.329c.5742-.5741-42.69,5.3155-34.7662,6.26-36.9239,60.0557-3.0235,65.6514-4,96,476.3333,48.3327,984.8883,38.5168,1463.6663,37.5,160.026-.34,320.8721-.804,478.7824-26.7412,7.0083-1.1511,14.4388-2.5574,19.635-7.399,5.5637-5.184,7.36-13.1983,8.229-20.7529C3867.2892,141.4,3857.0283,119.4629,3840.7612,93.7738Z" style="fill:url(#linear-gradient-2)"/></g></g></svg>