<?xml version="1.0" encoding="utf-8"?>
<!-- Generator: Adobe Illustrator 16.0.4, SVG Export Plug-In . SVG Version: 6.00 Build 0)  -->
<!DOCTYPE svg PUBLIC "-//W3C//DTD SVG 1.1//EN" "http://www.w3.org/Graphics/SVG/1.1/DTD/svg11.dtd">
<svg version="1.1" id="_x3C_Layer_x3E_" xmlns="http://www.w3.org/2000/svg" xmlns:xlink="http://www.w3.org/1999/xlink" x="0px"
	 y="0px" width="261.3px" height="44.2px" viewBox="0 0 261.3 44.2" style="enable-background:new 0 0 261.3 44.2;"
	 xml:space="preserve">
<style type="text/css">
<![CDATA[
	.st0{fill:#FFFFFF;}
]]>
</style>
<g>
	<path class="st0" d="M81.2,28.5c-2,11.3-2.7,15.3-2.7,15.3l-9.7,0l1.3-7.1l0,0l0.8-4.7c-0.9,0-4.8,0-5.5,0c-0.8,0-2.4,0-3.1,0.1
		c-2.1,0.3-3.6,2.1-4,3.3c-0.9,2.7-1,4-1.8,8.4h-9.6c0.8-4.8,1.3-6.6,1.7-8.5c1.1-5,5.8-9.5,13.7-9.5c3,0,3.9,0,9.7,0
		c1.3-7,0-7.5-19.3-6.3l1-6.1c6.7-0.5,15.1-0.9,21.4-0.4C82.3,13.5,83.1,17.9,81.2,28.5z M45.6,17c-0.1,2.2-1.4,9-2,11.2
		c-1.4,5.4-2.6,14-13.5,15.1c-5.4,0.6-8.1,0.4-27.8,0.4c0,0,5-28.4,6.2-35c0,0-3.6,0-8.6,0l1.3-7.4c22.1-0.2,29.9-0.5,36.5,0.7
		C47.7,4.1,45.9,11.5,45.6,17z M19.1,8.8l-4.8,27.3c11.3,0,16.3,0.8,18-5.4c1.6-5.6,2.6-12.5,2.9-15.9C35.7,8,30.3,8.8,19.1,8.8z
		 M92,13.3c0,0-5.3,30.3-5.4,30.4h9.7c0-0.1,4.3-24.5,4.3-24.5c9.1-0.5,11-0.6,9.4,8.2c0,0.1-2.8,16.1-2.9,16.3h9.7
		c0-0.2,2.6-14.9,2.9-16.3C122.6,11.3,118,11.8,92,13.3z M183,27.5l-0.3,1.9c-1.9,11-5.5,14.1-12.6,14.6c-1.7,0.1-3.5,0.2-4.9,0.2
		l0,0c0,0,0,0,0,0l0,0c-0.1,0-1.7,0-1.7,0c-1.3,0-2.9-0.1-4.6-0.2c-6.9-0.5-9.4-3.6-7.4-14.6l0.3-1.9c1.9-11.1,5.5-14.1,12.6-14.6
		c1.7-0.1,3.4-0.2,4.7-0.2c0,0,1.6,0,1.9,0c0,0,0,0,0,0c0,0,0,0,0,0l0,0c1.3,0,2.9,0.1,4.5,0.2C182.4,13.3,185,16.4,183,27.5z
		 M169.9,18.8L169.9,18.8c0,0-1.9,0-1.9,0c-4.1,0-5.3,1.9-6.5,8.6l0,0l-0.3,1.9h0c-1.2,6.7-0.7,8.6,3.4,8.6c0,0,1.9,0,1.9,0l0,0
		c4.1,0,5.3-1.9,6.4-8.6l0,0l0.3-1.9h0C174.5,20.8,174,18.8,169.9,18.8z M245.2,27.5l-0.3,1.9c-1.9,11-5.5,14.1-12.6,14.6
		c-1.7,0.1-3.5,0.2-4.9,0.2l0,0c0,0,0,0,0,0l0,0c-0.1,0-1.7,0-1.7,0c-1.3,0-2.9-0.1-4.6-0.2c-6.9-0.5-9.4-3.6-7.4-14.6l0.3-1.9
		c1.9-11.1,5.5-14.1,12.6-14.6c1.7-0.1,3.4-0.2,4.7-0.2c0,0,1.6,0,1.9,0c0,0,0,0,0,0c0,0,0,0,0,0l0,0c1.3,0,2.9,0.1,4.5,0.2
		C244.6,13.3,247.2,16.4,245.2,27.5z M232.1,18.8L232.1,18.8c0,0-1.9,0-1.9,0c-4.1,0-5.3,1.9-6.5,8.6l0,0l-0.3,1.9l0,0
		c-1.2,6.7-0.7,8.6,3.4,8.6c0,0,1.9,0,1.9,0h0c4.1,0,5.3-1.9,6.4-8.6l0,0l0.3-1.9h0C236.7,20.8,236.2,18.8,232.1,18.8z M148.7,19.1
		l1-5.7c0,0-9.1,0-10.3,0l1.4-7.8h-9.6l-4.6,26.3c-1.8,12.1,3.8,12.1,11,12.4h6.7l1.1-6.2h-4.8c-1.4,0-3.3,0-4.2-1.3
		c-0.8-1.2-0.4-3.8-0.2-4.9c0,0,1.9-10.7,2.2-12.6C139.3,19.1,148.7,19.1,148.7,19.1z M210.8,19.1l1-5.7c0,0-9.1,0-10.3,0l1.4-7.8
		h-9.6l-4.6,26.3c-1.8,12.1,3.8,12.1,11,12.4h6.7l1.1-6.2h-4.8c-1.4,0-3.3,0-4.2-1.3c-0.8-1.2-0.4-3.8-0.2-4.9
		c0,0,1.9-10.7,2.2-12.6C201.3,19.1,210.8,19.1,210.8,19.1z"/>
	<g>
		<g>
			<path class="st0" d="M256.6,8.5l-1.3-2.1h-0.7v2.1h-1.1V2.9h2c1.3,0,2.1,0.5,2.1,1.7c0,0.7-0.4,1.2-1.1,1.5l0,0l1.6,2.3H256.6z
				 M255.3,3.7h-0.7v1.9h0.7c0.7,0,1-0.2,1-0.9C256.3,3.9,256,3.7,255.3,3.7z"/>
		</g>
		<g>
			<path class="st0" d="M249.4,5.9c0,3.3,2.7,5.9,5.9,5.9c3.3,0,5.9-2.7,5.9-5.9S258.7,0,255.4,0C252.1,0,249.4,2.7,249.4,5.9z
				 M250.6,5.9c0-2.6,2.1-4.8,4.8-4.8c2.6,0,4.8,2.1,4.8,4.8c0,2.6-2.1,4.8-4.8,4.8C252.7,10.7,250.6,8.6,250.6,5.9z"/>
		</g>
	</g>
</g>
</svg>
