<svg xmlns="http://www.w3.org/2000/svg" xmlns:xlink="http://www.w3.org/1999/xlink" viewBox="0 0 400 400"><defs><linearGradient id="linear-gradient" x1="279.3826" y1="166.3044" x2="331.4803" y2="166.3044" gradientTransform="translate(352.8984 437.9539) rotate(-167.723)" gradientUnits="userSpaceOnUse"><stop offset="0" stop-color="#974f26"/><stop offset="0.6646"/></linearGradient><linearGradient id="linear-gradient-2" x1="71.1003" y1="221.5377" x2="164.4839" y2="128.1541" gradientTransform="translate(352.8984 437.9539) rotate(-167.723)" gradientUnits="userSpaceOnUse"><stop offset="0.1761"/><stop offset="0.5212" stop-color="#974f26"/></linearGradient><linearGradient id="linear-gradient-3" x1="-103.668" y1="42.2779" x2="-96.6783" y2="42.2779" gradientTransform="translate(-70.259 259.6605) rotate(-137.9429)" gradientUnits="userSpaceOnUse"><stop offset="0" stop-color="#974f26"/><stop offset="0.7774" stop-color="#542c15"/></linearGradient><linearGradient id="linear-gradient-4" x1="-176.2041" y1="-13.5883" x2="-167.7296" y2="-13.5883" gradientTransform="matrix(-0.361, -0.5151, 0.8189, -0.574, -24.0529, 192.8618)" xlink:href="#linear-gradient-3"/><linearGradient id="linear-gradient-5" x1="119.8038" y1="199.8801" x2="124.8038" y2="199.8801" gradientTransform="translate(32.8349 469.0135) rotate(-152.8622)" gradientUnits="userSpaceOnUse"><stop offset="0.2226"/><stop offset="1" stop-color="#974f26"/></linearGradient><linearGradient id="New_Gradient_Swatch_4" x1="148.1673" y1="54.6436" x2="202.2793" y2="54.6436" gradientTransform="translate(302.2271 405.519) rotate(-167.9446)" gradientUnits="userSpaceOnUse"><stop offset="0" stop-color="#c7af00"/><stop offset="1" stop-color="#ffe000"/></linearGradient><linearGradient id="New_Gradient_Swatch_4-2" x1="201.364" y1="42.353" x2="225.6043" y2="42.353" xlink:href="#New_Gradient_Swatch_4"/><linearGradient id="linear-gradient-6" x1="226.8687" y1="-53.6579" x2="336.0056" y2="-53.6579" gradientTransform="translate(550.393 139.4634) rotate(173.7073)" gradientUnits="userSpaceOnUse"><stop offset="0.1761"/><stop offset="0.6371" stop-color="#974f26"/></linearGradient><linearGradient id="linear-gradient-7" x1="327.5026" y1="234.41" x2="327.5026" y2="138.5082" gradientTransform="translate(431.2805 343.2865) rotate(174.2241)" gradientUnits="userSpaceOnUse"><stop offset="0"/><stop offset="0.6371" stop-color="#974f26"/></linearGradient></defs><title>dead</title><g id="dead"><path d="M68.3289,229.08a8.3909,8.3909,0,0,1-4.3259-2.0914,8.2957,8.2957,0,0,1-1.5115-3.17,15.2606,15.2606,0,0,1-.965-5.3677c.1684-2.796,1.8073-5.2592,3.3913-7.5692l12.9647-18.907a12.5757,12.5757,0,0,1,1.9607-2.4063c2.071-1.8228,5.0562-2.0833,7.815-2.1106a40.5009,40.5009,0,0,1,12.5307,1.5289,1.7649,1.7649,0,0,1,1.1338.7406,1.817,1.817,0,0,1-.007,1.233l-2.02,8.2926a2.6332,2.6332,0,0,1-.8458,1.6285,2.2906,2.2906,0,0,1-1.4029.2932,9.0381,9.0381,0,0,1-5.7537-2.3657,22.6,22.6,0,0,0-2.6113-2.4764,2.8893,2.8893,0,0,0-3.3571-.13,3.9125,3.9125,0,0,0-.75.9673l-6.13,9.8955a19.0232,19.0232,0,0,0-2.4166,5.1616l-1.8446,5.4017c10.9919.0414,21.81,2.8447,32.1341,6.6189a13.4146,13.4146,0,0,1,3.9286,1.97,4.7827,4.7827,0,0,1,1.9342,3.789,4.8434,4.8434,0,0,1-3.0764,3.9145c-3.1487,1.3818-6.8106.6534-10.125,1.1439a19.8186,19.8186,0,0,1-8.3636-.4971C83.1616,232.8337,75.758,230.9141,68.3289,229.08Z" style="fill:url(#linear-gradient)"/><path d="M251.5076,291.571a36.1552,36.1552,0,0,0,4.683,6.308c3.31,3.4291,7.696,5.5813,11.951,7.589a26.3523,26.3523,0,0,0,8.4252,2.0392c9.3961.8442,33.9567-5.9954,47.3609-8.3032,5.0251-.8651,24.58,4.3611,34.4326-.6312,4.46-2.26-3.6722-13.5143-8.5758-14.7124-8.9561-2.1883-5.3761-1.76-16.5563-1.7-21.0235.1123-37.5527,8.56-44.6609,11.4192-8.06,3.242-18.07,2.0549-25.9448-1.5017a52.1245,52.1245,0,0,1-6.86-3.704,22.3937,22.3937,0,0,0-1.912-1.3175c-1.3347-.6707-5.4385-.9229-6.195-2.2645C248.8805,286.9631,250.13,289.3119,251.5076,291.571Z" style="fill:#211808"/><path id="body" d="M124.4759,292.037s20.3933.3367,25.5758-4.6775,52.8974,15.5841,52.8974,15.5841,25.1952,6.4964,38.4076,2.2032,29.5937-14.54,30.6387-17.3518c2.4632-6.6282,3.4721-17.1946,3.344-21.3157-.0933-3.0032-4.9041-16.1976-9.8514-24.1008-2.3335-3.7275-9.9139-2.7379-14.2887-3.1867-8.9869-.9218,5.3708,2.1623-22.3069,8.45-.9671.22-9.4688-3.79-10.3232-4.2933-.4073-.24-28.5911-22.0184-57.1425-27.1972-.7484-.76-22.7637-2.3459-38.4076-2.2032-14.7495.1345-23.995,8.5-24.9707,12.5245,0,0-8.5413,12.8481-8.1543,18.6951.1551,2.3435-1.123,11.2577.0439,9.2194C89.3865,254.276,92.0157,286.0091,124.4759,292.037Z" style="fill:#974f26"/><path d="M238.6933,238.4928a13.8933,13.8933,0,0,1,2.0273-3.2875c1.47-1.5129,3.6844-1.9806,5.7667-2.3177,9.3918-1.52,19.2136-1.8279,28.2357,1.1921,4.5536,1.5242,8.91,3.8905,13.6914,4.33.5311.0488,1.2136-1.5422,1.2778-2.0984,1.2023-10.4163,4.2515-20.399,6.5-30.6407a5.6066,5.6066,0,0,1,2.5144-2.3882c3.4349-.4874,6.2474-2.9047,9.4573-4.2212,4.2709-1.7517,10.3478-4.3,14.9737-3.5717,1.9419.3057.6346,5.0326.3584,6.9789-.3179,2.2406-2.1982,6.1952-4.5252,7.4655-3.51,1.9162-9.3026.0985-12.746-1.936,1.4316.872,1.1836,2.9889.7536,4.609l-4.0037,15.0853a19.5781,19.5781,0,0,0-.6968,5.44c.0638,2.9293-.3191,5.5774-.0954,8.4a31.1168,31.1168,0,0,1-1.3444,11.7963,3.5224,3.5224,0,0,1-1.0313,1.8062,3.3357,3.3357,0,0,1-1.88.5382c-6.44.3722-12.59-3.2221-19.0944-2.6033a5.5845,5.5845,0,0,0-3.6929,1.7028c-3.6552,4.0984,1.5469,8.3866-1.1088,13.8392-.4349.893-1.683,1.0631-2.6532,1.2759-18.6162,4.0849-37.8282.0992-56.4075-3.8746-2.1606-.4622-4.6061-1.115-5.1131-3.6571a4.5477,4.5477,0,0,1,1.1576-3.9013c2.6557-2.9236,6.3734-3.7122,9.0806-6.4683a12.2494,12.2494,0,0,1,4.9753-3.16C230.8045,246.9946,235.7642,243.9722,238.6933,238.4928Z" style="fill:url(#linear-gradient-2)"/><g id="head"><path d="M45.1188,297.38a2.0159,2.0159,0,0,0,2.8171-.1206,1.5926,1.5926,0,0,0-.8515-2.4717,13.5749,13.5749,0,0,0,7.06.7932,2.1038,2.1038,0,0,0,1.4106,3.0492c1.3232.1314,2.3664-1.7675,1.4251-2.7067a8.2165,8.2165,0,0,0,6.8427.0072,1.8587,1.8587,0,1,0,3.55-.5833,11.4608,11.4608,0,0,0,6.9555.334c-.9112,1.0058.3616,2.8189,1.703,2.6131a2.7192,2.7192,0,0,0,1.956-3.1064,33.6281,33.6281,0,0,0,5.9848-.5782,5.9071,5.9071,0,0,0,2.1884,2.27,1.4243,1.4243,0,0,0,.7626.25,1.1189,1.1189,0,0,0,.873-1.3589,3.2422,3.2422,0,0,0-.9667-1.5249,14.8075,14.8075,0,0,0,5.8729-.1259,2.5368,2.5368,0,0,0,2.2955,3.2308,4.4933,4.4933,0,0,0,.9985-3.4911,33.6035,33.6035,0,0,0,6.14-1.5766,5.6759,5.6759,0,0,0,.998,2.8122,1.9551,1.9551,0,0,0,2.67.4309c.7886-.7181.5316-1.9947.2121-3.0122a15.1025,15.1025,0,0,0,3.8283-1.2944,4.5345,4.5345,0,0,0,1.496,1.677,1.5582,1.5582,0,0,0,2.0328-.3369c.2663-.4231,2.3876-.39,2.508-.8747.3986-1.6053,12.7682-6.6737,12.9708-8.3153.1291-1.0466-13.061,1.6368-14.0041,1.1651a7.1064,7.1064,0,0,0-3.0882-.5447c-9.4155-.1524-18.7182,2.0643-28.1291,2.3958-7.0366.2479-14.0679-.56-21.1088-.6091a131.5385,131.5385,0,0,0-18.9378,1.3978,10.0957,10.0957,0,0,0-4.0572,1.0794c-.8657.5343-1.1681,1.2687-2.1893.7622-1.0431-.5173-2.091-2.5855-2.7684-3.5174-1.0127-1.3931-1.94-2.8233-3.0257-4.1594l-1.445-1.7778a1.4841,1.4841,0,0,0-.4355,1.4291,5.7265,5.7265,0,0,0,.5823,1.4521,7.5931,7.5931,0,0,1,.9962,4.1893,1.3027,1.3027,0,0,0,.0409.7063.9569.9569,0,0,0,.8957.4462c.3525-.0006.7021-.0949,1.0538-.0711a3.5514,3.5514,0,0,1,2.092,1.3913c2.6149,2.7187,5.7626,3.8719,9.0891,5.385A3.0471,3.0471,0,0,0,45.1188,297.38Z" style="fill:#211808"/><path d="M67.5126,266.24a220.5022,220.5022,0,0,0-35.6368-24.4834l1.4189-1.7351A131.8043,131.8043,0,0,1,70.77,267.3759,5.5486,5.5486,0,0,1,67.5126,266.24Z" style="fill:#332115"/><path d="M36.8307,291.8714l-4.6981,8.7847a3.5,3.5,0,0,1-.9031,1.22,1.1965,1.1965,0,0,1-1.4191.0795c-.5-.4037-.4091-1.1769-.2713-1.8046l1.826-8.32c.6468-.3208.7749-1.3071,1.2408-1.8587a2.5521,2.5521,0,0,1,2.7215-.7429C36.2712,289.559,37.3023,290.99,36.8307,291.8714Z" style="fill:url(#linear-gradient-3)"/><path d="M20.8275,297.434a.646.646,0,0,1-.5749.0952c-.2891-.15-.1857-.584-.0417-.8764l3.6611-7.4373a7.0608,7.0608,0,0,1,1.3351-2.0628c1.1814-1.1276,2.9823-1.3086,4.34-2.2157a.838.838,0,0,0,.3565-.3832.8224.8224,0,0,0-.1695-.6937,13.1794,13.1794,0,0,0-1.781-1.8564,4.1951,4.1951,0,0,1-1.0019-2.7777c.5056-1.4016,2.5544,2.58,2.8641,2.8625.9972.9084,1.9393,1.8751,2.865,2.8555,1.318,1.396,3.28,2.879,1.8024,4.8258-1.361,1.7929-4.2328,2.7325-6.1549,3.7385Z" style="fill:#974f26"/><path id="neck_head" d="M34.9645,288.844c-.3168.2444-2.0651.1495.0263,1,7.8776,3.2022,36.8862,8.7007,93.4118-6.6077,15.7768,1.4805-25.9185-60.8048-32.2466-51.5568-.8,1.1683-5.34,4.6173-7.5272,5.7339.7622,7.2729-26.2539,29.5827-34.4349,21.9143a11.81,11.81,0,0,1-1.9672-3.105s-1.279-6.2741-11.9579-11.7477c0,0-6.6632-4.539-8.4206-7.6872,0,0,.9346-4.0158-.3891-5.818s-7.5531-4.9951-7.5531-4.9951-3.1259-.4785-4.0381,1.3014c0,0-4.45-2.2807-6.2518-.957-1.267.9306-2.7815,4.5113-3.5693,6.5559a5.1084,5.1084,0,0,0-.115,3.33c.3686,1.2085,10.9021,28.6482,10.9021,28.6482a10.2845,10.2845,0,0,0,3.0365,9.4223C26.0857,276.5652,29.5535,283.396,34.9645,288.844Z" style="fill:#974f26"/><path d="M28.231,285.5c.8065-.59,4.7339-1.988,5.3837-1.7354s-2.5124,3.6165-3.22,4.2975l-7.0531,6.7843a5.478,5.478,0,0,1-1.184.9423c-.4457.2358-.981.31-1.1879.0642-.2605-.31.0969-.9067.4392-1.3911,1.5126-2.14,2.1612-5.0646,3.6737-7.2046" style="fill:url(#linear-gradient-4)"/><g id="bridle"><circle cx="26.2471" cy="237.8496" r="4" style="fill:none;stroke:#ccc;stroke-miterlimit:10"/><circle cx="23.1436" cy="235.1351" r="1.5" style="fill:#ccc"/><path d="M41.9624,287.8883c.424-6.5093-1.8035-12.866-3.9988-19.0086l-9.63-26.9439c-.3968-1.11-1.8822-2.2-1.8924-1.1772-.0223,2.2359.6877,3.0525,1.3035,4.9179l8.09,24.5066c1.7522,5.3076,3.5274,10.7989,3.0316,16.3662-.09,1.0082-.2562.895-.8251,1.7322-.6793,1-2.5207,1.9105-2.7144,3.1036-.1389.8554,2.536,2.1091,3.56,1.8245C40.55,292.7475,41.8388,289.7861,41.9624,287.8883Z" style="fill:#332115"/><path d="M29.6172,280.2588c-1.0825-.1665-3.8245-.4935-4.0117-.5991-.5035-.2841-1.14.048-1.1683-.5294a5.1447,5.1447,0,0,1,.3022-1.6989,1.962,1.962,0,0,1,.4263-.868,1.8508,1.8508,0,0,1,.9555-.4118,15.3741,15.3741,0,0,1,7.259.2578,30.62,30.62,0,0,1,4.8492,1.99,1.321,1.321,0,0,1,.879,1.0162c.9579,2.8421.6685,3.2219-2.0569,2.4434A60.668,60.668,0,0,0,29.6172,280.2588Z" style="fill:#332115"/><path d="M30.0774,279.7044c-1.0463-.1305-5.3618-.5008-5.4961-.62-.3547-.3161-.0641-.91-.0025-1.35a1.1683,1.1683,0,0,1,.2546-.6906,1.5589,1.5589,0,0,1,.8292-.3295,17.351,17.351,0,0,1,6.8723.1862,38.6772,38.6772,0,0,1,4.8978,1.5687,2.215,2.215,0,0,1,.5653.2724,1.7879,1.7879,0,0,1,.4332.5326c1.3808,2.2552,1.172,2.56-1.5227,1.9462A53.8613,53.8613,0,0,0,30.0774,279.7044Z" style="fill:#fff"/><path d="M28.5994,244.2376q-3.3123,1.8479-6.7977,3.36a15.3383,15.3383,0,0,1-7.0487,1.6759c-.6366-.0452-1.466-.4662-1.2505-1.067.1129-.315.4706-.4568.79-.5577,5.1355-1.6234,10.7264-2.2837,15.17-5.327,1.4569-.9978,2.7507-2.23,4.27-3.1306,2.0428-1.2111,4.385.2452,1.8992,1.7214C33.4919,242.1827,30.8321,242.992,28.5994,244.2376Z" style="fill:#332115"/><path d="M53.0134,255.57a9.6285,9.6285,0,0,0,1.2483-4.95c-.1945-1.713-1.6933-3.4022-3.3978-3.1436a3.7609,3.7609,0,0,0-2.2222,1.4666,1.0411,1.0411,0,0,0-.3218.862c.1232.4814.804.5568,1.2571.3529a6.0511,6.0511,0,0,1,1.3254-.6644,1.6146,1.6146,0,0,1,1.6577,1.1191,4.0227,4.0227,0,0,1,.0259,2.1438c-.9232,4.8281-3.7524,9.0312-6.1437,13.326-1.0642,1.9112-7.5662,13.549-5.7117,14.737C45.7374,273.1784,49.22,263.8749,53.0134,255.57Z" style="fill:#332115"/><path d="M32.2293,237.2885a3.8192,3.8192,0,0,0-2.0723-.1076,1.3645,1.3645,0,0,0-.9777,1.61c.31.8543,1.4863.8678,2.3941.8229a19.65,19.65,0,0,1,8.5421,1.8983,89.5039,89.5039,0,0,1,10.45,5.5763c3.0649,1.8137,5.6046,4.29,8.4052,6.49,1.7661,1.3874,4.7276,4.6746,5.6264,5.3491,1.799,1.35,5.3878,9.1585,7.6586,8.318,3.627-1.3424-2.6073-6.1827-3.4529-7.17a71.5475,71.5475,0,0,0-21.76-17.2465A68.772,68.772,0,0,0,32.2293,237.2885Z" style="fill:#332115"/><path d="M112.5755,285.3482c.7809.5715,1.6274,1.4675,1.2717,2.3674a1.8106,1.8106,0,0,1-1.1641.939,7.8179,7.8179,0,0,1-4.0863-.0778q-3.6941-.7695-7.3-1.9c.2712-.65,1.2056-.55,1.8889-.3813a16.4691,16.4691,0,0,0,8.3048-.1132c-1.0234-1.3036-2.7951-1.6991-4.42-2.0258-.6488-.13-1.3011-.2439-1.9519-.3636a136.136,136.136,0,0,1-13.4554-2.9674c-5.2766-1.536-9.9381-5.0841-14.1172-8.5746l-5.3389-4.459c-.48-.4008-2.6274-1.9374-2.8764-2.5109s1.6464-1.4719,2.168-1.8165c.7185-.4747,1.4908,1.3464,2.14,1.9117,3.7006,3.22,7.1179,6.84,11.3368,9.3435a38.3006,38.3006,0,0,0,7.371,3.2359,23.12,23.12,0,0,0,3.82,1.1836c.8954.13,1.7472-.0069,2.6612.176A35.0092,35.0092,0,0,1,112.5755,285.3482Z" style="fill:#332115"/></g><path d="M25.6587,268.3374a.8945.8945,0,0,1-.2217-.6284c.0611-1.31,1.186-2.2841,2.22-3.0907a1.1428,1.1428,0,0,1,.7346-.328,1.1285,1.1285,0,0,1,.5968.3069c.78.6307,3.1989,2.7123,3.0515,4.0317C31.8206,270.5888,26.3644,269.1572,25.6587,268.3374Z" style="fill:#422a1b"/><path d="M25.8779,267.3265c-.066-.1918-.2032-.3464-.1938-.5491.0534-1.1444,1.0363-1.9958,1.94-2.7006a.9982.9982,0,0,1,.6419-.2866.9859.9859,0,0,1,.5215.2681c.6819.5511,3.0489,2.4278,2.6664,3.523C30.922,269.1034,26,267.68,25.8779,267.3265Z" style="fill:#170f09"/><path d="M16.8693,237.5079a4.2324,4.2324,0,0,0,.6036-1.8266c.0494-1.657-1.5039-3.1526-2.9288-4.3921-.66,1.4074-2.9229,4.313-1.9025,6.0474A2.4709,2.4709,0,0,0,16.8693,237.5079Z" style="fill:url(#linear-gradient-5)"/></g><g id="rider-2" data-name="rider"><path d="M195.5933,291.6883q2.0724-7.5717,3.3964-15.3222a6.3394,6.3394,0,0,0-.1331-3.73,6.05,6.05,0,0,0-1.9758-2.12,49.6348,49.6348,0,0,0-19.3951-8.9213c-3.751-.8134-7.5841-1.1875-11.351-1.9234-5.78-1.1293-11.3774-3.105-17.1874-4.0683s-12.0685-.8245-17.2088,2.05a3.6267,3.6267,0,0,0-1.467,1.2591,3.9915,3.9915,0,0,0-.3191,2.15c.321,8.0374,1.2186,16.0394,2.1155,24.0331.3484,3.105.9118,6.5911,3.4644,8.3929,2.6855,1.8956,6.3435,1.0841,9.538.3094,6.7175-1.6291,13.7637-2.7494,20.5143-1.2637a69.0443,69.0443,0,0,1,9.68,3.3c3.59,1.3718,10.7231,5.189,14.5428,4.6532C193.2625,300.0021,194.8337,294.4635,195.5933,291.6883Z" style="fill:#939393"/><path d="M165.4135,217.859a1.6306,1.6306,0,0,0-1.6172-1.9443l-4.1262-.9669a3.0772,3.0772,0,0,0-1.8833-.0394c-1.1373.48-1.26,2.0151-1.2163,3.2489a186.3518,186.3518,0,0,1-3.4345,42.7852c-.4022,2.0289-.8273,4.1946-.0516,6.112.5594,1.3826,2.5716,3.0823,4.1964,2.4445,1.5506-.6086,1.7424-3.1547,2.1193-4.5529q2.0519-7.6114,3.416-15.3848A173.9616,173.9616,0,0,0,165.4135,217.859Z" style="fill:#fff"/><path d="M163.5133,216.3806a2.7879,2.7879,0,0,0-.1767-1.2226,1.08,1.08,0,0,0-.8805-.5091l-2.7259-.4766a1.4483,1.4483,0,0,0-1.247.1791c-.7567.6058-.8491,2.1348-.8289,3.3474a280.5535,280.5535,0,0,1-2.5821,42.625,15.76,15.76,0,0,0-.078,6.0383c.3605,1.3,1.681,2.7444,2.7618,1.9268,1.0313-.78,1.1766-3.3153,1.4363-4.739q1.4136-7.75,2.373-15.58A262.2,262.2,0,0,0,163.5133,216.3806Z" style="fill:#1e1610"/><path d="M96.0059,234.0286a25.5572,25.5572,0,0,0-2.2116-2.6077c-1.0017-.6652-7.416,2.5057-5.2273,4.7878a446.1839,446.1839,0,0,1,38.5409,45.7826,27.5727,27.5727,0,0,0,5.89,6.4476c1.8312,1.3379,5.24,2.7034,6.041,1.6889.7642-.9682-1.54-3.69-2.5685-5.242q-5.5971-8.4486-11.9526-16.9228A417.5608,417.5608,0,0,0,96.0059,234.0286Z" style="fill:#1e1610"/><path d="M94.5873,233.7361a7.677,7.677,0,0,0-1.3131-1.2113,1.9434,1.9434,0,0,0-1.252-.3361,5.1,5.1,0,0,0-2.9062,1.93c-.0871.7764.4339.9525,1.6009,2.1864,13.5538,14.3312,26.3817,29.1479,38.1438,44.0574a38.4011,38.4011,0,0,0,5.655,6.1812c1.5469,1.2517,4.07,2.451,4.2395,1.3907.1618-1.0118-2.114-3.63-3.2364-5.1381q-6.11-8.2073-12.693-16.4016C113.966,255.3708,104.5025,244.4233,94.5873,233.7361Z" style="fill:#fff"/><path d="M185.7662,299.15a7.3761,7.3761,0,0,0,4.5055-4.39,6.0572,6.0572,0,0,0,.5856-3.7169,5.5048,5.5048,0,0,0-1.225-2.2855c-2.93-3.49-7.3254-3.5949-11.4243-4.4391a52.2533,52.2533,0,0,0-15.1633-.7569,3.4921,3.4921,0,0,0-2.21.7446c-1.5492,1.5323,1.0523,2.2625,1.9889,2.7764,1.7623.9671,3.4958,1.9932,5.216,3.033q5.1644,3.1221,10.0746,6.6389c2.14,1.535,4.3817,3.1976,7.005,3.43a1.38,1.38,0,0,0,1.037-.2143C186.43,299.7326,186.1089,299.27,185.7662,299.15Z" style="fill:#211808"/><path id="saddle" d="M186.8438,304.0541c1.7675-2.3857,1.6343-5.6749.9891-8.573a9.4453,9.4453,0,0,0-2.2064-4.7316,10.1586,10.1586,0,0,0-4.2249-2.2177,55.5861,55.5861,0,0,0-15.6746-2.6331c-1.1174-.0254-2.4472-.1336-2.9986-1.1059a2.667,2.667,0,0,1-.2177-1.5984c.3883-3.6988,3.2126-6.6827,4.2392-10.2573a11.8731,11.8731,0,0,0-5.4211-13.0591,13.3066,13.3066,0,0,0-14.331.9929,18.3478,18.3478,0,0,0-4.3755,4.9078c-2.5428,3.9953-3.9823,8.5758-5.3944,13.0963-.9056,2.899-1.8221,5.9067-1.4518,8.9212a10.7962,10.7962,0,0,0,2.5788,5.7592c2.9055,3.3144,7.56,4.5242,11.9627,4.7236s8.8271-.4335,13.2148-.0152a28.1214,28.1214,0,0,1,13.431,5.0123C179.8907,305.3305,183.9243,307.9948,186.8438,304.0541Z" style="fill:#332115"/><path d="M147.65,272.5894c-.27.4338-.8227.92-1.2039.5795a.84.84,0,0,1-.1627-.7482,12.5451,12.5451,0,0,1,1.9727-4.6572c3.9172-6.587,7.4441-13.8229,11.9612-19.998,4.2388-.0728-3.1381,9.4424-4.369,11.3758C153.0292,263.57,150.4263,268.1331,147.65,272.5894Z" style="fill:#332115"/><path d="M176.386,313.1694c1.0354-3.8152-.066-7.96-2.1185-11.339s-4.9818-6.1222-7.9036-8.7851q-7.2075-6.5689-14.6625-12.8593c1.0986.927,7.3818-3.1021,8.4333-3.7157,2.9021-1.6935,5.6869-3.6326,8.49-5.5164a2.3737,2.3737,0,0,0,.8154-.76,2.4105,2.4105,0,0,0-.2393-2.0781c-.6-1.3459-1.2964-2.7949-2.62-3.4434a1.5588,1.5588,0,0,0-.8987-.1879,2.0506,2.0506,0,0,0-.6173.2352c-3.5315,1.8034-6.715,3.68-10.5748,4.4173a33.4466,33.4466,0,0,0-11.1295,4.4976,9.0221,9.0221,0,0,0-3.0144,2.8007c-1.5124,2.51-.7907,5.8175.714,8.3318s2.5742,4.3838,4.2219,6.8068c1.0616,1.5611,1.6742,3.38,2.6737,4.9819,1.2093,1.9374,3.2526,3.9666,4.3393,5.9753a29.9334,29.9334,0,0,1,3.6572,10.7592c.3306,2.9223-.2792,8.7519,2.6046,10.486,3.0076,1.8086,8.1778-.744,10.8206-2.2849C172.5763,319.6259,175.3931,316.828,176.386,313.1694Z" style="fill:#f2f2f0"/><path d="M202.6613,357.8819a4.9309,4.9309,0,0,1-1.546,1.7584c-1.0542.6044-.9866.1163-1.4587-.8473a.5954.5954,0,0,1-.0809-.2611.6063.6063,0,0,1,.2121-.3786c3.0061-3.19,4.8511-7.0457,7.4577-10.535,1.8676-2.5,4.24-4.6051,6.0006-7.1636.3823-.5559.73-1.1359,1.14-1.6719a32.763,32.763,0,0,0,2.3289-2.861,44.1522,44.1522,0,0,0,3.2294-5.36,24.52,24.52,0,0,1,2.9506-5.93.9325.9325,0,0,1,.511-.3907.9468.9468,0,0,1,.5493.1193,15.5179,15.5179,0,0,1,2.3826,1.3345,1.6046,1.6046,0,0,1,.6085.6158c.2548.5688-.1682,1.197-.5728,1.6712C218.1547,337.6149,208.7128,346.6148,202.6613,357.8819Z"/><path id="collar" d="M117.1993,325.0141a3.2159,3.2159,0,0,1-1.637-1.279,10.3,10.3,0,0,1-1.6853-5.6062c-.1047-1.9768.0621-3.9635-.1051-5.936a18.0825,18.0825,0,0,1-.1969-5.028c.5874,1.5916,2.3167,1.8517,3.21,3.0915,1.1117,1.5426.7232,1.7453.33,3.6342C116.8462,315.1807,115.4958,324.538,117.1993,325.0141Z" style="fill:#ffe000"/><path d="M116.0216,324.38a3.081,3.081,0,0,1-1.595,2.4111,3.643,3.643,0,0,1-1.4647.2708c-4.529.08-8.3681-3.1253-11.7422-6.1475a8.422,8.422,0,0,1-1.646-1.79,7.5427,7.5427,0,0,1-.6944-4.6063,8.0521,8.0521,0,0,1,1.06-3.8149c1.2683-1.915,3.723-2.5767,5.961-3.0937a8.6752,8.6752,0,0,1,2.4707-.325c2.2615.14,4.0063,1.964,5.5062,3.6622C113.6456,315.5245,116.6409,320.0474,116.0216,324.38Z" style="fill:#edd29d"/><path d="M112.4516,318.5334a.7355.7355,0,0,1,.7026-.765l1.88-.4078a.7685.7685,0,0,0-.3255-1.1159,2.22,2.22,0,0,0-1.3187-.092l-5.9233.7953c-1.5473.2077-3.2428.4934-4.2486,1.6875a7.1225,7.1225,0,0,1,1.18,1.1539,7.1911,7.1911,0,0,1,6.6062-1.8278.3733.3733,0,0,1,.2528.1428.3789.3789,0,0,1,.0237.2288,25.9539,25.9539,0,0,1-1.4862,6.3049c-.1964.5269-.2195,1.4528.5826,1.4942.8655.0447.8951-1.2233,1.0012-1.7962Q111.9144,321.4348,112.4516,318.5334Z" style="fill:#2d081c"/><path d="M164.9945,326.1509a6.8409,6.8409,0,0,0,2.9067-2.2224c1.44-2.2647.0375-5.2576-1.6759-7.3235s-3.8657-4.1169-4.0257-6.7961a4.4667,4.4667,0,0,0-.2637-1.8664,3.1151,3.1151,0,0,0-1.2823-1.1033c-2.8276-1.6408-6.6139-5.0107-9.4414-6.6515-1.3142-.7627-1.8966-.4051-3.2475.0872a18.2383,18.2383,0,0,1-3.0431.3707c-4.919.8931-10.054.1427-14.9195,1.2922-7.4081,1.75-20.2992,13.7209-14.4644,21.3681,5.4228,7.1073,21.5335,8.5384,31.0251,7.8052A50.5094,50.5094,0,0,0,164.9945,326.1509Z" style="fill:url(#New_Gradient_Swatch_4)"/><path d="M145.0532,305.813s-2.6893-3.3085-4.6579-4.2468a1.8278,1.8278,0,0,0-.7849-.2369,1.7843,1.7843,0,0,0-.882.3394,34.5767,34.5767,0,0,0-5.3563,4.0669c-1.5155-1.1184-2.924-2.247-4.4395-3.3655a33.6292,33.6292,0,0,0-4.6415,8.7475c-1.4272-1.0047-3.1241-1.7961-4.5648-2.7815a18.7723,18.7723,0,0,1,2.5041-2.44,6.5673,6.5673,0,0,0,1.1508-.7458,37.489,37.489,0,0,1,3.4017-2.0287,19.3112,19.3112,0,0,1,9.3951-2.1789,46.6523,46.6523,0,0,0,8.9155-.5129c.9486-.173,3.1993-.4717,3.0713.0983a8.339,8.339,0,0,1-.3707,1A50.059,50.059,0,0,1,145.0532,305.813Z" style="fill:#26251e"/><path d="M155.0951,308.1706a.2639.2639,0,0,0-.018-.027c-.5051-.6613-8.2831-1.9241-10.0239-2.3306-1.5469,1.7906-3.3142,6.2328-3.3142,6.2328-.1335.0417-6.3494-4.3873-8.6618-6.1686a31.6485,31.6485,0,0,1-3.4179,9.8063l-4.8279-4.1612a1.0941,1.0941,0,0,0-1.8914.1914c-1.6422,1.92-5.2389,6.1051-6.1864,5.9028a80.8966,80.8966,0,0,0,8.9979,6.5208l4.5254-8.8593c3.6263,1.4715,6.948,4.0666,10.5877,5.5048-.16-2.75,1.3-6.4488.8744-8.737,4.4027,2.35,7.3836,2.5684,11.9225,4.5293-.5914-.0715,1.231-6.87,1.4857-7.9337.3028-1.2653.5631-3.2658,1.29-4.3985a60.0714,60.0714,0,0,1,5.1419,3.1163c.7071.3757.4953.4466.7127,1.2171a3.5026,3.5026,0,0,1,.0566,1.017,7.1926,7.1926,0,0,0,.3944,2.4806,4.4522,4.4522,0,0,1-2.2064-1.2979" style="fill:#26251e"/><path d="M153.6615,316.5751c-1.4575,3.0415-1.7628,5.3821-3.7192,8.1294-2.8588-1.3289-8.9327-3.9581-9.0777-3.9217a38.9416,38.9416,0,0,0-7.0156,5.8526.8567.8567,0,0,1-.5315.2469,1.3374,1.3374,0,0,1-.7577-.197c-2.1242-1.05-4.7768-3.0126-7.1344-3.2507-1.0928,1.591-3.2016,2.8577-4.8056,3.9313a50.05,50.05,0,0,0,11.2856,3.3494q.8454-1.9912,1.6907-3.9826l10.5274,4.4849a59.5937,59.5937,0,0,1,5.9537-6.4508c-.1349-.0623,2.3048,2.4418,4.4039,1.8986,2.3883-.6181,5.6216.39,7.9827.6062a.8693.8693,0,0,0,.5581-.1407,1.0077,1.0077,0,0,0,.3183-.4335,11.0976,11.0976,0,0,0,.6286-2.2338c.355-1.5737,2.4252-7.1523,2.4252-7.1523s-5.1958-.3281-6.84-.4694C157.8521,316.6958,155.363,316.7212,153.6615,316.5751Z" style="fill:#26251e"/><path d="M136.7175,331.1821c-1.2863-3.367-.031-7.7343-2.5463-10.3157a108.8776,108.8776,0,0,0,18.2209-2.8792,19.3229,19.3229,0,0,0,.6868,6.1617c.4225,1.2472,2.6544,4.1662,2.0687,5.4432-.5946,1.2963-4.5336,1.717-5.7865,1.9463a30.5906,30.5906,0,0,1-6.431.4858C142.1511,332.0005,137.0072,331.94,136.7175,331.1821Z" style="fill:#f7f7f5"/><path d="M171.3438,326.4213a7.3834,7.3834,0,0,0,2.4306-.8719,2.4769,2.4769,0,0,1,2.4724.0338,4.0113,4.0113,0,0,0,.7193.6085c.4344.2018.9574.0064,1.42.1317a1.6207,1.6207,0,0,1,1.01,1.213c.1436.5321.1509,1.0949.3092,1.6228.1309.4369.3626.8405.47,1.2837a1.9046,1.9046,0,0,1-1.1269,2.2646,2.9886,2.9886,0,0,1-1.0554.0519,18.1068,18.1068,0,0,1-4.2042-.628,24.04,24.04,0,0,0-3.8211-1.2823c-1.1947-.1646-2.62.0112-3.3978-.9105a3.1749,3.1749,0,0,1-.5752-1.675c-.1239-.9466-.2708-3.3564,1.2006-3.3158a5.8577,5.8577,0,0,1,1.7835.775A5.224,5.224,0,0,0,171.3438,326.4213Z" style="fill:#f4e39b"/><path id="overarm" d="M122.8784,308.2678c1.3137-1.9567,3.98-2.6448,6.2981-2.2194a15.6291,15.6291,0,0,1,6.2541,3.1606,69.6738,69.6738,0,0,1,9.4537,8.4133c2.2038,2.3536,4.3818,5.4918,3.3748,8.5548a3.564,3.564,0,0,1-1.6986,2.1138,5.2781,5.2781,0,0,1-3.916-.1535C137.2717,326.4069,117.0236,316.9888,122.8784,308.2678Z" style="fill:#ffe000"/><path id="underarm" d="M166.0052,324.673,148.78,322.314c-2.0423-.28-4.5137-.3908-5.7346,1.27-1.0646,1.4483-.4972,3.6446.8449,4.84a7.9152,7.9152,0,0,0,5.02,1.6488c1.7961.0708,3.6063-.1222,5.3863.1278,1.1372.16,2.241.4976,3.3643.7366,2.8067.5971,10.231,1.6963,12.4272-.7734C172.783,327.1341,168.6347,325.0331,166.0052,324.673Z" style="fill:#ffe000"/><path d="M112.4122,324.991a28.5051,28.5051,0,0,0-4.0029-3.8069,25.5952,25.5952,0,0,1-3.7083-4.2137c-1.0187-1.4407-1.9012-2.9721-2.7821-4.501l-5.0732-8.8049c-.9422,1.5634.1935,3.6348-.331,5.3831a6.759,6.759,0,0,1-1.5711,2.3266c-2.8083,3.2485-4.673,7.5413-4.1394,11.8021a12.8365,12.8365,0,0,0,7.0983,9.68,14.8544,14.8544,0,0,0,12.1332.1777C113.6121,331.5189,114.8731,328.2907,112.4122,324.991Z" style="fill:#26251e"/><path d="M111.4639,324.7885a28.4939,28.4939,0,0,0-4.0029-3.8069,25.594,25.594,0,0,1-3.7082-4.2137c-1.0188-1.4407-1.9013-2.9722-2.7822-4.501l-5.0732-8.8049c-.9422,1.5633.1935,3.6347-.331,5.383a6.757,6.757,0,0,1-1.5711,2.3267c-2.8083,3.2485-4.6729,7.5413-4.1393,11.8021a12.8366,12.8366,0,0,0,7.0982,9.68,14.854,14.854,0,0,0,12.1332.1776C112.6639,331.3164,113.9249,328.0882,111.4639,324.7885Z" style="fill:url(#New_Gradient_Swatch_4-2)"/><path d="M103.6693,328.8508l2.5012-12.2407a.9843.9843,0,0,1,.1581-.4239,1.3944,1.3944,0,0,1,.4734-.3043c1.0807-.578,1.1982-2.0784.9994-3.2877a6.56,6.56,0,0,0-1.3168-3.2153,3.3681,3.3681,0,0,0-3.1142-1.2417,3.238,3.238,0,0,0-2.3331,4.14,7.8248,7.8248,0,0,0,3.974,4.1563q-1.2141,6.2541-2.7012,12.4511a6.1113,6.1113,0,0,1-.3487,1.1249,8.8131,8.8131,0,0,1-.7979,1.2564,10.3131,10.3131,0,0,0-1.2219,2.4325c-.0525.1517,1.23.5315,1.3816.4533.3489-.18.8011-1.26,1.0153-1.5676A9.8371,9.8371,0,0,0,103.6693,328.8508Z" style="fill:#260a18"/><ellipse cx="104.4776" cy="312.0013" rx="2.4241" ry="3.7016" transform="translate(-107.7684 60.5814) rotate(-21.6569)" style="fill:#fff"/><path d="M188.3742,253.4292a6.1231,6.1231,0,0,0,1.335-2.7576c.317-2.6727-2.5766-4.4776-5.036-5.5708a1.63,1.63,0,0,1-2.1664.1116,6.5026,6.5026,0,0,1-1.4908-1.8577,11.7443,11.7443,0,0,0-10.1393-5.1182c-1.1686.5466-1.3629,2.2318-.7634,3.3741a8.8209,8.8209,0,0,0,2.7576,2.6654,26.5759,26.5759,0,0,1,4.7911,4.6657,2.1186,2.1186,0,0,1,.5386,1.0442c.0729.6921-.4974,1.2658-1.02,1.7253l-15.4556,13.586a9.6927,9.6927,0,0,0-3.0922,3.8476c-.8485,2.4745.9115,6.0811,3.7421,5.929,2.9545-.1588,6.91-3.6015,9.2421-5.2273A70.6712,70.6712,0,0,0,188.3742,253.4292Z" style="fill:#26251e"/><path d="M162.5631,245.7615a3.4587,3.4587,0,0,1-1.6414.98c-.6519.21-2.087-1.3074-2.2524-1.8156s-.7859-1.2823-1.2319-.9879c-.2861.5049.0817,1.4217.4067,1.9025a8.9621,8.9621,0,0,0,2.1026,2.4234,3.0434,3.0434,0,0,0,3.0425.4116,4.4308,4.4308,0,0,0,1.8311-2.74q1.4581-4.317,2.4979-8.7605a.9155.9155,0,0,0,.0131-.549c-.13-.3178-.5442-.3833-.8873-.3909a17.1613,17.1613,0,0,0-5.4236.7565c-.1664.0513-1.0389.1645-1.12.3186-.13.248.5564,1.0023.7649,1.19,1.2082,1.0846,4.4435-.1232,5.0711.816C166.6051,240.6148,163.3639,244.8627,162.5631,245.7615Z" style="fill:#515151"/></g><path d="M281.5949,237.3188c4.6026-2.6031,10.2791-.9137,14.874-3.53,6.005-3.42,5.8348-11.88,6.152-18.783a56.7032,56.7032,0,0,1,3.4354-16.9826c1.7008-4.6126,4.0463-9.2545,3.63-14.153-.1057-1.2448-.2585-2.7905.8008-3.4526,1.1247-.7027,2.4978.2562,3.7123.7889,2.7465,1.2044,6.123.011,8.1078-2.2373a13.9155,13.9155,0,0,0,2.9961-8.3127c.2271-3.2041-.33-6.7981-2.8272-8.8189-2.6206-2.121-6.6107-1.7386-9.4833.0262s-4.8675,4.6289-6.71,7.4523a215.7258,215.7258,0,0,0-18.9955,36.21,40.4337,40.4337,0,0,1-9.2259,14.2934c-2.3326,2.232-5.7967,3.3327-8.7387,4.647-2.95,1.318-6.2421,3.2727-9.3947,3.9921-1.2649.2886-12.2306,2.5377-17.0909,4.08-5.4012,1.7136-11.6143,6.4123-14.0613,11.5232-2.4081,5.03-4.16,10.6847-3.0393,16.1476a25.34,25.34,0,0,0,5.3031,10.2772c5.0773,6.4744,11.98,11.9922,20.101,13.3158C286.2816,289.53,261.7079,248.5663,281.5949,237.3188Z" style="fill:url(#linear-gradient-6)"/><path d="M126.2953,207.5632c-7.7881-3.4811-16.3181-4.9731-24.2779-8.0414A65.5715,65.5715,0,0,1,71.44,175.1455c-2.9918-4.443-6.0643-9.7219-11.32-10.7573a10.8068,10.8068,0,0,1-3.1324-.746c-1.9834-1.072-2.3668-3.7427-2.2147-5.9922s.5591-4.69-.6158-6.6146c-1.6014-2.623-5.2231-2.9266-8.2963-2.9385l-13.3545-.0516c-1.21-.0047-1.7022.3289-2.5964,1.4244a1.498,1.498,0,0,0,.0057,1.5085A41.3974,41.3974,0,0,0,37.1884,161.8c3.478,3.6392,7.7924,6.3295,11.8576,9.2984a64.6609,64.6609,0,0,1,6.3955,5.4681A136.7392,136.7392,0,0,1,71.006,194.1842c4.3106,5.82,8.308,12.1345,14.3,16.2025,3.642,2.4724,7.5431,5.976,10.9532,8.76,5.4778,4.4714,10.8557,10.7095,16.534,14.4092s13.3313,1.0455,19.9977-.1746c6.2917-1.1515,12.79-5.4757,9.1249-12.0831A32.687,32.687,0,0,0,126.2953,207.5632Z" style="fill:url(#linear-gradient-7)"/><rect x="223.7081" y="348.9263" width="146.5837" height="26.5737" rx="5.6223" style="fill:#b3b3b3"/><path d="M354.4335,348.5V295.6614c-.15-102.9114-115.016-102.8523-114.8668,0V348.5Z" style="fill:#b3b3b3"/><path d="M282.4346,305.1079h-2.71c-7.2266-.3008-9.1543-1.686-11.2021-4.8779-2.1075-3.2525-3.9746-6.625-5.9024-10.3594-1.3242-2.5293-2.2275-3.2519-4.2754-3.2519h-.9033v10.6c0,5.059.3613,5.541,4.8174,6.5044v.9638H245.2754v-.9638c4.457-.9634,4.8183-1.3248,4.8183-6.5044v-24.271c0-5.0591-.3613-5.7217-4.8183-6.4444V265.54h16.2012c4.9384,0,7.9492.5419,10.4189,2.2885a8.2883,8.2883,0,0,1,3.6133,7.1065c0,6.083-4.6377,8.7929-7.6484,10.0581.9033,1.626,4.0957,7.1665,5.7812,9.8769a49.4784,49.4784,0,0,0,4.3965,6.4444,8.25,8.25,0,0,0,4.5771,2.9511Zm-23.7891-19.8745c2.8906,0,4.999-.2407,6.4443-1.626,1.6866-1.5659,2.4092-3.6738,2.4092-7.167,0-6.9863-3.4931-9.5161-6.9258-9.5161a4.4579,4.4579,0,0,0-2.47.4219c-.4219.3013-.6621.7226-.6621,1.9272v15.96Z" style="fill:#333"/><path d="M284.02,305.2505a3.152,3.152,0,0,1,0-6.2974,3.15,3.15,0,0,1,0,6.2974Z" style="fill:#333"/><path d="M290.291,304.6865v-.9638c4.5176-.7828,4.8184-1.2041,4.8184-6.8052v-23.669c0-5.601-.4219-6.083-4.8184-6.7456V265.54h17.1651v.9633c-4.3965.7832-4.879,1.084-4.879,6.7456v23.6084c0,5.7818.3624,6.083,4.879,6.8658v.9638Z" style="fill:#333"/><path d="M313.6787,305.2505a3.152,3.152,0,0,1,0-6.2974,3.15,3.15,0,0,1,0,6.2974Z" style="fill:#333"/><path d="M335.91,265.54c4.7578,0,8.01.9033,10.2382,2.4086a9.5841,9.5841,0,0,1,4.337,8.4317c0,8.6128-7.5284,12.2261-13.5518,12.2261a8.4913,8.4913,0,0,1-1.084-.12l-3.6133-.7832v9.5762c0,5.36.6026,5.7817,5.3,6.4439v.9638H319.95v-.9638c4.457-.7227,4.8184-1.084,4.8184-6.4439V273.0073c0-5.42-.542-5.7817-4.8184-6.5044V265.54Zm-3.6739,20.8984a11.4161,11.4161,0,0,0,3.1924.3013c1.8067,0,7.0459-.9039,7.0459-10.2989,0-7.167-3.0713-9.5161-7.2871-9.5161a5.0491,5.0491,0,0,0-2.3486.4219c-.542.3613-.6026.9634-.6026,1.9272Z" style="fill:#333"/><path d="M284.4346,305.1079h-2.71c-7.2266-.3008-9.1543-1.686-11.2021-4.8779-2.1075-3.2525-3.9746-6.625-5.9024-10.3594-1.3242-2.5293-2.2275-3.2519-4.2754-3.2519h-.9033v10.6c0,5.059.3613,5.541,4.8174,6.5044v.9638H247.2754v-.9638c4.457-.9634,4.8183-1.3248,4.8183-6.5044v-24.271c0-5.0591-.3613-5.7217-4.8183-6.4444V265.54h16.2012c4.9384,0,7.9492.5419,10.4189,2.2885a8.2883,8.2883,0,0,1,3.6133,7.1065c0,6.083-4.6377,8.7929-7.6484,10.0581.9033,1.626,4.0957,7.1665,5.7812,9.8769a49.4784,49.4784,0,0,0,4.3965,6.4444,8.25,8.25,0,0,0,4.5771,2.9511Zm-23.7891-19.8745c2.8906,0,4.999-.2407,6.4443-1.626,1.6866-1.5659,2.4092-3.6738,2.4092-7.167,0-6.9863-3.4931-9.5161-6.9258-9.5161a4.4579,4.4579,0,0,0-2.47.4219c-.4219.3013-.6621.7226-.6621,1.9272v15.96Z" style="fill:#4d4d4d"/><path d="M286.02,305.2505a3.152,3.152,0,0,1,0-6.2974,3.15,3.15,0,0,1,0,6.2974Z" style="fill:#4d4d4d"/><path d="M292.291,304.6865v-.9638c4.5176-.7828,4.8184-1.2041,4.8184-6.8052v-23.669c0-5.601-.4219-6.083-4.8184-6.7456V265.54h17.1651v.9633c-4.3965.7832-4.879,1.084-4.879,6.7456v23.6084c0,5.7818.3624,6.083,4.879,6.8658v.9638Z" style="fill:#4d4d4d"/><path d="M315.6787,305.2505a3.152,3.152,0,0,1,0-6.2974,3.15,3.15,0,0,1,0,6.2974Z" style="fill:#4d4d4d"/><path d="M337.91,265.54c4.7578,0,8.01.9033,10.2382,2.4086a9.5841,9.5841,0,0,1,4.337,8.4317c0,8.6128-7.5284,12.2261-13.5518,12.2261a8.4913,8.4913,0,0,1-1.084-.12l-3.6133-.7832v9.5762c0,5.36.6026,5.7817,5.3,6.4439v.9638H321.95v-.9638c4.457-.7227,4.8184-1.084,4.8184-6.4439V273.0073c0-5.42-.542-5.7817-4.8184-6.5044V265.54Zm-3.6739,20.8984a11.4161,11.4161,0,0,0,3.1924.3013c1.8067,0,7.0459-.9039,7.0459-10.2989,0-7.167-3.0713-9.5161-7.2871-9.5161a5.0491,5.0491,0,0,0-2.3486.4219c-.542.3613-.6026.9634-.6026,1.9272Z" style="fill:#4d4d4d"/><path d="M294.438,340.2842V320.5474h-3.2251v-4.085h3.2251v-7.9976H298.91v7.9976h3.9131v4.085H298.91v19.7368Z" style="fill:#333"/></g></svg>