<svg xmlns="http://www.w3.org/2000/svg" xmlns:xlink="http://www.w3.org/1999/xlink" viewBox="0 0 250 250"><defs><linearGradient id="linear-gradient" x1="72.5453" y1="161.3533" x2="116.9689" y2="205.7769" gradientTransform="matrix(1.0622, -0.0157, -0.0157, 1.004, -5.5713, 1.4107)" gradientUnits="userSpaceOnUse"><stop offset="0.4788" stop-color="#00a4b4"/><stop offset="0.8239" stop-color="#0089a8"/></linearGradient></defs><title>fence2</title><g id="fence2"><rect x="97.5491" y="153.3391" width="124" height="15" style="fill:#c69c6d;stroke:#a67c52;stroke-miterlimit:10"/><polygon points="97.549 153.339 97.549 167.339 36.519 206.913 29.099 191.126 97.549 153.339" style="fill:#c69c6d;stroke:#a67c52;stroke-miterlimit:10"/><polygon points="135.612 187.075 45.613 209.863 40.399 189.27 97.049 158.839 139.049 158.839 135.612 187.075" style="fill:url(#linear-gradient)"/><rect x="195.2911" y="153.3391" width="17.4435" height="22.7194" style="fill:#c69c6d;stroke:#a67c52;stroke-miterlimit:10"/><path d="M152.4567,138.4745c-.4823-5.5252-2.0116-10.9473-3.22-16.3977-3.9888-17.9952-4.4865-36.37-4.9736-54.6537-.0941-3.5343-.1764-7.1416,1.1056-10.5176,2.1549-5.675,8.0491-10.4254,8.1531-16.3671a71.8342,71.8342,0,0,1,20.4037,18.155,22.4318,22.4318,0,0,1,2.21-14.8192C181.8033,46.312,180.4115,56.53,186.7,55.5421c1.9163-.3011,3.1747-1.7647,4.2265-3.1089l9.41-12.0259,1.7793,13.021c.4786-5.2966,4.1364-10.3391,9.5905-13.2214l.6991,71.858.35,35.929.1708,17.5652c.0284,2.917.1986,5.8666.0854,8.7814-.1377,3.545-.4874,3.5222-3.82,5.3689a22.3023,22.3023,0,0,0-3.0833,1.9343c-2.8933,2.2933-4.9622,4.5966-8.0665,6.4831-3.5557,2.1609-6.6131,5.1731-10.27,7.3107-3.3807-2.6192-4.0508-7.4039-6.3691-10.9977-5.0977-7.9023-16.0771-4.0734-23.7771-8.5836C144.2908,168.0462,153.4479,149.8314,152.4567,138.4745Z" style="fill:#40300a"/><path d="M132.9491,149.01c-.4226-6.1216-1.7629-12.1289-2.8216-18.1676-3.4956-19.9373-3.9318-40.2948-4.3586-60.5523-.0825-3.9158-.1547-7.9123.9688-11.6528,1.8886-6.2874,7.054-11.55,7.1451-18.1335a70.8217,70.8217,0,0,1,17.8809,20.1144A30.7151,30.7151,0,0,1,153.7008,44.2c4.9664,2.701,3.7467,14.0217,9.2575,12.9272,1.6793-.3336,2.7821-1.9551,3.7038-3.4444l8.2464-13.3239,1.5593,14.4264a19.5508,19.5508,0,0,1,8.4048-14.6483l1.1765,152.8973c-12.4462.0614-37.7407,5.4122-48.5711-2.6077C125.7928,181.7734,133.8177,161.5927,132.9491,149.01Z" style="fill:#40300a"/><path d="M126.3819,155.9178c-.5147-6.2811-2.1468-12.4449-3.4362-18.641-4.2571-20.4569-4.7883-41.345-5.3081-62.1305-.1005-4.0178-.1884-8.1185,1.18-11.9564,2.3-6.4513,8.5906-11.8516,8.7015-18.6061a78.5131,78.5131,0,0,1,21.776,20.6386,26.9706,26.9706,0,0,1,2.3591-16.8466c6.0483,2.7714,4.5629,14.3872,11.2741,13.2642,2.0452-.3423,3.3882-2.0061,4.5107-3.5342l10.0427-13.6711,1.899,14.8023c.5109-6.0212,4.4146-11.7535,10.2356-15.03l1.4329,156.8823c-15.1575.063-45.9621,5.5532-59.1517-2.6757C117.6668,189.535,127.44,168.8284,126.3819,155.9178Z" style="fill:#493c1f"/><polygon points="191.549 189.522 221.549 154.2 221.549 168.671 191.549 208.349 191.549 189.522" style="fill:#c69c6d"/><path d="M221.0492,155.5613v12.9423l-29,38.3548V189.7065l29-34.1452m1-2.7222-31,36.5v20.5l31-41v-16Z" style="fill:#a67c52"/><rect x="27.9509" y="189.5697" width="162.5983" height="19.7693" style="fill:#c69c6d;stroke:#a67c52;stroke-miterlimit:10"/></g></svg>