<svg xmlns="http://www.w3.org/2000/svg" viewBox="0 0 250 250"><title>fence1</title><g id="fence1"><rect x="199.9483" y="136.7818" width="17.4435" height="39.5387" style="fill:#c69c6d;stroke:#a67c52;stroke-miterlimit:10"/><path d="M148.1139,140.7366c-.4822-5.5252-2.0115-10.9473-3.22-16.3978-3.9887-17.9951-4.4865-36.3695-4.9735-54.6536-.0942-3.5344-.1765-7.1416,1.1055-10.5177,2.155-5.6749,8.0492-10.4253,8.1531-16.367a71.8342,71.8342,0,0,1,20.4037,18.155,22.4327,22.4327,0,0,1,2.21-14.8193c5.6672,2.4379,4.2754,12.6558,10.5636,11.6679,1.9163-.301,3.1746-1.7646,4.2264-3.1088l9.41-12.026L197.7725,55.69c.4787-5.2967,4.1364-10.3391,9.5906-13.2214l.6991,71.858.35,35.9289.1709,17.5653c.0284,2.917.1986,5.8666.0854,8.7813-.1377,3.5451-.4875,3.5223-3.82,5.369a22.2809,22.2809,0,0,0-3.0833,1.9343c-2.8934,2.2933-4.9622,4.5965-8.0665,6.4831-3.5557,2.1609-6.6131,5.1731-10.27,7.3106-3.3808-2.6191-4.0509-7.4039-6.3692-10.9976-5.0976-7.9023-16.077-4.0734-23.7771-8.5836C139.948,170.3083,149.1051,152.0935,148.1139,140.7366Z" style="fill:#40300a"/><path d="M137.6063,149.2722c-.4226-6.1215-1.7628-12.1288-2.8216-18.1675-3.4955-19.9373-3.9318-40.2949-4.3586-60.5523-.0825-3.9158-.1546-7.9123.9689-11.6528,1.8885-6.2874,7.0539-11.55,7.145-18.1335a70.8187,70.8187,0,0,1,17.8809,20.1144,30.7142,30.7142,0,0,1,1.9372-16.4186c4.9664,2.7009,3.7467,14.0217,9.2574,12.9272,1.6794-.3336,2.7821-1.9551,3.7039-3.4445l8.2463-13.3238,1.5593,14.4263A19.5514,19.5514,0,0,1,189.53,40.3988l1.1766,152.8974c-12.4463.0614-37.7408,5.4122-48.5711-2.6078C130.45,182.0355,138.475,161.8548,137.6063,149.2722Z" style="fill:#40300a"/><path d="M83.5939,86.4785c.6863-1.9236,2.3985-4.2254,3.7867-2.9476q.03,7.028.059,14.0558A35.4615,35.4615,0,0,1,98.6572,81.6074l.2391,10.9a47.7089,47.7089,0,0,1,9.34-12.0042l.412,14.1818a67.2136,67.2136,0,0,0,13.3219-16.94l.8945,6.4721,9.67-11.0244-4.1672,10.2232a41.7132,41.7132,0,0,1,8.0312-17.13A132.7766,132.7766,0,0,1,138.6027,91.67c-.0585,6.252-.5438,12.6382.8965,18.6505,1.1815,4.9323,3.5929,9.308,5.191,14.0708,2.5993,7.7472,2.9736,16.2594,3.3164,24.5928l1.4635,35.5791c.0754,1.8335.0658,3.9276-1.0735,5.1631a4.7225,4.7225,0,0,1-3.3578,1.166l-43.5262,2.9856c-12.694.8707-61.1059,7.6006-51.5714-19.9814C60.0552,144.6382,73.1071,115.8722,83.5939,86.4785Z" style="fill:#434d28"/><path d="M129.8877,156.18c-.4473-6.2811-1.8658-12.4449-2.9864-18.641-3.7-20.4569-4.1613-41.3451-4.6131-62.1305-.0873-4.0178-.1637-8.1185,1.0255-11.9565,1.9987-6.4512,7.4658-11.8515,7.5622-18.6061a73.4566,73.4566,0,0,1,18.9249,20.6387,30.6293,30.6293,0,0,1,2.05-16.8466c5.2565,2.7714,3.9655,14.3872,9.798,13.2641,1.7774-.3422,2.9446-2.006,3.92-3.5341l8.7278-13.6712,1.65,14.8024a19.9437,19.9437,0,0,1,8.8955-15.03l1.2453,156.8822c-13.1729.0631-39.9443,5.5533-51.4071-2.6757C122.3136,189.7971,130.807,169.09,129.8877,156.18Z" style="fill:#493c1f"/><path d="M70.5939,95.4785c.6863-1.9236,2.3985-4.2254,3.7867-2.9476q.03,7.028.059,14.0558A35.4615,35.4615,0,0,1,85.6572,90.6074l.2391,10.9a47.7089,47.7089,0,0,1,9.34-12.0042l.412,14.1818a67.2136,67.2136,0,0,0,13.3219-16.94l.8945,6.4721,9.67-11.0244-4.1672,10.2232a41.7132,41.7132,0,0,1,8.0312-17.13,132.7766,132.7766,0,0,1,2.2039,25.3843c-.0585,6.252-.5438,12.6382.8965,18.6505,1.1815,4.9323,3.5929,9.308,5.191,14.0708,2.5993,7.7472,2.9736,16.2594,3.3164,24.5928l1.4635,35.5791c.0754,1.8335.0658,3.9276-1.0735,5.1631a4.7225,4.7225,0,0,1-3.3578,1.166l-43.5262,2.9856c-12.694.8707-61.1059,7.6006-51.5714-19.9814C47.0552,153.6382,60.1071,124.8722,70.5939,95.4785Z" style="fill:#4d582e"/><rect x="172.824" y="153.6244" width="17.4435" height="39.5387" transform="translate(2.0785 -2.1504) rotate(0.6826)" style="fill:#c69c6d;stroke:#a67c52;stroke-miterlimit:10"/><rect x="36.7644" y="152.4615" width="17.4435" height="39.5387" transform="translate(2.055 -0.5296) rotate(0.6826)" style="fill:#c69c6d;stroke:#a67c52;stroke-miterlimit:10"/><rect x="108.871" y="100.2883" width="9.3032" height="134.8967" transform="translate(281.2593 54.2141) rotate(90)" style="fill:#c69c6d;stroke:#a67c52;stroke-miterlimit:10"/><rect x="32.6081" y="189.8318" width="159.5983" height="19.7693" style="fill:#c69c6d;stroke:#a67c52;stroke-miterlimit:10"/></g></svg>