<svg xmlns="http://www.w3.org/2000/svg" xmlns:xlink="http://www.w3.org/1999/xlink" viewBox="0 0 733 379"><defs><linearGradient id="linear-gradient" x1="335.9161" y1="206.7963" x2="441.8319" y2="206.7963" gradientTransform="matrix(-0.9705, -0.241, -0.241, 0.9705, 980.2493, 121.3288)" gradientUnits="userSpaceOnUse"><stop offset="0.3354"/><stop offset="1" stop-color="#974f26"/></linearGradient><linearGradient id="linear-gradient-2" x1="536.0092" y1="193.618" x2="588.1069" y2="193.618" gradientTransform="matrix(-0.9705, -0.241, -0.241, 0.9705, 980.2493, 121.3288)" gradientUnits="userSpaceOnUse"><stop offset="0" stop-color="#974f26"/><stop offset="0.6646"/></linearGradient><linearGradient id="linear-gradient-3" x1="327.7269" y1="248.8513" x2="421.1105" y2="155.4677" gradientTransform="matrix(-0.9705, -0.241, -0.241, 0.9705, 980.2493, 121.3288)" gradientUnits="userSpaceOnUse"><stop offset="0.1761"/><stop offset="0.5212" stop-color="#974f26"/></linearGradient><linearGradient id="linear-gradient-4" x1="-624.0569" y1="-893.0645" x2="-617.0671" y2="-893.0645" gradientTransform="matrix(-0.8693, 0.4943, 0.4943, 0.8693, 263.1527, 1166.5664)" gradientUnits="userSpaceOnUse"><stop offset="0" stop-color="#974f26"/><stop offset="0.7774" stop-color="#542c15"/></linearGradient><linearGradient id="linear-gradient-5" x1="-754.1664" y1="-1096.5081" x2="-745.692" y2="-1096.5081" gradientTransform="matrix(-0.4635, 0.4253, 0.6761, 0.7368, 748.2205, 1215.1307)" xlink:href="#linear-gradient-4"/><linearGradient id="linear-gradient-6" x1="-59.0317" y1="-475.321" x2="-54.0317" y2="-475.321" gradientTransform="matrix(-0.9672, 0.2538, 0.2538, 0.9672, 397.3438, 612.4889)" gradientUnits="userSpaceOnUse"><stop offset="0.2226"/><stop offset="1" stop-color="#974f26"/></linearGradient><linearGradient id="New_Gradient_Swatch_4" x1="406.6069" y1="88.1495" x2="460.7188" y2="88.1495" gradientTransform="matrix(-0.9696, -0.2447, -0.2447, 0.9696, 923.596, 123.4675)" gradientUnits="userSpaceOnUse"><stop offset="0" stop-color="#c7af00"/><stop offset="1" stop-color="#ffe000"/></linearGradient><linearGradient id="New_Gradient_Swatch_4-2" x1="459.8035" y1="75.8589" x2="484.0438" y2="75.8589" xlink:href="#New_Gradient_Swatch_4"/><linearGradient id="linear-gradient-7" x1="482.8674" y1="69.0965" x2="529.4212" y2="115.6503" gradientTransform="matrix(-0.9896, -0.1437, -0.1437, 0.9896, 919.6966, 158.3523)" gradientUnits="userSpaceOnUse"><stop offset="0.4788" stop-color="#974f26"/><stop offset="0.8239"/></linearGradient></defs><title>front_page</title><g id="start_page"><path d="M412.5717,298.082c1.0861-5.7468,4.5235-11.385,7.24-17.0531,8.9678-18.7137,10.096-37.8262,11.2-56.8448.2134-3.6763.4-7.4284-2.4769-10.9418-4.8364-5.9057-18.0706-10.8542-18.3007-17.0349-18.2847,5.0939-33.94,11.5362-45.8316,18.86,2.2343-5.1765.4936-10.5921-4.9558-15.4176-12.7283,2.529-9.6084,13.1594-23.73,12.1241a20.3393,20.3393,0,0,1-9.49-3.2389l-21.1252-12.5208-4.0032,13.5423c-1.072-5.51-9.2835-10.76-21.5306-13.7644-1.0308,47.85-11.3028,103.3412-12.3336,151.191,31.8946.0748,105.9526-2.5083,133.71-10.023C430.8937,328.8523,410.3394,309.8942,412.5717,298.082Z" style="fill:#3a4222"/><path d="M364.071,299.65c1.5313-5.67,5.8367-11.11,9.291-16.618,11.4049-18.1838,13.5621-37.1675,15.6868-56.0589.4107-3.6517.7934-7.38-2.4554-11.0284-5.4608-6.1322-20.8874-11.7421-20.8928-17.9117-21.8281,4.1359-40.6068,9.75-54.976,16.4363,2.8636-5.0426,1.04-10.5275-5.1919-15.6151-15.1511,1.8659-11.9224,12.6171-28.5659,10.8605a27.0873,27.0873,0,0,1-11.0751-3.7144l-24.4256-13.5594-5.3147,13.2865c-1.0293-5.5447-10.5071-11.1966-24.8509-14.8193-3.2813,47.6195-11.238,70.807-14.5192,118.4264,37.6891,1.7128,118.7455,34.5137,151.8732,28.4524C384.3968,331.2476,360.9236,311.3041,364.071,299.65Z" style="fill:#3a4222"/><path d="M309.071,297.65c1.5313-5.67,5.8367-11.11,9.291-16.618,11.4049-18.1838,13.5621-37.1675,15.6868-56.0589.4107-3.6517.7934-7.38-2.4554-11.0284-5.4608-6.1322-20.8874-11.7421-20.8928-17.9117-21.8281,4.1359-40.6068,9.75-54.976,16.4363,2.8636-5.0426,1.04-10.5275-5.1919-15.6151-15.1511,1.8659-11.9224,12.6171-28.5659,10.8605a27.0873,27.0873,0,0,1-11.0751-3.7144l-24.4256-13.5594-5.3147,13.2865c-1.0293-5.5447-10.5071-11.1966-24.8509-14.8193-3.2813,47.6195-11.238,70.807-14.5192,118.4264,37.6891,1.7128,118.7455,34.5137,151.8732,28.4524C329.3968,329.2476,305.9236,309.3041,309.071,297.65Z" style="fill:#3a4222"/><path d="M194.071,285.65c1.5313-5.67,5.8367-11.11,9.291-16.618,11.4049-18.1838,13.5621-37.1675,15.6868-56.0589.4107-3.6517.7934-7.38-2.4554-11.0284-5.4608-6.1322-20.8874-11.7421-20.8928-17.9117-21.8281,4.1359-40.6068,9.75-54.976,16.4363,2.8636-5.0426,1.04-10.5275-5.1919-15.6151-15.1511,1.8659-11.9224,12.6171-28.5659,10.8605a27.0873,27.0873,0,0,1-11.0751-3.7144L71.4661,178.4412l-5.3147,13.2865c-1.0293-5.5447-10.5071-11.1966-24.8509-14.8193-3.2813,47.6195-11.238,70.807-14.5192,118.4264,37.6891,1.7128,118.7455,34.5137,151.8732,28.4524C214.3968,317.2476,190.9236,297.3041,194.071,285.65Z" style="fill:#3a4222"/><path d="M512.5717,305.082c1.0861-5.7468,4.5235-11.385,7.24-17.0531,8.9678-18.7137,10.096-37.8262,11.2-56.8448.2134-3.6763.4-7.4284-2.4769-10.9418-4.8364-5.9057-18.0706-10.8542-18.3007-17.0349-18.2847,5.0939-33.94,11.5362-45.8316,18.86,2.2343-5.1765.4936-10.5921-4.9558-15.4176-12.7283,2.529-9.6084,13.1594-23.73,12.1241a20.3393,20.3393,0,0,1-9.49-3.2389l-21.1252-12.5208-4.0032,13.5423c-1.072-5.51-9.2835-10.76-21.5306-13.7644-1.0308,47.85-11.3028,103.3412-12.3336,151.191,31.8946.0748,105.9526-2.5083,133.71-10.023C530.8937,335.8523,510.3394,316.8942,512.5717,305.082Z" style="fill:#3a4222"/><path d="M428.3937,318.2722c.4226-6.1215,1.7628-12.1288,2.8216-18.1675,3.4955-19.9373,3.9318-40.2949,4.3586-60.5523.0825-3.9158.1546-7.9123-.9689-11.6528-1.8885-6.2874-7.0539-11.55-7.145-18.1335a70.8187,70.8187,0,0,0-17.8809,20.1144,30.7142,30.7142,0,0,0-1.9372-16.4186c-4.9664,2.7009-3.7467,14.0217-9.2574,12.9272-1.6794-.3336-2.7821-1.9551-3.7039-3.4445l-8.2463-13.3238-1.5593,14.4263a19.5514,19.5514,0,0,0-8.4048-14.6483l-1.1766,152.8974c12.4463.0614,37.7408,5.4122,48.5711-2.6078C435.55,351.0355,427.525,330.8548,428.3937,318.2722Z" style="fill:#434d28"/><path d="M429.5877,318.325c1.1271-6.0769,4.0971-11.9563,6.5016-17.8927,7.9389-19.5994,9.7349-39.8967,11.5075-60.0948.3426-3.9043.668-7.89-1.4262-11.7289-3.52-6.4526-13.6866-12.18-13.5734-18.7643-14.6136,4.7823-27.2247,11.0911-36.92,18.4693,2.0025-5.43.8919-11.2532-3.1615-16.5779-10.1244,2.2469-8.1781,13.667-19.2277,12.0729a13.5754,13.5754,0,0,1-7.3046-3.7774l-16.0082-14.06-3.7906,14.27c-.58-5.9-6.7847-11.7727-16.2676-15.3971l-9.26,152.6351c25.0648,1.1923,75.7683,8.8358,97.9428,1.8081C442.5243,351.7052,427.2712,330.8159,429.5877,318.325Z" style="fill:#434d28"/><path d="M365.5877,313.325c1.1271-6.0769,4.0971-11.9563,6.5016-17.8927,7.9389-19.5994,9.7349-39.8967,11.5075-60.0948.3426-3.9043.668-7.89-1.4262-11.7289-3.52-6.4526-13.6866-12.18-13.5734-18.7643-14.6136,4.7823-27.2247,11.0911-36.92,18.4693,2.0025-5.43.8919-11.2532-3.1615-16.5779-10.1244,2.2469-8.1781,13.667-19.2277,12.0729a13.5754,13.5754,0,0,1-7.3046-3.7774l-16.0082-14.06-3.7906,14.27c-.58-5.9-6.7847-11.7727-16.2676-15.3971L258.51,321.9406a31.2139,31.2139,0,0,0,28.4335,32.9841c24.4021,2.1434,52.6031,4.1338,67.6565-.637C378.5243,346.7052,363.2712,325.8159,365.5877,313.325Z" style="fill:#434d28"/><path d="M336.07,311.0761c1.45-6.0624,5.444-11.8956,8.6575-17.7955,10.61-19.4789,12.7392-39.7611,14.8379-59.9445.4057-3.9015.7862-7.8849-2.1665-11.7624-4.9633-6.5177-19.0765-12.4228-19.0329-19.0105-20.0648,4.5364-37.3428,10.6347-50.5826,17.853,2.6679-5.4,1.0374-11.2467-4.6417-16.6448-13.9192,2.0758-11.0409,13.5379-26.3013,11.7539a22.3446,22.3446,0,0,1-10.1347-3.9051l-22.3092-14.3439-4.9821,14.2163c-.9009-5.9149-9.5545-11.8976-22.69-15.6868l-8.1267,122.0636c-1.1238,16.88,16.5068,31.7261,39.7622,33.4952,33.6776,2.5618,72.59,5.0355,93.2611.518C354.4743,344.703,333.0894,323.537,336.07,311.0761Z" style="fill:#434d28"/><path d="M280.359,308.3282c1.5728-6.0317,5.6846-11.7826,9.0173-17.6159,11.0034-19.2594,13.5443-39.4942,16.0526-59.6308.4849-3.8924.9462-7.8673-1.9271-11.8039-4.83-6.6172-18.82-12.8078-18.6428-19.3933-20.1528,4.1279-37.5512,9.8739-50.9348,16.8218,2.777-5.3448,1.2657-11.2234-4.3026-16.7357-13.9585,1.7927-11.3137,13.3108-26.5347,11.2172a22.3458,22.3458,0,0,1-10.0533-4.11L171.02,192.2833l-5.27,14.1121c-.78-5.9319-9.3108-12.0892-22.3663-16.1444L132.78,312.1243c-1.4664,16.8534,15.8589,32.0549,39.0735,34.296,33.6187,3.2454,72.4727,6.5091,93.2314,2.4125C298.0768,342.322,277.1262,320.726,280.359,308.3282Z" style="fill:#434d28"/><path d="M202.82,303.343c2.0774-5.9505,7.3873-11.4766,11.7053-17.1293,14.2564-18.6628,17.74-38.78,21.18-58.8005.665-3.87,1.3011-7.8239-2.3132-11.9277-6.0753-6.8983-23.83-13.8864-23.5246-20.47-25.7339,2.9956-47.9769,7.7669-65.1178,13.9682,3.6038-5.1949,1.7488-11.1661-5.2809-17-17.8113,1.007-14.58,12.6891-33.9531,9.7336a34.0236,34.0236,0,0,1-12.7627-4.6828L64.8767,180.9792,57.99,194.8119c-.923-5.9836-11.72-12.63-28.31-17.4274l-14.99,121.43c-2.0729,16.792,19.8235,32.9907,49.3824,36.545,42.8062,5.1471,92.2844,10.6079,118.79,7.6778C224.9885,338.38,198.5493,315.5742,202.82,303.343Z" style="fill:#434d28"/><path d="M532.51,319.1806c1.0235-6.2811,4.2693-12.4449,6.8334-18.641,8.4656-20.4569,9.5221-41.345,10.5558-62.1305.2-4.0178.3745-8.1185-2.3464-11.9564-4.5737-6.4513-17.0834-11.8516-17.304-18.6062-17.2776,5.5778-32.0695,12.6275-43.3043,20.6387,2.109-5.6586.4611-11.5761-4.6913-16.8466-12.0278,2.7714-9.0739,14.3872-22.42,13.2641a17.6157,17.6157,0,0,1-8.97-3.5341l-19.9711-13.6712L427.1158,222.5c-1.0159-6.0212-8.779-11.7535-20.3548-15.03l-2.85,156.8822c30.1425.0631,91.4011,5.5533,117.63-2.6757C549.8411,352.7978,530.4063,332.0911,532.51,319.1806Z" style="fill:#434d28"/><g id="horse_frontpage"><path d="M519.6422,201.5153c2.0691.691,4.2726,1.4773,5.5594,3.2388,3.261,4.464-1.43,11.8208,2.25,15.9456a10.0283,10.0283,0,0,0,3.68,2.26l6.6741,2.8656a35.6865,35.6865,0,0,0,11.8924,3.3781l31.5832,4.5934c-3.104-.2465-5.0024,3.249-6.07,6.1739a112.7165,112.7165,0,0,0-4.66,14.8569,7.9065,7.9065,0,0,0,.0464,4.7929c1.9069,4.3757,9.6988,3.4521,11.3508,7.93.3131.8486.3889,1.872,1.1,2.4308a3.082,3.082,0,0,0,1.447.4941q5.2651.8529,10.543,1.6244c.6742.0985,1.5575.0819,1.7986-.5554a1.53,1.53,0,0,0-.171-1.1161c-1.59-3.677-3.324-7.3957-6.1328-10.2518s-6.9248-4.7327-10.8384-3.8778c-1.661-2.2494.2-5.29,1.574-7.7254a43.3177,43.3177,0,0,0,3.6436-10.0288c.567-2.0808,1.1373-4.266.6511-6.3671-.704-3.0429-3.4795-5.1909-6.3678-6.3792s-6.0266-1.6752-8.9162-2.8605c-5.71-2.3424-9.9611-7.1748-13.9917-11.8488-7.3486-8.5219-15.045-17.3209-25.3508-21.8393a75.58,75.58,0,0,0-12.0868-3.7562c-2.7569-.69-5.8581-1.336-8.2924.131a5.6493,5.6493,0,0,0-1.4047,8.05c1.3135,1.6147,3.1572,2.7,4.5069,4.2955.8166.9657.4263,1.2718,1.4814,2.0449C516.2216,200.8075,518.36,201.087,519.6422,201.5153Z" style="fill:url(#linear-gradient)"/><path d="M377.03,147.6587a8.39,8.39,0,0,0-4.8048-.035,8.2976,8.2976,0,0,0-2.7566,2.1759,15.2645,15.2645,0,0,0-3.2372,4.3891c-1.0841,2.5827-.7022,5.5165-.3018,8.2887l3.2774,22.69a12.5745,12.5745,0,0,0,.6958,3.0251c1.0526,2.55,3.6155,4.1028,6.0784,5.3461a40.5,40.5,0,0,0,11.9169,4.1647,1.7643,1.7643,0,0,0,1.3443-.1635,1.8167,1.8167,0,0,0,.5385-1.1092l1.8513-8.3319a2.6323,2.6323,0,0,0-.0393-1.8347,2.29,2.29,0,0,0-1.129-.8828,9.0377,9.0377,0,0,0-6.2068-.42,22.6047,22.6047,0,0,1-3.4367,1.0679,2.8894,2.8894,0,0,1-3.0689-1.3671,3.9111,3.9111,0,0,1-.2455-1.1991l-1.1269-11.5854a19.0243,19.0243,0,0,1,.1125-5.6982l.7317-5.6609c9.8792,4.8192,20.8231,7.0842,31.7521,8.2594a13.4162,13.4162,0,0,0,4.3945-.0311,4.7828,4.7828,0,0,0,3.4092-2.5446,4.8432,4.8432,0,0,0-1.03-4.8709c-2.2142-2.6307-5.8211-3.5952-8.5778-5.5a19.8193,19.8193,0,0,0-7.7226-3.2492C391.9946,150.8445,384.5047,149.2956,377.03,147.6587Z" style="fill:url(#linear-gradient-2)"/><path d="M579.9,165.9332a36.1547,36.1547,0,0,1,7.1959,3.1529c4.0828,2.4594,7.1617,6.2522,10.0705,9.95a26.3511,26.3511,0,0,1,3.8725,7.7553c2.9251,8.969,1.754,34.4372,2.5038,48.018.2811,5.0913,9.75,22.981,7.0886,33.7009-1.2048,4.8527-13.9933-.5554-16.2582-5.0667-4.1366-8.2394-2.9183-4.8459-5.3615-15.756-4.5942-20.5157-.059-38.516,1.1374-46.0837,1.3565-8.5809-2.04-18.0717-7.2684-24.9511a52.1232,52.1232,0,0,0-5.1449-5.8569,22.4172,22.4172,0,0,1-1.7119-1.5688c-.9523-1.1508-2.1163-5.0942-3.5932-5.5314C574.8213,164.4036,577.39,165.0961,579.9,165.9332Z" style="fill:#211808"/><path id="body" d="M455.2148,115.9861s18.4437,8.708,20.8776,15.4959,54.34,9.39,54.34,9.39,25.473,5.3036,35.4292,14.9925,20.1248,26.1186,19.82,29.1031c-.7187,7.0344-4.482,16.9593-6.4177,20.6-1.4106,2.6529-11.5558,12.3643-19.4858,17.2685-3.74,2.313-10.1035-1.9239-14.2264-3.4542-8.47-3.1435,5.7734.4332-16.2784-17.436-.77-.6243-10.1688-.7836-11.1578-.7093-.4715.0354-35.3773,7.1208-63.279-.8477-1.0074.3516-21.458-7.9527-35.4292-14.9925-13.1724-6.6372-17.7706-18.2267-16.8678-22.2681,0,0-1.9861-15.3.9444-20.3742,1.1745-2.0339,3.9664-10.5955,4.1127-8.2515C407.0526,134.3588,423.4313,107.0524,455.2148,115.9861Z" style="fill:#974f26"/><path d="M534.0234,214.4839a13.89,13.89,0,0,0,.3663,3.8448c.65,2.0067,2.43,3.4047,4.1493,4.627,7.7538,5.5134,16.4291,10.1288,25.8571,11.4056,4.7586.6444,9.7118.4462,14.1956,2.1648.498.1909.4074,1.92.2192,2.447-3.5235,9.8758-5.1985,20.1785-7.7065,30.36a5.6074,5.6074,0,0,0,1.2,3.2534c2.8663,1.9548,4.3213,5.3661,6.6193,7.9653,3.0575,3.4584,7.3833,8.4292,11.855,9.82,1.8772.5837,2.7927-4.2343,3.4049-6.1025.7047-2.15.7651-6.5289-.7612-8.6965-2.3027-3.27-8.3019-4.1984-12.29-3.8946,1.6695-.15,2.3824-2.1585,2.7124-3.8018l3.0731-15.3021a19.5763,19.5763,0,0,1,1.7785-5.1883c1.3515-2.6,2.1779-5.1445,3.6258-7.5783a31.113,31.113,0,0,0,4.0057-11.1765,3.5215,3.5215,0,0,0-.1271-2.0759,3.3354,3.3354,0,0,0-1.4493-1.3138c-5.6125-3.1789-12.7181-2.6718-18.28-6.1007a5.5845,5.5845,0,0,1-2.5607-3.1592c-1.4683-5.2916,5.0931-6.84,5.12-12.9051.0044-.9932-1.04-1.6972-1.8165-2.3168-14.896-11.8894-33.8921-16.802-52.3154-21.4457-2.1425-.54-4.6248-1.0348-6.2028,1.0217a4.5482,4.5482,0,0,0-.6851,4.0114c1.0908,3.7961,4.0775,6.1461,5.2885,9.8147a12.2484,12.2484,0,0,0,3.0674,5.0325C530.7026,203.3714,533.8166,208.2741,534.0234,214.4839Z" style="fill:url(#linear-gradient-3)"/><g id="head"><path d="M373.98,84.2608a2.0159,2.0159,0,0,1,2.725.7243,1.5926,1.5926,0,0,1-1.3637,2.23,13.5752,13.5752,0,0,1,7.0656.7456,2.1037,2.1037,0,0,1,2.034-2.6739c1.32.1566,1.93,2.2355.8089,2.95a8.2165,8.2165,0,0,1,6.6838,1.4663,1.8587,1.8587,0,1,1,3.3412,1.334,11.46,11.46,0,0,1,6.8643,1.1714c-.6733-1.1784.96-2.6749,2.2257-2.1851a2.7193,2.7193,0,0,1,1.2413,3.4547,33.6288,33.6288,0,0,1,5.72,1.8532,5.9073,5.9073,0,0,1,2.6258-1.7458,1.4245,1.4245,0,0,1,.7986-.08,1.1188,1.1188,0,0,1,.56,1.5149,3.2413,3.2413,0,0,1-1.2723,1.281,14.8107,14.8107,0,0,1,5.708,1.3875,2.5367,2.5367,0,0,1,2.9372-2.6607,4.493,4.493,0,0,1,.2235,3.6242,33.5985,33.5985,0,0,1,5.6567,2.8616,5.6774,5.6774,0,0,1,1.58-2.5314,1.9552,1.9552,0,0,1,2.7.1541c.6154.8711.09,2.0624-.4415,2.9873a15.1,15.1,0,0,1,3.46,2.0882,4.535,4.535,0,0,1,1.822-1.3155,1.5582,1.5582,0,0,1,1.9126.7667c.169.4705,2.2477.8944,2.2609,1.3941.0435,1.6535,11.0318,9.2664,10.8761,10.9131-.0992,1.05-12.4022-4.4106-13.4248-4.153a7.1043,7.1043,0,0,1-3.133-.1331c-9.2275-1.8783-17.8347-6.046-26.9535-8.396-6.8182-1.7572-13.8586-2.4819-20.7448-3.95A131.5367,131.5367,0,0,1,370.285,93.896a10.0959,10.0959,0,0,1-3.73-1.9277c-.73-.7081-.8675-1.49-1.9737-1.2157-1.13.2806-2.5987,2.0747-3.4609,2.8389-1.2889,1.1423-2.5022,2.3394-3.85,3.41l-1.7938,1.425a1.4838,1.4838,0,0,1-.1176-1.4893,5.7251,5.7251,0,0,1,.8812-1.2926,7.5927,7.5927,0,0,0,1.8749-3.8766,1.3009,1.3009,0,0,1,.192-.6809.9568.9568,0,0,1,.9708-.2429c.3441.0765.6652.2438,1.0137.2963a3.5509,3.5509,0,0,0,2.3425-.9083c3.139-2.0918,6.4612-2.54,10.0354-3.3017A3.0469,3.0469,0,0,1,373.98,84.2608Z" style="fill:#211808"/><path d="M389.144,119.4919a220.5193,220.5193,0,0,1-40.0725,16.2362l1.012,2A131.8024,131.8024,0,0,0,392.57,119.0838,5.5488,5.5488,0,0,0,389.144,119.4919Z" style="fill:#332115"/><path d="M364.7005,87.8553l-2.6965-9.59a3.5,3.5,0,0,0-.6194-1.3854,1.1963,1.1963,0,0,0-1.3686-.3831c-.5753.2865-.6529,1.0612-.6536,1.7038l-.0081,8.518c.5625.4526.4753,1.4434.8114,2.0823a2.5522,2.5522,0,0,0,2.4977,1.3114C363.6562,89.993,364.9711,88.8178,364.7005,87.8553Z" style="fill:url(#linear-gradient-4)"/><path d="M350.27,78.9775a.6461.6461,0,0,0-.5409-.2168c-.3147.0846-.3071.53-.2295.8469l1.974,8.0512a7.0584,7.0584,0,0,0,.86,2.3019c.9109,1.3555,2.6306,1.92,3.7615,3.0982a.8385.8385,0,0,1,.2657.451.8227.8227,0,0,1-.3149.6409,13.18,13.18,0,0,1-2.139,1.4294,4.1958,4.1958,0,0,0-1.5765,2.4969c.192,1.4775,3.05-1.97,3.4133-2.1788,1.1694-.6724,2.2976-1.4135,3.4126-2.1717,1.5877-1.0794,3.8233-2.1051,2.7993-4.3244-.9432-2.044-3.5453-3.58-5.2057-4.9761Z" style="fill:#974f26"/><path id="neck_head" d="M362.2262,90.41c-.2568-.3069-1.9845-.5907.2409-.9706,8.3824-1.4309,37.8945-.5546,89.7982,26.5653,15.7255,1.9511-38.4026,53.7981-42.5911,43.4045-.5291-1.313-4.22-5.6587-6.116-7.22,2.31-6.9382-19.2687-34.5416-28.9088-28.8145a11.81,11.81,0,0,0-2.59,2.6087s-2.6,5.8515-14.2068,8.8974c0,0-7.4842,2.9979-9.8783,5.6938,0,0,.0481,4.1229-1.6326,5.5978s-8.4514,3.2517-8.4514,3.2517-3.1556-.2058-3.6633-2.14c0,0-4.8362,1.2691-6.3111-.4116-1.0369-1.1815-1.745-5.0043-2.0741-7.1706a5.1092,5.1092,0,0,1,.6048-3.2771c.62-1.1007,16.8147-25.6288,16.8147-25.6288a10.2847,10.2847,0,0,1,4.9939-8.5476C350.9119,100.489,355.7691,94.5651,362.2262,90.41Z" style="fill:#974f26"/><path d="M354.9306,92.2254c.66.75,4.1949,2.9606,4.8839,2.8538s-1.6748-4.0726-2.2195-4.89l-5.4269-8.1438a5.4792,5.4792,0,0,0-.9534-1.1752c-.3845-.3262-.8911-.5144-1.1462-.3184-.3212.2469-.1006.9063.1294,1.453,1.0163,2.4155,1.02,5.4111,2.0363,7.8266" style="fill:url(#linear-gradient-5)"/><g id="bridle"><circle cx="342.7336" cy="138.3313" r="4" style="fill:none;stroke:#ccc;stroke-miterlimit:10"/><circle cx="339.1184" cy="140.3138" r="1.5" style="fill:#ccc"/><path d="M368.8542,92.85c-.9875,6.4479-4.5314,12.176-7.9978,17.7018L345.6513,134.79c-.6264.9986-2.3115,1.7426-2.1014.7421.46-2.1883,1.3287-2.8329,2.3318-4.5219l13.1771-22.19c2.8539-4.8059,5.77-9.7861,6.4843-15.33.1294-1.0039-.0575-.9292-.4328-1.8692-.4481-1.1226-2.05-2.4084-1.9825-3.6152.0486-.8653,2.9306-1.5136,3.869-1.0153C368.5207,87.8005,369.1421,90.97,368.8542,92.85Z" style="fill:#332115"/><path d="M355.1559,97.6424c-1.093-.07-3.8411-.3416-4.0467-.2788-.5528.1691-1.1028-.2923-1.2549.2655a5.1442,5.1442,0,0,0-.0707,1.7241,1.9625,1.9625,0,0,0,.23.9395,1.85,1.85,0,0,0,.8444.6078,15.3733,15.3733,0,0,0,7.1442,1.3112,30.6194,30.6194,0,0,0,5.1641-.9,1.3212,1.3212,0,0,0,1.0772-.8031C365.79,97.94,365.59,97.5065,362.76,97.68A60.6582,60.6582,0,0,1,355.1559,97.6424Z" style="fill:#332115"/><path d="M355.4859,98.2828c-1.05-.0978-5.3439-.6653-5.5008-.5774-.4145.2324-.2585.8746-.2932,1.3181a1.1684,1.1684,0,0,0,.1.7292,1.56,1.56,0,0,0,.7389.5,17.352,17.352,0,0,0,6.7511,1.2978,38.6638,38.6638,0,0,0,5.1208-.4774,2.211,2.211,0,0,0,.6106-.1443,1.787,1.787,0,0,0,.5377-.4268c1.834-1.905,1.6958-2.2477-1.0679-2.2283A53.8621,53.8621,0,0,1,355.4859,98.2828Z" style="fill:#fff"/><path d="M346.4061,132.6q-2.8367-2.5178-5.9148-4.7445a15.3368,15.3368,0,0,0-6.5226-3.1543c-.6314-.093-1.532.14-1.4509.7727.0425.332.3612.5475.6511.7147,4.6655,2.6911,9.9831,4.54,13.6672,8.4683,1.2079,1.2881,2.206,2.77,3.4954,3.9764,1.7342,1.6226,4.335.7048,2.2253-1.2721C350.7414,135.66,348.3183,134.2967,346.4061,132.6Z" style="fill:#332115"/><path d="M372.6874,126.79a9.6286,9.6286,0,0,1,.1532,5.1028c-.5588,1.6309-2.3861,2.9579-3.995,2.3384a3.762,3.762,0,0,1-1.8543-1.9107,1.0413,1.0413,0,0,1-.1286-.9111c.2239-.4436.905-.3706,1.3035-.074s.692.7448,1.1513.9342a1.6147,1.6147,0,0,0,1.86-.7359,4.0227,4.0227,0,0,0,.4869-2.088c.1379-4.9136-1.72-9.6273-3.13-14.3362-.6277-2.0955-4.4715-14.86-2.4047-15.6212C369.3735,108.0276,370.7709,117.8626,372.6874,126.79Z" style="fill:#332115"/><path d="M348.4546,140.1673a3.8188,3.8188,0,0,1-2.0467-.3412,1.3644,1.3644,0,0,1-.6082-1.7825c.4869-.7674,1.6383-.5275,2.515-.2882a19.65,19.65,0,0,0,8.7506-.0145,89.5186,89.5186,0,0,0,11.4055-3.1955c3.3836-1.1113,6.3969-2.9827,9.6054-4.5281,2.0234-.9747,5.6232-3.5471,6.6462-4.0123,2.0474-.931,7.2333-7.7836,9.27-6.4739,3.2528,2.0918-3.8774,5.4763-4.9159,6.2586a71.5457,71.5457,0,0,1-24.9631,12.1567A68.766,68.766,0,0,1,348.4546,140.1673Z" style="fill:#332115"/><path d="M437.2641,110.5342c.8857-.39,1.9052-1.0827,1.7517-2.0381a1.8108,1.8108,0,0,0-.9347-1.1676,7.8179,7.8179,0,0,0-4.0072-.8039q-3.7729-.0438-7.5381.2834c.1251.6927,1.0589.7972,1.7625.7791a16.47,16.47,0,0,1,8.0857,1.8987c-1.28,1.0527-3.0954,1.0574-4.7529,1.0265-.6617-.0123-1.3231-.042-1.9845-.0652a136.151,136.151,0,0,0-13.7786.0007c-5.4836.3638-10.8,2.8251-15.6324,5.3339l-6.1737,3.2049c-.5549.2881-2.983,1.3262-3.3495,1.8327s1.2908,1.7919,1.726,2.2407c.5995.6183,1.7458-.9939,2.5019-1.406,4.3072-2.348,8.4237-5.1473,13.0826-6.6834a38.3007,38.3007,0,0,1,7.8949-1.573,23.11,23.11,0,0,1,3.9851-.3333c.9023.0657,1.7046.3828,2.6366.401A35.0087,35.0087,0,0,0,437.2641,110.5342Z" style="fill:#332115"/></g><path d="M348.7234,108.4319a.8941.8941,0,0,0-.3518.5659c-.2224,1.2921.6663,2.4859,1.5021,3.4961a1.1428,1.1428,0,0,0,.6467.4785,1.129,1.129,0,0,0,.6489-.1712c.8979-.4479,3.7078-1.96,3.848-3.28C355.2254,107.56,349.5891,107.7833,348.7234,108.4319Z" style="fill:#422a1b"/><path d="M348.72,109.4662c-.1057.1731-.273.2946-.3074.4945-.1943,1.1291.5823,2.1722,1.3126,3.0549a.9987.9987,0,0,0,.5651.4182.9862.9862,0,0,0,.567-.15c.7846-.3914,3.5-1.7144,3.3624-2.8663C354.0281,108.8171,348.9148,109.147,348.72,109.4662Z" style="fill:#170f09"/><path d="M333.5022,136.6459a4.2332,4.2332,0,0,1,.1961,1.9137c-.3085,1.6287-2.1473,2.7548-3.8058,3.6584-.3418-1.5165-1.9256-4.8412-.5558-6.3152A2.471,2.471,0,0,1,333.5022,136.6459Z" style="fill:url(#linear-gradient-6)"/></g><g id="rider-2" data-name="rider"><path d="M518.8606,147.72q-1.486,7.7083-3.7226,15.2463a6.34,6.34,0,0,1-1.7673,3.2873,6.0511,6.0511,0,0,1-2.7092,1.0291,49.6377,49.6377,0,0,1-21.341-.5656c-3.7244-.9276-7.3284-2.2856-11.0329-3.29-5.6843-1.5407-11.5785-2.2413-17.2164-3.944s-11.1909-4.5924-14.5324-9.442a3.625,3.625,0,0,1-.76-1.7777,3.9927,3.9927,0,0,1,.6637-2.07c3.839-7.0686,8.18-13.8507,12.516-20.6256,1.6844-2.6316,3.73-5.51,6.8161-5.9987,3.2466-.5141,6.17,1.83,8.6932,3.9365,5.3066,4.4293,11.1328,8.5474,17.8453,10.1971a69.0328,69.0328,0,0,0,10.1414,1.3163c3.8263.3552,11.9123.0825,15.1022,2.2508C520.4428,139.2315,519.4053,144.8944,518.8606,147.72Z" style="fill:#939393"/><path d="M459.1673,200.6185a1.6306,1.6306,0,0,1-2.31,1.03l-4.1288-.9556a3.0785,3.0785,0,0,1-1.707-.7966c-.808-.9334-.24-2.3646.3443-3.4521a186.35,186.35,0,0,0,15.8219-39.9c.5357-1.9979,1.1111-4.1286,2.6542-5.506,1.1126-.9931,3.6688-1.629,4.8447-.3389,1.122,1.231.1692,3.6-.11,5.0208q-1.522,7.7347-3.7327,15.311A173.9692,173.9692,0,0,1,459.1673,200.6185Z" style="fill:#fff"/><path d="M456.8094,201.1053a2.7878,2.7878,0,0,1-.6986,1.0187,1.08,1.08,0,0,1-1.0148.0677l-2.656-.7768a1.4487,1.4487,0,0,1-1.04-.7116c-.4112-.8778.1815-2.29.7353-3.3692a280.5516,280.5516,0,0,0,16.5159-39.38,15.7616,15.7616,0,0,1,2.5978-5.4516c.8977-1.0067,2.7206-1.7193,3.3289-.5083.58,1.1556-.4091,3.4941-.8052,4.886q-2.1556,7.5768-4.7545,15.025A262.1736,262.1736,0,0,1,456.8094,201.1053Z" style="fill:#1e1610"/><path d="M404.0452,155.4473a25.5424,25.5424,0,0,1-3.1361,1.3623c-1.1925.1542-5.5459-5.5243-2.5741-6.6046a446.1835,446.1835,0,0,0,54.8027-24.0439,27.5679,27.5679,0,0,1,8.1322-3.1821c2.2339-.3913,5.8954-.11,6.1656,1.1539.2578,1.2061-3.0121,2.63-4.62,3.5678q-8.754,5.1064-18.1995,9.9007A417.5344,417.5344,0,0,1,404.0452,155.4473Z" style="fill:#1e1610"/><path d="M402.6434,155.0831a7.6848,7.6848,0,0,1-1.7132.5065,1.9435,1.9435,0,0,1-1.2716-.2517,5.1,5.1,0,0,1-1.7546-3.0152c.2649-.735.81-.6628,2.4021-1.2541,18.491-6.8684,36.5452-14.493,53.6843-22.6718a38.4038,38.4038,0,0,1,7.8041-3.0467c1.9408-.4395,4.7342-.4006,4.4177.6255-.3019.9792-3.5,2.3228-5.1735,3.18q-9.1073,4.6632-18.6334,9.1061C429.5867,144.2362,416.26,149.8762,402.6434,155.0831Z" style="fill:#fff"/><path d="M513.3415,136.6836a7.3757,7.3757,0,0,1,2.1023,5.9291,6.0569,6.0569,0,0,1-1.1168,3.5931,5.5062,5.5062,0,0,1-2.1088,1.5092c-4.1708,1.836-8.16-.0116-12.21-1.0652a52.2482,52.2482,0,0,1-13.9375-6.02,3.4921,3.4921,0,0,1-1.654-1.6446c-.7128-2.0591,1.9436-1.5647,3.0109-1.612,2.0082-.089,4.0167-.2435,6.0193-.4164q6.0124-.5192,11.9711-1.5047c2.598-.4316,5.3436-.9327,7.8.0182a1.38,1.38,0,0,1,.8357.65C514.1946,136.4547,513.7019,136.7276,513.3415,136.6836Z" style="fill:#211808"/><path id="saddle" d="M516.4748,132.7605c.5316,2.9211-1.0412,5.8131-2.9,8.1279a9.4459,9.4459,0,0,1-4.07,3.27,10.1613,10.1613,0,0,1-4.77.1229,55.5883,55.5883,0,0,1-15.2251-4.5632c-1.0137-.4709-2.2544-.9613-3.1787-.3327a2.6676,2.6676,0,0,0-.9015,1.3378c-1.2858,3.49-.0705,7.4144-.7288,11.0748a11.8731,11.8731,0,0,1-10.633,9.32,13.3063,13.3063,0,0,1-12.4177-7.2224,18.3483,18.3483,0,0,1-1.757-6.3359c-.516-4.7077.2163-9.4529.9468-14.1321.4684-3.0009.975-6.104,2.6391-8.6447a10.7957,10.7957,0,0,1,4.8579-4.0273c4.0709-1.69,8.7806-.7187,12.8188,1.0477s7.7273,4.2888,11.8483,5.8521a28.1213,28.1213,0,0,0,14.2636,1.4375C510.8011,128.5435,515.5968,127.9354,516.4748,132.7605Z" style="fill:#332115"/><path d="M467.4126,143.6716c-.0508-.5086-.3316-1.1888-.824-1.0519-.2563.0713-.39.3476-.4765.5993a12.5442,12.5442,0,0,0-.2879,5.05c.6039,7.64.5709,15.69,1.8951,23.225,3.77,1.938,1.3565-9.8573,1.1064-12.1356C468.253,154.1393,467.934,148.8957,467.4126,143.6716Z" style="fill:#332115"/><path d="M512.8037,127.1778c-1.9523,3.4375-5.6538,5.6042-9.4906,6.5568s-7.8485.8366-11.7981.6689q-9.7432-.4137-19.4657-1.2c1.4327.1159,3.0549,7.4015,3.3691,8.5778.8672,3.2462,1.4781,6.5842,2.141,9.8957a2.3746,2.3746,0,0,1,.0432,1.1142c-.2.696-.9584,1.0447-1.6336,1.3065-1.3741.5326-2.8889,1.0708-4.2851.599a1.559,1.559,0,0,1-.77-.5,2.0511,2.0511,0,0,1-.2725-.6017c-1.2365-3.7676-2.1748-7.3418-4.395-10.5842A33.4459,33.4459,0,0,1,461.514,131.98a9.0233,9.0233,0,0,1-.1671-4.1113c.6942-2.8468,3.5364-4.6864,6.3755-5.4114s4.9151-1.2986,7.7914-1.8579c1.8531-.36,3.5694-1.22,5.407-1.6531,2.2229-.5235,5.1027-.5247,7.2889-1.185A29.9324,29.9324,0,0,0,498.3841,112.7c2.2931-1.8416,5.9664-6.4092,9.2349-5.6088,3.4087.8347,5.2808,6.2883,6.0714,9.2436C514.6472,119.9113,514.6759,123.8815,512.8037,127.1778Z" style="fill:#f2f2f0"/><path d="M414.9563,98.5616a4.9317,4.9317,0,0,0-.61-2.26c-.6787-1.0081-.8338-.54-1.6831.1156a.5954.5954,0,0,0-.1879.1985.6057.6057,0,0,0,.0231.4333c1.2874,4.19,1.239,8.4641,2.0358,12.746.5709,3.068,1.77,6.0048,2.2182,9.0776.0974.6676.1533,1.3417.2839,2.0035a32.7612,32.7612,0,0,1,.8253,3.5956,44.1576,44.1576,0,0,1,.529,6.2354,24.5215,24.5215,0,0,0,.0268,6.6238.9326.9326,0,0,0,.2858.5762.9466.9466,0,0,0,.5455.1357,15.5167,15.5167,0,0,0,2.7271-.1445,1.6052,1.6052,0,0,0,.8179-.2836c.48-.3978.378-1.1482.2245-1.7523C419.9013,123.5884,415.4071,111.343,414.9563,98.5616Z"/><path id="collar" d="M463.2567,83.1872a3.2168,3.2168,0,0,0-2.0337.4242,10.3,10.3,0,0,0-3.9888,4.2848c-.9673,1.7271-1.6953,3.5831-2.7169,5.2788a18.0794,18.0794,0,0,0-2.398,4.4236c1.23-1.1683,2.8964-.6377,4.2456-1.3551,1.6789-.8928,1.42-1.2463,1.9015-3.1146C458.5954,91.8529,461.5181,82.8618,463.2567,83.1872Z" style="fill:#ffe000"/><path d="M461.92,83.2355a3.0807,3.0807,0,0,0-.3657-2.8676,3.6418,3.6418,0,0,0-1.1944-.89c-4.0278-2.0723-8.8879-.8934-13.25.3271a8.42,8.42,0,0,0-2.2674.8784,7.543,7.543,0,0,0-2.658,3.8255A8.0529,8.0529,0,0,0,441.45,88.4c.2918,2.2783,2.2016,3.9565,3.9809,5.4091a8.6712,8.6712,0,0,0,2.0729,1.3831c2.0907.8733,4.4618.0082,6.5577-.8527C455.876,90.13,460.5614,87.3962,461.92,83.2355Z" style="fill:#edd29d"/><path d="M456.1342,86.9036a.7355.7355,0,0,0,.2923.9966l1.506,1.1963c.1255.43-.337.8481-.7849.8572a2.22,2.22,0,0,1-1.2237-.5l-4.9625-3.33c-1.2963-.87-2.6911-1.8755-3.0659-3.3911a7.1228,7.1228,0,0,0,1.568-.514,7.1914,7.1914,0,0,0,5.1189,4.5585.3733.3733,0,0,0,.29-.0165.3775.3775,0,0,0,.1223-.1948,25.95,25.95,0,0,0,1.4524-6.3127c.0566-.5595.4449-1.4,1.1828-1.0831.7962.3423.2625,1.4929.1045,2.0537Q456.9341,84.0634,456.1342,86.9036Z" style="fill:#2d081c"/><path d="M506.6363,103.284a6.8426,6.8426,0,0,1,1.6258,3.2779c.2916,2.6681-2.2893,4.7333-4.7392,5.83s-5.2867,1.9853-6.614,4.3182a4.4663,4.4663,0,0,1-1.0612,1.5578,3.1141,3.1141,0,0,1-1.6378.4233c-3.2616.2227-8.1471,1.573-11.4087,1.7958-1.5159.1035-1.88-.4746-2.8748-1.5131a18.2428,18.2428,0,0,0-2.5662-1.677c-4.0183-2.9746-8.9564-4.57-12.8135-7.7509-5.8726-4.8432-12.1485-21.2776-3.5353-25.56,8.0048-3.98,23.09,1.854,31.2812,6.7053A50.5089,50.5089,0,0,1,506.6363,103.284Z" style="fill:url(#New_Gradient_Swatch_4)"/><path d="M479.7612,112.7189s-3.8743,1.78-6.0548,1.7519a1.8258,1.8258,0,0,1-.8089-.1343,1.7835,1.7835,0,0,1-.6412-.6941,34.5771,34.5771,0,0,1-3.0084-6.0149c-1.8537.3338-3.616.7239-5.47,1.0577a33.63,33.63,0,0,1-.2992-9.898c-1.7243.2707-3.5962.2309-5.324.4784a18.77,18.77,0,0,0,1.1685,3.2951,6.5558,6.5558,0,0,1,.7029,1.1774,37.5,37.5,0,0,0,2.1554,3.3229,19.3118,19.3118,0,0,0,7.4658,6.1057,46.6452,46.6452,0,0,1,7.7715,4.399c.7746.5744,2.6617,1.8367,2.7987,1.2688a8.3435,8.3435,0,0,0,.1092-1.0607A50.0413,50.0413,0,0,0,479.7612,112.7189Z" style="fill:#26251e"/><path d="M489.8115,115.0405a.242.242,0,0,1-.028.0163c-.7453.37-8.281-1.9335-10.0223-2.3379-.5965-2.29-.2194-7.0557-.2194-7.0557-.1013-.0964-7.6344,1.1306-10.4959,1.7069a31.65,31.65,0,0,0,1.2664-10.3073l-6.17,1.6a1.0942,1.0942,0,0,1-1.6123-1.0073c-.6249-2.4481-2.0024-7.7917-2.9418-8.0287a80.8642,80.8642,0,0,1,10.9531-1.8745l.1455,9.9472c3.9034.282,8.03-.5785,11.93-.2606-1.358,2.396-1.6832,6.3595-3.0757,8.2243,4.9879-.1631,7.7587.958,12.6969,1.2042-.5622-.1971-1.9307,6.7067-2.1724,7.7738-.2874,1.2689-.9377,3.1786-.7863,4.5157a60.0586,60.0586,0,0,0,5.99-.5239c.8-.0246.6416-.1817,1.177-.777a3.4971,3.4971,0,0,0,.5-.8873,7.1923,7.1923,0,0,1,1.45-2.0511,4.4526,4.4526,0,0,0-2.5527.19" style="fill:#26251e"/><path d="M492.2387,106.8674c.0362-3.3725.7964-5.6071.2551-8.9361-3.1517-.0709-9.7622-.3957-9.8763-.4924a38.94,38.94,0,0,1-3.7079-8.35.8565.8565,0,0,0-.3678-.4562,1.3365,1.3365,0,0,0-.7667-.1581c-2.37.0034-5.6164.5921-7.8366-.2359-.2774-1.91-1.61-3.9781-2.5743-5.65A50.0494,50.0494,0,0,1,478.9685,84.57q-.1213,2.16-.2429,4.32l11.4258.6277a59.5889,59.5889,0,0,0,2.491,8.4175c-.1486-.0037,3.1465-1.1722,4.79.2425,1.8695,1.61,5.2155,2.1339,7.4291,2.9829a.87.87,0,0,1,.4385.3729,1.007,1.007,0,0,1,.0941.5295,11.0993,11.0993,0,0,1-.423,2.2817c-.3768,1.5686-.9843,7.4879-.9843,7.4879s-4.8062-2.0012-6.344-2.6011C496.0514,108.6106,493.83,107.4881,492.2387,106.8674Z" style="fill:#26251e"/><path d="M483.4917,86.2773c-2.6415,2.4523-3.4449,6.9248-6.842,8.1293A108.8894,108.8894,0,0,1,491.7238,105.04a19.3268,19.3268,0,0,1,3.3384-5.2243c.93-.9322,4.222-2.5648,4.2608-3.9691.0393-1.4256-3.3086-3.5433-4.3312-4.3026a30.586,30.586,0,0,0-5.5547-3.2771C488.7277,87.9438,484.0866,85.725,483.4917,86.2773Z" style="fill:#f7f7f5"/><path d="M419.9388,104.6672a7.3833,7.3833,0,0,1-2.2657-1.2387,2.4774,2.4774,0,0,0-2.4478-.35,4.0107,4.0107,0,0,1-.805.4895c-.4605.1319-.9468-.1423-1.4229-.09a1.6208,1.6208,0,0,0-1.1858,1.0416c-.2245.5033-.319,1.0581-.5573,1.5551-.1972.4113-.4887.774-.6636,1.1952a1.9046,1.9046,0,0,0,.7616,2.4121,2.9884,2.9884,0,0,0,1.0346.215,18.1017,18.1017,0,0,0,4.2508.0323,24.0441,24.0441,0,0,1,3.9737-.6736c1.2059.0229,2.5865.4178,3.498-.372a3.1732,3.1732,0,0,0,.8282-1.5653c.2694-.916.7886-3.2738-.6712-3.462a5.8565,5.8565,0,0,0-1.8822.4887A5.2243,5.2243,0,0,1,419.9388,104.6672Z" style="fill:#f4e39b"/><path id="overarm" d="M470.6348,94.2574c-.994-2.137-3.5212-3.2306-5.8773-3.17a15.6294,15.6294,0,0,0-6.6688,2.1514,69.6709,69.6709,0,0,0-10.6452,6.8437c-2.5425,1.983-5.1812,4.745-4.6619,7.9273a3.564,3.564,0,0,0,1.35,2.3518,5.2779,5.2779,0,0,0,3.8924.4562C453.6,109.9423,475.0648,103.7815,470.6348,94.2574Z" style="fill:#ffe000"/><path id="underarm" d="M425.4841,103.7688l17.3826.3436c2.061.0407,4.52.3147,5.4679,2.145.8269,1.596-.0746,3.6777-1.586,4.65a7.9164,7.9164,0,0,1-5.2156.85c-1.7852-.2089-3.5436-.6805-5.3408-.71-1.1482-.0188-2.2911.1437-3.4379.2054-2.8654.1541-10.37.0874-12.1564-2.6932C418.4064,105.1479,422.8306,103.7163,425.4841,103.7688Z" style="fill:#ffe000"/><path d="M458.952,81.0929a28.499,28.499,0,0,1-5.273,1.6467,25.5882,25.5882,0,0,0-5.1884,2.1418c-1.55.8424-3.0188,1.8263-4.4845,2.8087l-8.4413,5.6574c-.1546-1.8187,1.7795-3.1752,2.0814-4.9753a6.7594,6.7594,0,0,0-.3816-2.7814c-1.0841-4.155-.86-8.83,1.5009-12.4166A12.8365,12.8365,0,0,1,449.41,67.6261a14.854,14.854,0,0,1,10.9633,5.2012C462.9125,75.7669,462.6175,79.22,458.952,81.0929Z" style="fill:#26251e"/><path d="M458.0118,80.8556a28.499,28.499,0,0,1-5.273,1.6467,25.5962,25.5962,0,0,0-5.1884,2.1418c-1.55.8424-3.0188,1.8263-4.4845,2.8087L434.6246,93.11c-.1546-1.8188,1.78-3.1753,2.0814-4.9754a6.7594,6.7594,0,0,0-.3816-2.7814c-1.084-4.155-.86-8.83,1.501-12.4166A12.8368,12.8368,0,0,1,448.47,67.3888,14.8538,14.8538,0,0,1,459.4334,72.59C461.9724,75.53,461.6773,78.9828,458.0118,80.8556Z" style="fill:url(#New_Gradient_Swatch_4-2)"/><path d="M452.8139,73.7676,449.65,85.8538a.9839.9839,0,0,0-.0455.45,1.3942,1.3942,0,0,0,.29.4821c.7141.996.1566,2.3939-.556,3.3909a6.5581,6.5581,0,0,1-2.6019,2.3027,3.3683,3.3683,0,0,1-3.3424-.2618,3.2381,3.2381,0,0,1-.264-4.7447A7.8247,7.8247,0,0,1,448.5316,85.5q1.6741-6.147,3.0778-12.3634a6.1008,6.1008,0,0,0,.1842-1.1632,8.8154,8.8154,0,0,0-.1607-1.48,10.32,10.32,0,0,1-.0215-2.7221c.02-.1592,1.3383.0667,1.44.2038.2336.3155.1621,1.4842.2183,1.8549A9.8352,9.8352,0,0,1,452.8139,73.7676Z" style="fill:#260a18"/><ellipse cx="446.0947" cy="89.2405" rx="3.7016" ry="2.4241" transform="translate(55.3691 322.2595) rotate(-42.1234)" style="fill:#fff"/><path d="M479.2345,178.0278a6.1222,6.1222,0,0,1-.9947,2.8978c-1.6575,2.12-4.9828,1.3635-7.4986.4072a1.63,1.63,0,0,0-1.4591-1.6052,6.5036,6.5036,0,0,0-2.3668.2686,11.7438,11.7438,0,0,1-10.8023-3.5087c-.4445-1.2111.6045-2.5441,1.8346-2.9327a8.8221,8.8221,0,0,1,3.8349.05,26.5746,26.5746,0,0,0,6.6873.0628,2.1181,2.1181,0,0,0,1.1178-.3618,2.2376,2.2376,0,0,0,.4911-1.9432l-1.4015-20.53a9.6928,9.6928,0,0,1,.5152-4.9093c1.1406-2.3541,4.93-3.6746,6.8324-1.5728,1.9854,2.1937,2.3681,7.4235,2.8785,10.22A70.6668,70.6668,0,0,1,479.2345,178.0278Z" style="fill:#26251e"/><path d="M468.9379,174.3277a3.4579,3.4579,0,0,0-1.04-1.6042c-.4919-.4766-2.45.2508-2.8228.6336s-1.2716.8032-1.5416.342c-.0336-.5793.7014-1.2393,1.2054-1.5271a8.9633,8.9633,0,0,1,2.9569-1.2451,3.0433,3.0433,0,0,1,2.9113.975,4.4306,4.4306,0,0,1,.432,3.2675q-.5992,4.517-1.63,8.9627a.9152.9152,0,0,1-.2308.4983c-.2566.2278-.6575.1034-.9686-.0414a17.1625,17.1625,0,0,1-4.5314-3.0749c-.1266-.12-.8593-.6065-.8638-.7805-.0074-.28.942-.6534,1.2117-.7292,1.5631-.4393,3.9319,2.0737,4.91,1.5084C470.29,180.7306,469.2593,175.4877,468.9379,174.3277Z" style="fill:#515151"/></g><path d="M424.15,191.5928c-2.3355-.7523-4.1081-2.63-6.287-3.7586-10.098-5.2284-19.2287-11.4385-28.6947-16.428-.573,1.4334-1.2931,1.1618-1.2468,2.7048.0413,1.3734.3619,3.7362.4149,4.1022.9668,6.6759,2.6011,11.4,3.4952,17.6857a18.4461,18.4461,0,0,1,8.4316-2.5453,4.1923,4.1923,0,0,1,2.3071.3578c1.2454.6944,1.612,2.2879,1.8112,3.7a72.2966,72.2966,0,0,1,.7077,10.5375c-.01,1.5645-.239,3.4175-1.619,4.1545a3.4963,3.4963,0,0,1-2.2427.2228c-5.0394-.8792-7.8619-6.4444-12.514-8.5718-2.6536-1.2135-4.6873-1.556-6.6506-3.2106-1.0442-.88-1.1863-2.8979-1.4045-4.2459-1.171-7.231-1.7-14.7841-3.1694-21.96-.4377-2.1375-1.054-4.298-.7961-6.4646.4637-3.8962,3.7762-7.0126,7.4986-8.2535a20.422,20.422,0,0,1,11.644-.2249c13.89,3.7357,28.1515,10.5052,42.3018,9.8817,1.4134-.0623,2.1886-.9285,2.8781.3068.8243,1.4766-.5932,3.1293-1.3123,4.66-1.8833,4.0089.2224,8.607-2.442,12.41C434.3464,190.8137,429.1586,193.2062,424.15,191.5928Z" style="fill:url(#linear-gradient-7)"/></g><path d="M718.5077,303.917c-.675-5.7271-.322-11.5526-.2837-17.3446C718.3506,267.45,723.3,248.2368,720,229.5c-.6378-3.6218-1.2685-10.3423-2-14-1-5-11.6756.0379-13-6-6.8158,6.5846-17.3628,3.7862-21,12-.07-5.2682-4.465-5.1789-7.7545-9.4342-4.9464,3.5869-1.5025,13.7345-7.752,13.9492-1.9044.0655-3.4159-1.1822-4.7042-2.3484l-11.5255-10.4328.9727,13.6218c-1.5517-5.3073-6.1077-9.7377-11.9456-11.6165C650.3405,262.2279,656.95,317.5112,666,364.5c13.6663-2.7034,44.8522-11.6829,55.2426-21.465C732.453,332.4809,719.8951,315.6889,718.5077,303.917Z" style="fill:#3a4222"/><path d="M626.62,306.4372c.8474-5.7867,4.0488-11.5623,6.5282-17.3379,8.1861-19.0686,8.5228-38.2114,8.8392-57.2594.0611-3.682.0927-7.4386-2.9274-10.83-5.0765-5.7-18.504-10.0974-18.99-16.2633-18.0583,5.8458-33.4337,12.93-45.0123,20.74,2.0183-5.2645.055-10.6035-5.5892-15.1995-12.6128,3.0533-9.056,13.5456-23.2079,13.0953a20.3386,20.3386,0,0,1-9.6156-2.8437L515.02,208.9022l-3.44,13.6963c-1.299-5.4611-9.7206-10.3665-22.0815-12.8621.9492,47.8514-7.0188,103.72-6.0695,151.5717,31.87-1.2444,105.7582-6.8886,133.1815-15.545C646.1989,336.4234,624.8781,318.3317,626.62,306.4372Z" style="fill:#3a4222"/><path d="M533.7556,318.6307c-.5075-6.16-2.8686-12.309-4.6613-18.4578-5.9188-20.301-5.6557-40.6759-5.3793-60.95.0535-3.919.1323-7.9174,2.6035-11.525,4.154-6.064,14.8467-10.7351,15.3991-17.2975,14.0559,6.2339,25.9653,13.784,34.8656,22.1037-1.4437-5.6046.2492-11.2858,4.82-16.1739,9.8457,3.258,6.756,14.4231,17.91,13.9531a13.5745,13.5745,0,0,0,7.6487-3.02l17.3463-12.371,2.33,14.58c1.1733-5.8116,7.939-11.0272,17.7394-13.6753l-5.2716,129.8583a23.3482,23.3482,0,0,1-23.6024,22.3994c-26-.3022-58.9086-.6239-74.9531-7.5608C517.5139,350.5337,534.7988,331.2917,533.7556,318.6307Z" style="fill:#434d28"/><path d="M572.7556,319.6307c-.5075-6.16-2.8686-12.309-4.6613-18.4578-5.9188-20.301-5.6557-40.6759-5.3793-60.95.0535-3.919.1323-7.9174,2.6035-11.525,4.154-6.064,14.8467-10.7351,15.3991-17.2975,14.0559,6.2339,25.9653,13.784,34.8656,22.1037-1.4437-5.6046.2492-11.2858,4.82-16.1739,9.8457,3.258,6.756,14.4231,17.91,13.9531a13.5745,13.5745,0,0,0,7.6487-3.02l17.3463-12.371,2.33,14.58c1.1733-5.8116,7.939-11.0272,17.7394-13.6753l-5.2716,129.8583a23.3482,23.3482,0,0,1-23.6024,22.3994c-26-.3022-58.9086-.6239-74.9531-7.5608C556.5139,351.5337,573.7988,332.2917,572.7556,319.6307Z" style="fill:#434d28"/><path d="M601.8093,319.1808c1.24-6.2811,5.1725-12.445,8.2792-18.6411,10.257-20.4569,11.537-41.345,12.7894-62.13.2421-4.0178.4537-8.1185-2.8429-11.9564-5.5415-6.4513-20.6981-11.8516-20.9654-18.6061-20.9335,5.5777-38.8553,12.6275-52.4673,20.6386,2.5552-5.6586.5587-11.576-5.684-16.8465-14.5728,2.7713-10.9939,14.3871-27.1638,13.2641a24.019,24.019,0,0,1-10.8681-3.5342L478.69,207.6976,474.1142,222.5c-1.2309-6.0212-10.6366-11.7535-24.6618-15.03L446,364.3521c36.5205.063,110.7411,5.5532,142.52-2.6757C622.8075,352.7979,599.26,332.0913,601.8093,319.1808Z" style="fill:#434d28"/></g></svg>