<svg xmlns="http://www.w3.org/2000/svg" viewBox="0 0 275 45"><title>gameover</title><g id="bg"><g id="stands"><path d="M40.9058,16.3833,37.8433,28.4751a8.98,8.98,0,0,1-.8448,1.98,9.6891,9.6891,0,0,1-1.373,1.8745,8.2911,8.2911,0,0,1-1.69,1.3994,3.32,3.32,0,0,1-1.7426.5542H11.0723a2.1746,2.1746,0,0,1-1.4785-.5542A3.8959,3.8959,0,0,1,8.5908,32.33a6.2148,6.2148,0,0,1-.4756-1.8745,5.2869,5.2869,0,0,1,.1587-1.98l4.752-19.0093a6.8622,6.8622,0,0,1,.8183-1.98A9.9132,9.9132,0,0,1,15.27,5.6113a8.5829,8.5829,0,0,1,1.7427-1.3994,3.3754,3.3754,0,0,1,1.7158-.5542H44.0742L42.5957,9.4658H21.4746L16.7222,28.4751H29.395l3.0625-12.0918Z"/><path d="M43.1494,23.4321a10.5785,10.5785,0,0,1,1.3994-1.8745,8.2994,8.2994,0,0,1,1.69-1.3989,3.3158,3.3158,0,0,1,1.7427-.5547h9.61L56.165,25.4121H50.7793l-.792,3.063h7.709l3.01-11.9336H45.0767l1.4257-5.8081H66.356a2.1759,2.1759,0,0,1,1.4785.5542,3.9144,3.9144,0,0,1,1.0034,1.3994,5.75,5.75,0,0,1,.4487,1.8745,6.733,6.733,0,0,1-.1318,1.98L64.7192,34.2832H44.3374a2.1746,2.1746,0,0,1-1.4785-.5542A3.8957,3.8957,0,0,1,41.856,32.33a6.2119,6.2119,0,0,1-.4756-1.8745,5.2849,5.2849,0,0,1,.1587-1.98l.792-3.063A6.8315,6.8315,0,0,1,43.1494,23.4321Z"/><path d="M95.7671,34.2832l4.4355-17.7417H94.13L89.6948,34.2832H82.936l4.4356-17.7417H81.2993L76.8638,34.2832H68.4155l5.8609-23.55H88.85a2.2829,2.2829,0,0,1,.792.1846,5.4417,5.4417,0,0,1,.8979.4487q.4219.2652.7657.5283a1.5715,1.5715,0,0,1,.4487.4751,3.22,3.22,0,0,1,.6865-.4751q.4746-.2637,1.0557-.5283a11.9116,11.9116,0,0,1,1.1352-.4487,2.967,2.967,0,0,1,.8716-.1846h10.3491a2.1769,2.1769,0,0,1,1.4786.5542,3.92,3.92,0,0,1,1.0034,1.3994,5.7627,5.7627,0,0,1,.4487,1.8745,6.7364,6.7364,0,0,1-.1318,1.98l-4.4356,17.7417Z"/><path d="M136.1606,19.604a8.9615,8.9615,0,0,1-.8447,1.98,9.7155,9.7155,0,0,1-1.373,1.8745,8.307,8.307,0,0,1-1.69,1.3994,3.3174,3.3174,0,0,1-1.7422.5542H120.9l1.4258-5.8081h5.3857l.792-3.0625h-7.709l-3.01,11.9336h15.6294l-1.4253,5.8081h-19.854a2.1751,2.1751,0,0,1-1.4786-.5542,3.8969,3.8969,0,0,1-1.0029-1.3994,6.2119,6.2119,0,0,1-.4756-1.8745,5.2869,5.2869,0,0,1,.1587-1.98l3.01-11.9336a6.8275,6.8275,0,0,1,.8183-1.98,10.5742,10.5742,0,0,1,1.3995-1.8745,8.2827,8.2827,0,0,1,1.6894-1.3994,3.3152,3.3152,0,0,1,1.7427-.5542h16.1572a2.1755,2.1755,0,0,1,1.4785.5542,3.912,3.912,0,0,1,1.0034,1.3994,5.7526,5.7526,0,0,1,.4488,1.8745,6.733,6.733,0,0,1-.1319,1.98Z"/><path d="M188.5928,9.4658,183.84,28.4751a8.98,8.98,0,0,1-.8447,1.98,9.6891,9.6891,0,0,1-1.373,1.8745,8.2965,8.2965,0,0,1-1.69,1.3994,3.32,3.32,0,0,1-1.7427.5542H157.0693a2.175,2.175,0,0,1-1.4785-.5542,3.8969,3.8969,0,0,1-1.0029-1.3994,6.2119,6.2119,0,0,1-.4756-1.8745,5.2849,5.2849,0,0,1,.1587-1.98l4.7519-19.0093a6.8627,6.8627,0,0,1,.8184-1.98,9.9132,9.9132,0,0,1,1.4258-1.8745A8.5829,8.5829,0,0,1,163.01,4.2119a3.3754,3.3754,0,0,1,1.7158-.5542h21.1211a2.08,2.08,0,0,1,1.4521.5542,4.0918,4.0918,0,0,1,.9771,1.3994,5.7627,5.7627,0,0,1,.4487,1.8745A6.735,6.735,0,0,1,188.5928,9.4658Zm-21.1211,0-4.7525,19.0093h12.6729L180.144,9.4658Z"/><path d="M191.1265,10.7334h9.3462l1.0561,17.583q.1583-.1583.3169-.2905a2.0093,2.0093,0,0,0,.3164-.3428l9.6631-16.95h6.1777L206.0171,31.3789a6.216,6.216,0,0,1-2.561,2.3765,7.5537,7.5537,0,0,1-2.878.5278h-3.5376a5.7911,5.7911,0,0,1-2.8515-.5542,2.7072,2.7072,0,0,1-1.2144-1.98Z"/><path d="M243.2427,19.604a8.9621,8.9621,0,0,1-.8448,1.98,9.7113,9.7113,0,0,1-1.373,1.8745,8.3092,8.3092,0,0,1-1.69,1.3994,3.3176,3.3176,0,0,1-1.7422.5542h-9.61l1.4258-5.8081h5.3857l.792-3.0625H227.877l-3.01,11.9336h15.6294l-1.4253,5.8081h-19.854a2.1746,2.1746,0,0,1-1.4785-.5542,3.8959,3.8959,0,0,1-1.003-1.3994,6.2148,6.2148,0,0,1-.4755-1.8745,5.2869,5.2869,0,0,1,.1586-1.98l3.01-11.9336a6.8252,6.8252,0,0,1,.8184-1.98,10.5785,10.5785,0,0,1,1.3994-1.8745,8.2827,8.2827,0,0,1,1.6894-1.3994,3.3152,3.3152,0,0,1,1.7427-.5542h16.1572a2.176,2.176,0,0,1,1.4786.5542,3.9144,3.9144,0,0,1,1.0034,1.3994,5.75,5.75,0,0,1,.4487,1.8745,6.7364,6.7364,0,0,1-.1318,1.98Z"/><path d="M247.7305,16.5415a6.8275,6.8275,0,0,1,.8183-1.98,10.5785,10.5785,0,0,1,1.3994-1.8745,8.2859,8.2859,0,0,1,1.6895-1.3994,3.3149,3.3149,0,0,1,1.7427-.5542H266l-1.4258,5.8081h-8.3955l-4.4355,17.7417h-8.4483Z"/><path d="M44.6211,18.4209,41.6089,30.313a8.7979,8.7979,0,0,1-.8311,1.9473,9.5118,9.5118,0,0,1-1.35,1.8437,8.1684,8.1684,0,0,1-1.6616,1.376,3.2633,3.2633,0,0,1-1.7139.5454H15.28a2.1379,2.1379,0,0,1-1.4541-.5454,3.83,3.83,0,0,1-.9868-1.376,6.1055,6.1055,0,0,1-.4673-1.8437,5.1964,5.1964,0,0,1,.1557-1.9473l4.6739-18.6953A6.7247,6.7247,0,0,1,18.0059,9.67a9.7492,9.7492,0,0,1,1.4023-1.8437,8.4223,8.4223,0,0,1,1.7139-1.376A3.3186,3.3186,0,0,1,22.81,5.9053H47.7368l-1.4541,5.7124H25.51L20.8364,30.313H33.3L36.312,18.4209Z" style="fill:#feb700"/><path d="M46.8276,25.3535a10.4209,10.4209,0,0,1,1.376-1.8437,8.1626,8.1626,0,0,1,1.6621-1.376,3.26,3.26,0,0,1,1.7134-.5454h9.4517l-1.4024,5.7124H54.3315l-.7788,3.0122h7.5821l2.96-11.7363H48.7231l1.4019-5.7124H69.6514a2.1418,2.1418,0,0,1,1.4541.5449,3.8519,3.8519,0,0,1,.9868,1.3764,5.6765,5.6765,0,0,1,.4414,1.8433,6.6361,6.6361,0,0,1-.13,1.9478L68.0415,36.0254H47.9961A2.1379,2.1379,0,0,1,46.542,35.48a3.83,3.83,0,0,1-.9868-1.376,6.1055,6.1055,0,0,1-.4673-1.8437,5.1944,5.1944,0,0,1,.1558-1.9473l.7788-3.0122A6.7321,6.7321,0,0,1,46.8276,25.3535Z" style="fill:#feb700"/><path d="M98.5767,36.0254l4.3623-17.4487H96.9668L92.605,36.0254H85.9575L90.32,18.5767H84.3477L79.9854,36.0254H71.6763l5.7646-23.1611h14.333a2.2453,2.2453,0,0,1,.7788.1816,5.3229,5.3229,0,0,1,.8828.4414q.4154.26.753.519a1.534,1.534,0,0,1,.4414.4678,3.1863,3.1863,0,0,1,.6753-.4678q.4672-.2592,1.0386-.519a11.63,11.63,0,0,1,1.1166-.4414,2.9138,2.9138,0,0,1,.857-.1816h10.1782a2.1408,2.1408,0,0,1,1.4541.5449,3.8519,3.8519,0,0,1,.9868,1.3764,5.6611,5.6611,0,0,1,.4414,1.8433,6.6158,6.6158,0,0,1-.13,1.9478l-4.3623,17.4487Z" style="fill:#feb700"/><path d="M138.3032,21.5884a8.8,8.8,0,0,1-.8305,1.9477,9.55,9.55,0,0,1-1.35,1.8433,8.18,8.18,0,0,1-1.6622,1.3765,3.2651,3.2651,0,0,1-1.7138.5449h-9.4512l1.4019-5.7124h5.2973l.7788-3.0117h-7.582l-2.96,11.7363H135.603l-1.4023,5.7124H114.6748a2.1379,2.1379,0,0,1-1.4541-.5454,3.83,3.83,0,0,1-.9868-1.376,6.1055,6.1055,0,0,1-.4673-1.8437,5.1944,5.1944,0,0,1,.1558-1.9473l2.96-11.7363a6.7322,6.7322,0,0,1,.8052-1.9478,10.4312,10.4312,0,0,1,1.376-1.8433,8.1623,8.1623,0,0,1,1.6621-1.3764,3.2591,3.2591,0,0,1,1.7134-.5449H136.33a2.1417,2.1417,0,0,1,1.4541.5449,3.8519,3.8519,0,0,1,.9868,1.3764,5.6739,5.6739,0,0,1,.4414,1.8433,6.6327,6.6327,0,0,1-.13,1.9478Z" style="fill:#feb700"/><path d="M189.87,11.6177,185.1963,30.313a8.7979,8.7979,0,0,1-.8311,1.9473,9.5118,9.5118,0,0,1-1.35,1.8437,8.1684,8.1684,0,0,1-1.6616,1.376,3.2633,3.2633,0,0,1-1.7139.5454H158.8672a2.1379,2.1379,0,0,1-1.4541-.5454,3.83,3.83,0,0,1-.9868-1.376,6.1055,6.1055,0,0,1-.4673-1.8437,5.1964,5.1964,0,0,1,.1557-1.9473l4.6739-18.6953a6.7247,6.7247,0,0,1,.8047-1.9473,9.7492,9.7492,0,0,1,1.4023-1.8437,8.4223,8.4223,0,0,1,1.7139-1.376,3.3186,3.3186,0,0,1,1.6875-.5454h20.7724a2.0454,2.0454,0,0,1,1.4283.5454,4.0255,4.0255,0,0,1,.9609,1.376A5.6732,5.6732,0,0,1,190,9.67,6.6293,6.6293,0,0,1,189.87,11.6177Zm-20.7724,0L164.4238,30.313h12.4634l4.6738-18.6953Z" style="fill:#feb700"/><path d="M192.3623,12.8643h9.1919l1.0386,17.2929c.104-.104.208-.1987.3115-.2856a1.9454,1.9454,0,0,0,.3115-.3374l9.5034-16.67h6.0762L207.0068,33.1689a6.1051,6.1051,0,0,1-2.5185,2.337,7.4185,7.4185,0,0,1-2.83.52h-3.48a5.69,5.69,0,0,1-2.8042-.5454,2.661,2.661,0,0,1-1.1943-1.9473Z" style="fill:#feb700"/><path d="M243.6182,21.5884a8.8,8.8,0,0,1-.8306,1.9477,9.55,9.55,0,0,1-1.35,1.8433,8.1767,8.1767,0,0,1-1.6621,1.3765,3.2657,3.2657,0,0,1-1.7139.5449H228.61l1.4018-5.7124H235.31l.7788-3.0117h-7.5821l-2.96,11.7363H240.918l-1.4024,5.7124H219.99a2.1381,2.1381,0,0,1-1.4541-.5454,3.83,3.83,0,0,1-.9868-1.376,6.1113,6.1113,0,0,1-.4673-1.8437,5.1964,5.1964,0,0,1,.1558-1.9473l2.96-11.7363a6.729,6.729,0,0,1,.8051-1.9478,10.4361,10.4361,0,0,1,1.376-1.8433,8.165,8.165,0,0,1,1.6621-1.3764,3.2591,3.2591,0,0,1,1.7134-.5449H241.645a2.1417,2.1417,0,0,1,1.4541.5449,3.8507,3.8507,0,0,1,.9868,1.3764,5.6739,5.6739,0,0,1,.4414,1.8433,6.6327,6.6327,0,0,1-.13,1.9478Z" style="fill:#feb700"/><path d="M248.0322,18.5767a6.7322,6.7322,0,0,1,.8052-1.9478,10.4312,10.4312,0,0,1,1.376-1.8433,8.1623,8.1623,0,0,1,1.6621-1.3764,3.2591,3.2591,0,0,1,1.7134-.5449h12.4116l-1.4019,5.7124h-8.2573L251.979,36.0254H243.67Z" style="fill:#feb700"/></g></g></svg>