<svg xmlns="http://www.w3.org/2000/svg" xmlns:xlink="http://www.w3.org/1999/xlink" viewBox="0 0 400 400"><defs><linearGradient id="linear-gradient" x1="58.7393" y1="240.242" x2="164.6551" y2="240.242" gradientUnits="userSpaceOnUse"><stop offset="0.3354"/><stop offset="1" stop-color="#974f26"/></linearGradient><linearGradient id="linear-gradient-2" x1="258.8325" y1="227.0637" x2="310.9301" y2="227.0637" gradientUnits="userSpaceOnUse"><stop offset="0" stop-color="#974f26"/><stop offset="0.6646"/></linearGradient><linearGradient id="linear-gradient-3" x1="50.5501" y1="282.297" x2="143.9338" y2="188.9134" gradientUnits="userSpaceOnUse"><stop offset="0.1761"/><stop offset="0.5212" stop-color="#974f26"/></linearGradient><linearGradient id="linear-gradient-4" x1="-374.8782" y1="-243.3942" x2="-367.8884" y2="-243.3942" gradientTransform="translate(434.1376 578.2026) rotate(43.566)" gradientUnits="userSpaceOnUse"><stop offset="0" stop-color="#974f26"/><stop offset="0.7774" stop-color="#542c15"/></linearGradient><linearGradient id="linear-gradient-5" x1="-440.5877" y1="-357.7887" x2="-432.1133" y2="-357.7887" gradientTransform="matrix(0.3473, 0.5244, -0.8337, 0.5522, 191.4238, 578.5646)" xlink:href="#linear-gradient-4"/><linearGradient id="linear-gradient-6" x1="-41.6118" y1="11.019" x2="-36.6118" y2="11.019" gradientTransform="translate(388.0766 215.4266) rotate(28.6467)" gradientUnits="userSpaceOnUse"><stop offset="0.2226"/><stop offset="1" stop-color="#974f26"/></linearGradient><linearGradient id="New_Gradient_Swatch_4" x1="128.082" y1="117.5915" x2="182.194" y2="117.5915" gradientTransform="translate(55.7009 18.6527) rotate(-0.2217)" gradientUnits="userSpaceOnUse"><stop offset="0" stop-color="#c7af00"/><stop offset="1" stop-color="#ffe000"/></linearGradient><linearGradient id="New_Gradient_Swatch_4-2" x1="181.2787" y1="105.3009" x2="205.519" y2="105.3009" xlink:href="#New_Gradient_Swatch_4"/><linearGradient id="linear-gradient-7" x1="245.466" y1="203.2059" x2="292.0198" y2="249.7596" gradientTransform="translate(22.1832 -25.9788) rotate(5.6817)" gradientUnits="userSpaceOnUse"><stop offset="0.4788" stop-color="#974f26"/><stop offset="0.8239"/></linearGradient></defs><title>jumping</title><g id="jumping"><path d="M150.5386,222.2532c-2.1746.1721-4.5027.4043-6.176,1.8038-4.2406,3.5468-1.46,11.8172-6.0261,14.9336a10.0267,10.0267,0,0,1-4.116,1.3072l-7.168,1.1731a47.5657,47.5657,0,0,1-6.412.7532,47.572,47.572,0,0,1-5.9439-.34l-31.76-3.1519c3.0719.5086,4.0722,4.3586,4.4038,7.4546a112.7049,112.7049,0,0,1,.9433,15.5421,7.9067,7.9067,0,0,1-1.2,4.6405c-2.905,3.7874-10.2449,1.0135-12.9272,4.9617-.5083.7481-.8285,1.7231-1.6533,2.0941a3.0817,3.0817,0,0,1-1.5235.1309q-5.3154-.4409-10.6237-.9638c-.6781-.0668-1.5314-.2958-1.6118-.9724a1.53,1.53,0,0,1,.4349-1.0421c2.4288-3.1855,5.0081-6.3768,8.4223-8.472s7.8611-2.9247,11.4534-1.152c2.1541-1.7829,1.08-5.1823.3339-7.8771a43.311,43.311,0,0,1-1.12-10.6112c-.049-2.1561-.076-4.4143.9022-6.3364,1.4165-2.7836,4.6277-4.2,7.7173-4.6569s6.2526-.1737,9.3427-.6279c6.1063-.8975,11.3964-4.5632,16.4344-8.1284,9.1855-6.5,18.7752-13.1855,29.8661-15.0876a75.5848,75.5848,0,0,1,12.6358-.7332c2.842-.0058,6.0074.115,8.0164,2.1253a5.6491,5.6491,0,0,1-.5763,8.1514c-1.6638,1.2507-3.7147,1.8594-5.4091,3.0831-1.0253.74-.72,1.1316-1.9305,1.6276C154.029,222.3905,151.8863,222.1465,150.5386,222.2532Z" style="fill:url(#linear-gradient)"/><path d="M301.9262,204.3459a8.391,8.391,0,0,1,4.6717,1.1237,8.2966,8.2966,0,0,1,2.151,2.7761,15.2622,15.2622,0,0,1,2.0843,5.04c.43,2.7678-.6477,5.5232-1.7043,8.1173L300.481,242.634a12.5729,12.5729,0,0,1-1.4041,2.7682c-1.6361,2.2215-4.4976,3.1108-7.1875,3.7241a40.4992,40.4992,0,0,1-12.5693,1.1706,1.7639,1.7639,0,0,1-1.2652-.4826,1.8165,1.8165,0,0,1-.2555-1.2063l.2108-8.5325a2.6335,2.6335,0,0,1,.48-1.7711,2.2905,2.2905,0,0,1,1.3085-.5848,9.038,9.038,0,0,1,6.1251,1.0881,22.61,22.61,0,0,0,3.0782,1.8646,2.8894,2.8894,0,0,0,3.3078-.5874,3.9136,3.9136,0,0,0,.5272-1.1046l3.8853-10.9726a19.0269,19.0269,0,0,0,1.2638-5.5575l.6537-5.67c-10.7493,2.2968-21.9165,1.8582-32.8066.3655a13.4138,13.4138,0,0,1-4.2575-1.0892,4.7824,4.7824,0,0,1-2.6957-3.291,4.8433,4.8433,0,0,1,2.1737-4.4791c2.7828-2.02,6.5159-2.0867,9.65-3.2707a19.8167,19.8167,0,0,1,8.278-1.2927C286.6345,203.832,294.277,204.1335,301.9262,204.3459Z" style="fill:url(#linear-gradient-2)"/><path d="M100.63,173.2a36.1639,36.1639,0,0,0-7.7436,1.3262c-4.5551,1.4032-8.4571,4.3424-12.1712,7.2305a26.3493,26.3493,0,0,0-5.6271,6.5938c-5,8-10,33-14,46-1.5,4.8735-15,19.9546-15,31,0,5,13.7148,2.8326,17-1,6-7,4-4,9-14,9.4021-18.8043,9.3377-37.367,10-45,.7509-8.6549,6.3344-17.0476,13.0662-22.4646a52.1378,52.1378,0,0,1,6.4046-4.4448,22.3983,22.3983,0,0,0,2.0394-1.11c1.2015-.8875,3.2814-4.4342,4.82-4.5026C105.9273,172.94,103.2674,172.9926,100.63,173.2Z" style="fill:#211808"/><path id="body" d="M233.6761,154.7677s-19.9985,4.0074-23.9963,10.0089-55.0014-3.98-55.0014-3.98-26-.99-37.9978,6.0141-25.8252,20.5-26.2484,23.47c-.9974,7,.2636,17.54,1.2651,21.5393.73,2.9146,8.2361,14.7844,14.7509,21.4548,3.0727,3.1461,10.2694.5673,14.6395.0755,8.9774-1.01-5.7077-.9708,20-13,.8983-.42,10.058,1.69,11,2,.449.1479,32.6192,15.4352,61.6188,14.4244.893.584,22.742-2.5481,37.9978-6.0141,14.3836-3.2678,21.6389-13.4079,21.7364-17.5478,0,0,5.6141-14.37,3.9926-20.0015-.65-2.2569-1.2965-11.239-2.0033-8.9992C275.9925,184.2038,266.6757,153.7555,233.6761,154.7677Z" style="fill:#974f26"/><path d="M133.4564,231.3745a13.8909,13.8909,0,0,1-1.2819,3.6433c-1.1146,1.7909-3.179,2.7188-5.142,3.491-8.8538,3.4825-18.3856,5.8717-27.8435,4.8392-4.7736-.5212-9.5331-1.907-14.299-1.3194-.5293.0653-.8579,1.765-.8023,2.3221,1.04,10.4338.1834,20.8366.1642,31.3221a5.6069,5.6069,0,0,1-1.949,2.8683c-3.2528,1.2066-5.4869,4.1667-8.3435,6.1357-3.8007,2.62-9.1968,6.4018-13.8717,6.6739-1.9626.1142-1.69-4.7825-1.8343-6.7431-.1657-2.2569.8306-6.521,2.8343-8.2569,3.0228-2.619,9.0689-2.0744,12.8661-.8186-1.5842-.5477-1.792-2.6689-1.7164-4.3434l.7045-15.5917a19.58,19.58,0,0,0-.4759-5.4639c-.6853-2.8488-.8742-5.5177-1.6931-8.2287a31.1181,31.1181,0,0,1-1.1947-11.8124,3.5221,3.5221,0,0,1,.6236-1.9841,3.3359,3.3359,0,0,1,1.7231-.9259c6.2131-1.7329,12.9872.4714,19.2113-1.5164a5.5848,5.5848,0,0,0,3.2464-2.4491c2.7-4.7819-3.2949-7.8658-1.8594-13.7585.2351-.965,1.4186-1.3966,2.3213-1.8109,17.3218-7.95,36.942-8.1406,55.9414-8.2084,2.2094-.0078,4.7378.11,5.7738,2.4862a4.548,4.548,0,0,1-.3016,4.0582c-1.9733,3.4215-5.4382,4.9826-7.4975,8.2513a12.2484,12.2484,0,0,1-4.19,4.1452C139.3569,221.39,135.1533,225.3975,133.4564,231.3745Z" style="fill:url(#linear-gradient-3)"/><g id="head"><path d="M320.1616,143.5506a2.0159,2.0159,0,0,0-2.8192.0464,1.5926,1.5926,0,0,0,.7861,2.4933,13.5736,13.5736,0,0,0-7.0371-.9788,2.1038,2.1038,0,0,0-1.33-3.0853c-1.3193-.1662-2.4121,1.7046-1.4959,2.6682a8.2162,8.2162,0,0,0-6.84-.1873,1.8587,1.8587,0,1,0-3.5643.49,11.46,11.46,0,0,0-6.9443-.517c.9374-.9815-.2872-2.8275-1.6336-2.6571a2.7193,2.7193,0,0,0-2.0371,3.0538,33.627,33.627,0,0,0-5.9979.4205,5.9075,5.9075,0,0,0-2.1279-2.3271,1.4243,1.4243,0,0,0-.7557-.27,1.1189,1.1189,0,0,0-.9085,1.3354,3.2414,3.2414,0,0,0,.9262,1.55,14.8108,14.8108,0,0,0-5.8742-.0288,2.5367,2.5367,0,0,0-2.21-3.29,4.4929,4.4929,0,0,0-1.09,3.4636,33.5933,33.5933,0,0,0-6.18,1.4143,5.6761,5.6761,0,0,0-.9236-2.8375,1.9552,1.9552,0,0,0-2.6577-.5011c-.8071.6971-.5838,1.98-.2913,3.0056a15.1077,15.1077,0,0,0-3.861,1.1931,4.5345,4.5345,0,0,0-1.4514-1.7158,1.5583,1.5583,0,0,0-2.0409.2833c-.2774.416-2.397.3265-2.53.8083-.4407,1.5943-12.9395,6.3353-13.1852,7.971-.1567,1.0428,13.0995-1.2923,14.03-.796a7.1048,7.1048,0,0,0,3.0728.6258c9.4082.4,18.7661-1.5706,28.1824-1.6542,7.0407-.0626,14.0483.93,21.0854,1.1647a131.5511,131.5511,0,0,0,18.9681-.8987,10.0937,10.0937,0,0,0,4.0842-.9722c.8794-.5113,1.2011-1.2374,2.2086-.7043,1.0291.5446,2.0222,2.64,2.6749,3.5891.9756,1.4193,1.8647,2.8735,2.9151,4.2376l1.3976,1.8153a1.4841,1.4841,0,0,0,.473-1.4172,5.7246,5.7246,0,0,0-.5438-1.4668,7.5941,7.5941,0,0,1-.8856-4.2141,1.303,1.303,0,0,0-.0222-.7072.9571.9571,0,0,0-.8837-.47c-.3524-.0087-.7044.0763-1.0553.0433a3.5509,3.5509,0,0,1-2.0546-1.4459c-2.5425-2.7866-5.6587-4.0223-8.9442-5.6225A3.0472,3.0472,0,0,0,320.1616,143.5506Z" style="fill:#211808"/><path d="M296.9556,174.09a220.5071,220.5071,0,0,0,34.98,25.4133L330.4713,201.2a131.8035,131.8035,0,0,1-36.7422-28.3319A5.5491,5.5491,0,0,1,296.9556,174.09Z" style="fill:#332115"/><path d="M328.3018,149.2752l4.9278-8.658a3.5006,3.5006,0,0,1,.9349-1.1953,1.1964,1.1964,0,0,1,1.4207-.042c.4893.4167.378,1.1872.2237,1.8111l-2.0445,8.269c-.655.3037-.809,1.2863-1.2893,1.8254a2.552,2.552,0,0,1-2.74.6709C328.8,151.6015,327.8072,150.1442,328.3018,149.2752Z" style="fill:url(#linear-gradient-4)"/><path d="M344.4459,144.1359a.6464.6464,0,0,1,.5772-.08c.2851.158.17.5888.0187.8773l-3.8558,7.3383a7.0583,7.0583,0,0,1-1.3889,2.027c-1.2107,1.0961-3.0157,1.23-4.3972,2.1006a.8375.8375,0,0,0-.3665.3737.8225.8225,0,0,0,.1512.6979,13.1812,13.1812,0,0,0,1.7315,1.9026,4.1959,4.1959,0,0,1,.9285,2.8032c-.5424,1.3878-2.4856-2.6468-2.7878-2.937-.9729-.9343-1.8893-1.9255-2.7888-2.93-1.2808-1.43-3.2034-2.9643-1.6748-4.8715,1.4079-1.7565,4.3034-2.62,6.2513-3.5751Z" style="fill:#974f26"/><path id="neck_head" d="M330.0877,152.3507c.3231-.236,2.0683-.0951,0-1-7.7906-3.4085-36.6444-9.669-93.5534,4.1457-15.7323-1.8955,24.3084,61.4661,30.8778,52.388.83-1.1468,5.4593-4.4751,7.6756-5.5337-.57-7.29,27.0238-28.8812,35-21a11.81,11.81,0,0,1,1.8847,3.1558s1.1134,6.3056,11.6445,12.0585c0,0,6.5413,4.7128,8.2153,7.9062,0,0-1.04,3.99.2357,5.8262s7.419,5.1922,7.419,5.1922,3.1121.5607,4.071-1.1945c0,0,4.3879,2.397,6.2243,1.1212,1.2911-.8969,2.8994-4.4365,3.7407-6.46a5.108,5.108,0,0,0,.2027-3.3262c-.3367-1.2178-10.144-28.9253-10.144-28.9253a10.2844,10.2844,0,0,0-2.7873-9.499C338.64,164.8591,335.3533,157.9393,330.0877,152.3507Z" style="fill:#974f26"/><path d="M336.7308,155.8706c-.8218.5689-4.7846,1.8626-5.4276,1.5929s2.6068-3.5491,3.3324-4.2111l7.2293-6.5963a5.4784,5.4784,0,0,1,1.2084-.9108c.4518-.224.9889-.2846,1.1891-.0329.2523.317-.1207.9039-.4756,1.3791-1.5684,2.0994-2.2938,5.0059-3.8622,7.1053" style="fill:url(#linear-gradient-5)"/><g id="bridle"><circle cx="337.4593" cy="203.557" r="4" style="fill:none;stroke:#ccc;stroke-miterlimit:10"/><circle cx="340.4902" cy="206.3522" r="1.5" style="fill:#ccc"/><path d="M323.067,153.1218c-.5952,6.4959,1.4641,12.9091,3.4969,19.1073l8.9168,27.1881c.3674,1.12,1.8236,2.2483,1.8607,1.2267.0812-2.2346-.607-3.07-1.1735-4.9506l-7.4422-24.7111c-1.6119-5.3519-3.2419-10.888-2.6-16.44.1163-1.0055.28-.8879.87-1.71.7054-.9815,2.57-1.8434,2.7952-3.0309.1613-.8515-2.4795-2.1752-3.51-1.9177C324.6073,148.3015,323.2405,151.2279,323.067,153.1218Z" style="fill:#332115"/><path d="M335.207,161.0737c1.0777.1949,3.81.594,3.9946.7045.4958.2973,1.1408-.018,1.1539.56a5.1453,5.1453,0,0,1-.3468,1.69,1.9605,1.9605,0,0,1-.4491.8564,1.85,1.85,0,0,1-.9659.3865,15.3729,15.3729,0,0,1-7.25-.4488,30.6206,30.6206,0,0,1-4.7952-2.1175,1.3211,1.3211,0,0,1-.8519-1.039c-.8827-2.8663-.5834-3.2383,2.1206-2.3884A60.6514,60.6514,0,0,0,335.207,161.0737Z" style="fill:#332115"/><path d="M334.7324,161.6158c1.0425.158,5.3468.6418,5.4779.765.3462.3254.04.9111-.0331,1.35a1.1686,1.1686,0,0,1-.2727.6836,1.5587,1.5587,0,0,1-.8376.3076,17.3513,17.3513,0,0,1-6.865-.3671,38.6661,38.6661,0,0,1-4.8548-1.6971,2.218,2.218,0,0,1-.558-.2872,1.7891,1.7891,0,0,1-.4189-.5438c-1.321-2.2908-1.1043-2.59,1.5733-1.9054A53.89,53.89,0,0,0,334.7324,161.6158Z" style="fill:#fff"/><path d="M335.276,197.1092q3.36-1.76,6.8838-3.1795a15.3365,15.3365,0,0,1,7.09-1.49c.6352.0619,1.4532.5046,1.222,1.1a1.1145,1.1145,0,0,1-.8042.5368c-5.1764,1.4876-10.7827,2-15.305,4.9257-1.4826.9591-2.8084,2.1568-4.3505,3.017-2.074,1.1569-4.3771-.3605-1.8532-1.7708C330.3311,199.0346,333.0112,198.2956,335.276,197.1092Z" style="fill:#332115"/><path d="M311.1689,185.1384a9.6273,9.6273,0,0,0-1.3783,4.9156c.1494,1.7175,1.6032,3.4456,3.3139,3.232a3.7616,3.7616,0,0,0,2.26-1.4076,1.0414,1.0414,0,0,0,.3444-.8533c-.1105-.4844-.789-.5777-1.2473-.3858a6.0519,6.0519,0,0,1-1.3425.6293,1.6148,1.6148,0,0,1-1.6277-1.1624,4.0237,4.0237,0,0,1,.0306-2.1437c1.05-4.8021,3.9889-8.9293,6.4924-13.16,1.1142-1.8826,7.92-13.3451,6.0979-14.5816C318.906,167.7272,315.18,176.9357,311.1689,185.1384Z" style="fill:#332115"/><path d="M331.4644,203.96a3.8193,3.8193,0,0,0,2.0687.162,1.3643,1.3643,0,0,0,1.02-1.5834c-.2876-.8622-1.4629-.9067-2.3715-.8857a19.65,19.65,0,0,1-8.4892-2.1226,89.517,89.517,0,0,1-10.3-5.85c-3.0161-1.8938-5.49-4.4361-8.2313-6.7091-1.729-1.4335-4.6029-4.7975-5.4836-5.4955-1.7628-1.3969-5.1448-9.2971-7.437-8.5168-3.661,1.2464,2.4437,6.2493,3.263,7.2587a71.5459,71.5459,0,0,0,21.2985,17.8135A68.77,68.77,0,0,0,331.4644,203.96Z" style="fill:#332115"/><path d="M252.4116,153.8017c-.7657-.5919-1.5882-1.51-1.209-2.4a1.8109,1.8109,0,0,1,1.1885-.9079,7.818,7.818,0,0,1,4.0828.1853q3.6723.8665,7.2477,2.0914c-.2883.6421-1.22.5185-1.8983.3314a16.4693,16.4693,0,0,0-8.3049-.1054c.9887,1.33,2.7494,1.772,4.3655,2.1414.6452.1474,1.2943.278,1.9417.4148a136.1711,136.1711,0,0,1,13.3725,3.3207c5.2344,1.6744,9.8008,5.3441,13.8866,8.9434l5.22,4.5981c.4691.4132,2.5755,2.0058,2.8092,2.5857s-1.6845,1.4281-2.2151,1.7588c-.7308.4556-1.4548-1.3852-2.0894-1.9674-3.6145-3.3166-6.9353-7.0253-11.0868-9.6388a38.3043,38.3043,0,0,0-7.2832-3.4289,23.1166,23.1166,0,0,0-3.7874-1.2837c-.8916-.1536-1.7467-.0392-2.6556-.246A35.0093,35.0093,0,0,1,252.4116,153.8017Z" style="fill:#332115"/></g><path d="M338.85,173.0952a.8946.8946,0,0,1,.2051.6341c-.0955,1.3076-1.2457,2.252-2.3,3.0311a1.1426,1.1426,0,0,1-.743.3085,1.1281,1.1281,0,0,1-.5885-.3225c-.7635-.651-3.1263-2.7956-2.9443-4.1106C332.75,170.6823,338.1663,172.2571,338.85,173.0952Z" style="fill:#422a1b"/><path d="M338.6045,174.1c.061.1936.194.3517.1792.5541-.0834,1.1426-1.0885,1.9678-2.01,2.6486a.9986.9986,0,0,1-.6493.27.9849.9849,0,0,1-.5142-.2818c-.6672-.5688-2.9839-2.5071-2.5728-3.5919C333.609,172.1909,338.4922,173.7432,338.6045,174.1Z" style="fill:#170f09"/><path d="M346.8248,204.1455a4.2335,4.2335,0,0,0-.6515,1.81c-.093,1.6551,1.42,3.1911,2.8122,4.4676.6971-1.3894,3.0354-4.2345,2.061-5.9952A2.4709,2.4709,0,0,0,346.8248,204.1455Z" style="fill:url(#linear-gradient-6)"/></g><g id="rider-2" data-name="rider"><path d="M164.2593,170.2307q-.4151,7.8393-.0607,15.6941a6.3393,6.3393,0,0,0,.9232,3.6162,6.0509,6.0509,0,0,0,2.3814,1.6516,49.6355,49.6355,0,0,0,20.8486,4.5931c3.8381-.0028,7.6631-.4524,11.5-.5343,5.888-.1256,11.7774.6147,17.6594.3206s11.9678-1.7606,16.3794-5.6622a3.6264,3.6264,0,0,0,1.1657-1.5423,3.9912,3.9912,0,0,0-.1454-2.1688c-2.0227-7.7854-4.6013-15.4135-7.1775-23.0337-1.0007-2.96-2.2924-6.2464-5.17-7.4643-3.0271-1.2812-6.429.29-9.3857,1.7259-6.2174,3.02-12.8643,5.6131-19.7764,5.5969a69.0387,69.0387,0,0,1-10.16-1.1661c-3.7992-.5772-11.5813-2.79-15.2-1.4544C164.7689,161.6115,164.4114,167.3576,164.2593,170.2307Z" style="fill:#939393"/><path d="M209.4478,235.9543a1.6307,1.6307,0,0,0,1.9937,1.5559l4.2374.0674a3.0783,3.0783,0,0,0,1.8486-.3619c1.0092-.7112.8028-2.237.4977-3.4333a186.3507,186.3507,0,0,1-5.7418-42.537c-.0385-2.0681-.0836-4.2746-1.2493-5.9833-.8406-1.2319-3.1682-2.4649-4.62-1.4962-1.3856.9244-1.0317,3.4531-1.1027,4.9q-.3864,7.8735-.0664,15.7593A173.9641,173.9641,0,0,0,209.4478,235.9543Z" style="fill:#fff"/><path d="M211.619,236.9948a2.7876,2.7876,0,0,0,.4325,1.1571,1.08,1.08,0,0,0,.9687.31l2.7649-.114a1.4479,1.4479,0,0,0,1.18-.44c.6106-.7528.3757-2.2665.0982-3.4471a280.54,280.54,0,0,1-6.5407-42.1992,15.7627,15.7627,0,0,0-1.2078-5.9169c-.6286-1.1933-2.2261-2.3241-3.1083-1.2954-.8418.9817-.4448,3.49-.3958,4.936q.2665,7.8731.9942,15.728A262.1791,262.1791,0,0,0,211.619,236.9948Z" style="fill:#1e1610"/><path d="M273.83,205.3956a25.5351,25.5351,0,0,0,2.7155,2.0778c1.12.437,6.7136-4.0252,4.09-5.79a446.1717,446.1717,0,0,1-47.3947-36.54,27.571,27.571,0,0,0-7.1259-5.0478c-2.0738-.918-5.6952-1.5273-6.262-.3657-.5408,1.1085,2.29,3.278,3.6245,4.5759q7.2655,7.0653,15.2776,13.9942A417.51,417.51,0,0,0,273.83,205.3956Z" style="fill:#1e1610"/><path d="M275.2782,205.38a7.6809,7.6809,0,0,0,1.5407.9044,1.9433,1.9433,0,0,0,1.2948.0621,5.099,5.099,0,0,0,2.4293-2.5036c-.08-.7772-.6265-.8384-2.0291-1.796-16.2912-11.1214-31.9764-22.8715-46.64-34.939a38.4109,38.4109,0,0,0-6.84-4.8374c-1.7778-.8941-4.4983-1.5295-4.4384-.4574.0572,1.0231,2.8377,3.0979,4.255,4.3324q7.7154,6.72,15.89,13.3275C251.7423,188.3606,263.3172,197.0455,275.2782,205.38Z" style="fill:#fff"/><path d="M172.2749,160.85a7.3756,7.3756,0,0,0-3.4689,5.2479,6.0562,6.0562,0,0,0,.2181,3.7563,5.5044,5.5044,0,0,0,1.683,1.9729c3.6055,2.7868,7.9223,1.9549,12.1069,1.9082a52.25,52.25,0,0,0,14.9774-2.4847,3.4916,3.4916,0,0,0,2.0016-1.1976c1.1879-1.8267-1.5094-1.9869-2.5337-2.29-1.9277-.57-3.84-1.2043-5.7417-1.8546q-5.71-1.9524-11.2559-4.3448c-2.4174-1.0449-4.9614-2.1927-7.5741-1.8617a1.38,1.38,0,0,0-.9678.43C171.5021,160.422,171.9146,160.8057,172.2749,160.85Z" style="fill:#211808"/><path id="saddle" d="M170.1792,156.2873c-1.22,2.7069-.39,5.8926.8565,8.5873a9.4462,9.4462,0,0,0,3.162,4.1542,10.16,10.16,0,0,0,4.6,1.2686,55.59,55.59,0,0,0,15.876-.76c1.0973-.2128,2.42-.39,3.1652.443a2.6676,2.6676,0,0,1,.5526,1.5156c.4071,3.6967-1.7181,7.213-1.9611,10.9241a11.8731,11.8731,0,0,0,8.074,11.6078,13.3063,13.3063,0,0,0,13.792-4.0176,18.3467,18.3467,0,0,0,3.2319-5.7259c1.6351-4.4447,2.0677-9.2265,2.4863-13.9439.2684-3.0253.5244-6.1591-.4784-9.0259a10.7967,10.7967,0,0,0-3.7444-5.0791c-3.5438-2.6208-8.3488-2.8133-12.6936-2.0719s-8.533,2.3-12.9093,2.8248a28.121,28.121,0,0,1-14.19-2.0416C176.7018,153.5616,172.194,151.8159,170.1792,156.2873Z" style="fill:#332115"/><path d="M215.1669,178.6984c.1718-.4813.6083-1.0738,1.0532-.8223a.8406.8406,0,0,1,.318.6965,12.5441,12.5441,0,0,1-.9373,4.97c-2.4269,7.2693-4.3345,15.09-7.4353,22.084-4.1263.9725,1.0586-9.8937,1.85-12.0446C211.829,188.6553,213.4021,183.643,215.1669,178.6984Z" style="fill:#332115"/><path d="M175.0873,151.7536c1.0665,3.8067,4.1369,6.8013,7.6311,8.65s7.4157,2.7032,11.2894,3.4921q9.5557,1.946,19.1812,3.5258c-1.4184-.2328-4.7483,6.4474-5.3367,7.5132-1.6238,2.9417-3.021,6.0341-4.4623,9.0884a2.3745,2.3745,0,0,0-.31,1.0709c.0265.7237.6784,1.2448,1.2707,1.6616,1.2052.848,2.5457,1.7353,4.0144,1.6139a1.559,1.559,0,0,0,.8679-.2993,2.0492,2.0492,0,0,0,.41-.5184c2.1079-3.3586,3.88-6.6014,6.8158-9.2133a33.4441,33.4441,0,0,0,7.2508-9.5665,9.0208,9.0208,0,0,0,1.1528-3.95c.0122-2.93-2.303-5.4-4.8837-6.7881s-4.4574-2.4446-7.1142-3.6806c-1.7117-.7962-3.17-2.0444-4.8494-2.9071-2.0313-1.0437-4.8259-1.7388-6.7886-2.9065a29.9306,29.9306,0,0,1-8.6551-7.3637c-1.7818-2.34-4.2463-7.6579-7.6114-7.6686-3.5094-.0113-6.64,4.8306-8.12,7.5083C175.049,144.2571,174.0645,148.1033,175.0873,151.7536Z" style="fill:#f2f2f0"/><path d="M276.947,147.5569a4.93,4.93,0,0,1,1.1367-2.0469c.9015-.8149.9393-.3235,1.6056.5177a.5954.5954,0,0,1,.1345.2379.6061.6061,0,0,1-.1268.415c-2.259,3.7562-3.2419,7.9162-5.0469,11.88-1.2934,2.84-3.1644,5.4015-4.34,8.2758-.2554.6244-.4721,1.2651-.7584,1.876a32.7834,32.7834,0,0,0-1.6673,3.2908,44.1785,44.1785,0,0,0-2.0158,5.9242,24.52,24.52,0,0,1-1.622,6.4222.9326.9326,0,0,1-.4163.49.9474.9474,0,0,1-.5621,0,15.5212,15.5212,0,0,1-2.6119-.7974,1.6052,1.6052,0,0,1-.7255-.4723c-.37-.5017-.09-1.2055.2043-1.7548C266.1174,170.6548,273.43,159.8531,276.947,147.5569Z"/><path id="collar" d="M233.7741,120.9975a3.2166,3.2166,0,0,1,1.8715.9016,10.3,10.3,0,0,1,2.8389,5.12c.5226,1.9094.782,3.8861,1.3649,5.7779a18.08,18.08,0,0,1,1.2615,4.8712c-.9124-1.43-2.6574-1.3168-3.794-2.3383-1.4143-1.2709-1.0778-1.5516-1.095-3.481C236.21,130.531,235.54,121.1005,233.7741,120.9975Z" style="fill:#ffe000"/><path d="M235.06,121.3664a3.0809,3.0809,0,0,1,1.0458-2.6951,3.642,3.642,0,0,1,1.3737-.5761c4.4085-1.0408,8.8413,1.2744,12.7808,3.51a8.4235,8.4235,0,0,1,1.989,1.3989,7.5428,7.5428,0,0,1,1.6579,4.3533,8.0513,8.0513,0,0,1-.2248,3.9531c-.8321,2.1409-3.09,3.3094-5.1668,4.2905a8.6766,8.6766,0,0,1-2.3451.8429c-2.24.3438-4.3323-1.0672-6.1591-2.4077C239.2644,129.5144,235.3758,125.7318,235.06,121.3664Z" style="fill:#edd29d"/><path d="M239.7912,126.3205a.7355.7355,0,0,1-.5238.8969l-1.75.7981c-.2254.3872.1228.9044.5553,1.0211a2.22,2.22,0,0,0,1.3081-.19L245,126.81c1.4678-.5321,3.0638-1.1718,3.7927-2.5524a7.1288,7.1288,0,0,1-1.3979-.8767,7.1913,7.1913,0,0,1-6.0665,3.1908.3732.3732,0,0,1-.2774-.0859.378.378,0,0,1-.0717-.2185,25.9463,25.9463,0,0,1,.1115-6.4767c.08-.5567-.0945-1.4663-.8871-1.3362-.8551.14-.6145,1.3857-.5962,1.968Q239.6993,123.3713,239.7912,126.3205Z" style="fill:#2d081c"/><path d="M186.83,130.05a6.8423,6.8423,0,0,0-2.3677,2.79c-.9259,2.5193,1.0813,5.1454,3.1949,6.8s4.6526,3.2007,5.3787,5.7847a4.4676,4.4676,0,0,0,.6545,1.7676,3.1139,3.1139,0,0,0,1.4876.8054c3.1119,1.0021,7.5281,3.49,10.64,4.4918,1.4463.4658,1.9393-.0075,3.1547-.7758a18.2359,18.2359,0,0,1,2.8946-1.0092c4.6167-1.9187,9.7937-2.2774,14.3036-4.4352,6.8665-3.2854,16.9174-17.7235,9.59-23.9551-6.81-5.7917-22.8567-3.7643-31.9752-1.0295A50.5085,50.5085,0,0,0,186.83,130.05Z" style="fill:url(#New_Gradient_Swatch_4)"/><path d="M210.64,145.6823s3.3313,2.661,5.4544,3.1592a1.8266,1.8266,0,0,0,.8173.0646,1.7824,1.7824,0,0,0,.79-.5192,34.5773,34.5773,0,0,0,4.3691-5.1128c1.7186.7706,3.335,1.5738,5.0536,2.3445a33.6292,33.6292,0,0,0,2.6753-9.5344c1.6082.6783,3.4346,1.0907,5.0519,1.7472a18.7779,18.7779,0,0,1-1.9281,2.9164,6.5668,6.5668,0,0,0-.9659.9734,37.4807,37.4807,0,0,1-2.8925,2.7056,19.3111,19.3111,0,0,1-8.717,4.127,46.6413,46.6413,0,0,0-8.6025,2.3969c-.89.3708-3.0259,1.1412-3.022.557a8.3629,8.3629,0,0,1,.15-1.0558A50.079,50.079,0,0,1,210.64,145.6823Z" style="fill:#26251e"/><path d="M200.3265,145.5139a.2743.2743,0,0,0,.0233.0226c.6342.5387,8.5029.1188,10.29.1458,1.1307-2.0786,1.9131-6.795,1.9131-6.795.1215-.0691,7.137,2.9369,9.7754,4.1857a31.65,31.65,0,0,1,1.2544-10.3088l5.6024,3.04a1.4552,1.4552,0,0,0,.9756.2577c.3988-.09.6383-.4868.8319-.8469,1.1963-2.2254,3.8209-7.08,4.79-7.0833a80.8693,80.8693,0,0,0-10.1787-4.4584l-2.5381,9.619c-3.8563-.6668-7.6538-2.4962-11.5161-3.1276.7407,2.6527.1013,6.5777,1.0035,8.7231-4.8017-1.36-7.761-.94-12.613-1.8905.5931-.0559.2579,6.9742.2353,8.0682-.0268,1.3007.1442,3.3108-.3249,4.5721a60.0559,60.0559,0,0,1-5.687-1.9517c-.7708-.2167-.5789-.331-.9552-1.0377a3.5,3.5,0,0,1-.2715-.9816,7.193,7.193,0,0,0-.9129-2.34,4.4527,4.4527,0,0,1,2.4319.799" style="fill:#26251e"/><path d="M199.94,136.9968c.7775-3.2819.5781-5.6339,1.9056-8.7343,3.0759.6906,9.57,1.9681,9.7039,1.9017a38.9347,38.9347,0,0,0,5.6107-7.2106.8567.8567,0,0,1,.4668-.3542,1.3377,1.3377,0,0,1,.7823.0313c2.2989.5743,5.3082,1.928,7.6624,1.6594.73-1.787,2.5208-3.4731,3.86-4.8633a50.0485,50.0485,0,0,0-11.74-.873l-.8052,4.251-11.24-2.1438a59.5967,59.5967,0,0,1-4.4459,7.5693c.1452.0322-2.7713-1.8959-4.7068-.9187-2.2023,1.1118-5.576.8143-7.929,1.105a.87.87,0,0,0-.5155.2562,1.0073,1.0073,0,0,0-.2189.4912,11.1106,11.1106,0,0,0-.1392,2.3164c-.0123,1.6132-.8489,7.5044-.8489,7.5044s5.1468-.7842,6.7838-.9959C195.82,137.77,198.2465,137.2158,199.94,136.9968Z" style="fill:#26251e"/><path d="M213.3907,119.1209c1.9728,3.0165,1.6749,7.5508,4.6816,9.5383a108.8762,108.8762,0,0,0-17.192,6.6879,19.323,19.323,0,0,0-1.9813-5.8748c-.678-1.1288-3.48-3.5065-3.1788-4.8788.3053-1.3931,4.0648-2.6417,5.24-3.1322a30.5819,30.5819,0,0,1,6.1806-1.8422C207.9074,119.4766,212.9464,118.4415,213.3907,119.1209Z" style="fill:#f7f7f5"/><path d="M270.64,152.2821a7.3838,7.3838,0,0,0,2.4974-.6563,2.4773,2.4773,0,0,1,2.46.25c.2286.2174.39.5117.6634.669.4151.239.9531.09,1.4027.2552a1.6209,1.6209,0,0,1,.9,1.2967c.0967.5425.0548,1.1038.1663,1.6436.0922.4466.2877.8689.356,1.32a1.9046,1.9046,0,0,1-1.32,2.1575,2.99,2.99,0,0,1-1.056-.0405,18.1077,18.1077,0,0,1-4.1333-.9929,24.0417,24.0417,0,0,0-3.6944-1.6113c-1.1758-.2683-2.6109-.2177-3.3052-1.2038a3.1744,3.1744,0,0,1-.4267-1.7188c-.0407-.9539.0235-3.3673,1.4857-3.1983a5.8582,5.8582,0,0,1,1.7089.9279A5.2258,5.2258,0,0,0,270.64,152.2821Z" style="fill:#f4e39b"/><path id="overarm" d="M223.946,129.9637c1.48-1.8345,4.1959-2.2869,6.4679-1.6606a15.6292,15.6292,0,0,1,5.954,3.6948,69.6793,69.6793,0,0,1,8.6826,9.2071c1.99,2.5372,3.8852,5.8536,2.6145,8.817a3.5644,3.5644,0,0,1-1.8768,1.9573,5.278,5.278,0,0,1-3.8876-.4951C236.7,149.291,217.3517,138.14,223.946,129.9637Z" style="fill:#ffe000"/><path id="underarm" d="M265.4747,150.074l-16.9533-3.8549c-2.01-.457-4.4623-.7836-5.8237.7644-1.187,1.35-.8137,3.5872.4188,4.8956a7.9162,7.9162,0,0,0,4.8572,2.0811c1.783.2274,3.6032.1934,5.3545.5979,1.119.2585,2.189.6915,3.2871,1.0277,2.7439.84,10.0437,2.5836,12.4473.3153C272.0115,153.1179,268.0626,150.6624,265.4747,150.074Z" style="fill:#ffe000"/><path d="M238.4566,120.0021a28.5,28.5,0,0,0,4.7209,2.8687,25.5909,25.5909,0,0,1,4.5194,3.3289c1.3018,1.1911,2.49,2.5,3.6757,3.8064l6.8294,7.5247c.5882-1.7279-.962-3.51-.8213-5.33a6.7588,6.7588,0,0,1,1.0405-2.6075c2.0533-3.7714,2.9625-8.3625,1.5351-12.4124a12.8362,12.8362,0,0,0-8.9944-7.9495,14.8538,14.8538,0,0,0-11.8935,2.4064C235.896,113.8787,235.35,117.3012,238.4566,120.0021Z" style="fill:#26251e"/><path d="M239.4262,119.9984a28.5131,28.5131,0,0,0,4.7209,2.8687,25.5874,25.5874,0,0,1,4.5195,3.3288c1.3018,1.1911,2.49,2.5,3.6756,3.8065l6.8294,7.5247c.5882-1.7279-.962-3.51-.8212-5.33a6.7566,6.7566,0,0,1,1.0405-2.6075c2.0533-3.7714,2.9624-8.3625,1.5351-12.4124a12.837,12.837,0,0,0-8.9944-7.95,14.8542,14.8542,0,0,0-11.8935,2.4064C236.8657,113.8749,236.32,117.2974,239.4262,119.9984Z" style="fill:url(#New_Gradient_Swatch_4-2)"/><path d="M246.1789,114.3715l.1588,12.4926a.9841.9841,0,0,1-.0644.4479,1.3915,1.3915,0,0,1-.3979.398c-.933.7945-.7288,2.2856-.2774,3.425a6.5581,6.5581,0,0,0,1.97,2.8617,3.3679,3.3679,0,0,0,3.307.5512,3.2381,3.2381,0,0,0,1.3995-4.5412,7.8246,7.8246,0,0,0-4.7669-3.2163q-.1437-6.3693-.0082-12.7407a6.1082,6.1082,0,0,1,.1016-1.1734,8.8164,8.8164,0,0,1,.5124-1.3973,10.3176,10.3176,0,0,0,.6768-2.6367c.019-.1593-1.3149-.2577-1.4464-.1491-.3027.25-.5149,1.4014-.6588,1.7477A9.8344,9.8344,0,0,0,246.1789,114.3715Z" style="fill:#260a18"/><ellipse cx="248.9719" cy="131.0076" rx="2.4241" ry="3.7016" transform="translate(-30.7288 161.2983) rotate(-33.934)" style="fill:#fff"/><path d="M195.4151,209.194a6.1227,6.1227,0,0,0,.2672,3.052c1.0978,2.4574,4.5075,2.5239,7.18,2.202a1.63,1.63,0,0,1,1.8029-1.2063,6.503,6.503,0,0,1,2.2323.831,11.7442,11.7442,0,0,0,11.3295-.8025c.7232-1.0683.0263-2.6149-1.074-3.2884a8.8225,8.8225,0,0,0-3.734-.8752,26.5778,26.5778,0,0,1-6.5054-1.55,2.1181,2.1181,0,0,1-.9977-.6206,2.2373,2.2373,0,0,1-.0084-2.0042l6.3069-19.5877a9.6923,9.6923,0,0,0,.6829-4.8887c-.54-2.56-3.9-4.7543-6.2521-3.1728-2.4555,1.6508-4.087,6.6342-5.2563,9.2257A70.6674,70.6674,0,0,0,195.4151,209.194Z" style="fill:#26251e"/><path d="M206.3,208.0838a3.4586,3.4586,0,0,1,1.3955-1.3064c.5923-.344,2.3173.8337,2.587,1.2951s1.0406,1.0859,1.4138.7034c.1722-.5542-.3822-1.3719-.802-1.7726a8.9606,8.9606,0,0,0-2.57-1.9208,3.0434,3.0434,0,0,0-3.06.2447,4.4314,4.4314,0,0,0-1.2066,3.0671q-.5067,4.5283-.5779,9.0913a.9161.9161,0,0,0,.104.5393c.1941.2829.6132.2588.95.1932a17.1644,17.1644,0,0,0,5.1388-1.8924c.1516-.0855.98-.3816,1.0265-.55.0746-.27-.7569-.861-1-1-1.4112-.803-4.3157,1.0652-5.1287.281C203.4447,213.9722,205.7085,209.1323,206.3,208.0838Z" style="fill:#515151"/></g><path d="M245.6082,235.632c2.4479-.1674,4.6209-1.5631,7.0074-2.1331,11.06-2.6413,21.4182-6.4683,31.8076-9.03.2108,1.5292.9751,1.4391.5583,2.9254-.3709,1.3231-1.2515,3.539-1.3911,3.8814-2.5469,6.2463-5.2711,10.437-7.6535,16.3225a18.447,18.447,0,0,0-7.57-4.5019,4.1916,4.1916,0,0,0-2.3254-.2086c-1.376.3738-2.1158,1.832-2.6493,3.1542a72.3033,72.3033,0,0,0-3.2258,10.0566c-.3678,1.5206-.5916,3.3744.57,4.4221a3.4957,3.4957,0,0,0,2.1229.7567c5.1028.361,9.183-4.36,14.2107-5.304,2.8678-.5383,4.9241-.3808,7.2283-1.5136,1.2254-.6025,1.8495-2.5266,2.3861-3.7823,2.8788-6.7359,5.2121-13.939,8.3674-20.55.94-1.9691,2.0585-3.9174,2.33-6.0823.4888-3.8931-1.9753-7.7159-5.289-9.8171a20.4213,20.4213,0,0,0-11.2467-3.0239c-14.381.2788-29.8534,3.4126-43.4365-.6021-1.3567-.401-1.9-1.4285-2.8673-.3958-1.1558,1.2345-.1783,3.18.1508,4.8389.862,4.3446-2.29,8.3-.62,12.6332C235.9,232.4189,240.3584,235.991,245.6082,235.632Z" style="fill:url(#linear-gradient-7)"/></g></svg>