<svg width="91" height="92" viewBox="0 0 91 92" fill="none" xmlns="http://www.w3.org/2000/svg">
<path d="M46.7708 52.1771V52.7469L47.261 53.0374L64.5564 63.2849L62.1943 67.1588L41.9583 55.0172V29.3333H46.7708V52.1771ZM65.5768 7.27454L70.1464 1.85483L89.506 18.1001L84.9364 23.5198L65.5768 7.27454ZM6.06357 23.4745L1.49471 18.0556L20.8497 1.85632L25.3804 7.27192L6.06357 23.4745ZM5.62492 51.0417C5.62492 29.0219 23.4801 11.1667 45.4999 11.1667C67.5197 11.1667 85.3749 29.0219 85.3749 51.0417C85.3749 73.0615 67.5197 90.9167 45.4999 90.9167C23.4354 90.9167 5.62492 73.0622 5.62492 51.0417ZM12.7083 51.0417C12.7083 69.1702 27.3714 83.8333 45.4999 83.8333C63.6285 83.8333 78.2916 69.1702 78.2916 51.0417C78.2916 32.9131 63.6285 18.25 45.4999 18.25C27.3714 18.25 12.7083 32.9131 12.7083 51.0417Z" fill="white" stroke="white" stroke-width="2"/>
</svg>
