<svg xmlns="http://www.w3.org/2000/svg" viewBox="0 0 290 67"><title>title</title><g id="bg"><g id="stands"><polygon points="286.5 34.5 2.5 34.5 2.5 2.5 112.929 2.5 128.302 2.5 144.5 2.5 159.34 2.5 175.003 2.5 286.5 2.5 286.5 34.5" style="fill:#fff;stroke:#123923;stroke-miterlimit:10"/><polygon points="214 65 72 65 72 34.5 127.214 34.5 134.901 34.5 143 34.5 150.42 34.5 158.252 34.5 214 34.5 214 65" style="fill:#fff;stroke:#123923;stroke-miterlimit:10"/><path d="M27.13,24.4707c2.2881-.1816,2.6-.4941,2.6-2.7559V11.2881c-2.86.0781-3.042.3642-3.38,3.4062l-2.1323.1563c.1562-1.7422.26-4.0567.312-5.5381l.2861-.2861,2.5742.2861h8.1123l2.626-.2861.2862.2861c.0258,1.7676.13,4.0039.26,5.3818l-2.1318.1563c-.39-3.25-.52-3.458-3.1983-3.5625-.1557,2.4443-.312,7.4883-.312,11.2324,0,1.3.416,1.794,1.43,1.794a13.1315,13.1315,0,0,0,1.3779-.0782l.104.1309L35.71,26.1094c-1.3784-.0528-3.51-.1045-4.4721-.1045-.9361,0-2.834.0781-4.3164.1562Z" style="fill:#123923"/><path d="M39.9219,24.7305c1.2217-.208,1.5078-.5459,1.5078-1.6895l.0259-7.5664c0-.8584-.1558-1.04-.78-1.04h-.624l-.13-.208.1557-1.2745s1.7422.0264,2.6.0264c1.1441,0,3.458-.13,3.458-.13l-.13,1.4815c-1.066.1562-1.1963.3642-1.2481,1.3525l-.13,2.7559,2.5742.0517a20.5183,20.5183,0,0,0,2.3658-.13l.0259-2.8858c0-.832-.1558-1.04-.78-1.04h-.65l-.13-.208.1816-1.2745c0,.0264,1.8985.0264,2.86.0264s3.2759-.13,3.2759-.13l-.13,1.4561c-1.04.13-1.274.3379-1.3,1.1182-.1558,2.1318-.26,5.5117-.26,7.7744,0,1.039.208,1.3515.8838,1.3515a5.9406,5.9406,0,0,0,.7285-.0517l.1558.1552-.208,1.4043s-1.82-.0517-3.2242-.0517l-3.12.0263.1822-1.4306c1.17-.0254,1.5078-.416,1.5078-1.794V20.3887s-1.378-.0264-2.106-.0264c-.5723,0-2.8862.1826-2.8862.1826l-.0518,2.6524c0,1.1172.1558,1.3779.8062,1.3779a5.3017,5.3017,0,0,0,.7275-.0527l.13.1562-.1821,1.3779s-1.95-.0517-2.8081-.0517c-1.3,0-3.4063.13-3.4322.1562Z" style="fill:#123923"/><path d="M56.3794,24.7051c1.17-.1563,1.5083-.5723,1.5083-1.7686l.0259-7.41c0-.8838-.13-1.0918-.6763-1.0918-.2339,0-.624.0263-.624.0263l-.1558-.2089.1821-1.3252s2.4439.0517,4.1338.0517a64.0819,64.0819,0,0,0,6.5523-.2344l.1821.2344a29.7359,29.7359,0,0,0-.4941,3.7959l-2.1582.13s.0522-.52.0522-.8057c0-1.0664-.312-1.2216-2.6-1.2216-.936,0-1.04.0517-1.0659.623l-.13,2.9385h1.9243c.7281,0,2.47-.1563,2.47-.1563l.208.2344-.312,1.8721s-1.69-.0518-2.7564-.0518a11.8618,11.8618,0,0,0-1.6118.13c-.0523,1.248-.0523,2.002-.0523,2.5478,0,1.0665.13,1.2217,1.3,1.2217,2.4961,0,2.8863-.3115,3.1719-2.2871L67.43,21.793l.208.2334s-.39,1.8466-.5977,3.874l-.2343.2344s-3.9522-.13-6.7344-.13c-1.95,0-3.8477.208-3.8477.208Z" style="fill:#123923"/><path d="M73.877,18.127c0-5.6426,3.51-9.127,9.23-9.127a28,28,0,0,1,5.1485.65l.1816.3379a28.026,28.026,0,0,0-.6758,4.7324l-2.4961.1816a13.3969,13.3969,0,0,0,.0782-1.43c0-1.4561-.8062-2.002-2.86-2.002-3.12,0-4.7061,1.8457-4.7061,5.7715,0,4.291,1.6641,6.709,4.4722,6.709a4.7448,4.7448,0,0,0,2.5737-.7022V20.7783c0-1.0137-.2338-1.248-1.17-1.248h-1.352l-.13-.208.26-1.8457c.5977,0,2.1578.0781,3.6138.0781,1.2739,0,2.6-.13,2.6-.13l.1821.9873c-.8842.5723-1.04,1.3262-1.04,4.2647a9.9172,9.9172,0,0,0,.1821,2.2617l-.2343.3125a16.4823,16.4823,0,0,1-6.11,1.0654C76.8154,26.3164,73.877,23.1973,73.877,18.127Z" style="fill:#123923"/><path d="M99.0454,24.4453l-1.7422-3.4062h-1.456l-.0259,2.0019c0,1.3262.1558,1.4815,1.5342,1.5342l.1035.13-.2339,1.3779c0-.0264-2.6782-.0518-3.3022-.0518-1.3257,0-2.86.13-2.86.13l.1821-1.5088c1.17-.1552,1.482-.52,1.482-1.664l.0258-7.6182c0-.7275-.1557-.9355-.65-.9355-.312,0-.7539.0263-.7539.0263l-.1562-.1826.208-1.3262s1.9243.0264,2.7563.0264c.91,0,3.4063-.1045,3.4063-.1045,3.4316,0,5.2778,1.2481,5.2778,3.5625,0,1.6123-1.0142,2.9639-2.834,3.8487l1.7422,2.6777c.8062,1.17,1.4819,1.7422,2.34,1.7422l.1821.2334-.1821,1.1709-2.6783.207C100.4233,26.3164,99.6436,25.7451,99.0454,24.4453Zm.4678-7.6191c0-1.4033-.9878-2.0537-3.0679-2.0537-.2861,0-.3379.0781-.3642.4677-.104,1.4307-.1558,2.6006-.1558,3.7705l1.8462.2081A2.4061,2.4061,0,0,0,99.5132,16.8262Z" style="fill:#123923"/><path d="M111.8628,26.0049l.104-1.3526c1.4043-.13,1.6123-.207,1.6123-.7275a1.9171,1.9171,0,0,0-.1045-.5977l-.3638-1.3525c-.5459-.0254-1.4038-.0254-1.8979-.0254-.624,0-1.43.0772-1.9761.13l-.4682,1.3516a2.3885,2.3885,0,0,0-.104.5722c0,.4678.208.5723.936.5723h.8061l.13.1816-.1557,1.3526s-1.82-.1045-3.1724-.1045c-1.1958,0-2.626.0517-2.626.0517l.1558-1.456c.624-.1035.9883-.4678,1.3262-1.2735l3.7441-10.2451,3.8223-.3379.26.1563s1.95,7.2285,2.99,10.3223c.2861.9365.6762,1.3,1.5859,1.3779l.1045.1562-.1563,1.3s-1.7158-.0517-2.7041-.0517c-1.872,0-3.7182.1562-3.7182.1562Zm-.65-5.876a14.7267,14.7267,0,0,0,1.5078-.0781l-1.17-4.2119h-.312l-1.43,4.29Z" style="fill:#123923"/><path d="M130.1147,15.293c-.0258-.65-.208-.8584-.7021-.8584h-.728l-.0782-.1826.13-1.3516s1.9238.0781,2.9121.0781c1.0659,0,2.626-.0781,2.626-.1045l-.104,1.4824c-.936.13-1.3.4678-1.3262,1.2745l-.312,10.582-2.5737.26c-3.1724-4.68-5.9024-8.3721-5.9024-8.3721h-.2343v5.5381c0,.7285.1821.9619.7544.9619.2338,0,.8837-.0518.8837-.0518l.13.13-.2344,1.4043s-1.9238-.0781-2.86-.0781c-1.1963,0-2.7564.1562-2.7564.1562l.1822-1.4824c.8579-.1035,1.2221-.4424,1.248-1.2744l.2861-7.7481c0-.8837-.3383-1.1181-1.7163-1.2734l-.1816-.208.1558-1.3008s1.456.1045,2.6.1045c.9619,0,2.21-.0781,2.21-.0781,2.6,4.03,5.4082,7.8262,5.4082,7.8262h.2344Z" style="fill:#123923"/><path d="M138.6162,26.0049a27.6485,27.6485,0,0,0-2.8081.208l.13-1.5342c1.1963-.1816,1.5083-.5723,1.5083-1.69l.0259-7.4619c0-.8584-.1558-1.0918-.65-1.0918-.2862,0-.7022.0517-.7022.0517l-.13-.208.1817-1.3515s1.9765.0517,2.8086.0517c.9878,0,3.4316-.1045,3.4316-.1045,4.3682,0,6.9165,2.21,6.9165,6.085,0,4.3418-3.042,7.28-7.4624,7.28C141.8662,26.2393,139.8643,26.0049,138.6162,26.0049Zm2.1318-10.66c-.1557,3.042-.26,5.5635-.26,7.6182,0,1.0664.3379,1.3262,1.5859,1.3262,2.3662,0,3.5884-1.5079,3.5884-4.6807,0-3.38-1.3521-4.7578-4.3164-4.7578C140.9043,14.8506,140.7744,14.9805,140.748,15.3447Z" style="fill:#123923"/><path d="M160.6123,15.0068h-.2344l-.0258,8.19c0,.8838.208,1.17.8842,1.17.2857,0,1.1436-.0527,1.1436-.0527l.13.1562-.26,1.6387s-2.21-.1045-3.3281-.1045c-1.378,0-3.12.208-3.12.208l.1821-1.7158c1.04-.13,1.5342-.5723,1.56-1.6387l.3121-10.3223c0-1.1181-.4161-1.456-2.106-1.6377l-.1821-.2343.1821-1.4815s1.69.13,2.9639.13c1.0923,0,2.4443-.1045,2.4443-.1045,3.4321,5.5908,7.0459,10.8164,7.0459,10.8164h.26l-.0523-7.93c-.0259-.8066-.26-1.1181-.8579-1.1181-.39,0-.78.0254-.91.0254l-.0781-.1817.1816-1.6123s2.1582.1045,3.3023.1045c1.248,0,3.0425-.13,3.0425-.13l-.13,1.7158c-1.17.1563-1.6382.5977-1.6641,1.6377l-.3379,13.833-2.6259.3379C164.252,20.207,160.6123,15.0068,160.6123,15.0068Z" style="fill:#123923"/><path d="M180.502,26.0049l.104-1.3526c1.4038-.13,1.6118-.207,1.6118-.7275a1.9265,1.9265,0,0,0-.1035-.5977l-.3643-1.3525c-.5459-.0254-1.4043-.0254-1.8979-.0254-.6241,0-1.43.0772-1.9761.13l-.4683,1.3516a2.4205,2.4205,0,0,0-.104.5722c0,.4678.208.5723.936.5723h.8062l.13.1816-.1558,1.3526s-1.82-.1045-3.1723-.1045c-1.1958,0-2.626.0517-2.626.0517l.1562-1.456c.6241-.1035.9878-.4678,1.3257-1.2735l3.7442-10.2451,3.8222-.3379.26.1563s1.95,7.2285,2.99,10.3223c.2862.9365.6763,1.3,1.5864,1.3779l.1036.1562-.1558,1.3s-1.7163-.0517-2.7041-.0517c-1.8721,0-3.7183.1562-3.7183.1562Zm-.65-5.876a14.7282,14.7282,0,0,0,1.5078-.0781l-1.17-4.2119h-.312l-1.43,4.29Z" style="fill:#123923"/><path d="M189.1079,24.6523c1.898-.13,2.1582-.4414,2.1582-2.0019V14.7988c-1.9761.0518-2.2363.3116-2.522,2.6778l-1.9765.13s.208-2.5478.2344-4.6025l.26-.26,2.21.2344H196.18l2.2622-.2344.26.26c.0264,2.1065.1822,4.4727.1822,4.4727l-1.9761.13c-.312-2.5742-.52-2.7558-2.3662-2.8076-.13,1.8457-.208,5.4336-.208,8.3457,0,1.0147.312,1.378,1.17,1.378.5982,0,1.1182-.0518,1.1182-.0518l.0781.1045-.1821,1.5342s-2.73-.1045-3.8482-.1045c-1.2217,0-3.7178.1562-3.7178.1562Z" style="fill:#123923"/><path d="M200.3135,24.7305c1.248-.2334,1.5083-.5459,1.5083-1.6895l.0259-7.5664c0-.832-.1558-1.04-.78-1.04h-.7022l-.104-.208.13-1.2745c.7022,0,2.0542.0264,3.0942.0264.9361,0,3.1724-.13,3.1724-.13l-.13,1.4815c-1.0918.1308-1.3.3379-1.352,1.0928-.1558,2.288-.26,5.5117-.26,7.7744,0,1.1172.1558,1.3779.8057,1.3779a7.1735,7.1735,0,0,0,.8584-.0527l.13.1562-.1822,1.3779s-2.3139-.0517-3.2758-.0517c-1.2222,0-3.0943.1562-3.0943.1562Z" style="fill:#123923"/><path d="M208.3213,19.8164c0-4.3418,2.73-7.0723,7.0464-7.0723,3.9521,0,6.24,2.34,6.24,6.37,0,4.3427-2.7817,7.125-7.0723,7.125C210.6357,26.2393,208.3213,23.8467,208.3213,19.8164Zm9.6465.416c0-3.5879-1.1441-5.3037-3.1719-5.3037-1.82,0-2.834,1.3516-2.834,4.03,0,3.5879,1.0918,5.33,3.0938,5.33C216.9019,24.2891,217.9678,22.8848,217.9678,20.2324Z" style="fill:#123923"/><path d="M233.8281,15.293c-.0263-.65-.208-.8584-.7021-.8584h-.7281l-.0781-.1826.13-1.3516s1.9243.0781,2.9121.0781c1.0659,0,2.6265-.0781,2.6265-.1045l-.1045,1.4824c-.9356.13-1.3.4678-1.3257,1.2745l-.312,10.582-2.5742.26c-3.1719-4.68-5.9024-8.3721-5.9024-8.3721h-.2339v5.5381c0,.7285.1822.9619.754.9619.2338,0,.8842-.0518.8842-.0518l.13.13L229.07,26.083s-1.9243-.0781-2.86-.0781c-1.1958,0-2.7559.1562-2.7559.1562l.1821-1.4824c.858-.1035,1.2217-.4424,1.2481-1.2744l.2856-7.7481c0-.8837-.3379-1.1181-1.7158-1.2734l-.1821-.208.1562-1.3008s1.4561.1045,2.6.1045c.9624,0,2.21-.0781,2.21-.0781,2.6,4.03,5.4082,7.8262,5.4082,7.8262h.2339Z" style="fill:#123923"/><path d="M245.4756,26.0049l.1035-1.3526c1.4043-.13,1.6123-.207,1.6123-.7275a1.9144,1.9144,0,0,0-.104-.5977l-.3638-1.3525c-.5464-.0254-1.4043-.0254-1.8984-.0254-.624,0-1.43.0772-1.9761.13l-.4678,1.3516a2.3938,2.3938,0,0,0-.104.5722c0,.4678.2081.5723.9361.5723h.8061l.13.1816-.1562,1.3526s-1.82-.1045-3.1719-.1045c-1.1963,0-2.626.0517-2.626.0517l.1558-1.456c.624-.1035.9878-.4678,1.3261-1.2735l3.7442-10.2451,3.8218-.3379.26.1563s1.95,7.2285,2.99,10.3223c.2856.9365.6757,1.3,1.5859,1.3779l.104.1562-.1563,1.3s-1.7158-.0517-2.7041-.0517c-1.872,0-3.7177.1562-3.7177.1562Zm-.65-5.876a14.7291,14.7291,0,0,0,1.5083-.0781l-1.17-4.2119h-.3115l-1.43,4.29Z" style="fill:#123923"/><path d="M253.4829,24.7051c1.0659-.1563,1.4038-.5723,1.4038-1.7686V15.4746c0-.8584-.1557-1.04-.7539-1.04h-.624l-.1558-.208.1822-1.2745c.6757,0,1.9755.0264,3.0156.0264.9624,0,3.5361-.13,3.5361-.13l-.1816,1.586c-1.4824.1562-1.6123.39-1.69,1.3515-.1557,2.1065-.2338,4.6807-.2338,7.3067,0,.91.2338,1.1435,1.2221,1.1435,1.9239,0,2.34-.52,2.6524-3.1455l1.9756-.208.1562.2344s-.3379,2.3135-.5459,4.7832l-.2344.2607s-3.458-.1562-6.084-.1562c-1.95,0-3.8222.208-3.8222.208Z" style="fill:#123923"/><path d="M88.4883,52.6631l-.0952-.1709a16.7646,16.7646,0,0,0,.209-2.5645l.8549-.0761c0,1.9755.3609,2.4121,1.9375,2.4121,1.2159,0,2.0327-.5694,2.0327-1.4629,0-.9307-1.1586-1.4248-2.3364-1.9942-1.2539-.6084-2.5268-1.292-2.5268-2.622,0-1.6143,1.5962-2.8116,3.7236-2.8116a8.1046,8.1046,0,0,1,2.4507.3614l.0762.1328a18.2841,18.2841,0,0,0-.3614,2.5078l-.7407.0762-.1138-.0762a5.7907,5.7907,0,0,0,.0376-.6836c0-.9883-.437-1.33-1.7666-1.33-1.0639,0-1.8427.5508-1.8427,1.3106,0,.8359,1.0068,1.3486,2.1088,1.8808,1.33.627,2.85,1.3106,2.85,2.7168,0,1.71-1.6153,2.9063-3.9708,2.9063A6.1419,6.1419,0,0,1,88.4883,52.6631Z" style="fill:#123923"/><path d="M98.33,52.3213c1.4629-.1143,1.5576-.3047,1.5576-1.73V44.3037c-2.0518.0762-2.2988.0381-2.5645,1.9l-.893.0566s.19-1.4433.228-2.7548l.1519-.1329,1.3491.1524h4.8437l1.3867-.1524.1524.1329c.0381,1.33.209,2.6982.209,2.6982l-.874.0566c-.3038-1.9189-.5318-1.8808-2.4317-1.957-.1328,1.2354-.2471,4.5977-.2471,6.9346,0,.7217.2471,1.0068.8931,1.0068a7.8859,7.8859,0,0,0,.8359-.0381l.0572.0567-.1333.7978s-1.6529-.0566-2.3936-.0566c-.7978,0-2.2607.0762-2.2607.0762Z" style="fill:#123923"/><path d="M106.2344,52.3594c.9306-.1143,1.1963-.3994,1.1963-1.2539l.0195-6.0225c0-.6455-.1143-.7978-.57-.7978-.1709,0-.5127.0185-.5127.0185l-.0381-.0752.1143-.7226s1.3486.038,2.3364.038a42.2534,42.2534,0,0,0,4.6924-.1709l.0571.0958a18.9384,18.9384,0,0,0-.3613,2.5449l-.9117.0761s.0376-.4179.0376-.6269c0-.9307-.1894-1.0254-2.2793-1.0254-.95,0-1.0068.0381-1.0258.5508l-.1138,2.6972,1.5576.02c.5508,0,1.8809-.1524,1.8809-.1524l.0757.0948-.2281.9882s-1.3105-.038-2.1279-.038a8.6776,8.6776,0,0,0-1.1963.0947c-.0571,1.4443-.0571,2.1279-.0571,2.6025,0,.7979.0952.8936,1.1587.8936,2.3369,0,2.6216-.1905,2.8686-1.7862l.836-.0761.0757.0947a24.1515,24.1515,0,0,0-.418,2.584l-.1138.0947s-3.1538-.0947-4.7495-.0947a18.203,18.203,0,0,0-2.2983.1523Z" style="fill:#123923"/><path d="M115.8857,52.3594c.9312-.1143,1.1973-.3994,1.1973-1.2539l.0186-6.0225c0-.6455-.1138-.7978-.5694-.7978-.1714,0-.5132.0185-.5132.0185l-.038-.0752.1137-.7226s1.3491.038,2.3369.038a42.2459,42.2459,0,0,0,4.6924-.1709l.0567.0958a18.9781,18.9781,0,0,0-.3609,2.5449l-.9116.0761s.0381-.4179.0381-.6269c0-.9307-.19-1.0254-2.28-1.0254-.95,0-1.0068.0381-1.0259.5508l-.1142,2.6972,1.5581.02c.5508,0,1.88-.1524,1.88-.1524l.0762.0948-.228.9882s-1.311-.038-2.1275-.038a8.7,8.7,0,0,0-1.1972.0947c-.0567,1.4443-.0567,2.1279-.0567,2.6025,0,.7979.0948.8936,1.1587.8936,2.3365,0,2.6216-.1905,2.8687-1.7862l.8359-.0761.0762.0947a24.0056,24.0056,0,0,0-.418,2.584l-.1142.0947s-3.1534-.0947-4.7491-.0947a18.198,18.198,0,0,0-2.2988.1523Z" style="fill:#123923"/><path d="M125.6328,52.34c.874-.1513,1.1016-.38,1.1016-1.2158l.02-6.041c0-.6269-.1333-.7978-.5513-.7978-.2089,0-.5317.0185-.5317.0185l-.0571-.0752.1137-.7226c.0953,0,1.1778.038,1.7862.038.456,0,2.07-.0566,2.07-.0566,2.3369,0,3.4385,1.083,3.4385,2.6973a3.6106,3.6106,0,0,1-3.6094,3.2871h-1.3106l-.019,1.3291c0,1.2734.0757,1.4443.6841,1.4443.3037,0,.8164-.0381.8164-.0381l.0381.0762-.1519.76s-1.0259-.0381-1.5576-.0381a23.3146,23.3146,0,0,0-2.394.1142Zm5.8511-5.8886c0-1.4248-.855-2.0713-2.7735-2.0713-.3422,0-.38,0-.3989.2285-.0761,1.2344-.1523,2.6211-.1709,3.8369l1.5767.209A1.9636,1.9636,0,0,0,131.4839,46.4512Z" style="fill:#123923"/><path d="M134.7905,52.3594c.7984-.1143,1.0449-.3994,1.0449-1.2539l.0191-6.0225c0-.6455-.1143-.7978-.57-.7978-.19,0-.5132.0185-.5132.0185l-.0567-.0752.1138-.7226c.0952,0,1.2158.038,1.8428.038.6645,0,1.8428-.1328,1.8428-.1328l-.0762.7979c-1.0444.1328-.9878.3613-1.064,1.2734-.1328,1.7852-.1894,4.1406-.1894,5.6416,0,.9121.1709,1.0645,1.2343,1.0645,1.729,0,2.0518-.3047,2.375-2.166l.836-.0948.0566.1133s-.2656,1.4248-.4365,2.9824l-.0952.1143s-2.6787-.1328-4.2368-.1328a17.0787,17.0787,0,0,0-2.2412.1523Z" style="fill:#123923"/><path d="M142.6562,52.3594c.9312-.1143,1.1973-.3994,1.1973-1.2539l.0186-6.0225c0-.6455-.1138-.7978-.5694-.7978-.1714,0-.5131.0185-.5131.0185l-.0381-.0752.1137-.7226s1.3492.038,2.3369.038a42.2459,42.2459,0,0,0,4.6924-.1709l.0567.0958a18.9781,18.9781,0,0,0-.3609,2.5449l-.9116.0761s.0381-.4179.0381-.6269c0-.9307-.19-1.0254-2.28-1.0254-.95,0-1.0068.0381-1.0259.5508l-.1142,2.6972,1.5581.02c.5508,0,1.88-.1524,1.88-.1524l.0761.0948-.228.9882s-1.311-.038-2.1274-.038a8.7013,8.7013,0,0,0-1.1973.0947c-.0567,1.4443-.0567,2.1279-.0567,2.6025,0,.7979.0948.8936,1.1587.8936,2.3365,0,2.6216-.1905,2.8687-1.7862l.8359-.0761.0762.0947a24.0056,24.0056,0,0,0-.418,2.584l-.1142.0947s-3.1533-.0947-4.749-.0947a18.1986,18.1986,0,0,0-2.2989.1523Z" style="fill:#123923"/><path d="M151.5869,48.5781a5.1158,5.1158,0,0,1,5.4522-5.2051,13.8145,13.8145,0,0,1,2.7734.3614l.0762.1142a14.9608,14.9608,0,0,0-.3994,2.583l-.9493.0577s.0376-.38.0376-.7413c0-.8925-.7026-1.33-2.1274-1.33-1.9756,0-3.1914,1.3681-3.1914,3.667,0,2.5449,1.2915,4.1406,3.3242,4.1406,1.33,0,2.1084-.6836,2.47-2.2412l.95-.0762a23.9858,23.9858,0,0,0-.3989,2.5264l-.1142.1523a9.0008,9.0008,0,0,1-3.2481.5889A4.305,4.305,0,0,1,151.5869,48.5781Z" style="fill:#123923"/><path d="M162.0557,52.3965c.95-.1709,1.1963-.4365,1.1963-1.2725l.0195-6.041c0-.6455-.1143-.7978-.57-.7978-.19,0-.5127.0185-.5127.0185l-.0572-.0752.1138-.7226s1.1592.038,1.7671.038c.7026,0,1.8423-.1328,1.8423-.1328l-.0757.7793c-.8735.1328-.95.2852-1.0068,1.2539l-.0952,2.2979,2.47.02a17.7646,17.7646,0,0,0,2.1846-.1328l.0195-2.5459c0-.6455-.1143-.7978-.57-.7978-.19,0-.5318.0185-.5318.0185l-.0381-.0752.1138-.7226c0,.02,1.1021.038,1.6338.038.7412,0,1.9756-.1328,1.9756-.1328l-.0566.7793c-.7789.0948-.9688.2657-.9878.836-.1138,2.0136-.209,4.8818-.209,6.2119,0,.7978.1328,1.0068.6645,1.0068.3042,0,.6651-.0381.6651-.0381l.0571.0762-.1519.76s-1.2348-.0381-1.9951-.0381l-1.8994.0185.1524-.76c.9492,0,1.1582-.2842,1.1582-1.5v-2.128s-1.52-.02-2.1846-.02c-.4937,0-2.4883.1524-2.4883.1524l-.0571,2.47c0,.8164.1328,1.0254.6645,1.0254a5.0874,5.0874,0,0,0,.6651-.0567l.0381.0762-.1329.76s-.9121-.0381-1.4819-.0381a12.9008,12.9008,0,0,0-2.3936.1709Z" style="fill:#123923"/><path d="M178.2236,53.043l.0576-.6836c1.0635-.0762,1.3487-.1905,1.3487-.5518a1.8639,1.8639,0,0,0-.1328-.6455l-.4561-1.4629c-.38-.0185-1.1592-.0185-1.5771-.0185-.57,0-1.2725.0761-1.6338.1132L175.2983,51.2a2.3454,2.3454,0,0,0-.1328.5322c0,.418.2661.5694.8931.5694h.8164l.0571.0761-.1137.7217s-1.1592-.0947-2.1846-.0947c-.7793,0-1.7481.0381-1.7481.0381L173,52.2637c.5508-.0752.8359-.3223,1.1582-1.1016l2.9829-7.542,1.3491-.2471.1328.02s1.33,4.7871,2.4126,7.8457c.2466.7217.57.9687,1.4248,1.0449l.0376.0762-.0947.6836s-1.1587-.0381-1.7285-.0381a23.843,23.843,0,0,0-2.3936.1328Zm-.7978-4.1416c.3994,0,1.0263-.0381,1.3872-.0762L177.6543,45.14h-.1333l-1.3867,3.7618Z" style="fill:#123923"/><path d="M183.6772,52.6631l-.0952-.1709a16.7646,16.7646,0,0,0,.209-2.5645l.8555-.0761c0,1.9755.36,2.4121,1.9375,2.4121,1.2158,0,2.0322-.5694,2.0322-1.4629,0-.9307-1.1582-1.4248-2.3364-1.9942-1.2534-.6084-2.5269-1.292-2.5269-2.622,0-1.6143,1.5962-2.8116,3.7237-2.8116a8.1035,8.1035,0,0,1,2.4506.3614l.0762.1328a18.3229,18.3229,0,0,0-.3608,2.5078l-.7412.0762-.1138-.0762a5.7907,5.7907,0,0,0,.0376-.6836c0-.9883-.4365-1.33-1.7666-1.33-1.0635,0-1.8428.5508-1.8428,1.3106,0,.8359,1.0069,1.3486,2.1089,1.8808,1.33.627,2.85,1.3106,2.85,2.7168,0,1.71-1.6147,2.9063-3.97,2.9063A6.1461,6.1461,0,0,1,183.6772,52.6631Z" style="fill:#123923"/><path d="M192.4175,52.3594c.9311-.1143,1.1968-.3994,1.1968-1.2539l.019-6.0225c0-.6455-.1138-.7978-.57-.7978-.1709,0-.5127.0185-.5127.0185l-.0381-.0752.1138-.7226s1.3491.038,2.3364.038a42.2409,42.2409,0,0,0,4.6924-.1709l.0571.0958a18.8929,18.8929,0,0,0-.3608,2.5449l-.9121.0761s.038-.4179.038-.6269c0-.9307-.19-1.0254-2.2793-1.0254-.95,0-1.0068.0381-1.0263.5508l-.1138,2.6972,1.5576.02c.5513,0,1.8809-.1524,1.8809-.1524l.0757.0948-.2276.9882s-1.311-.038-2.1279-.038a8.6929,8.6929,0,0,0-1.1968.0947c-.0571,1.4443-.0571,2.1279-.0571,2.6025,0,.7979.0952.8936,1.1592.8936,2.3364,0,2.6216-.1905,2.8681-1.7862l.836-.0761.0761.0947a24.02,24.02,0,0,0-.4179,2.584L199.37,53.1s-3.1533-.0947-4.749-.0947a18.2062,18.2062,0,0,0-2.2988.1523Z" style="fill:#123923"/></g></g></svg>