<svg xmlns="http://www.w3.org/2000/svg" viewBox="0 0 450 73"><title>title</title><g id="bg"><g id="stands"><polygon points="362.5 34.5 78.5 34.5 78.5 2.5 188.929 2.5 204.302 2.5 220.5 2.5 235.34 2.5 251.003 2.5 362.5 2.5 362.5 34.5" style="fill:#fff;stroke:#123923;stroke-miterlimit:10"/><path d="M103.13,24.4707c2.2881-.1816,2.6-.4941,2.6-2.7559V11.2881c-2.86.0781-3.042.3642-3.38,3.4062l-2.1323.1563c.1562-1.7422.26-4.0567.312-5.5381l.2861-.2861,2.5742.2861h8.1123l2.626-.2861.2862.2861c.0258,1.7676.13,4.0039.26,5.3818l-2.1318.1563c-.39-3.25-.52-3.458-3.1983-3.5625-.1557,2.4443-.312,7.4883-.312,11.2324,0,1.3.416,1.794,1.43,1.794a13.1315,13.1315,0,0,0,1.3779-.0782l.104.1309-.2339,1.7422c-1.3784-.0528-3.51-.1045-4.4721-.1045-.9361,0-2.834.0781-4.3164.1562Z" style="fill:#123923"/><path d="M115.9219,24.7305c1.2217-.208,1.5078-.5459,1.5078-1.6895l.0259-7.5664c0-.8584-.1558-1.04-.78-1.04h-.624l-.13-.208.1557-1.2745s1.7422.0264,2.6.0264c1.1441,0,3.458-.13,3.458-.13l-.13,1.4815c-1.066.1562-1.1963.3642-1.2481,1.3525l-.13,2.7559,2.5742.0517a20.5183,20.5183,0,0,0,2.3658-.13l.0259-2.8858c0-.832-.1558-1.04-.78-1.04h-.65l-.13-.208.1816-1.2745c0,.0264,1.8985.0264,2.86.0264s3.2759-.13,3.2759-.13l-.13,1.4561c-1.04.13-1.274.3379-1.3,1.1182-.1558,2.1318-.26,5.5117-.26,7.7744,0,1.039.208,1.3515.8838,1.3515a5.9406,5.9406,0,0,0,.7285-.0517l.1558.1552-.208,1.4043s-1.82-.0517-3.2242-.0517l-3.12.0263.1822-1.4306c1.17-.0254,1.5078-.416,1.5078-1.794V20.3887s-1.378-.0264-2.106-.0264c-.5723,0-2.8862.1826-2.8862.1826l-.0518,2.6524c0,1.1172.1558,1.3779.8062,1.3779a5.3017,5.3017,0,0,0,.7275-.0527l.13.1562-.1821,1.3779s-1.95-.0517-2.8081-.0517c-1.3,0-3.4063.13-3.4322.1562Z" style="fill:#123923"/><path d="M132.3794,24.7051c1.17-.1563,1.5083-.5723,1.5083-1.7686l.0259-7.41c0-.8838-.13-1.0918-.6763-1.0918-.2339,0-.624.0263-.624.0263l-.1558-.2089.1821-1.3252s2.4439.0517,4.1338.0517a64.0819,64.0819,0,0,0,6.5523-.2344l.1821.2344a29.7359,29.7359,0,0,0-.4941,3.7959l-2.1582.13s.0522-.52.0522-.8057c0-1.0664-.312-1.2216-2.6-1.2216-.936,0-1.04.0517-1.0659.623l-.13,2.9385h1.9243c.7281,0,2.47-.1563,2.47-.1563l.208.2344-.312,1.8721s-1.69-.0518-2.7564-.0518a11.8618,11.8618,0,0,0-1.6118.13c-.0523,1.248-.0523,2.002-.0523,2.5478,0,1.0665.13,1.2217,1.3,1.2217,2.4961,0,2.8863-.3115,3.1719-2.2871l1.9761-.1562.208.2334s-.39,1.8466-.5977,3.874l-.2343.2344s-3.9522-.13-6.7344-.13c-1.95,0-3.8477.208-3.8477.208Z" style="fill:#123923"/><path d="M149.877,18.127c0-5.6426,3.51-9.127,9.23-9.127a28,28,0,0,1,5.1485.65l.1816.3379a28.026,28.026,0,0,0-.6758,4.7324l-2.4961.1816a13.3969,13.3969,0,0,0,.0782-1.43c0-1.4561-.8062-2.002-2.86-2.002-3.12,0-4.7061,1.8457-4.7061,5.7715,0,4.291,1.6641,6.709,4.4722,6.709a4.7448,4.7448,0,0,0,2.5737-.7022V20.7783c0-1.0137-.2338-1.248-1.17-1.248h-1.352l-.13-.208.26-1.8457c.5977,0,2.1578.0781,3.6138.0781,1.2739,0,2.6-.13,2.6-.13l.1821.9873c-.8842.5723-1.04,1.3262-1.04,4.2647a9.9172,9.9172,0,0,0,.1821,2.2617l-.2343.3125a16.4823,16.4823,0,0,1-6.11,1.0654C152.8154,26.3164,149.877,23.1973,149.877,18.127Z" style="fill:#123923"/><path d="M175.0454,24.4453l-1.7422-3.4062h-1.456l-.0259,2.0019c0,1.3262.1558,1.4815,1.5342,1.5342l.1035.13-.2339,1.3779c0-.0264-2.6782-.0518-3.3022-.0518-1.3257,0-2.86.13-2.86.13l.1821-1.5088c1.17-.1552,1.482-.52,1.482-1.664l.0258-7.6182c0-.7275-.1557-.9355-.65-.9355-.312,0-.7539.0263-.7539.0263l-.1562-.1826.208-1.3262s1.9243.0264,2.7563.0264c.91,0,3.4063-.1045,3.4063-.1045,3.4316,0,5.2778,1.2481,5.2778,3.5625,0,1.6123-1.0142,2.9639-2.834,3.8487l1.7422,2.6777c.8062,1.17,1.4819,1.7422,2.34,1.7422l.1821.2334-.1821,1.1709-2.6783.207C176.4233,26.3164,175.6436,25.7451,175.0454,24.4453Zm.4678-7.6191c0-1.4033-.9878-2.0537-3.0679-2.0537-.2861,0-.3379.0781-.3642.4677-.104,1.4307-.1558,2.6006-.1558,3.7705l1.8462.2081A2.4061,2.4061,0,0,0,175.5132,16.8262Z" style="fill:#123923"/><path d="M187.8628,26.0049l.104-1.3526c1.4043-.13,1.6123-.207,1.6123-.7275a1.9171,1.9171,0,0,0-.1045-.5977l-.3638-1.3525c-.5459-.0254-1.4038-.0254-1.8979-.0254-.624,0-1.43.0772-1.9761.13l-.4682,1.3516a2.3885,2.3885,0,0,0-.104.5722c0,.4678.208.5723.936.5723h.8061l.13.1816-.1557,1.3526s-1.82-.1045-3.1724-.1045c-1.1958,0-2.626.0517-2.626.0517l.1558-1.456c.624-.1035.9883-.4678,1.3262-1.2735l3.7441-10.2451,3.8223-.3379.26.1563s1.95,7.2285,2.99,10.3223c.2861.9365.6762,1.3,1.5859,1.3779l.1045.1562-.1563,1.3s-1.7158-.0517-2.7041-.0517c-1.872,0-3.7182.1562-3.7182.1562Zm-.65-5.876a14.7267,14.7267,0,0,0,1.5078-.0781l-1.17-4.2119h-.312l-1.43,4.29Z" style="fill:#123923"/><path d="M206.1147,15.293c-.0258-.65-.208-.8584-.7021-.8584h-.728l-.0782-.1826.13-1.3516s1.9238.0781,2.9121.0781c1.0659,0,2.626-.0781,2.626-.1045l-.104,1.4824c-.936.13-1.3.4678-1.3262,1.2745l-.312,10.582-2.5737.26c-3.1724-4.68-5.9024-8.3721-5.9024-8.3721h-.2343v5.5381c0,.7285.1821.9619.7544.9619.2338,0,.8837-.0518.8837-.0518l.13.13-.2344,1.4043s-1.9238-.0781-2.86-.0781c-1.1963,0-2.7564.1562-2.7564.1562l.1822-1.4824c.8579-.1035,1.2221-.4424,1.248-1.2744l.2861-7.7481c0-.8837-.3383-1.1181-1.7163-1.2734l-.1816-.208.1558-1.3008s1.456.1045,2.6.1045c.9619,0,2.21-.0781,2.21-.0781,2.6,4.03,5.4082,7.8262,5.4082,7.8262h.2344Z" style="fill:#123923"/><path d="M214.6162,26.0049a27.6485,27.6485,0,0,0-2.8081.208l.13-1.5342c1.1963-.1816,1.5083-.5723,1.5083-1.69l.0259-7.4619c0-.8584-.1558-1.0918-.65-1.0918-.2862,0-.7022.0517-.7022.0517l-.13-.208.1817-1.3515s1.9765.0517,2.8086.0517c.9878,0,3.4316-.1045,3.4316-.1045,4.3682,0,6.9165,2.21,6.9165,6.085,0,4.3418-3.042,7.28-7.4624,7.28C217.8662,26.2393,215.8643,26.0049,214.6162,26.0049Zm2.1318-10.66c-.1557,3.042-.26,5.5635-.26,7.6182,0,1.0664.3379,1.3262,1.5859,1.3262,2.3662,0,3.5884-1.5079,3.5884-4.6807,0-3.38-1.3521-4.7578-4.3164-4.7578C216.9043,14.8506,216.7744,14.9805,216.748,15.3447Z" style="fill:#123923"/><path d="M236.6123,15.0068h-.2344l-.0258,8.19c0,.8838.208,1.17.8842,1.17.2857,0,1.1436-.0527,1.1436-.0527l.13.1562-.26,1.6387s-2.21-.1045-3.3281-.1045c-1.378,0-3.12.208-3.12.208l.1821-1.7158c1.04-.13,1.5342-.5723,1.56-1.6387l.3121-10.3223c0-1.1181-.4161-1.456-2.106-1.6377l-.1821-.2343.1821-1.4815s1.69.13,2.9639.13c1.0923,0,2.4443-.1045,2.4443-.1045,3.4321,5.5908,7.0459,10.8164,7.0459,10.8164h.26l-.0523-7.93c-.0259-.8066-.26-1.1181-.8579-1.1181-.39,0-.78.0254-.91.0254l-.0781-.1817.1816-1.6123s2.1583.1045,3.3023.1045c1.248,0,3.0425-.13,3.0425-.13l-.13,1.7158c-1.17.1563-1.6382.5977-1.6641,1.6377l-.3379,13.833-2.6259.3379C240.252,20.207,236.6123,15.0068,236.6123,15.0068Z" style="fill:#123923"/><path d="M256.502,26.0049l.104-1.3526c1.4038-.13,1.6118-.207,1.6118-.7275a1.9265,1.9265,0,0,0-.1035-.5977l-.3643-1.3525c-.5459-.0254-1.4043-.0254-1.8979-.0254-.6241,0-1.43.0772-1.9761.13l-.4683,1.3516a2.4205,2.4205,0,0,0-.104.5722c0,.4678.208.5723.936.5723h.8062l.13.1816-.1558,1.3526s-1.82-.1045-3.1723-.1045c-1.1958,0-2.626.0517-2.626.0517l.1562-1.456c.6241-.1035.9878-.4678,1.3257-1.2735l3.7442-10.2451,3.8222-.3379.26.1563s1.95,7.2285,2.99,10.3223c.2862.9365.6763,1.3,1.5864,1.3779l.1036.1562-.1558,1.3s-1.7163-.0517-2.7041-.0517c-1.8721,0-3.7183.1562-3.7183.1562Zm-.65-5.876a14.7282,14.7282,0,0,0,1.5078-.0781l-1.17-4.2119h-.312l-1.43,4.29Z" style="fill:#123923"/><path d="M265.1079,24.6523c1.898-.13,2.1582-.4414,2.1582-2.0019V14.7988c-1.9761.0518-2.2363.3116-2.522,2.6778l-1.9765.13s.208-2.5478.2344-4.6025l.26-.26,2.21.2344H272.18l2.2622-.2344.26.26c.0264,2.1065.1822,4.4727.1822,4.4727l-1.9761.13c-.312-2.5742-.52-2.7558-2.3662-2.8076-.13,1.8457-.208,5.4336-.208,8.3457,0,1.0147.312,1.378,1.17,1.378.5982,0,1.1182-.0518,1.1182-.0518l.0781.1045-.1821,1.5342s-2.73-.1045-3.8482-.1045c-1.2217,0-3.7178.1562-3.7178.1562Z" style="fill:#123923"/><path d="M276.3135,24.7305c1.248-.2334,1.5083-.5459,1.5083-1.6895l.0259-7.5664c0-.832-.1558-1.04-.78-1.04h-.7022l-.104-.208.13-1.2745c.7022,0,2.0542.0264,3.0942.0264.9361,0,3.1724-.13,3.1724-.13l-.13,1.4815c-1.0918.1308-1.3.3379-1.352,1.0928-.1558,2.288-.26,5.5117-.26,7.7744,0,1.1172.1558,1.3779.8057,1.3779a7.1735,7.1735,0,0,0,.8584-.0527l.13.1562-.1822,1.3779s-2.3139-.0517-3.2758-.0517c-1.2222,0-3.0943.1562-3.0943.1562Z" style="fill:#123923"/><path d="M284.3213,19.8164c0-4.3418,2.7305-7.0723,7.0464-7.0723,3.9521,0,6.24,2.34,6.24,6.37,0,4.3427-2.7817,7.125-7.0723,7.125C286.6357,26.2393,284.3213,23.8467,284.3213,19.8164Zm9.6465.416c0-3.5879-1.1441-5.3037-3.1719-5.3037-1.82,0-2.834,1.3516-2.834,4.03,0,3.5879,1.0918,5.33,3.0938,5.33C292.9019,24.2891,293.9678,22.8848,293.9678,20.2324Z" style="fill:#123923"/><path d="M309.8281,15.293c-.0263-.65-.208-.8584-.7021-.8584h-.7281l-.0781-.1826.13-1.3516s1.9243.0781,2.9121.0781c1.0659,0,2.6265-.0781,2.6265-.1045l-.1045,1.4824c-.9356.13-1.3.4678-1.3257,1.2745l-.312,10.582-2.5742.26c-3.1719-4.68-5.9024-8.3721-5.9024-8.3721h-.2339v5.5381c0,.7285.1822.9619.754.9619.2338,0,.8842-.0518.8842-.0518l.13.13L305.07,26.083s-1.9243-.0781-2.86-.0781c-1.1958,0-2.7559.1562-2.7559.1562l.1821-1.4824c.858-.1035,1.2217-.4424,1.2481-1.2744l.2856-7.7481c0-.8837-.3379-1.1181-1.7158-1.2734l-.1821-.208.1562-1.3008s1.4561.1045,2.6.1045c.9624,0,2.21-.0781,2.21-.0781,2.6,4.03,5.4082,7.8262,5.4082,7.8262h.2339Z" style="fill:#123923"/><path d="M321.4756,26.0049l.1035-1.3526c1.4043-.13,1.6123-.207,1.6123-.7275a1.9144,1.9144,0,0,0-.104-.5977l-.3638-1.3525c-.5464-.0254-1.4043-.0254-1.8984-.0254-.624,0-1.43.0772-1.9761.13l-.4678,1.3516a2.3938,2.3938,0,0,0-.104.5722c0,.4678.2081.5723.9361.5723h.8061l.13.1816-.1562,1.3526s-1.82-.1045-3.1719-.1045c-1.1963,0-2.626.0517-2.626.0517l.1558-1.456c.624-.1035.9878-.4678,1.3261-1.2735l3.7442-10.2451,3.8218-.3379.26.1563s1.95,7.2285,2.99,10.3223c.2856.9365.6757,1.3,1.5859,1.3779l.104.1562-.1563,1.3s-1.7158-.0517-2.7041-.0517c-1.872,0-3.7177.1562-3.7177.1562Zm-.65-5.876a14.7291,14.7291,0,0,0,1.5083-.0781l-1.17-4.2119h-.3115l-1.43,4.29Z" style="fill:#123923"/><path d="M329.4829,24.7051c1.0659-.1563,1.4038-.5723,1.4038-1.7686V15.4746c0-.8584-.1557-1.04-.7539-1.04h-.624l-.1558-.208.1822-1.2745c.6757,0,1.9755.0264,3.0156.0264.9624,0,3.5361-.13,3.5361-.13l-.1816,1.586c-1.4824.1562-1.6123.39-1.69,1.3515-.1557,2.1065-.2338,4.6807-.2338,7.3067,0,.91.2338,1.1435,1.2221,1.1435,1.9239,0,2.34-.52,2.6524-3.1455l1.9756-.208.1562.2344s-.3379,2.3135-.5459,4.7832l-.2344.2607s-3.458-.1562-6.084-.1562c-1.95,0-3.8222.208-3.8222.208Z" style="fill:#123923"/><path d="M62.75,44.4668H43.479a2.4814,2.4814,0,0,1-1.6865-.6323,4.444,4.444,0,0,1-1.1441-1.5962,7.0975,7.0975,0,0,1-.542-2.1377,6.0225,6.0225,0,0,1,.1807-2.2583l1.8667-7.5278a7.8056,7.8056,0,0,1,.9336-2.2583,11.2619,11.2619,0,0,1,1.626-2.1382,9.78,9.78,0,0,1,1.9873-1.5957,3.8486,3.8486,0,0,1,1.9575-.6324H77.5649l-1.686,6.6246H51.79l-1.8667,7.5278H69.1938a2.4812,2.4812,0,0,1,1.6866.6323,4.4618,4.4618,0,0,1,1.144,1.5957,6.565,6.565,0,0,1,.5122,2.1382,7.67,7.67,0,0,1-.1509,2.2583L70.459,51.9946a10.2222,10.2222,0,0,1-.9639,2.2583,11.071,11.071,0,0,1-1.5659,2.1382,9.4571,9.4571,0,0,1-1.9268,1.5957,3.7869,3.7869,0,0,1-1.9873.6323H35.1079l1.626-6.6245H60.8232Z" style="fill:#1a1a1a"/><path d="M95.812,58.6191H77.8657a2.4823,2.4823,0,0,1-1.6865-.6323,4.447,4.447,0,0,1-1.144-1.5957,7.0986,7.0986,0,0,1-.542-2.1382,6.0226,6.0226,0,0,1,.1806-2.2583L81.78,23.69H91.416l-2.0478,8.07h13.1289l-1.6265,6.6245H87.7422L84.31,51.9946H97.438Z" style="fill:#1a1a1a"/><path d="M132.2471,41.877a10.2231,10.2231,0,0,1-.9634,2.2583,11.0605,11.0605,0,0,1-1.5659,2.1381,9.4563,9.4563,0,0,1-1.9273,1.5957,3.7826,3.7826,0,0,1-1.9873.6324h-10.96l1.626-6.6245h6.1425l.9033-3.4927h-8.7924l-3.4326,13.61h17.8261l-1.6264,6.6245H104.8457a2.4823,2.4823,0,0,1-1.6865-.6323,4.4472,4.4472,0,0,1-1.1441-1.5957,7.1045,7.1045,0,0,1-.542-2.1382,6.0226,6.0226,0,0,1,.1807-2.2583l3.4326-13.61a7.8056,7.8056,0,0,1,.9336-2.2583,12.0748,12.0748,0,0,1,1.5957-2.1382,9.4815,9.4815,0,0,1,1.9273-1.5957A3.7771,3.7771,0,0,1,111.53,31.76h18.4282a2.4808,2.4808,0,0,1,1.6865.6323,4.468,4.468,0,0,1,1.1441,1.5957,6.57,6.57,0,0,1,.5117,2.1382,7.66,7.66,0,0,1-.15,2.2583Z" style="fill:#1a1a1a"/><path d="M164.5264,41.877a10.2231,10.2231,0,0,1-.9634,2.2583,11.0605,11.0605,0,0,1-1.5659,2.1381,9.4563,9.4563,0,0,1-1.9273,1.5957,3.7826,3.7826,0,0,1-1.9873.6324h-10.96l1.6259-6.6245h6.1426l.9033-3.4927h-8.7924l-3.4327,13.61H161.395l-1.6264,6.6245H137.125a2.4823,2.4823,0,0,1-1.6865-.6323,4.4472,4.4472,0,0,1-1.1441-1.5957,7.1045,7.1045,0,0,1-.542-2.1382,6.0226,6.0226,0,0,1,.1807-2.2583l3.4326-13.61a7.8056,7.8056,0,0,1,.9336-2.2583,12.0748,12.0748,0,0,1,1.5957-2.1382,9.4815,9.4815,0,0,1,1.9273-1.5957A3.7771,3.7771,0,0,1,143.81,31.76h18.4282a2.4808,2.4808,0,0,1,1.6865.6323,4.468,4.468,0,0,1,1.1441,1.5957,6.57,6.57,0,0,1,.5117,2.1382,7.66,7.66,0,0,1-.15,2.2583Z" style="fill:#1a1a1a"/><path d="M194.2764,51.9946a10.2429,10.2429,0,0,1-.9634,2.2583,11.0919,11.0919,0,0,1-1.5659,2.1382,9.473,9.473,0,0,1-1.9273,1.5957,3.7869,3.7869,0,0,1-1.9873.6323h-10.96l1.6259-6.6245h6.1426l3.4326-13.61h-8.7924L172.1743,66.87h-9.6357l8.7324-35.11h23.2461a2.4808,2.4808,0,0,1,1.6865.6323,4.468,4.468,0,0,1,1.1441,1.5957,6.57,6.57,0,0,1,.5117,2.1382,7.66,7.66,0,0,1-.15,2.2583Z" style="fill:#1a1a1a"/><path d="M205.5981,23.69h9.6358l-8.7324,34.9292h-9.6358Z" style="fill:#1a1a1a"/><path d="M242.936,41.877a10.2178,10.2178,0,0,1-.9633,2.2583,11.0568,11.0568,0,0,1-1.566,2.1381,9.4558,9.4558,0,0,1-1.9272,1.5957,3.7826,3.7826,0,0,1-1.9873.6324h-10.96l1.626-6.6245H233.3l.9033-3.4927h-8.7925l-3.4326,13.61h17.8262l-1.6265,6.6245H215.5347a2.4827,2.4827,0,0,1-1.6866-.6323,4.4482,4.4482,0,0,1-1.144-1.5957,7.1045,7.1045,0,0,1-.542-2.1382,6.0226,6.0226,0,0,1,.1807-2.2583l3.4326-13.61a7.8028,7.8028,0,0,1,.9336-2.2583,12.065,12.065,0,0,1,1.5957-2.1382,9.4783,9.4783,0,0,1,1.9272-1.5957,3.7776,3.7776,0,0,1,1.9873-.6323h18.4283a2.4808,2.4808,0,0,1,1.6865.6323,4.4678,4.4678,0,0,1,1.144,1.5957,6.5648,6.5648,0,0,1,.5117,2.1382,7.6564,7.6564,0,0,1-.15,2.2583Z" style="fill:#1a1a1a"/><path d="M272.7461,38.3843H257.69l-3.4326,13.61h15.0557l-1.626,6.6245H247.814a2.4827,2.4827,0,0,1-1.6866-.6323,4.4482,4.4482,0,0,1-1.144-1.5957,7.1016,7.1016,0,0,1-.542-2.1382,6.0226,6.0226,0,0,1,.1807-2.2583l3.4326-13.61a7.8028,7.8028,0,0,1,.9336-2.2583,12.065,12.065,0,0,1,1.5957-2.1382,9.4783,9.4783,0,0,1,1.9272-1.5957,3.7776,3.7776,0,0,1,1.9873-.6323h19.8736Z" style="fill:#1a1a1a"/><path d="M280.6353,23.69h9.6357l-2.0479,8.07h13.61a2.4808,2.4808,0,0,1,1.6865.6323,4.468,4.468,0,0,1,1.1441,1.5957,6.57,6.57,0,0,1,.5117,2.1382,7.66,7.66,0,0,1-.15,2.2583l-5.0586,20.2348h-9.6357L295.39,38.3843h-8.7924l-5.0586,20.2348h-9.6358Z" style="fill:#1a1a1a"/><path d="M307.645,46.2432a12.0819,12.0819,0,0,1,1.5957-2.1377,9.4709,9.4709,0,0,1,1.9273-1.5962,3.7816,3.7816,0,0,1,1.9873-.6323h10.96l-1.626,6.6245h-6.1425l-.9034,3.4931h8.7925l3.4326-13.61H309.8428l1.6264-6.6245h22.6436a2.4808,2.4808,0,0,1,1.6865.6323,4.468,4.468,0,0,1,1.1441,1.5957,6.57,6.57,0,0,1,.5117,2.1382,7.66,7.66,0,0,1-.15,2.2583l-5.0586,20.2348H309a2.4823,2.4823,0,0,1-1.6865-.6323,4.4472,4.4472,0,0,1-1.1441-1.5957,7.1045,7.1045,0,0,1-.542-2.1382,6.0226,6.0226,0,0,1,.1807-2.2583l.9033-3.4931A7.7973,7.7973,0,0,1,307.645,46.2432Z" style="fill:#1a1a1a"/><path d="M367.0547,48.5015l-.9033,3.4931a10.2429,10.2429,0,0,1-.9634,2.2583,11.0919,11.0919,0,0,1-1.5659,2.1382,9.473,9.473,0,0,1-1.9273,1.5957,3.7869,3.7869,0,0,1-1.9873.6323H336.4614l1.626-6.6245h18.4282l.9033-3.4931h-13.61a2.48,2.48,0,0,1-1.6865-.6324,4.4463,4.4463,0,0,1-1.1441-1.5957,7.0962,7.0962,0,0,1-.542-2.1381,6.0326,6.0326,0,0,1,.1807-2.2583l.9033-3.4927a7.8056,7.8056,0,0,1,.9336-2.2583,12.0748,12.0748,0,0,1,1.5957-2.1382,9.4815,9.4815,0,0,1,1.9273-1.5957,3.7771,3.7771,0,0,1,1.9873-.6323H371.21l-1.626,6.6245H351.1558l-.9034,3.4927h13.61a2.4841,2.4841,0,0,1,1.6865.6323,4.47,4.47,0,0,1,1.1441,1.5962,6.5688,6.5688,0,0,1,.5117,2.1377A7.6586,7.6586,0,0,1,367.0547,48.5015Z" style="fill:#1a1a1a"/><path d="M400.96,41.877a10.2231,10.2231,0,0,1-.9634,2.2583,11.0605,11.0605,0,0,1-1.5659,2.1381,9.4589,9.4589,0,0,1-1.9273,1.5957,3.7826,3.7826,0,0,1-1.9873.6324h-10.96l1.6259-6.6245h6.1426l.9033-3.4927h-8.7924l-3.4327,13.61h17.8262l-1.6265,6.6245H373.5586a2.4823,2.4823,0,0,1-1.6865-.6323,4.4472,4.4472,0,0,1-1.1441-1.5957,7.1045,7.1045,0,0,1-.542-2.1382,6.0226,6.0226,0,0,1,.1807-2.2583l3.4326-13.61a7.8056,7.8056,0,0,1,.9336-2.2583,12.07,12.07,0,0,1,1.5957-2.1382,9.4815,9.4815,0,0,1,1.9273-1.5957,3.7771,3.7771,0,0,1,1.9873-.6323h18.4282a2.4808,2.4808,0,0,1,1.6865.6323,4.468,4.468,0,0,1,1.1441,1.5957,6.57,6.57,0,0,1,.5117,2.1382,7.66,7.66,0,0,1-.15,2.2583Z" style="fill:#1a1a1a"/><path d="M66.75,46.4668H47.479a2.4814,2.4814,0,0,1-1.6865-.6323,4.444,4.444,0,0,1-1.1441-1.5962,7.0975,7.0975,0,0,1-.542-2.1377,6.0225,6.0225,0,0,1,.1807-2.2583l1.8667-7.5278a7.8056,7.8056,0,0,1,.9336-2.2583,11.2619,11.2619,0,0,1,1.626-2.1382,9.78,9.78,0,0,1,1.9873-1.5957,3.8486,3.8486,0,0,1,1.9575-.6324H81.5649l-1.686,6.6246H55.79l-1.8667,7.5278H73.1938a2.4812,2.4812,0,0,1,1.6866.6323,4.4618,4.4618,0,0,1,1.144,1.5957,6.565,6.565,0,0,1,.5122,2.1382,7.67,7.67,0,0,1-.1509,2.2583L74.459,53.9946a10.2222,10.2222,0,0,1-.9639,2.2583,11.071,11.071,0,0,1-1.5659,2.1382,9.4571,9.4571,0,0,1-1.9268,1.5957,3.7869,3.7869,0,0,1-1.9873.6323H39.1079l1.626-6.6245H64.8232Z" style="fill:#feb700"/><path d="M99.812,60.6191H81.8657a2.4823,2.4823,0,0,1-1.6865-.6323,4.447,4.447,0,0,1-1.144-1.5957,7.0986,7.0986,0,0,1-.542-2.1382,6.0226,6.0226,0,0,1,.1806-2.2583L85.78,25.69H95.416l-2.0478,8.07h13.1289l-1.6265,6.6245H91.7422L88.31,53.9946H101.438Z" style="fill:#feb700"/><path d="M136.2471,43.877a10.2231,10.2231,0,0,1-.9634,2.2583,11.0605,11.0605,0,0,1-1.5659,2.1381,9.4563,9.4563,0,0,1-1.9273,1.5957,3.7826,3.7826,0,0,1-1.9873.6324h-10.96l1.626-6.6245h6.1425l.9033-3.4927h-8.7924l-3.4326,13.61h17.8261l-1.6264,6.6245H108.8457a2.4823,2.4823,0,0,1-1.6865-.6323,4.4472,4.4472,0,0,1-1.1441-1.5957,7.1045,7.1045,0,0,1-.542-2.1382,6.0226,6.0226,0,0,1,.1807-2.2583l3.4326-13.61a7.8056,7.8056,0,0,1,.9336-2.2583,12.0748,12.0748,0,0,1,1.5957-2.1382,9.4815,9.4815,0,0,1,1.9273-1.5957A3.7771,3.7771,0,0,1,115.53,33.76h18.4282a2.4808,2.4808,0,0,1,1.6865.6323,4.468,4.468,0,0,1,1.1441,1.5957,6.57,6.57,0,0,1,.5117,2.1382,7.66,7.66,0,0,1-.15,2.2583Z" style="fill:#feb700"/><path d="M168.5264,43.877a10.2231,10.2231,0,0,1-.9634,2.2583,11.0605,11.0605,0,0,1-1.5659,2.1381,9.4563,9.4563,0,0,1-1.9273,1.5957,3.7826,3.7826,0,0,1-1.9873.6324h-10.96l1.6259-6.6245h6.1426l.9033-3.4927h-8.7924l-3.4327,13.61H165.395l-1.6264,6.6245H141.125a2.4823,2.4823,0,0,1-1.6865-.6323,4.4472,4.4472,0,0,1-1.1441-1.5957,7.1045,7.1045,0,0,1-.542-2.1382,6.0226,6.0226,0,0,1,.1807-2.2583l3.4326-13.61a7.8056,7.8056,0,0,1,.9336-2.2583,12.0748,12.0748,0,0,1,1.5957-2.1382,9.4815,9.4815,0,0,1,1.9273-1.5957A3.7771,3.7771,0,0,1,147.81,33.76h18.4282a2.4808,2.4808,0,0,1,1.6865.6323,4.468,4.468,0,0,1,1.1441,1.5957,6.57,6.57,0,0,1,.5117,2.1382,7.66,7.66,0,0,1-.15,2.2583Z" style="fill:#feb700"/><path d="M198.2764,53.9946a10.2429,10.2429,0,0,1-.9634,2.2583,11.0919,11.0919,0,0,1-1.5659,2.1382,9.473,9.473,0,0,1-1.9273,1.5957,3.7869,3.7869,0,0,1-1.9873.6323h-10.96l1.6259-6.6245h6.1426l3.4326-13.61h-8.7924L176.1743,68.87h-9.6357l8.7324-35.11h23.2461a2.4808,2.4808,0,0,1,1.6865.6323,4.468,4.468,0,0,1,1.1441,1.5957,6.57,6.57,0,0,1,.5117,2.1382,7.66,7.66,0,0,1-.15,2.2583Z" style="fill:#feb700"/><path d="M209.5981,25.69h9.6358l-8.7324,34.9292h-9.6358Z" style="fill:#feb700"/><path d="M246.936,43.877a10.2178,10.2178,0,0,1-.9633,2.2583,11.0568,11.0568,0,0,1-1.566,2.1381,9.4558,9.4558,0,0,1-1.9272,1.5957,3.7826,3.7826,0,0,1-1.9873.6324h-10.96l1.626-6.6245H237.3l.9033-3.4927h-8.7925l-3.4326,13.61h17.8262l-1.6265,6.6245H219.5347a2.4827,2.4827,0,0,1-1.6866-.6323,4.4482,4.4482,0,0,1-1.144-1.5957,7.1045,7.1045,0,0,1-.542-2.1382,6.0226,6.0226,0,0,1,.1807-2.2583l3.4326-13.61a7.8028,7.8028,0,0,1,.9336-2.2583,12.065,12.065,0,0,1,1.5957-2.1382,9.4783,9.4783,0,0,1,1.9272-1.5957,3.7776,3.7776,0,0,1,1.9873-.6323h18.4283a2.4808,2.4808,0,0,1,1.6865.6323,4.4678,4.4678,0,0,1,1.144,1.5957,6.5648,6.5648,0,0,1,.5117,2.1382,7.6564,7.6564,0,0,1-.15,2.2583Z" style="fill:#feb700"/><path d="M276.7461,40.3843H261.69l-3.4326,13.61h15.0557l-1.626,6.6245H251.814a2.4827,2.4827,0,0,1-1.6866-.6323,4.4482,4.4482,0,0,1-1.144-1.5957,7.1016,7.1016,0,0,1-.542-2.1382,6.0226,6.0226,0,0,1,.1807-2.2583l3.4326-13.61a7.8028,7.8028,0,0,1,.9336-2.2583,12.065,12.065,0,0,1,1.5957-2.1382,9.4783,9.4783,0,0,1,1.9272-1.5957,3.7776,3.7776,0,0,1,1.9873-.6323h19.8736Z" style="fill:#feb700"/><path d="M284.6353,25.69h9.6357l-2.0479,8.07h13.61a2.4808,2.4808,0,0,1,1.6865.6323,4.468,4.468,0,0,1,1.1441,1.5957,6.57,6.57,0,0,1,.5117,2.1382,7.66,7.66,0,0,1-.15,2.2583l-5.0586,20.2348h-9.6357L299.39,40.3843h-8.7924l-5.0586,20.2348h-9.6358Z" style="fill:#feb700"/><path d="M311.645,48.2432a12.0819,12.0819,0,0,1,1.5957-2.1377,9.4709,9.4709,0,0,1,1.9273-1.5962,3.7816,3.7816,0,0,1,1.9873-.6323h10.96l-1.626,6.6245h-6.1425l-.9034,3.4931h8.7925l3.4326-13.61H313.8428l1.6264-6.6245h22.6436a2.4808,2.4808,0,0,1,1.6865.6323,4.468,4.468,0,0,1,1.1441,1.5957,6.57,6.57,0,0,1,.5117,2.1382,7.66,7.66,0,0,1-.15,2.2583l-5.0586,20.2348H313a2.4823,2.4823,0,0,1-1.6865-.6323,4.4472,4.4472,0,0,1-1.1441-1.5957,7.1045,7.1045,0,0,1-.542-2.1382,6.0226,6.0226,0,0,1,.1807-2.2583l.9033-3.4931A7.7973,7.7973,0,0,1,311.645,48.2432Z" style="fill:#feb700"/><path d="M371.0547,50.5015l-.9033,3.4931a10.2429,10.2429,0,0,1-.9634,2.2583,11.0919,11.0919,0,0,1-1.5659,2.1382,9.473,9.473,0,0,1-1.9273,1.5957,3.7869,3.7869,0,0,1-1.9873.6323H340.4614l1.626-6.6245h18.4282l.9033-3.4931h-13.61a2.48,2.48,0,0,1-1.6865-.6324,4.4463,4.4463,0,0,1-1.1441-1.5957,7.0962,7.0962,0,0,1-.542-2.1381,6.0326,6.0326,0,0,1,.1807-2.2583l.9033-3.4927a7.8056,7.8056,0,0,1,.9336-2.2583,12.0748,12.0748,0,0,1,1.5957-2.1382,9.4815,9.4815,0,0,1,1.9273-1.5957,3.7771,3.7771,0,0,1,1.9873-.6323H375.21l-1.626,6.6245H355.1558l-.9034,3.4927h13.61a2.4841,2.4841,0,0,1,1.6865.6323,4.47,4.47,0,0,1,1.1441,1.5962,6.5688,6.5688,0,0,1,.5117,2.1377A7.6586,7.6586,0,0,1,371.0547,50.5015Z" style="fill:#feb700"/><path d="M404.96,43.877a10.2231,10.2231,0,0,1-.9634,2.2583,11.0605,11.0605,0,0,1-1.5659,2.1381,9.4589,9.4589,0,0,1-1.9273,1.5957,3.7826,3.7826,0,0,1-1.9873.6324h-10.96l1.6259-6.6245h6.1426l.9033-3.4927h-8.7924l-3.4327,13.61h17.8262l-1.6265,6.6245H377.5586a2.4823,2.4823,0,0,1-1.6865-.6323,4.4472,4.4472,0,0,1-1.1441-1.5957,7.1045,7.1045,0,0,1-.542-2.1382,6.0226,6.0226,0,0,1,.1807-2.2583l3.4326-13.61a7.8056,7.8056,0,0,1,.9336-2.2583,12.07,12.07,0,0,1,1.5957-2.1382,9.4815,9.4815,0,0,1,1.9273-1.5957,3.7771,3.7771,0,0,1,1.9873-.6323h18.4282a2.4808,2.4808,0,0,1,1.6865.6323,4.468,4.468,0,0,1,1.1441,1.5957,6.57,6.57,0,0,1,.5117,2.1382,7.66,7.66,0,0,1-.15,2.2583Z" style="fill:#feb700"/></g></g></svg>