<svg id="Layer_1" data-name="Layer 1" xmlns="http://www.w3.org/2000/svg" xmlns:xlink="http://www.w3.org/1999/xlink" width="460" height="87" viewBox="0 0 460 87"><defs><style>.cls-1{fill:#fff;}.cls-2{fill:url(#linear-gradient);}</style><linearGradient id="linear-gradient" x1="133.32" y1="22.66" x2="161" y2="22.66" gradientTransform="translate(107 30.7) rotate(-9.4)" gradientUnits="userSpaceOnUse"><stop offset="0" stop-color="#2e8f4c"/><stop offset="1" stop-color="#1c6438"/></linearGradient></defs><title></title><path class="cls-1" d="M68.2,25.6V41.2H65L57.1,26.4V40.8h1.3v.4H55.2v-.4h1.3V25.6H55.2v-.5h6.4l6,11.6V25.6H66.4v-.5h3.1v.5Z"/><path class="cls-1" d="M69.4,30.7v-.4h6.7v.4H74.8l2.5,7.7L80,30.7H78.4v-.4h3.3v.4H80.5L76.2,43.1a5.9,5.9,0,0,1-1.7,3,3.2,3.2,0,0,1-2.3.9,3.3,3.3,0,0,1-2.1-.6,2.1,2.1,0,0,1-.8-1.6,2.3,2.3,0,0,1,.5-1.5,2.2,2.2,0,0,1,1.4-.5c1.2,0,1.9.5,1.9,1.6a3.1,3.1,0,0,1-.2.8h-.8a1.4,1.4,0,0,0,0,.9.6.6,0,0,0,.6.3,2.2,2.2,0,0,0,1.7-.9,12,12,0,0,0,1.4-2.8l.5-1.5h-2l-4-10.5Z"/><path class="cls-1" d="M87,38V30.7H85.8v-.4H87v-3l4.3-1v4h3v.4h-3v7.8a6.3,6.3,0,0,0,.2,1.6,1.1,1.1,0,0,0,.9.5,1.5,1.5,0,0,0,1.2-.7,3.6,3.6,0,0,0,.7-1.9h.4a4.4,4.4,0,0,1-1,2.5,3.3,3.3,0,0,1-2.7,1,5.1,5.1,0,0,1-3-.8A3.4,3.4,0,0,1,87,38Z"/><path class="cls-1" d="M94.8,30.3h5.7V40.8h1.3v.4H94.9v-.4h1.3V30.7H94.8Zm3.5-1.6a2.1,2.1,0,0,1-1.7-.6,2,2,0,0,1-.5-1.5,2.5,2.5,0,0,1,.5-1.6,2.4,2.4,0,0,1,1.7-.6,2.4,2.4,0,0,1,1.8.6,1.9,1.9,0,0,1,.6,1.5,2.1,2.1,0,0,1-.6,1.6A2.4,2.4,0,0,1,98.3,28.7Z"/><path class="cls-1" d="M102.1,24h5.7V40.8h1.3v.4h-6.9v-.4h1.3V24.4h-1.4Z"/><path class="cls-1" d="M113.6,24h5.6v8.4a3.4,3.4,0,0,1,1.1-1.7,3.7,3.7,0,0,1,2.3-.6c2.4,0,3.6,1.3,3.6,3.8v6.9h1.3v.4H121v-.4h.9V33.4a5.3,5.3,0,0,0-.2-1.8c-.1-.3-.3-.4-.7-.4a1.7,1.7,0,0,0-1.3.9,6,6,0,0,0-.5,2.4v6.3h1v.4h-6.6v-.4h1.3V24.4h-1.3Z"/><path class="cls-1" d="M129.4,40a6.1,6.1,0,0,1-1.5-4.3,5.4,5.4,0,0,1,1.7-4.2,6.4,6.4,0,0,1,4.2-1.4c3.5,0,5.2,1.7,5,5.2h-6.4v.9a9.4,9.4,0,0,0,.5,3.4,2.1,2.1,0,0,0,2,1.2,3.4,3.4,0,0,0,3.5-2.9h.4a4.9,4.9,0,0,1-1.5,2.6,5.5,5.5,0,0,1-3.4.9A6.1,6.1,0,0,1,129.4,40Zm3-5.1h2.4V33.7a6.9,6.9,0,0,0-.3-2.5.8.8,0,0,0-.8-.7,1.1,1.1,0,0,0-1,.7,7.3,7.3,0,0,0-.3,2.5Z"/><path class="cls-1" d="M140,41.5V37.4h.2a5.8,5.8,0,0,0,1.7,2.8,3.9,3.9,0,0,0,2.5.8c1.6,0,2.3-.5,2.3-1.5a1.1,1.1,0,0,0-.5-1,10.2,10.2,0,0,0-2.3-.8,6.7,6.7,0,0,1-2.7-1.1A2.9,2.9,0,0,1,140,34a3.8,3.8,0,0,1,1.1-2.9,3.9,3.9,0,0,1,2.9-1,4.8,4.8,0,0,1,2.3.5l.7.2.4-.2.4-.6h.2v3.5h-.2c-.8-1.9-2-2.9-3.7-2.9a3.5,3.5,0,0,0-1.6.3,1.4,1.4,0,0,0-.5,1c0,.2,0,.4.2.5s.1.3.2.3l.3.2.4.2h.8l2.3.7,1.3.7a3.2,3.2,0,0,1,1.2,2.8,3.7,3.7,0,0,1-1.1,3,5.1,5.1,0,0,1-3.2,1,5.4,5.4,0,0,1-2.7-.7l-.5-.2c-.3,0-.6.3-1,.9Z"/><path class="cls-1" d="M150.3,38V30.7h-1.2v-.4h1.2v-3l4.3-1v4h3v.4h-3v7.8a6.3,6.3,0,0,0,.2,1.6,1.1,1.1,0,0,0,1,.5,1.9,1.9,0,0,0,1.2-.7,4.7,4.7,0,0,0,.6-1.9h.4a3.8,3.8,0,0,1-1,2.5,3.1,3.1,0,0,1-2.7,1,4.6,4.6,0,0,1-2.9-.8A3.1,3.1,0,0,1,150.3,38Z"/><path class="cls-1" d="M159.9,40a6.1,6.1,0,0,1-1.5-4.3,5.4,5.4,0,0,1,1.6-4.2,6.9,6.9,0,0,1,4.3-1.4c3.5,0,5.1,1.7,5,5.2h-6.5v.9a7.4,7.4,0,0,0,.6,3.4,2,2,0,0,0,2,1.2c1.8,0,2.9-1,3.5-2.9h.4a5,5,0,0,1-1.6,2.6,5.3,5.3,0,0,1-3.4.9A5.7,5.7,0,0,1,159.9,40Zm2.9-5.1h2.4V33.7a12.1,12.1,0,0,0-.2-2.5.9.9,0,0,0-.9-.7c-.4,0-.7.3-1,.7a7.3,7.3,0,0,0-.3,2.5Z"/><path class="cls-1" d="M170.4,41.5V37.4h.3a5.8,5.8,0,0,0,1.6,2.8,4.1,4.1,0,0,0,2.5.8q2.4,0,2.4-1.5a1,1,0,0,0-.6-1,10.2,10.2,0,0,0-2.3-.8,6.8,6.8,0,0,1-2.6-1.1,2.7,2.7,0,0,1-1.3-2.6,4.2,4.2,0,0,1,1.1-2.9,4.2,4.2,0,0,1,3-1,5,5,0,0,1,2.3.5l.7.2.4-.2a1.6,1.6,0,0,0,.3-.6h.3v3.5h-.3c-.8-1.9-2-2.9-3.6-2.9a3.2,3.2,0,0,0-1.6.3,1.2,1.2,0,0,0-.6,1,.8.8,0,0,0,.2.5q.2.3.3.3l.3.2.3.2h.9l2.2.7,1.3.7a3.1,3.1,0,0,1,1.3,2.8,3.8,3.8,0,0,1-1.2,3,4.8,4.8,0,0,1-3.1,1,5.5,5.5,0,0,1-2.8-.7l-.4-.2c-.3,0-.7.3-1,.9Z"/><path class="cls-1" d="M185.2,30.3v1.8a3.3,3.3,0,0,1,3.2-2,3.7,3.7,0,0,1,3.1,1.4,7.1,7.1,0,0,1,1.1,4.3,6.3,6.3,0,0,1-1.2,4.3,4.6,4.6,0,0,1-3.6,1.4,3.2,3.2,0,0,1-1.6-.3,2.4,2.4,0,0,1-.9-.8v5.9h2.9v.4h-8.5v-.4H181V30.7h-1.2v-.4Zm2.7,1.6c-.2-.6-.5-.8-.9-.8a1.2,1.2,0,0,0-1.2.8,4.1,4.1,0,0,0-.5,2.3v4.2a2.9,2.9,0,0,0,.4,1.7,1.1,1.1,0,0,0,1.1.7c.5,0,.9-.3,1-1a14.4,14.4,0,0,0,.3-3.5V35.1A19.1,19.1,0,0,0,187.9,31.9Z"/><path class="cls-1" d="M193.1,30.3h5.7V40.8h1.3v.4h-6.9v-.4h1.3V30.7h-1.4Zm3.5-1.6a2.1,2.1,0,0,1-1.7-.6,2,2,0,0,1-.5-1.5,2.5,2.5,0,0,1,.5-1.6,2.4,2.4,0,0,1,1.7-.6,2.4,2.4,0,0,1,1.8.6,1.9,1.9,0,0,1,.6,1.5,2.1,2.1,0,0,1-.6,1.6A2.4,2.4,0,0,1,196.6,28.7Z"/><path class="cls-1" d="M200.4,24h5.7V40.8h1.3v.4h-6.9v-.4h1.3V24.4h-1.4Z"/><path class="cls-1" d="M210.3,25.9a6.1,6.1,0,0,1,3.8-1,6.3,6.3,0,0,1,3.9,1,3.2,3.2,0,0,1,1.4,2.8,4,4,0,0,1-.6,2.2,14,14,0,0,1-1.7,2l-3.5,3v1.4H213V32.4a.9.9,0,0,1,.3-.6l1.4-1.5a2.4,2.4,0,0,0,.9-1.2,3.3,3.3,0,0,0,.3-1.5c0-1.5-.7-2.3-2.1-2.3a1.7,1.7,0,0,0-1.4.6,1.6,1.6,0,0,0-.5,1,1.9,1.9,0,0,0,.2.8h.7a3.7,3.7,0,0,1,.2,1.2,1.7,1.7,0,0,1-.6,1.2,2.5,2.5,0,0,1-1.5.5,1.8,1.8,0,0,1-1.5-.7,2.5,2.5,0,0,1-.5-1.5A3.1,3.1,0,0,1,210.3,25.9Zm3,15.6A1.7,1.7,0,0,1,212,41a1.8,1.8,0,0,1-.4-1.3,1.6,1.6,0,0,1,.4-1.2,1.9,1.9,0,0,1,1.3-.5,1.8,1.8,0,0,1,1.3.4,1.7,1.7,0,0,1,.5,1.3,1.9,1.9,0,0,1-.5,1.3A1.7,1.7,0,0,1,213.3,41.5Z"/><path class="cls-2" d="M253.9,19.9c-1-.1-.6-2.8-2.5-5.2-.2-.4-1.8-2.6-3.5-2.3s-1.5,1.2-2.9,3.3-1.4,2.5-2.3,3.2-1.6.9-1.9,1.6a3.3,3.3,0,0,0,1.2,3.6c.9.8,1.7.5,6.2,1.2,1.3.2,1.9.3,2,.6s-1,.9-3.5,2.1-4.1,2.4-4.2,3,.6,2.7,1.5,3.5,1.6.4,2.8,1.4.9,1.7,2,2.5a3.8,3.8,0,0,0,2.9.8c2.6-.6,3.1-5.2,3.9-5.1s.6,2.3.6,3.7.1,4.1-.7,5.5a4,4,0,0,0-.8,2.3c0,.7.4,1.4.8,1.5s1.8-3,2-3.5a15.4,15.4,0,0,0,.4-7c-.3-1.8-1-3.3-.9-3.3s.7,1.5,2.1,3.1a3.5,3.5,0,0,0,2.2,1.5,3.4,3.4,0,0,0,2.7-.7c1-.9.6-1.6,1.7-3.1s1.7-1.2,2.7-2.7,1.4-2,1-3.3-2.5-2.2-2.9-2.4-2.4.2-4.8-.4-1.3-.5-1.4-.8,1.3-1.1,1.4-1.1a6.3,6.3,0,0,1,2.1-.4,5,5,0,0,0,3.9-3.1,3.7,3.7,0,0,0-.2-3.5c-.6-.7-.7-.6-2.5-1.4s-1.8-.6-2.4-1.5a11.6,11.6,0,0,0-1.6-2,3.1,3.1,0,0,0-2.6-.8c-1.1.2-1.6,1-2.2,1.9a5.8,5.8,0,0,0-1.3,3.7c0,1.3.6,2,.1,2.8S254.4,20,253.9,19.9Z"/><path class="cls-1" d="M9.4,55.8h7.1v.4H15.2v7.3h.2l6.5-7.3H20v-.4h4.1v.4H22.7l-4,4.5,5.6,10.8h1.2v.4H18.1v-.4h1.1l-3.8-7.4h-.2v7.3h1.3v.4H9.4v-.4h1.3V56.2H9.4Z"/><path class="cls-1" d="M25.9,54.7h5.6V71.5h1.3v.4H26v-.4h1.2V55.1H25.9Z"/><path class="cls-1" d="M33.2,61h5.6V71.5h1.3v.4H33.2v-.4h1.3V61.4H33.2Zm3.4-1.6a2.1,2.1,0,0,1-1.7-.6,2.4,2.4,0,0,1-.5-1.6,1.9,1.9,0,0,1,2.3-2.1,2.9,2.9,0,0,1,1.7.5,2.1,2.1,0,0,1,.6,1.6,2.3,2.3,0,0,1-.6,1.6A2.4,2.4,0,0,1,36.6,59.4Z"/><path class="cls-1" d="M48.1,71.9v-.4h1l-2.6-5.3h-.4v5.2h1v.4H40.5v-.4h1.3V55.1H40.4v-.4h5.7V65.8h.4l5.1-4.3H49.5V61H54v.4H52.4l-2.8,2.3,4,7.8h.9v.4Z"/><path class="cls-1" d="M58.8,61h5.7V71.5h1.3v.4H58.9v-.4h1.3V61.4H58.8Zm3.5-1.6a2.1,2.1,0,0,1-1.7-.6,2.4,2.4,0,0,1-.5-1.6,2.5,2.5,0,0,1,.5-1.5,2.4,2.4,0,0,1,1.7-.6,3,3,0,0,1,1.8.5,2.1,2.1,0,0,1,.6,1.6,2.3,2.3,0,0,1-.6,1.6A2.4,2.4,0,0,1,62.3,59.4Z"/><path class="cls-1" d="M75.5,59.8l.6-.4c.1-.5-.1-.7-.6-.7s-.9.5-.9,1.5a7.6,7.6,0,0,0,.1,1.4,3.3,3.3,0,0,1,1.8,3,3.6,3.6,0,0,1-1.3,2.8,5.1,5.1,0,0,1-3.4,1,6.5,6.5,0,0,1-1.9-.2c-.7.5-1,.8-1,1s.5.3,1.5.3h2.3c3.5,0,5.2,1.3,5.2,3.8a3.9,3.9,0,0,1-1.5,3.2,8.2,8.2,0,0,1-4.9,1.2c-3.8,0-5.7-.9-5.7-2.5s.6-1.5,1.7-1.8l1.4.6a5,5,0,0,0-.2,1.2c0,1.4,1,2,3,2a4.9,4.9,0,0,0,2.7-.6,2,2,0,0,0,1-1.7c0-.7-.2-1.1-.6-1.3a5.2,5.2,0,0,0-2.3-.4H70.3a4.5,4.5,0,0,1-2.7-.6,1.9,1.9,0,0,1-.8-1.5,2,2,0,0,1,.6-1.5,7.7,7.7,0,0,1,2-1.5,3.4,3.4,0,0,1-2.7-3.5A3.6,3.6,0,0,1,68,61.8a5.4,5.4,0,0,1,3.7-1.1,5.3,5.3,0,0,1,2.6.6,5.2,5.2,0,0,1-.2-1.1,2.2,2.2,0,0,1,.7-1.9,2.5,2.5,0,0,1,1.6-.6,1.9,1.9,0,0,1,1.3.5,1.3,1.3,0,0,1,.5,1.2,1.6,1.6,0,0,1-.4,1.2,1.8,1.8,0,0,1-1,.4,1.2,1.2,0,0,1-.9-.3A1.1,1.1,0,0,1,75.5,59.8Zm-4.9,4.3v1.2a9.1,9.1,0,0,0,.2,2.1.9.9,0,0,0,.8.6.8.8,0,0,0,.8-.6,5.1,5.1,0,0,0,.3-2.2V64.1a6.2,6.2,0,0,0-.3-2.4.7.7,0,0,0-.7-.6.8.8,0,0,0-.8.6A6.2,6.2,0,0,0,70.6,64.1Z"/><path class="cls-1" d="M79.1,70.6a6.1,6.1,0,0,1-1.4-4.2,5.1,5.1,0,0,1,1.6-4.2,6.3,6.3,0,0,1,4.3-1.5c3.5,0,5.1,1.8,5,5.3H82.1v.9a7.7,7.7,0,0,0,.6,3.4,2.1,2.1,0,0,0,2,1.1c1.8,0,2.9-.9,3.5-2.8h.4A4.3,4.3,0,0,1,87,71.2a5.3,5.3,0,0,1-3.4.9A6.1,6.1,0,0,1,79.1,70.6Zm3-5.1h2.4V64.4a11.4,11.4,0,0,0-.2-2.5.9.9,0,0,0-.9-.7,1,1,0,0,0-1,.7,7.3,7.3,0,0,0-.3,2.5Z"/><path class="cls-1" d="M89.5,61H95v2.1a3.4,3.4,0,0,1,1.1-1.7,3.2,3.2,0,0,1,2.3-.7q3.6,0,3.6,3.9v6.9h1.3v.4H96.8v-.4h.9V64a3.9,3.9,0,0,0-.2-1.8.7.7,0,0,0-.6-.4,1.6,1.6,0,0,0-1.3,1,4.3,4.3,0,0,0-.6,2.4v6.3h1v.4H89.5v-.4h1.2V61.4H89.5Z"/><path class="cls-1" d="M103.6,61h5.6v2.1a3.4,3.4,0,0,1,1.1-1.7,3.2,3.2,0,0,1,2.3-.7q3.6,0,3.6,3.9v6.9h1.3v.4h-6.6v-.4h1V64a6.2,6.2,0,0,0-.2-1.8.7.7,0,0,0-.7-.4c-.5,0-.9.4-1.3,1a5.4,5.4,0,0,0-.5,2.4v6.3h1v.4h-6.6v-.4h1.3V61.4h-1.3Z"/><path class="cls-1" d="M119.3,70.6a6.1,6.1,0,0,1-1.4-4.2,5.1,5.1,0,0,1,1.6-4.2,6.3,6.3,0,0,1,4.3-1.5c3.5,0,5.1,1.8,5,5.3h-6.5v.9a7.7,7.7,0,0,0,.6,3.4,2.1,2.1,0,0,0,2,1.1c1.8,0,2.9-.9,3.5-2.8h.4a4.3,4.3,0,0,1-1.6,2.6,5.3,5.3,0,0,1-3.4.9A6.1,6.1,0,0,1,119.3,70.6Zm3-5.1h2.4V64.4a11.4,11.4,0,0,0-.2-2.5.9.9,0,0,0-.9-.7,1,1,0,0,0-1,.7,7.3,7.3,0,0,0-.3,2.5Z"/><path class="cls-1" d="M129.6,61h5.6v2.1a3.2,3.2,0,0,1,3.3-2.4,2.9,2.9,0,0,1,3.1,2.5,3.4,3.4,0,0,1,3.4-2.5c2.3,0,3.4,1.3,3.4,3.9v6.9h1.3v.4h-6.4v-.4h.8V64a3.8,3.8,0,0,0-.3-2l-.3-.2a1.4,1.4,0,0,0-1.2.9,5.2,5.2,0,0,0-.5,2.3v6.5h.8v.4h-5.9v-.4h.8V64a3.8,3.8,0,0,0-.3-2,.5.5,0,0,0-.4-.2c-.4,0-.8.4-1.1,1a4.5,4.5,0,0,0-.5,2.4v6.3h.8v.4h-6.4v-.4h1.3V61.4h-1.3Z"/><path class="cls-1" d="M154,61.4V61h6.8v.4h-1.4l2.7,7.6,2.5-7.6h-1.5V61h3.1v.4h-1l-3.4,10.5h-2.7l-4.2-10.5Z"/><path class="cls-1" d="M167.5,70.7a5.7,5.7,0,0,1-1.5-4.2,5.8,5.8,0,0,1,1.6-4.3,7.3,7.3,0,0,1,8.7-.1,5.7,5.7,0,0,1,1.4,4.2c0,3.9-2,5.8-5.9,5.8A5.7,5.7,0,0,1,167.5,70.7Zm5.8-3.3v-2a12.2,12.2,0,0,0-.3-3.2c-.1-.7-.5-1.1-1.1-1.1a1.1,1.1,0,0,0-.8.3,1.9,1.9,0,0,0-.5,1,21.6,21.6,0,0,0-.2,3.1v1.8a13.8,13.8,0,0,0,.2,3,4.6,4.6,0,0,0,.3.9,1.1,1.1,0,0,0,1,.5,1.2,1.2,0,0,0,1.2-1A19.6,19.6,0,0,0,173.3,67.4Z"/><path class="cls-1" d="M186,61.6a1.8,1.8,0,0,0-1.5,1.1,5.3,5.3,0,0,0-.6,2.6v6.2h1.6v.4h-7.2v-.4h1.3V61.4h-1.3V61h5.6v2.2a3.3,3.3,0,0,1,1.1-1.8,2.9,2.9,0,0,1,2-.7,2.4,2.4,0,0,1,1.7.6,2.3,2.3,0,0,1,.7,1.8,2.9,2.9,0,0,1-.5,1.7,2,2,0,0,1-1.6.6,1.6,1.6,0,0,1-1.5-.7,2.1,2.1,0,0,1-.1-1.9h.8C186.9,62,186.7,61.6,186,61.6Z"/><path class="cls-1" d="M191.2,70.6a5.7,5.7,0,0,1-1.5-4.2,5.1,5.1,0,0,1,1.7-4.2,6,6,0,0,1,4.2-1.5c3.5,0,5.2,1.8,5,5.3h-6.4v.9a7.9,7.9,0,0,0,.5,3.4,2.2,2.2,0,0,0,2,1.1,3.3,3.3,0,0,0,3.5-2.8h.4a4.7,4.7,0,0,1-1.5,2.6,5.6,5.6,0,0,1-3.5.9A6,6,0,0,1,191.2,70.6Zm3-5.1h2.3V64.4a7.3,7.3,0,0,0-.2-2.5.8.8,0,0,0-.8-.7,1,1,0,0,0-1,.7,7.3,7.3,0,0,0-.3,2.5Z"/><path class="cls-1" d="M201.8,72.1V68h.2a5,5,0,0,0,1.7,2.8,3.4,3.4,0,0,0,2.5.8c1.5,0,2.3-.5,2.3-1.5a1.1,1.1,0,0,0-.5-.9,6.9,6.9,0,0,0-2.3-.8,11.6,11.6,0,0,1-2.7-1.1,3,3,0,0,1-1.2-2.6,3.6,3.6,0,0,1,1.1-2.9,4,4,0,0,1,2.9-1.1,4.9,4.9,0,0,1,2.3.6h1.1l.4-.6h.2v3.5h-.2c-.8-2-2-3-3.7-3a2.5,2.5,0,0,0-1.6.4,1.4,1.4,0,0,0-.5,1c0,.2,0,.4.2.5l.2.3.3.2h.3l.5.2h.4l2.3.7,1.3.7a3.2,3.2,0,0,1,1.2,2.8,3.7,3.7,0,0,1-1.1,2.9,4.6,4.6,0,0,1-3.2,1,6.6,6.6,0,0,1-2.7-.6l-.5-.2c-.3,0-.6.3-1,.8Z"/><path class="cls-1" d="M215.9,72.1V68h.3a4.9,4.9,0,0,0,1.6,2.8,3.4,3.4,0,0,0,2.5.8q2.4,0,2.4-1.5a1,1,0,0,0-.6-.9,6.9,6.9,0,0,0-2.3-.8,10.7,10.7,0,0,1-2.6-1.1,2.8,2.8,0,0,1-1.3-2.6,3.8,3.8,0,0,1,4-4,5.3,5.3,0,0,1,2.4.6h1a1.5,1.5,0,0,0,.4-.6h.3v3.5h-.3q-1.2-3-3.6-3a2.7,2.7,0,0,0-1.7.4,1.4,1.4,0,0,0-.5,1,.8.8,0,0,0,.2.5c.1.1.2.2.2.3l.3.2h.4l.4.2h.4l2.3.7,1.3.7a3.3,3.3,0,0,1,1.3,2.8,3.4,3.4,0,0,1-1.2,2.9,4.5,4.5,0,0,1-3.1,1,6.7,6.7,0,0,1-2.8-.6l-.4-.2c-.4,0-.7.3-1,.8Z"/><path class="cls-1" d="M226.3,68.6V61.4H225V61h1.3V58l4.2-1.1V61h3v.4h-3v7.7a3,3,0,0,0,.3,1.6c.1.4.4.5.9.5a1.5,1.5,0,0,0,1.2-.7,5.8,5.8,0,0,0,.7-1.9h.3a3.8,3.8,0,0,1-1,2.5,3.4,3.4,0,0,1-2.7.9,4.6,4.6,0,0,1-2.9-.7C226.6,70.9,226.3,70,226.3,68.6Z"/><path class="cls-1" d="M235.8,70.6a5.7,5.7,0,0,1-1.5-4.2,4.9,4.9,0,0,1,1.7-4.2,6,6,0,0,1,4.2-1.5c3.5,0,5.2,1.8,5,5.3h-6.5v.9a7.7,7.7,0,0,0,.6,3.4,2.2,2.2,0,0,0,2,1.1c1.8,0,2.9-.9,3.5-2.8h.4a4.3,4.3,0,0,1-1.6,2.6,5.3,5.3,0,0,1-3.4.9A5.9,5.9,0,0,1,235.8,70.6Zm3-5.1h2.3V64.4a11.4,11.4,0,0,0-.2-2.5.8.8,0,0,0-.9-.7.9.9,0,0,0-.9.7,7.3,7.3,0,0,0-.3,2.5Z"/><path class="cls-1" d="M251.5,61v1.8a3.2,3.2,0,0,1,3.2-2.1,3.6,3.6,0,0,1,3.1,1.5,7.1,7.1,0,0,1,1.1,4.3,6.7,6.7,0,0,1-1.2,4.3,4.5,4.5,0,0,1-3.6,1.3,3.7,3.7,0,0,1-1.6-.2,2,2,0,0,1-.9-.9v6h3v.4H246V77h1.3V61.4h-1.2V61Zm2.7,1.5a.9.9,0,0,0-.9-.8q-.6,0-1.2.9a4.9,4.9,0,0,0-.5,2.3v4.2a3.1,3.1,0,0,0,.4,1.7,1.2,1.2,0,0,0,1.1.7,1.3,1.3,0,0,0,1.1-1,26.7,26.7,0,0,0,.2-3.6V65.7A12.4,12.4,0,0,0,254.2,62.5Z"/><path class="cls-1" d="M260.5,65.5v-.7h5.8v.7Z"/><path class="cls-1" d="M273.2,54.7v8a3.1,3.1,0,0,1,3-2c2.9,0,4.3,1.9,4.3,5.8a6.7,6.7,0,0,1-1.2,4.3,4.5,4.5,0,0,1-3.5,1.3,5,5,0,0,1-1.9-.3,2,2,0,0,1-.8-1.2l-.2,1.3h-5.2v-.4h1.2V55.1h-1.2v-.4Zm2.6,7.8a.9.9,0,0,0-.9-.8q-.6,0-1.2.9a4.5,4.5,0,0,0-.5,2.2v4.3a3.1,3.1,0,0,0,.4,1.7,1.5,1.5,0,0,0,1.2.7c.5,0,.8-.4,1-1a14.8,14.8,0,0,0,.3-3.6V65.7A11.2,11.2,0,0,0,275.8,62.5Z"/><path class="cls-1" d="M280.6,61.4V61h6.7v.4H286l2.5,7.6,2.7-7.6h-1.5V61h3.2v.4h-1.1l-4.3,12.4a8.2,8.2,0,0,1-1.7,3,3.3,3.3,0,0,1-2.3.9,3.1,3.1,0,0,1-2.2-.7,1.9,1.9,0,0,1-.8-1.5A2.1,2.1,0,0,1,281,74a1.7,1.7,0,0,1,1.4-.5c1.3,0,1.9.5,1.9,1.6s-.1.5-.1.8h-.9a1.4,1.4,0,0,0,0,.9.6.6,0,0,0,.6.3,2.1,2.1,0,0,0,1.7-.9,8.7,8.7,0,0,0,1.4-2.9l.5-1.4h-2l-3.9-10.5Z"/><path class="cls-1" d="M293,65.5v-.7h5.8v.7Z"/><path class="cls-1" d="M300.7,72.1V68h.2a5,5,0,0,0,1.7,2.8,3.4,3.4,0,0,0,2.5.8c1.5,0,2.3-.5,2.3-1.5a1.1,1.1,0,0,0-.5-.9,6.9,6.9,0,0,0-2.3-.8,11.6,11.6,0,0,1-2.7-1.1,3,3,0,0,1-1.2-2.6,3.6,3.6,0,0,1,1.1-2.9,4,4,0,0,1,2.9-1.1,4.9,4.9,0,0,1,2.3.6h1.1l.4-.6h.2v3.5h-.2c-.8-2-2-3-3.7-3a2.5,2.5,0,0,0-1.6.4,1.4,1.4,0,0,0-.5,1c0,.2,0,.4.2.5l.2.3.3.2h.3l.5.2h.4l2.3.7,1.3.7a3.2,3.2,0,0,1,1.2,2.8,3.7,3.7,0,0,1-1.1,2.9,4.6,4.6,0,0,1-3.2,1,6.6,6.6,0,0,1-2.7-.6l-.5-.2c-.3,0-.6.3-1,.8Z"/><path class="cls-1" d="M311,68.6V61.4h-1.2V61H311V58l4.3-1.1V61h3v.4h-3v7.7a5.1,5.1,0,0,0,.2,1.6.9.9,0,0,0,.9.5,1.6,1.6,0,0,0,1.3-.7,4.3,4.3,0,0,0,.6-1.9h.4a3.8,3.8,0,0,1-1,2.5,3.5,3.5,0,0,1-2.7.9,4.6,4.6,0,0,1-2.9-.7A3.2,3.2,0,0,1,311,68.6Z"/><path class="cls-1" d="M320.6,70.6a5.7,5.7,0,0,1-1.5-4.2,5.1,5.1,0,0,1,1.6-4.2,6.3,6.3,0,0,1,4.3-1.5c3.5,0,5.1,1.8,5,5.3h-6.5v.9a7.7,7.7,0,0,0,.6,3.4,2.1,2.1,0,0,0,2,1.1c1.8,0,2.9-.9,3.5-2.8h.4a4.3,4.3,0,0,1-1.6,2.6,5.3,5.3,0,0,1-3.4.9A5.7,5.7,0,0,1,320.6,70.6Zm2.9-5.1h2.4V64.4a11.4,11.4,0,0,0-.2-2.5.9.9,0,0,0-.9-.7,1,1,0,0,0-1,.7,7.3,7.3,0,0,0-.3,2.5Z"/><path class="cls-1" d="M336.3,61v1.8a3.2,3.2,0,0,1,3.2-2.1,3.7,3.7,0,0,1,3.1,1.5,7.1,7.1,0,0,1,1.1,4.3,6.7,6.7,0,0,1-1.2,4.3,4.5,4.5,0,0,1-3.6,1.3,3.4,3.4,0,0,1-1.6-.2,2,2,0,0,1-.9-.9v6h2.9v.4h-8.5V77h1.3V61.4h-1.2V61Zm2.7,1.5c-.2-.5-.5-.8-.9-.8a1.4,1.4,0,0,0-1.2.9,3.9,3.9,0,0,0-.5,2.3v4.2a3.1,3.1,0,0,0,.4,1.7,1.2,1.2,0,0,0,1.1.7,1.1,1.1,0,0,0,1-1,14.8,14.8,0,0,0,.3-3.6V65.7A20,20,0,0,0,339,62.5Z"/><path class="cls-1" d="M357.7,59.8l.7-.4c0-.5-.1-.7-.6-.7s-1,.5-1,1.5a9.3,9.3,0,0,0,.2,1.4,3.4,3.4,0,0,1,1.7,3,3.5,3.5,0,0,1-1.2,2.8,5.4,5.4,0,0,1-3.5,1,5.5,5.5,0,0,1-1.8-.2c-.7.5-1,.8-1,1s.4.3,1.4.3H355c3.4,0,5.2,1.3,5.2,3.8a3.8,3.8,0,0,1-1.6,3.2,8,8,0,0,1-4.9,1.2c-3.8,0-5.7-.9-5.7-2.5s.6-1.5,1.8-1.8l1.4.6a5,5,0,0,0-.2,1.2c0,1.4,1,2,2.9,2a5.5,5.5,0,0,0,2.8-.6,2.2,2.2,0,0,0,1-1.7c0-.7-.2-1.1-.6-1.3a5.7,5.7,0,0,0-2.4-.4h-2.2a4.9,4.9,0,0,1-2.7-.6,1.9,1.9,0,0,1-.8-1.5,2,2,0,0,1,.6-1.5,11.6,11.6,0,0,1,2.1-1.5,3.4,3.4,0,0,1-2.7-3.5,3.5,3.5,0,0,1,1.2-2.8,5.9,5.9,0,0,1,3.8-1.1,4.9,4.9,0,0,1,2.5.6,4.5,4.5,0,0,1-.1-1.1,2.2,2.2,0,0,1,.7-1.9,2,2,0,0,1,1.5-.6,2.2,2.2,0,0,1,1.4.5,1.7,1.7,0,0,1,.5,1.2,1.6,1.6,0,0,1-.4,1.2,1.8,1.8,0,0,1-1,.4,1.7,1.7,0,0,1-1-.3A1.5,1.5,0,0,1,357.7,59.8Zm-4.9,4.3v1.2a5.1,5.1,0,0,0,.3,2.1c.2.4.4.6.8.6s.6-.2.8-.6a8.8,8.8,0,0,0,.2-2.2V64.1a11,11,0,0,0-.2-2.4c-.2-.4-.4-.6-.8-.6a.9.9,0,0,0-.8.6A6.2,6.2,0,0,0,352.8,64.1Z"/><path class="cls-1" d="M373.9,71.9h-5.2l-.3-1.7a3,3,0,0,1-1,1.4,3.4,3.4,0,0,1-2.2.5c-2.4,0-3.6-1.2-3.6-3.8V61.4h-1.2V61h5.5v7.9a6.2,6.2,0,0,0,.2,1.8c.1.3.4.4.8.4s.7-.2,1-.7a3.7,3.7,0,0,0,.5-2v-7h-1.1V61h5.4V71.5h1.2Z"/><path class="cls-1" d="M374.3,61h5.6V71.5h1.3v.4h-6.8v-.4h1.3V61.4h-1.4Zm3.5-1.6a2.4,2.4,0,0,1-1.8-.6,3,3,0,0,1-.5-1.6,2,2,0,0,1,.6-1.5,2.2,2.2,0,0,1,1.7-.6,3,3,0,0,1,1.8.5,2.1,2.1,0,0,1,.6,1.6,2.3,2.3,0,0,1-.6,1.6A2.4,2.4,0,0,1,377.8,59.4Z"/><path class="cls-1" d="M389.5,71.9l-.2-1.6a3.2,3.2,0,0,1-3.2,1.8,3.5,3.5,0,0,1-3.1-1.4,7,7,0,0,1-1.1-4.2c0-3.9,1.5-5.8,4.6-5.8a2.7,2.7,0,0,1,2.6,1.2V55.1h-1.4v-.4h5.8V71.5h1.1v.4Zm-2.9-1.5c.2.5.5.8.9.8a1.4,1.4,0,0,0,1.2-.6,2.4,2.4,0,0,0,.5-1.8v-5a3.1,3.1,0,0,0-.4-1.7,1.1,1.1,0,0,0-1.1-.7c-.5,0-.9.3-1.1,1a26.7,26.7,0,0,0-.2,3.6v1.2A12.4,12.4,0,0,0,386.6,70.4Z"/><path class="cls-1" d="M396.8,70.6a5.7,5.7,0,0,1-1.5-4.2,5.1,5.1,0,0,1,1.7-4.2,6,6,0,0,1,4.2-1.5c3.5,0,5.2,1.8,5.1,5.3h-6.5v.9a9.8,9.8,0,0,0,.5,3.4,2.2,2.2,0,0,0,2,1.1,3.3,3.3,0,0,0,3.5-2.8h.5a4.8,4.8,0,0,1-1.6,2.6,5.5,5.5,0,0,1-3.4.9A6.1,6.1,0,0,1,396.8,70.6Zm3-5.1h2.4V64.4a6.5,6.5,0,0,0-.3-2.5.8.8,0,0,0-.8-.7,1,1,0,0,0-1,.7,7.3,7.3,0,0,0-.3,2.5Z"/><path class="cls-1" d="M411.2,54.7h5.6v8.4a3.4,3.4,0,0,1,1.1-1.7,3.2,3.2,0,0,1,2.3-.7q3.6,0,3.6,3.9v6.9H425v.4h-6.5v-.4h1V64a6.2,6.2,0,0,0-.2-1.8.7.7,0,0,0-.7-.4c-.5,0-.9.4-1.3,1a5.4,5.4,0,0,0-.5,2.4v6.3h1v.4h-6.6v-.4h1.3V55.1h-1.3Z"/><path class="cls-1" d="M427,70.6a5.7,5.7,0,0,1-1.5-4.2,5.1,5.1,0,0,1,1.7-4.2,6,6,0,0,1,4.2-1.5c3.5,0,5.2,1.8,5,5.3h-6.5v.9a7.7,7.7,0,0,0,.6,3.4,2.2,2.2,0,0,0,2,1.1,3.3,3.3,0,0,0,3.5-2.8h.4a4.7,4.7,0,0,1-1.5,2.6,5.6,5.6,0,0,1-3.5.9A6,6,0,0,1,427,70.6Zm3-5.1h2.3V64.4a7.3,7.3,0,0,0-.2-2.5.8.8,0,0,0-.9-.7.9.9,0,0,0-.9.7,7.3,7.3,0,0,0-.3,2.5Z"/><path class="cls-1" d="M444.9,61.6c-.5,0-1,.4-1.5,1.1a5.3,5.3,0,0,0-.6,2.6v6.2h1.6v.4h-7.1v-.4h1.2V61.4h-1.2V61h5.5v2.2a2.9,2.9,0,0,1,1.2-1.8,2.6,2.6,0,0,1,1.9-.7,2.4,2.4,0,0,1,1.7.6,2.3,2.3,0,0,1,.7,1.8,2.3,2.3,0,0,1-.5,1.7,1.8,1.8,0,0,1-1.5.6,1.9,1.9,0,0,1-1.6-.7,2.4,2.4,0,0,1-.1-1.9h.8C445.8,62,445.6,61.6,444.9,61.6Z"/><path class="cls-1" d="M452.7,72.1a1.4,1.4,0,0,1-1.3-.5,2,2,0,0,1,0-2.4,1.5,1.5,0,0,1,1.3-.5,1.8,1.8,0,0,1,1.3.4,1.7,1.7,0,0,1,.5,1.2,2.2,2.2,0,0,1-.5,1.4A1.7,1.7,0,0,1,452.7,72.1Zm-.2-4.3v-2a18.4,18.4,0,0,0-.7-4.7,17.7,17.7,0,0,1-.8-3.7,1.7,1.7,0,0,1,.6-1.4,1.8,1.8,0,0,1,1.3-.4c1.1,0,1.7.6,1.7,1.8a13.3,13.3,0,0,1-.8,3.8,17.8,17.8,0,0,0-.8,4.7v1.9Z"/></svg>