<svg id="Layer_1" data-name="Layer 1" xmlns="http://www.w3.org/2000/svg" xmlns:xlink="http://www.w3.org/1999/xlink" width="460" height="87" viewBox="0 0 460 87"><defs><style>.cls-1{fill:url(#linear-gradient);}.cls-2{fill:url(#linear-gradient-2);}.cls-3{fill:url(#linear-gradient-3);}.cls-4{fill:#fff;}</style><linearGradient id="linear-gradient" x1="109.4" y1="20.7" x2="137.08" y2="20.7" gradientTransform="translate(130.9 28.7) rotate(-9.4)" gradientUnits="userSpaceOnUse"><stop offset="0" stop-color="#2e8f4c"/><stop offset="1" stop-color="#1c6438"/></linearGradient><linearGradient id="linear-gradient-2" x1="44" y1="26.3" x2="57.92" y2="26.3" gradientUnits="userSpaceOnUse"><stop offset="0" stop-color="#ffc425"/><stop offset="1" stop-color="#feb700"/></linearGradient><linearGradient id="linear-gradient-3" x1="59.5" y1="31.07" x2="71.52" y2="31.07" xlink:href="#linear-gradient-2"/></defs><title>Artboard 2 copy</title><path class="cls-1" d="M253.9,19.9c-1-.1-.6-2.8-2.5-5.2-.2-.4-1.8-2.6-3.5-2.3s-1.5,1.2-2.9,3.3-1.4,2.5-2.3,3.2-1.6.9-1.9,1.6a3.3,3.3,0,0,0,1.2,3.6c.9.8,1.7.5,6.2,1.2,1.3.2,1.9.3,2,.6s-1,.9-3.5,2.1-4.1,2.4-4.2,3,.6,2.7,1.5,3.5,1.6.4,2.8,1.4.9,1.7,2,2.5a3.8,3.8,0,0,0,2.9.8c2.6-.6,3.1-5.2,3.9-5.1s.6,2.3.6,3.7.1,4.1-.7,5.5a4,4,0,0,0-.8,2.3c0,.7.4,1.4.8,1.5s1.8-3,2-3.5a15.4,15.4,0,0,0,.4-7c-.3-1.8-1-3.3-.9-3.3s.7,1.5,2.1,3.1a3.5,3.5,0,0,0,2.2,1.5,3.4,3.4,0,0,0,2.7-.7c1-.9.6-1.6,1.7-3.1s1.7-1.2,2.7-2.7,1.4-2,1-3.3-2.5-2.2-2.9-2.4-2.4.2-4.8-.4-1.3-.5-1.4-.8,1.3-1.1,1.4-1.1a6.3,6.3,0,0,1,2.1-.4,5,5,0,0,0,3.9-3.1,3.7,3.7,0,0,0-.2-3.5c-.6-.7-.7-.6-2.5-1.4s-1.8-.6-2.4-1.5a11.6,11.6,0,0,0-1.6-2,3.1,3.1,0,0,0-2.6-.8c-1.1.2-1.6,1-2.2,1.9a5.8,5.8,0,0,0-1.3,3.7c0,1.3.6,2,.1,2.8S254.4,20,253.9,19.9Z"/><path class="cls-2" d="M57.9,34.9H54.4L47.5,23.6V34.9H44V17.7h3.5L54.4,29V17.7h3.5Z"/><path class="cls-3" d="M65.5,30.1l2.4-8h3.6L66.4,36.8l-.3.7A3.7,3.7,0,0,1,62.4,40l-1.5-.2V37.2h.5a2.6,2.6,0,0,0,1.4-.3,2.1,2.1,0,0,0,.8-1l.4-1L59.5,22.1h3.7Z"/><path class="cls-4" d="M90.3,28.6A7.5,7.5,0,0,1,89,33.3a4.3,4.3,0,0,1-3.6,1.8,4.1,4.1,0,0,1-3.1-1.3v6H78.9V22.1H82v1.3a3.9,3.9,0,0,1,3.2-1.5A4.5,4.5,0,0,1,89,23.6a7.8,7.8,0,0,1,1.3,4.8Zm-3.4-.2a5.5,5.5,0,0,0-.6-2.8,2.2,2.2,0,0,0-1.9-.9,2.1,2.1,0,0,0-2.1,1.2v5.2a2.3,2.3,0,0,0,2.2,1.3C86.1,32.4,86.9,31,86.9,28.4Z"/><path class="cls-4" d="M99.8,34.9a3.4,3.4,0,0,1-.4-1.2,4.2,4.2,0,0,1-3.2,1.4A4.7,4.7,0,0,1,93.1,34a3.4,3.4,0,0,1-1.2-2.7,3.5,3.5,0,0,1,1.5-3.1,7.4,7.4,0,0,1,4.3-1.1h1.6v-.7a2,2,0,0,0-.5-1.4,1.6,1.6,0,0,0-1.4-.6,2.2,2.2,0,0,0-1.3.4,1.3,1.3,0,0,0-.5,1.2H92.2a3.1,3.1,0,0,1,.7-2.1,4.9,4.9,0,0,1,1.9-1.5,8.2,8.2,0,0,1,2.8-.5,5.3,5.3,0,0,1,3.7,1.2,4.2,4.2,0,0,1,1.4,3.3v5.5a7,7,0,0,0,.5,2.8v.2ZM95,18.2a2.1,2.1,0,0,1,.7-1.7,2.6,2.6,0,0,1,1.9-.7,2.8,2.8,0,0,1,1.8.6,2.2,2.2,0,0,1,.8,1.8,2,2,0,0,1-.7,1.6,2.6,2.6,0,0,1-1.9.7,2.5,2.5,0,0,1-1.9-.7A2,2,0,0,1,95,18.2Zm2,14.3a3.5,3.5,0,0,0,1.4-.3l.9-.9V29.1H98c-1.7,0-2.6.6-2.7,1.7V31a1.4,1.4,0,0,0,.4,1.1A1.8,1.8,0,0,0,97,32.5Zm-.7-14.3a1.4,1.4,0,0,0,2.2.9,1.8,1.8,0,0,0,.4-.9,1.3,1.3,0,0,0-.4-.9,1.2,1.2,0,0,0-1.8,0A1,1,0,0,0,96.3,18.2Z"/><path class="cls-4" d="M115.4,19v3.1h2.2v2.5h-2.2V31a2.2,2.2,0,0,0,.2,1,1.6,1.6,0,0,0,1.1.3h1v2.6a7.6,7.6,0,0,1-2.1.3q-3.6,0-3.6-3.6V24.6h-1.9V22.1H112V19Z"/><path class="cls-4" d="M126.6,25.3h-1.2a2.7,2.7,0,0,0-2.6,1.3v8.4h-3.4V22.1h3.3v1.6a3.3,3.3,0,0,1,2.9-1.8l1,.2Z"/><path class="cls-4" d="M135.2,34.9a10.4,10.4,0,0,1-.3-1.2,4.2,4.2,0,0,1-3.2,1.4,4.5,4.5,0,0,1-3.1-1.1,3.4,3.4,0,0,1-1.2-2.7,3.5,3.5,0,0,1,1.5-3.1,7.4,7.4,0,0,1,4.3-1.1h1.6v-.7a2,2,0,0,0-.5-1.4,1.7,1.7,0,0,0-1.4-.6,2.9,2.9,0,0,0-1.4.4A1.7,1.7,0,0,0,131,26h-3.4a3.8,3.8,0,0,1,.7-2.1,5.3,5.3,0,0,1,2-1.5,7.8,7.8,0,0,1,2.8-.5,5.5,5.5,0,0,1,3.7,1.2,4.2,4.2,0,0,1,1.4,3.3v5.5a5.6,5.6,0,0,0,.5,2.8v.2Zm-2.8-2.4a3.2,3.2,0,0,0,1.4-.3,4.5,4.5,0,0,0,1-.9V29.1h-1.3c-1.7,0-2.6.6-2.7,1.7V31a1.4,1.4,0,0,0,.4,1.1A1.6,1.6,0,0,0,132.4,32.5Z"/><path class="cls-4" d="M145.4,30.7l2.3-8.6h3.6L147,34.9h-3.3l-4.2-12.8H143Z"/><path class="cls-4" d="M164.2,28.6a7.6,7.6,0,0,1-1.3,4.8,4.3,4.3,0,0,1-3.6,1.7,3.8,3.8,0,0,1-3.3-1.6l-.2,1.4h-3V16.8h3.4v6.5a4,4,0,0,1,3.1-1.4,4.5,4.5,0,0,1,3.6,1.7,7.8,7.8,0,0,1,1.3,4.8Zm-3.4-.2a4.8,4.8,0,0,0-.6-2.8,2,2,0,0,0-1.8-.9,2.1,2.1,0,0,0-2.2,1.3v5a2.3,2.3,0,0,0,4.4-.3A7.2,7.2,0,0,0,160.8,28.4Z"/><path class="cls-4" d="M173.7,34.9a2.1,2.1,0,0,1-.3-1.2,4.4,4.4,0,0,1-3.3,1.4A4.9,4.9,0,0,1,167,34a3.4,3.4,0,0,1-1.2-2.7,3.5,3.5,0,0,1,1.5-3.1,7.6,7.6,0,0,1,4.3-1.1h1.6v-.7a2,2,0,0,0-.4-1.4,1.8,1.8,0,0,0-1.5-.6,2.5,2.5,0,0,0-1.3.4,1.7,1.7,0,0,0-.5,1.2h-3.4a3.1,3.1,0,0,1,.7-2.1,4.9,4.9,0,0,1,1.9-1.5,8.2,8.2,0,0,1,2.8-.5,5.3,5.3,0,0,1,3.7,1.2,3.9,3.9,0,0,1,1.4,3.3v5.5a7,7,0,0,0,.5,2.8v.2Zm-2.8-2.4a3.5,3.5,0,0,0,1.4-.3,3.8,3.8,0,0,0,.9-.9V29.1h-1.3c-1.7,0-2.6.6-2.7,1.7V31a1.4,1.4,0,0,0,.5,1.1A1.6,1.6,0,0,0,170.9,32.5Z"/><path class="cls-4" d="M182.4,22.1v1.5a4.5,4.5,0,0,1,3.6-1.7,3.5,3.5,0,0,1,3,1.2,5.2,5.2,0,0,1,1,3.5v8.3h-3.4V26.7a2.1,2.1,0,0,0-.4-1.5,1.9,1.9,0,0,0-1.6-.5,2.2,2.2,0,0,0-2.1,1.2v9h-3.4V22.1Z"/><path class="cls-4" d="M198.6,35.1a6.5,6.5,0,0,1-4.6-1.7,6.1,6.1,0,0,1-1.7-4.6v-.3a7.4,7.4,0,0,1,.7-3.4,5.5,5.5,0,0,1,2.1-2.4,6.2,6.2,0,0,1,3.1-.8,5.3,5.3,0,0,1,4.1,1.7,6.4,6.4,0,0,1,1.5,4.6v1.4h-8.1a3,3,0,0,0,1,2,2.9,2.9,0,0,0,2.1.8,3.7,3.7,0,0,0,3.1-1.5l1.6,1.9a5.5,5.5,0,0,1-2,1.7A7.2,7.2,0,0,1,198.6,35.1Zm-.4-10.5a2.6,2.6,0,0,0-1.7.7,4.6,4.6,0,0,0-.8,2h4.8V27a2.9,2.9,0,0,0-.7-1.7A2,2,0,0,0,198.2,24.6Z"/><path class="cls-4" d="M208.9,22.1v1.5a4.5,4.5,0,0,1,3.6-1.7,3.5,3.5,0,0,1,3,1.2,5.2,5.2,0,0,1,1,3.5v8.3h-3.4V26.7a2.1,2.1,0,0,0-.4-1.5,1.9,1.9,0,0,0-1.6-.5,2.1,2.1,0,0,0-2.1,1.2v9h-3.4V22.1Z"/><path class="cls-4" d="M222,29.6a6.2,6.2,0,0,1,.4-2.6,4.9,4.9,0,0,1,1.4-1.9,9.7,9.7,0,0,0,1.5-1.6,2.7,2.7,0,0,0,.3-1.2c0-1.4-.6-2-1.8-2a2,2,0,0,0-1.4.5,2.5,2.5,0,0,0-.6,1.5h-3.4a4.3,4.3,0,0,1,1.5-3.5,5.3,5.3,0,0,1,3.9-1.3,6.1,6.1,0,0,1,3.9,1.2,4.4,4.4,0,0,1,1.3,3.4,4.1,4.1,0,0,1-.4,1.9,6.6,6.6,0,0,1-1.6,2l-.9.9a3.3,3.3,0,0,0-1.1,2v.7Zm-.4,3.6a1.8,1.8,0,0,1,.6-1.3,1.9,1.9,0,0,1,1.3-.5,2,2,0,0,1,1.4.5,1.8,1.8,0,0,1,.6,1.3,1.6,1.6,0,0,1-.6,1.3,2,2,0,0,1-1.4.5,1.9,1.9,0,0,1-1.3-.5A1.6,1.6,0,0,1,221.6,33.2Z"/><path class="cls-4" d="M13.4,59.5l-1.8,1.9v4.7H8.3V49.7h3.3v7.5l1.5-2.1,4.2-5.4h4.1L15.6,57l6,9.1h-4Z"/><path class="cls-4" d="M26.1,66.1H22.8V48.8h3.3Z"/><path class="cls-4" d="M28.7,50.8a1.7,1.7,0,0,1,.5-1.2,1.9,1.9,0,0,1,1.3-.5,2.2,2.2,0,0,1,1.4.5,1.7,1.7,0,0,1,0,2.4,2.2,2.2,0,0,1-1.4.5,2.1,2.1,0,0,1-1.3-.5A1.7,1.7,0,0,1,28.7,50.8Zm3.5,15.3H28.9V53.9h3.3Z"/><path class="cls-4" d="M39.3,61.2l-1.2,1.2v3.7H34.8V48.8h3.3v9.6l.6-.8,3.1-3.7h3.9L41.3,59l4.8,7.1H42.4Z"/><path class="cls-4" d="M52.8,50.8a1.7,1.7,0,0,1,.5-1.2,2,2,0,0,1,1.4-.5,2.1,2.1,0,0,1,1.3.5A1.7,1.7,0,0,1,56,52a2.1,2.1,0,0,1-1.3.5,2.2,2.2,0,0,1-1.4-.5A1.7,1.7,0,0,1,52.8,50.8Zm3.5,15.3H53V53.9h3.3Z"/><path class="cls-4" d="M58.5,59.9a7.3,7.3,0,0,1,1.3-4.5,4.5,4.5,0,0,1,3.6-1.7,3.8,3.8,0,0,1,3.1,1.4V53.9h3V65.7a6.4,6.4,0,0,1-.7,2.8,6.3,6.3,0,0,1-2.1,1.8,7.5,7.5,0,0,1-3.1.6,6.5,6.5,0,0,1-2.6-.6A5.3,5.3,0,0,1,59.2,69l1.5-2a3.6,3.6,0,0,0,2.9,1.3,3,3,0,0,0,2-.6,2.7,2.7,0,0,0,.7-2V65a3.5,3.5,0,0,1-2.9,1.3,4.5,4.5,0,0,1-3.6-1.7,7.1,7.1,0,0,1-1.3-4.5Zm3.2.3a4.2,4.2,0,0,0,.7,2.6,2,2,0,0,0,1.8.9,2.2,2.2,0,0,0,2.1-1.1V57.5a2.1,2.1,0,0,0-2.1-1.1,2.1,2.1,0,0,0-1.8.9A4.6,4.6,0,0,0,61.7,60.2Z"/><path class="cls-4" d="M77.7,66.3a6,6,0,0,1-4.4-1.6,6,6,0,0,1-1.7-4.4V60a7.3,7.3,0,0,1,.8-3.3,4.7,4.7,0,0,1,2-2.2,5.5,5.5,0,0,1,2.9-.8,4.7,4.7,0,0,1,3.9,1.6,6,6,0,0,1,1.5,4.4v1.4H74.9a3.2,3.2,0,0,0,1,1.9,2.7,2.7,0,0,0,2,.7,3.6,3.6,0,0,0,2.9-1.4l1.6,1.8a4,4,0,0,1-2,1.6A6,6,0,0,1,77.7,66.3Zm-.4-10a2,2,0,0,0-1.6.7,3,3,0,0,0-.7,1.9h4.5v-.3a2.4,2.4,0,0,0-.6-1.7A2.1,2.1,0,0,0,77.3,56.3Z"/><path class="cls-4" d="M87.5,53.9v1.4a4.5,4.5,0,0,1,3.5-1.6A3.8,3.8,0,0,1,94,54.8a5.5,5.5,0,0,1,.9,3.4v7.9H91.7V58.3a1.7,1.7,0,0,0-2-1.9,2,2,0,0,0-2,1.1v8.6H84.4V53.9Z"/><path class="cls-4" d="M100.4,53.9v1.4a4.5,4.5,0,0,1,3.5-1.6,3.8,3.8,0,0,1,2.9,1.1,5.5,5.5,0,0,1,.9,3.4v7.9h-3.2V58.3a1.7,1.7,0,0,0-2-1.9,2,2,0,0,0-2,1.1v8.6H97.3V53.9Z"/><path class="cls-4" d="M115.9,66.3a6,6,0,0,1-4.4-1.6,6,6,0,0,1-1.7-4.4V60a8.8,8.8,0,0,1,.7-3.3,5.4,5.4,0,0,1,5-3,4.7,4.7,0,0,1,3.9,1.6,6,6,0,0,1,1.5,4.4v1.4h-7.8a2.9,2.9,0,0,0,3,2.6,3.6,3.6,0,0,0,2.9-1.4l1.6,1.8a4,4,0,0,1-2,1.6A6,6,0,0,1,115.9,66.3Zm-.4-10a2,2,0,0,0-1.6.7,3,3,0,0,0-.7,1.9h4.5v-.3a2.4,2.4,0,0,0-.6-1.7A2.1,2.1,0,0,0,115.5,56.3Z"/><path class="cls-4" d="M125.8,53.9v1.4a4,4,0,0,1,3.4-1.6,3.3,3.3,0,0,1,3.3,1.9,3.9,3.9,0,0,1,3.6-1.9,3.8,3.8,0,0,1,3,1.2,5.3,5.3,0,0,1,.9,3.4v7.8h-3.2V58.3a3,3,0,0,0-.4-1.5,2.1,2.1,0,0,0-1.5-.4,2,2,0,0,0-2,1.3v8.4h-3.2V58.4a2.8,2.8,0,0,0-.4-1.6,2.5,2.5,0,0,0-3.4.7v8.6h-3.3V53.9Z"/><path class="cls-4" d="M152.9,62.1l2.3-8.2h3.3l-4.1,12.2h-3.1l-4.1-12.2h3.4Z"/><path class="cls-4" d="M159.3,59.9a6.6,6.6,0,0,1,.7-3.2,4.8,4.8,0,0,1,2-2.2,6.1,6.1,0,0,1,3-.8,5.8,5.8,0,0,1,4.1,1.5,6.2,6.2,0,0,1,1.7,4.1v.8a6.1,6.1,0,0,1-1.6,4.5,5,5,0,0,1-4.1,1.7,5.1,5.1,0,0,1-4.2-1.7,6.1,6.1,0,0,1-1.6-4.6Zm3.2.2a4.8,4.8,0,0,0,.7,2.7,2.1,2.1,0,0,0,1.9.9,2.1,2.1,0,0,0,1.8-.9,5.4,5.4,0,0,0,.7-2.9,4.7,4.7,0,0,0-.7-2.6,2.1,2.1,0,0,0-1.9-1,1.9,1.9,0,0,0-1.8,1A5,5,0,0,0,162.5,60.1Z"/><path class="cls-4" d="M179.6,57h-1.1q-2,0-2.4,1.2v8h-3.3V53.9h3.1v1.5a2.9,2.9,0,0,1,2.7-1.7l1,.2Z"/><path class="cls-4" d="M186.6,66.3a6,6,0,0,1-4.4-1.6,6,6,0,0,1-1.7-4.4V60a7.3,7.3,0,0,1,.8-3.3,4.7,4.7,0,0,1,2-2.2,5.5,5.5,0,0,1,2.9-.8,4.7,4.7,0,0,1,3.9,1.6,6,6,0,0,1,1.5,4.4v1.4h-7.8a3.2,3.2,0,0,0,1,1.9,2.7,2.7,0,0,0,2,.7,3.6,3.6,0,0,0,2.9-1.4l1.6,1.8a4,4,0,0,1-2,1.6A6,6,0,0,1,186.6,66.3Zm-.4-10a2,2,0,0,0-1.6.7,3,3,0,0,0-.7,1.9h4.5v-.3a2.4,2.4,0,0,0-.6-1.7A2.1,2.1,0,0,0,186.2,56.3Z"/><path class="cls-4" d="M200,62.7a1,1,0,0,0-.6-.9l-1.9-.6c-2.9-.6-4.3-1.9-4.3-3.7a3.2,3.2,0,0,1,1.3-2.7,5.6,5.6,0,0,1,3.5-1.1,5.8,5.8,0,0,1,3.7,1.1,3.2,3.2,0,0,1,1.4,2.8h-3.2a1.6,1.6,0,0,0-.5-1.1A1.8,1.8,0,0,0,198,56a1.9,1.9,0,0,0-1.2.4,1.2,1.2,0,0,0-.5.9,1.1,1.1,0,0,0,.5.9l1.7.6,2.1.5c1.7.7,2.6,1.7,2.6,3.3a3.2,3.2,0,0,1-1.5,2.7,6,6,0,0,1-3.7,1,7.6,7.6,0,0,1-2.7-.5,4.5,4.5,0,0,1-1.8-1.5,3.3,3.3,0,0,1-.7-2.1h3.1a1.8,1.8,0,0,0,.6,1.4,2.5,2.5,0,0,0,1.6.4,2.6,2.6,0,0,0,1.4-.3A1.4,1.4,0,0,0,200,62.7Z"/><path class="cls-4" d="M217.5,62.7a.9.9,0,0,0-.5-.9l-1.9-.6c-2.9-.6-4.4-1.9-4.4-3.7a3.3,3.3,0,0,1,1.4-2.7,5.4,5.4,0,0,1,3.5-1.1,6,6,0,0,1,3.7,1.1,3.5,3.5,0,0,1,1.4,2.8h-3.3a1.5,1.5,0,0,0-.4-1.1,2,2,0,0,0-1.4-.5,2.2,2.2,0,0,0-1.3.4,1.1,1.1,0,0,0-.4.9.9.9,0,0,0,.5.9l1.7.6a8.3,8.3,0,0,1,2,.5c1.7.7,2.6,1.7,2.6,3.3a3.3,3.3,0,0,1-1.4,2.7,6.2,6.2,0,0,1-3.7,1,7.6,7.6,0,0,1-2.7-.5,5.8,5.8,0,0,1-1.9-1.5,3.9,3.9,0,0,1-.6-2.1h3a2.3,2.3,0,0,0,.7,1.4,2.5,2.5,0,0,0,1.6.4,2.6,2.6,0,0,0,1.4-.3A1.3,1.3,0,0,0,217.5,62.7Z"/><path class="cls-4" d="M226.7,51v2.9h2.1v2.4h-2.1v6.1a1.7,1.7,0,0,0,.2.9,1.3,1.3,0,0,0,1,.3h1V66a6.9,6.9,0,0,1-2,.3c-2.3,0-3.4-1.1-3.5-3.4V56.3h-1.7V53.9h1.7V51Z"/><path class="cls-4" d="M236.2,66.3a6,6,0,0,1-4.4-1.6,6,6,0,0,1-1.7-4.4V60a8.8,8.8,0,0,1,.7-3.3,5.4,5.4,0,0,1,5-3,4.7,4.7,0,0,1,3.9,1.6,6,6,0,0,1,1.5,4.4v1.4h-7.8a2.9,2.9,0,0,0,3,2.6,3.6,3.6,0,0,0,2.9-1.4l1.6,1.8a4,4,0,0,1-2,1.6A6,6,0,0,1,236.2,66.3Zm-.4-10a1.9,1.9,0,0,0-1.6.7,3,3,0,0,0-.7,1.9H238v-.3a2.4,2.4,0,0,0-.6-1.7A2.1,2.1,0,0,0,235.8,56.3Z"/><path class="cls-4" d="M253.9,60.1a7.5,7.5,0,0,1-1.2,4.5,4,4,0,0,1-3.5,1.7,3.8,3.8,0,0,1-3-1.3v5.8H243V53.9h3v1.2a4,4,0,0,1,3.1-1.4,4.1,4.1,0,0,1,3.5,1.7,7.6,7.6,0,0,1,1.2,4.6Zm-3.2-.2a4.8,4.8,0,0,0-.6-2.6,2,2,0,0,0-1.8-.9,2.1,2.1,0,0,0-2.1,1.1v5a2.2,2.2,0,0,0,2.2,1.2C249.9,63.7,250.7,62.4,250.7,59.9Z"/><path class="cls-4" d="M262.3,60.4h-6.4V57.8h6.4Z"/><path class="cls-4" d="M275.8,60.1a7.6,7.6,0,0,1-1.2,4.6,4.2,4.2,0,0,1-3.5,1.6,3.9,3.9,0,0,1-3.2-1.5v1.3h-2.9V48.8h3.2V55a4,4,0,0,1,3-1.3,4.3,4.3,0,0,1,3.4,1.6,7.2,7.2,0,0,1,1.3,4.6Zm-3.2-.2a4.9,4.9,0,0,0-.6-2.7,1.9,1.9,0,0,0-1.8-.8,2.1,2.1,0,0,0-2.1,1.2v4.8a2.1,2.1,0,0,0,2.2,1.3,1.9,1.9,0,0,0,2-1.6A5.7,5.7,0,0,0,272.6,59.9Z"/><path class="cls-4" d="M282.2,61.5l2.3-7.6H288L283.1,68l-.3.6a3.7,3.7,0,0,1-3.6,2.4l-1.4-.2V68.3h.5l1.3-.2a1.5,1.5,0,0,0,.7-1l.4-1-4.2-12.2H280Z"/><path class="cls-4" d="M295.5,60.4h-6.3V57.8h6.3Z"/><path class="cls-4" d="M304.7,62.7a1,1,0,0,0-.6-.9l-1.9-.6c-2.8-.6-4.3-1.9-4.3-3.7a3.3,3.3,0,0,1,1.4-2.7,5.4,5.4,0,0,1,3.5-1.1,6.2,6.2,0,0,1,3.7,1.1,3.5,3.5,0,0,1,1.4,2.8h-3.3a1.5,1.5,0,0,0-.4-1.1,2,2,0,0,0-1.4-.5,2.2,2.2,0,0,0-1.3.4,1.2,1.2,0,0,0-.5.9,1.1,1.1,0,0,0,.5.9l1.8.6a8.3,8.3,0,0,1,2,.5c1.7.7,2.6,1.7,2.6,3.3a3.3,3.3,0,0,1-1.4,2.7,6.2,6.2,0,0,1-3.7,1,7.6,7.6,0,0,1-2.7-.5,5.8,5.8,0,0,1-1.9-1.5,4,4,0,0,1-.7-2.1h3.1a2.2,2.2,0,0,0,.6,1.4,2.7,2.7,0,0,0,1.6.4,3.1,3.1,0,0,0,1.5-.3A1.3,1.3,0,0,0,304.7,62.7Z"/><path class="cls-4" d="M313.9,51v2.9h2v2.4h-2v6.1c0,.4,0,.8.2.9a1.3,1.3,0,0,0,1,.3h1V66a6.9,6.9,0,0,1-2,.3c-2.3,0-3.4-1.1-3.5-3.4V56.3h-1.8V53.9h1.8V51Z"/><path class="cls-4" d="M323.3,66.3a5.9,5.9,0,0,1-4.3-1.6,6,6,0,0,1-1.7-4.4V60a7.2,7.2,0,0,1,.7-3.3,5.4,5.4,0,0,1,5-3,4.8,4.8,0,0,1,3.9,1.6,6,6,0,0,1,1.4,4.4v1.4h-7.7a3.1,3.1,0,0,0,.9,1.9,3,3,0,0,0,2.1.7,3.6,3.6,0,0,0,2.9-1.4l1.6,1.8a4.5,4.5,0,0,1-2,1.6A6.1,6.1,0,0,1,323.3,66.3Zm-.3-10a1.9,1.9,0,0,0-1.6.7,3.1,3.1,0,0,0-.8,1.9h4.5v-.3a2.9,2.9,0,0,0-.5-1.7A2.1,2.1,0,0,0,323,56.3Z"/><path class="cls-4" d="M341.1,60.1a6.9,6.9,0,0,1-1.3,4.5,3.8,3.8,0,0,1-3.4,1.7,3.8,3.8,0,0,1-3-1.3v5.8h-3.2V53.9h3v1.2a4,4,0,0,1,3.1-1.4,4.3,4.3,0,0,1,3.5,1.7,7.6,7.6,0,0,1,1.2,4.6Zm-3.2-.2a4.8,4.8,0,0,0-.6-2.6,2,2,0,0,0-1.8-.9,2.1,2.1,0,0,0-2.1,1.1v5a2.1,2.1,0,0,0,2.1,1.2C337.1,63.7,337.9,62.4,337.9,59.9Z"/><path class="cls-4" d="M348.4,59.9a7.3,7.3,0,0,1,1.3-4.5,4.5,4.5,0,0,1,3.6-1.7,3.8,3.8,0,0,1,3.1,1.4V53.9h3V65.7a6.4,6.4,0,0,1-.7,2.8,6.3,6.3,0,0,1-2.1,1.8,7,7,0,0,1-3,.6,6.6,6.6,0,0,1-2.7-.6,5.3,5.3,0,0,1-1.9-1.3l1.5-2a3.7,3.7,0,0,0,2.9,1.3,3,3,0,0,0,2-.6,2.7,2.7,0,0,0,.7-2V65a3.5,3.5,0,0,1-2.9,1.3,4.5,4.5,0,0,1-3.6-1.7,7.1,7.1,0,0,1-1.3-4.5Zm3.2.3a5,5,0,0,0,.7,2.6,2,2,0,0,0,1.8.9,2.2,2.2,0,0,0,2.1-1.1V57.5a2.1,2.1,0,0,0-2.1-1.1,2.1,2.1,0,0,0-1.8.9A5.4,5.4,0,0,0,351.6,60.2Z"/><path class="cls-4" d="M369.3,64.9a4.3,4.3,0,0,1-3.4,1.4,3.7,3.7,0,0,1-2.9-1.1,4.9,4.9,0,0,1-1.1-3.3v-8h3.3v7.9c0,1.3.5,1.9,1.7,1.9a2.3,2.3,0,0,0,2.2-1.1V53.9h3.3V66.1h-3Z"/><path class="cls-4" d="M374.8,50.8a1.7,1.7,0,0,1,.5-1.2,2,2,0,0,1,1.4-.5,2.1,2.1,0,0,1,1.3.5,1.7,1.7,0,0,1,0,2.4,2.1,2.1,0,0,1-1.3.5,2.2,2.2,0,0,1-1.4-.5A1.7,1.7,0,0,1,374.8,50.8Zm3.5,15.3H375V53.9h3.3Z"/><path class="cls-4" d="M380.4,59.9a7.5,7.5,0,0,1,1.3-4.5,4.3,4.3,0,0,1,3.5-1.7,3.8,3.8,0,0,1,2.9,1.3V48.8h3.3V66.1h-2.9l-.2-1.3a3.7,3.7,0,0,1-3.1,1.5,4.1,4.1,0,0,1-3.5-1.7A8,8,0,0,1,380.4,59.9Zm3.3.3a4.8,4.8,0,0,0,.6,2.6,2,2,0,0,0,1.7.9,2.1,2.1,0,0,0,2.1-1.3V57.6a2.1,2.1,0,0,0-2.1-1.2C384.5,56.4,383.7,57.6,383.7,60.2Z"/><path class="cls-4" d="M399.5,66.3a5.7,5.7,0,0,1-4.3-1.6,5.7,5.7,0,0,1-1.7-4.4V60a7.2,7.2,0,0,1,.7-3.3,5.3,5.3,0,0,1,2-2.2,5.7,5.7,0,0,1,2.9-.8,5.1,5.1,0,0,1,4,1.6,6.4,6.4,0,0,1,1.4,4.4v1.4h-7.7a3.1,3.1,0,0,0,.9,1.9,2.7,2.7,0,0,0,2,.7,3.4,3.4,0,0,0,2.9-1.4l1.6,1.8a3.8,3.8,0,0,1-1.9,1.6A6.7,6.7,0,0,1,399.5,66.3Zm-.4-10a1.8,1.8,0,0,0-1.5.7,3.1,3.1,0,0,0-.8,1.9h4.5v-.3a2.4,2.4,0,0,0-.6-1.7A2,2,0,0,0,399.1,56.3Z"/><path class="cls-4" d="M415.2,55.3a4.1,4.1,0,0,1,3.3-1.6c2.6,0,4,1.5,4,4.6v7.8h-3.3V58.4a2.1,2.1,0,0,0-.4-1.5,1.7,1.7,0,0,0-1.5-.5,2.3,2.3,0,0,0-2.1,1.1v8.6H412V48.8h3.2Z"/><path class="cls-4" d="M430.5,66.3a5.9,5.9,0,0,1-4.3-1.6,6,6,0,0,1-1.7-4.4V60a7.2,7.2,0,0,1,.7-3.3,5.4,5.4,0,0,1,5-3,5,5,0,0,1,3.9,1.6,6,6,0,0,1,1.4,4.4v1.4h-7.7a3.1,3.1,0,0,0,.9,1.9,2.9,2.9,0,0,0,2,.7,3.6,3.6,0,0,0,3-1.4l1.6,1.8a4.5,4.5,0,0,1-2,1.6A6.4,6.4,0,0,1,430.5,66.3Zm-.3-10a1.9,1.9,0,0,0-1.6.7,3.1,3.1,0,0,0-.8,1.9h4.5v-.3a2.9,2.9,0,0,0-.5-1.7A2.1,2.1,0,0,0,430.2,56.3Z"/><path class="cls-4" d="M444.2,57H443a2.4,2.4,0,0,0-2.4,1.2v8h-3.2V53.9h3v1.5a3.2,3.2,0,0,1,2.7-1.7l1,.2Z"/><path class="cls-4" d="M447.7,62.8a1.7,1.7,0,0,1,1.3.5,1.5,1.5,0,0,1,.5,1.3,1.3,1.3,0,0,1-.5,1.2,1.7,1.7,0,0,1-1.3.5,1.9,1.9,0,0,1-1.3-.5,1.7,1.7,0,0,1-.5-1.2,2.1,2.1,0,0,1,.5-1.3A1.9,1.9,0,0,1,447.7,62.8Zm1.4-1.7h-2.7L446,49.7h3.4Z"/></svg>