<svg id="Layer_1" data-name="Layer 1" xmlns="http://www.w3.org/2000/svg" xmlns:xlink="http://www.w3.org/1999/xlink" width="214" height="87" viewBox="0 0 214 87"><defs><style>.cls-1{fill:url(#linear-gradient);}.cls-2{fill:url(#linear-gradient-2);}.cls-3{fill:url(#linear-gradient-3);}.cls-4{fill:#fff;}</style><linearGradient id="linear-gradient" x1="65.63" y1="36.22" x2="79.57" y2="36.22" gradientUnits="userSpaceOnUse"><stop offset="0" stop-color="#ffc425"/><stop offset="1" stop-color="#feb700"/></linearGradient><linearGradient id="linear-gradient-2" x1="42.94" y1="36.37" x2="56.87" y2="36.37" xlink:href="#linear-gradient"/><linearGradient id="linear-gradient-3" x1="50.95" y1="43.63" x2="71.93" y2="43.63" xlink:href="#linear-gradient"/></defs><title></title><path class="cls-1" d="M70.7,29.1a4.6,4.6,0,0,0,1.7-1.7,5,5,0,0,0,.3-2.2h6.5a5.7,5.7,0,0,1,.3,3.4A19.6,19.6,0,0,1,77.6,35c-1.7,4-2.6,6-4.3,8a10.4,10.4,0,0,1-5.8,4c-.5.1-1.6.4-1.8,0s1.4-1.4,3.2-2.6,1.4-1.1,2.6-2,2.2-2.9,3.1-4.3a32.7,32.7,0,0,0,2.1-4.6,17.8,17.8,0,0,0,1.2-6.7H74.3s.5,1.4,0,1.8-4.9,3.6-5.6,2.8S69.4,29.8,70.7,29.1Z"/><path class="cls-2" d="M51.8,29.2a4.6,4.6,0,0,1-1.7-1.7,4.5,4.5,0,0,1-.3-2.1H43.3s-.6.9-.3,3.4a20.5,20.5,0,0,0,1.9,6.4c1.7,4,2.6,6,4.3,8a11.4,11.4,0,0,0,5.8,4c.5.1,1.6.3,1.8,0s-1.4-1.4-3.2-2.7L51,42.6c-1.4-1.1-2.2-2.9-3.1-4.3a32.7,32.7,0,0,1-2.1-4.6,18.2,18.2,0,0,1-1.2-6.8h3.6s-.5,1.5,0,1.9c2,1.3,4.9,3.6,5.6,2.7S53.1,29.9,51.8,29.2Z"/><path class="cls-3" d="M51,26.2a31.1,31.1,0,0,0,.3,6.1,61.2,61.2,0,0,0,1.8,10.4c.9,3.2,1.3,4.8,2.2,5.8,1.9,2.6,4.1,2.7,5.2,5.6.1.3.9,2.3,0,3.3A3.5,3.5,0,0,1,58,58.7c-2.3.1-3.4-.4-4,.3s-.4.2-.3.6,2.1,1.5,3.7,1.5h6.7a16.7,16.7,0,0,0,4-.3c.7-.1,1.7-1,1.6-1.5s-1.8-.6-2.2-.6-2.5.2-3.7-.4a2.9,2.9,0,0,1-1.5-1.8,3.6,3.6,0,0,1,.6-2.8,12.4,12.4,0,0,1,3.7-3.9c2.4-2,3.3-5.3,4.6-10.2s.3-13.4.3-13.4Z"/><path class="cls-4" d="M66.2,40.5l-2.5.3v-.4l5.2-.7h1.9V55.6h1.8V56H63.8v-.4h2.4Z"/><path class="cls-4" d="M76.1,56.2a1.7,1.7,0,0,1-1.5-.5,2.5,2.5,0,0,1-.5-1.5,2.4,2.4,0,0,1,.5-1.4,2,2,0,0,1,1.5-.6,2.5,2.5,0,0,1,1.5.5,1.8,1.8,0,0,1,.5,1.5,2,2,0,0,1-.5,1.5A1.7,1.7,0,0,1,76.1,56.2Z"/><path class="cls-4" d="M93.2,51.9l4-11.5H95.4v-.5h3.5v.5H97.8L92.3,56.2H90.4L84.5,40.4h-1v-.5H91v.5H89.3Z"/><path class="cls-4" d="M103.4,50.6V48.8a16.5,16.5,0,0,0-.2-2.9,1,1,0,0,0-1-.7,1,1,0,0,0-.7.2.6.6,0,0,0-.3.6,2.5,2.5,0,0,0,.1.8h.6a3.6,3.6,0,0,1,.2,1.1,1.4,1.4,0,0,1-.6,1.2,2.5,2.5,0,0,1-1.5.5,1.7,1.7,0,0,1-1.9-1.9,2.1,2.1,0,0,1,1.2-2.1,5.4,5.4,0,0,1,3.1-.8c1.7,0,2.9.5,3.5,1.5a4.1,4.1,0,0,1,3.5-1.5c3.3,0,4.9,1.8,4.8,5.3h-6.5V51a9.8,9.8,0,0,0,.5,3.4,2,2,0,0,0,2,1.1,3.3,3.3,0,0,0,3.5-2.8h.5a4.9,4.9,0,0,1-1.6,2.5,5.5,5.5,0,0,1-3.4.9c-2.2,0-3.7-.6-4.7-1.8-.5,1.2-1.7,1.8-3.5,1.8s-3.5-.9-3.5-2.7a2.3,2.3,0,0,1,1.3-2.3,9.6,9.6,0,0,1,3.9-.6ZM102,55a.9.9,0,0,0,.7.3,1.6,1.6,0,0,0,.9-.3,1.7,1.7,0,0,0,.6-1,6.6,6.6,0,0,1-.8-3h-.1q-1.5,0-1.5,2.1v.3A5.1,5.1,0,0,0,102,55Zm5.7-5.4h2.4V48.5a6.9,6.9,0,0,0-.3-2.5.8.8,0,0,0-.8-.7,1,1,0,0,0-1,.7,7.3,7.3,0,0,0-.3,2.5Z"/><path class="cls-4" d="M114.9,38.8h5.6V55.6h1.3V56H115v-.4h1.2V39.2h-1.3Z"/><path class="cls-4" d="M131.5,43.9l.6-.4c.1-.5-.1-.7-.5-.7s-1,.5-1,1.5a7.6,7.6,0,0,0,.1,1.4,3.5,3.5,0,0,1,1.8,3,3.3,3.3,0,0,1-1.3,2.8,5.1,5.1,0,0,1-3.4,1,6.5,6.5,0,0,1-1.9-.2c-.6.5-1,.8-1,1s.5.3,1.5.3h2.3c3.5,0,5.3,1.3,5.3,3.8a4,4,0,0,1-1.6,3.2,8.2,8.2,0,0,1-4.9,1.2c-3.8,0-5.7-.9-5.7-2.5s.6-1.5,1.8-1.8l1.3.6a5.7,5.7,0,0,0-.1,1.3c0,1.3.9,1.9,2.9,1.9a5.5,5.5,0,0,0,2.8-.6,2.1,2.1,0,0,0,.9-1.7c0-.7-.2-1.1-.6-1.3a5.3,5.3,0,0,0-2.3-.3h-2.2a4.4,4.4,0,0,1-2.7-.7,1.9,1.9,0,0,1-.8-1.5,2,2,0,0,1,.6-1.5,10.1,10.1,0,0,1,2-1.5,3.3,3.3,0,0,1-2.6-3.5,3.5,3.5,0,0,1,1.2-2.8,5.6,5.6,0,0,1,3.7-1.1,5.3,5.3,0,0,1,2.6.6,5.2,5.2,0,0,1-.2-1.1,2.6,2.6,0,0,1,.7-1.9,2.4,2.4,0,0,1,1.6-.5,1.8,1.8,0,0,1,1.3.4,1.4,1.4,0,0,1,.6,1.2,1.5,1.5,0,0,1-.5,1.2,1.5,1.5,0,0,1-1,.4,1.4,1.4,0,0,1-.9-.3A1,1,0,0,1,131.5,43.9Zm-4.9,4.3v1.2a5.1,5.1,0,0,0,.3,2.1.8.8,0,0,0,.8.6.9.9,0,0,0,.8-.6,8.8,8.8,0,0,0,.2-2.2V48.2a11,11,0,0,0-.2-2.4.7.7,0,0,0-.8-.5.9.9,0,0,0-.8.5A6.2,6.2,0,0,0,126.6,48.2Z"/><path class="cls-4" d="M138.3,38.8h5.6V55.6h1.3V56h-6.8v-.4h1.3V39.2h-1.4Z"/><path class="cls-4" d="M145.8,50.6a5.8,5.8,0,0,1,1.5-4.3,6.5,6.5,0,0,1,4.6-1.5l1.4.2.6-1.6.6.2-.6,1.4c2.5.6,3.7,2.4,3.7,5.4s-1.9,5.8-5.9,5.8a6.5,6.5,0,0,1-2-.2l-.6,1.7h-.5l.6-1.7C146.9,55.2,145.8,53.4,145.8,50.6Zm4.4.8v1.7l2.7-6.9c-.3-.6-.6-.9-1.1-.9a1.2,1.2,0,0,0-1.3,1,13.1,13.1,0,0,0-.3,3.3Zm3,.1v-2a15.6,15.6,0,0,0-.1-2.4l-2.7,7.2c.2,1,.6,1.5,1.4,1.5a1.2,1.2,0,0,0,1.2-.9A24.4,24.4,0,0,0,153.2,51.5Z"/><path class="cls-4" d="M163.8,38.8v8a3,3,0,0,1,3-2c2.8,0,4.3,2,4.3,5.8a6.7,6.7,0,0,1-1.2,4.3,4.5,4.5,0,0,1-3.6,1.3,4.2,4.2,0,0,1-1.8-.3,2.7,2.7,0,0,1-.9-1.2V56h-5.3v-.4h1.3V39.2h-1.3v-.4Zm2.6,7.8c-.2-.5-.5-.8-.9-.8a1.4,1.4,0,0,0-1.2.9,3.6,3.6,0,0,0-.5,2.2v4.3a3.1,3.1,0,0,0,.4,1.7,1.1,1.1,0,0,0,2.1-.3,14.8,14.8,0,0,0,.3-3.6V49.8A21,21,0,0,0,166.4,46.6Z"/></svg>