<svg id="Layer_1" data-name="Layer 1" xmlns="http://www.w3.org/2000/svg" xmlns:xlink="http://www.w3.org/1999/xlink" width="214" height="87" viewBox="0 0 214 87"><defs><style>.cls-1{fill:url(#linear-gradient);}.cls-2{fill:url(#linear-gradient-2);}.cls-3{fill:url(#linear-gradient-3);}.cls-4{fill:url(#linear-gradient-4);}.cls-5{fill:url(#linear-gradient-5);}.cls-6{fill:url(#linear-gradient-6);}.cls-7{fill:url(#linear-gradient-7);}.cls-8{fill:url(#linear-gradient-8);}.cls-9{fill:url(#linear-gradient-9);}.cls-10{fill:url(#linear-gradient-10);}.cls-11{fill:url(#linear-gradient-11);}.cls-12{fill:url(#linear-gradient-12);}.cls-13{fill:url(#linear-gradient-13);}.cls-14{fill:url(#linear-gradient-14);}.cls-15{fill:url(#linear-gradient-15);}.cls-16{fill:url(#linear-gradient-16);}.cls-17{fill:url(#linear-gradient-17);}.cls-18{fill:url(#linear-gradient-18);}.cls-19{fill:url(#linear-gradient-19);}.cls-20{fill:url(#linear-gradient-20);}.cls-21{fill:url(#linear-gradient-21);}.cls-22{fill:url(#linear-gradient-22);}.cls-23{fill:url(#linear-gradient-23);}.cls-24{fill:url(#linear-gradient-24);}.cls-25{fill:url(#linear-gradient-25);}.cls-26{fill:url(#linear-gradient-26);}.cls-27{fill:url(#linear-gradient-27);}.cls-28{fill:url(#linear-gradient-28);}.cls-29{fill:url(#linear-gradient-29);}.cls-30{fill:url(#linear-gradient-30);}.cls-31{fill:url(#linear-gradient-31);}.cls-32{fill:url(#linear-gradient-32);}.cls-33{fill:url(#linear-gradient-33);}.cls-34{fill:url(#linear-gradient-34);}.cls-35{fill:url(#linear-gradient-35);}.cls-36{fill:url(#linear-gradient-36);}.cls-37{fill:url(#linear-gradient-37);}.cls-38{fill:url(#linear-gradient-38);}.cls-39{fill:url(#linear-gradient-39);}.cls-40{fill:url(#linear-gradient-40);}.cls-41{fill:url(#linear-gradient-41);}.cls-42{fill:url(#linear-gradient-42);}.cls-43{fill:#fff;}</style><linearGradient id="linear-gradient" x1="-272.86" y1="142.05" x2="-269.63" y2="142.05" gradientTransform="translate(203.8 -207.2) rotate(-31.3)" gradientUnits="userSpaceOnUse"><stop offset="0" stop-color="#ffc425"/><stop offset="1" stop-color="#feb700"/></linearGradient><linearGradient id="linear-gradient-2" x1="-272.46" y1="144.85" x2="-267.28" y2="144.85" xlink:href="#linear-gradient"/><linearGradient id="linear-gradient-3" x1="-268.91" y1="140.85" x2="-265.87" y2="140.85" xlink:href="#linear-gradient"/><linearGradient id="linear-gradient-4" x1="-269.11" y1="143.2" x2="-263.01" y2="143.2" xlink:href="#linear-gradient"/><linearGradient id="linear-gradient-5" x1="-264.92" y1="137.81" x2="-262.06" y2="137.81" xlink:href="#linear-gradient"/><linearGradient id="linear-gradient-6" x1="-263.64" y1="140.37" x2="-258.7" y2="140.37" xlink:href="#linear-gradient"/><linearGradient id="linear-gradient-7" x1="-261.81" y1="133.98" x2="-259.9" y2="133.98" xlink:href="#linear-gradient"/><linearGradient id="linear-gradient-8" x1="-260.6" y1="135.91" x2="-256.28" y2="135.91" xlink:href="#linear-gradient"/><linearGradient id="linear-gradient-9" x1="-258.52" y1="131.06" x2="-254.65" y2="131.06" xlink:href="#linear-gradient"/><linearGradient id="linear-gradient-10" x1="-260.27" y1="129.71" x2="-258.1" y2="129.71" xlink:href="#linear-gradient"/><linearGradient id="linear-gradient-11" x1="-256.7" y1="125.75" x2="-254.33" y2="125.75" xlink:href="#linear-gradient"/><linearGradient id="linear-gradient-12" x1="-260.34" y1="125.44" x2="-256.9" y2="125.44" xlink:href="#linear-gradient"/><linearGradient id="linear-gradient-13" x1="-257.53" y1="121.05" x2="-255.58" y2="121.05" xlink:href="#linear-gradient"/><linearGradient id="linear-gradient-14" x1="-261.54" y1="121" x2="-257.74" y2="121" xlink:href="#linear-gradient"/><linearGradient id="linear-gradient-15" x1="-259.37" y1="116.91" x2="-257.22" y2="116.91" xlink:href="#linear-gradient"/><linearGradient id="linear-gradient-16" x1="-263.03" y1="117.65" x2="-258.98" y2="117.65" xlink:href="#linear-gradient"/><linearGradient id="linear-gradient-17" x1="-261.8" y1="113.27" x2="-259.77" y2="113.27" xlink:href="#linear-gradient"/><linearGradient id="linear-gradient-18" x1="-265.76" y1="114.64" x2="-261.47" y2="114.64" xlink:href="#linear-gradient"/><linearGradient id="linear-gradient-19" x1="-266.13" y1="110.66" x2="-262.9" y2="110.66" xlink:href="#linear-gradient"/><linearGradient id="linear-gradient-20" x1="-269.41" y1="112.42" x2="-264.22" y2="112.42" xlink:href="#linear-gradient"/><linearGradient id="linear-gradient-21" x1="-270.33" y1="109.59" x2="-266.34" y2="109.59" xlink:href="#linear-gradient"/><linearGradient id="linear-gradient-22" x1="-277.98" y1="142.05" x2="-274.75" y2="142.05" xlink:href="#linear-gradient"/><linearGradient id="linear-gradient-23" x1="-280.33" y1="144.85" x2="-275.15" y2="144.85" xlink:href="#linear-gradient"/><linearGradient id="linear-gradient-24" x1="-281.73" y1="140.85" x2="-278.7" y2="140.85" xlink:href="#linear-gradient"/><linearGradient id="linear-gradient-25" x1="-284.6" y1="143.2" x2="-278.5" y2="143.2" xlink:href="#linear-gradient"/><linearGradient id="linear-gradient-26" x1="-285.54" y1="137.81" x2="-282.69" y2="137.81" xlink:href="#linear-gradient"/><linearGradient id="linear-gradient-27" x1="-288.91" y1="140.37" x2="-283.97" y2="140.37" xlink:href="#linear-gradient"/><linearGradient id="linear-gradient-28" x1="-287.71" y1="133.98" x2="-285.8" y2="133.98" xlink:href="#linear-gradient"/><linearGradient id="linear-gradient-29" x1="-291.33" y1="135.91" x2="-287.01" y2="135.91" xlink:href="#linear-gradient"/><linearGradient id="linear-gradient-30" x1="-292.96" y1="131.06" x2="-289.09" y2="131.06" xlink:href="#linear-gradient"/><linearGradient id="linear-gradient-31" x1="-289.51" y1="129.71" x2="-287.33" y2="129.71" xlink:href="#linear-gradient"/><linearGradient id="linear-gradient-32" x1="-293.28" y1="125.75" x2="-290.91" y2="125.75" xlink:href="#linear-gradient"/><linearGradient id="linear-gradient-33" x1="-290.7" y1="125.44" x2="-287.27" y2="125.44" xlink:href="#linear-gradient"/><linearGradient id="linear-gradient-34" x1="-292.03" y1="121.05" x2="-290.08" y2="121.05" xlink:href="#linear-gradient"/><linearGradient id="linear-gradient-35" x1="-289.87" y1="121" x2="-286.07" y2="121" xlink:href="#linear-gradient"/><linearGradient id="linear-gradient-36" x1="-290.39" y1="116.91" x2="-288.23" y2="116.91" xlink:href="#linear-gradient"/><linearGradient id="linear-gradient-37" x1="-288.63" y1="117.65" x2="-284.58" y2="117.65" xlink:href="#linear-gradient"/><linearGradient id="linear-gradient-38" x1="-287.83" y1="113.27" x2="-285.81" y2="113.27" xlink:href="#linear-gradient"/><linearGradient id="linear-gradient-39" x1="-286.14" y1="114.64" x2="-281.85" y2="114.64" xlink:href="#linear-gradient"/><linearGradient id="linear-gradient-40" x1="-284.71" y1="110.66" x2="-281.47" y2="110.66" xlink:href="#linear-gradient"/><linearGradient id="linear-gradient-41" x1="-283.39" y1="112.42" x2="-278.2" y2="112.42" xlink:href="#linear-gradient"/><linearGradient id="linear-gradient-42" x1="-281.26" y1="109.59" x2="-277.28" y2="109.59" xlink:href="#linear-gradient"/></defs><title></title><path class="cls-1" d="M45.5,57.3c-.5-.1-.7-1.6-.2-2.8s.8-1.5,1.2-1.4.6,1.3.3,2.3S45.9,57.4,45.5,57.3Z"/><path class="cls-2" d="M46.2,57.9c.2.3,1.1.1,1.8,0a5.7,5.7,0,0,0,2.8-1.4c.4-.4.3-.5.3-.5s-.8-.2-1.7,0a5.5,5.5,0,0,0-2.4.7C46.6,57,46.1,57.6,46.2,57.9Z"/><path class="cls-3" d="M48.4,54.4c.4.1.9-1.1,1-1.3a2.8,2.8,0,0,0,.2-1.9c-.1-.5-.4-1.3-.8-1.3s-.8,1.5-.9,2a4.8,4.8,0,0,0,0,1.7C48,53.9,48.1,54.4,48.4,54.4Z"/><path class="cls-4" d="M48.6,55.4c.3.2,1.2-.2,1.9-.5a4.6,4.6,0,0,0,1.8-1.1c.3-.2,1.6-1.4,1.4-1.9s-1.4-.2-1.5-.1a4.5,4.5,0,0,0-2.4,1.4C49.2,53.8,48.3,55,48.6,55.4Z"/><path class="cls-5" d="M49.4,44.9c-.5.2-.3,1.3-.3,1.9a16.1,16.1,0,0,0,1.1,3c.2.5.3.7.5.7s.8-1,.9-2a3.7,3.7,0,0,0-.6-2.8C50.6,45.3,49.8,44.7,49.4,44.9Z"/><path class="cls-6" d="M52,50.4c.4.4,1.6-.4,2.3-1a3.4,3.4,0,0,0,1.2-2.1c0-.3,0-.8-.2-1s-.4-.1-1.6,1a6.6,6.6,0,0,0-1.5,1.6C52.1,49,51.7,50.1,52,50.4Z"/><path class="cls-7" d="M51.7,45.3c-.2.1-.9-.6-1.3-1a8.1,8.1,0,0,1-.8-2c-.3-1-.5-1.5-.3-1.6s1,.1,1.4.5a4.1,4.1,0,0,1,.9,2C51.8,44.2,52,45.1,51.7,45.3Z"/><path class="cls-8" d="M52.4,45.2a2.5,2.5,0,0,1,.4-1.7c.4-.7.5-.6,1.4-1.9s.5-.7.6-.7.1,1.2,0,1.8a3.4,3.4,0,0,1-.7,1.8c-.4.6-1.2,1.2-1.5,1Z"/><path class="cls-9" d="M52.2,40.7c-.7-.4-.3-2.4-.2-2.7s.7-2.6,1.2-2.6.8,1.5.8,2.4,0,2.4-1.1,2.8A.9.9,0,0,1,52.2,40.7Z"/><path class="cls-10" d="M47.7,36.3c-.2.2.2.9,1,2.2a6.2,6.2,0,0,0,1.5,2c.3.1,1,.5,1.3.3s.1-1.5-.2-2.1a4.5,4.5,0,0,0-1.9-2C49.2,36.6,48,36,47.7,36.3Z"/><path class="cls-11" d="M51.6,35.7c.5-.1.4-1.6.4-1.7a4.2,4.2,0,0,0-.6-2.1c-.3-.8-.6-1.6-.9-1.6s-.4,1.1-.4,1.7a3.5,3.5,0,0,0,.2,2C50.5,34.8,51.2,35.8,51.6,35.7Z"/><path class="cls-12" d="M45.4,33.1c-.1.2.5.7,1.8,1.7a5.9,5.9,0,0,0,1.7,1.1c.5.2,1.2.5,1.5.2s.1-1.2-.2-1.7-.6-.5-2.5-1S45.5,32.8,45.4,33.1Z"/><path class="cls-13" d="M49.1,31.5c.2-.3,0-.8-.3-1.6a4.4,4.4,0,0,0-1.1-1.8c-.1-.1-.9-.9-1.1-.7s-.1.3.1,1.3a9.6,9.6,0,0,0,.4,1.9c.1.1.7,1.3,1.5,1.2A.6.6,0,0,0,49.1,31.5Z"/><path class="cls-14" d="M42.4,30.6c0,.3,1,.8,1.4,1a9.1,9.1,0,0,0,2.1.5c.7,0,1.1.1,1.3-.2s-.1-1-.5-1.4-1.2-.4-2.4-.4S42.5,30.2,42.4,30.6Z"/><path class="cls-15" d="M45.6,28.7c.4-.4-.4-1.8-.5-1.9a2.5,2.5,0,0,0-1-1.2c-.4-.2-1.4-.7-1.7-.4s.1,1.4.3,1.7a3.2,3.2,0,0,0,1.2,1.4C44.3,28.5,45.2,29,45.6,28.7Z"/><path class="cls-16" d="M39.7,29c0,.4,1.1.5,1.4.6h1.8c.7-.1,1.4-.2,1.5-.6s-.7-.8-1.3-.9a3,3,0,0,0-2.3.3C40.3,28.6,39.7,28.8,39.7,29Z"/><path class="cls-17" d="M41.7,26.4c.2-.3-.4-.9-1-1.6a3.5,3.5,0,0,0-1.3-1c-.1,0-.9-.3-1.1,0s.3,1,.6,1.5.5.9,1,1.1S41.5,26.8,41.7,26.4Z"/><path class="cls-18" d="M36.3,28.6c.1.3,1,.2,1.5.2a5,5,0,0,0,2.2-1c.4-.4.4-.6.4-.6s-.9-.6-1.4-.6a3.4,3.4,0,0,0-1.8.7C37.1,27.4,36.1,28.2,36.3,28.6Z"/><path class="cls-19" d="M37.7,25.6c.1-.3-.8-1.1-1.7-1.5a4.3,4.3,0,0,0-1.9-.2c-.5,0-.9,0-1,.2s.8.9,1.5,1.2a3.1,3.1,0,0,0,1.7.4C37,25.8,37.6,25.9,37.7,25.6Z"/><path class="cls-20" d="M36.8,26.5c.1.4-.9.9-1.7,1.4a7,7,0,0,1-2,.8l-.9.3c-.2-.2,1-1.2,1.5-1.7a4.8,4.8,0,0,1,1.8-1.1C36,26.2,36.7,26.3,36.8,26.5Z"/><path class="cls-21" d="M33.7,25.6c-.1-.5-1.3-.6-1.4-.6a3.2,3.2,0,0,0-2.2.6c-.2.2-.7.5-.6.7s.7.3,1.9.3a3.2,3.2,0,0,0,1.7-.3C33.2,26.2,33.7,25.9,33.7,25.6Z"/><path class="cls-22" d="M43.7,58.3c.1-.4-1.1-1.3-2.3-1.4s-1.8,0-1.9.4,1,1.1,1.9,1.4S43.6,58.8,43.7,58.3Z"/><path class="cls-23" d="M43.9,59.3c.2.3-.3,1-.8,1.6a6,6,0,0,1-2.4,1.8c-.6.2-.7.1-.7.1s.3-.9.8-1.6,1.6-1.7,1.8-1.8S43.8,59,43.9,59.3Z"/><path class="cls-24" d="M39.9,59.6c-.2.4-1.5.3-1.7.3a3.4,3.4,0,0,1-1.8-.7c-.4-.3-1-.9-.8-1.3s1.8,0,2.2.1a4.8,4.8,0,0,1,1.6.8C39.6,59.1,39.9,59.4,39.9,59.6Z"/><path class="cls-25" d="M40.6,60.2c.1.4-.6,1-1.2,1.5a5.7,5.7,0,0,1-1.9,1.1c-.3.1-1.9.8-2.3.4s.5-1.3.6-1.5a5.4,5.4,0,0,1,2.3-1.4C39,60.1,40.4,59.8,40.6,60.2Z"/><path class="cls-26" d="M31,56.1c.4-.3,1.3.3,1.8.7s.4.3,2.1,2.3c.4.4.5.6.5.8s-1.4.2-2.2-.1A3.7,3.7,0,0,1,31,57.9C30.7,57.4,30.6,56.4,31,56.1Z"/><path class="cls-27" d="M34.6,61c.2.5-1.1,1.2-1.9,1.5a2.7,2.7,0,0,1-2.4.1c-.2-.1-.8-.3-.8-.6s.1-.3,1.6-1,2-.6,2.1-.5S34.5,60.5,34.6,61Z"/><path class="cls-28" d="M30.2,58.4c.3-.2-.1-1.1-.3-1.6a5,5,0,0,0-1.4-1.7c-.7-.7-1.1-1.1-1.3-1s-.3.9-.1,1.5.6,1,1.3,1.7S29.9,58.6,30.2,58.4Z"/><path class="cls-29" d="M29.8,59a2,2,0,0,0-1.7-.4l-2.3.3c-.6.1-.9.1-.9.2s1,.6,1.6.8a4,4,0,0,0,1.9.3c.7-.2,1.6-.6,1.6-1S29.9,59.1,29.8,59Z"/><path class="cls-30" d="M25.9,56.7c0-.8-2-1.4-2.3-1.5s-2.6-.5-2.8,0,.9,1.3,1.7,1.8,2.1,1,3.1.3A.9.9,0,0,0,25.9,56.7Z"/><path class="cls-31" d="M24.1,50.7c.2-.1.6.6,1.5,1.9s1,1.7,1,2.2.1,1.1-.3,1.3S25,55.5,24.6,55a3.8,3.8,0,0,1-.9-2.6C23.7,52.2,23.6,50.8,24.1,50.7Z"/><path class="cls-32" d="M21.7,53.9c-.3.3-1.5-.4-1.6-.4A8,8,0,0,1,18.4,52c-.5-.7-1.1-1.4-.9-1.6s1.1.2,1.7.4a6.2,6.2,0,0,1,1.7,1.1C21.5,52.5,22,53.6,21.7,53.9Z"/><path class="cls-33" d="M22.3,47.1c.2,0,.4.9.7,2.4a5.6,5.6,0,0,1,.2,2.1c-.1.5-.2,1.3-.6,1.4s-1-.4-1.3-1-.2-.8.2-2.6S22,47.1,22.3,47.1Z"/><path class="cls-34" d="M19.2,49.7c-.4.1-.8-.3-1.3-1a4.6,4.6,0,0,1-1.1-1.8c-.1-.1-.4-1.2-.1-1.3s.3,0,1.1.7l1.5,1.2c.1.1.9,1.3.4,1.9A.7.7,0,0,1,19.2,49.7Z"/><path class="cls-35" d="M21.4,43.4c.3.1.3,1.2.3,1.6a9.3,9.3,0,0,1-.5,2.1c-.3.7-.5,1.1-.8,1.2s-.9-.6-1-1.2.2-1.2.8-2.2S21.1,43.3,21.4,43.4Z"/><path class="cls-36" d="M18.3,45.3c-.6.2-1.4-1.2-1.5-1.3a2.7,2.7,0,0,1-.5-1.4c-.1-.5-.1-1.5.4-1.7s1.1.7,1.3,1a3,3,0,0,1,.7,1.7C18.7,44,18.7,45.1,18.3,45.3Z"/><path class="cls-37" d="M21.3,40.2c.3.2-.1,1.3-.2,1.6a4.3,4.3,0,0,1-.8,1.5c-.4.6-.8,1.2-1.1,1.1s-.5-1-.3-1.6a3.3,3.3,0,0,1,1.3-1.9C20.6,40.5,21.1,40.1,21.3,40.2Z"/><path class="cls-38" d="M18,40.8c-.3,0-.6-.7-.9-1.6a3,3,0,0,1-.3-1.6c0-.2.1-.9.5-1s.8.7,1,1.2a2.2,2.2,0,0,1,.6,1.4C18.9,39.9,18.4,40.8,18,40.8Z"/><path class="cls-39" d="M22.5,37c.2.3-.3,1-.6,1.4A3.1,3.1,0,0,1,20,39.9a1,1,0,0,1-.7.1c-.3-.2-.1-1,.2-1.5a2.5,2.5,0,0,1,1.4-1.2C21,37.2,22.2,36.6,22.5,37Z"/><path class="cls-40" d="M19.2,36.9c-.3-.1-.7-1.2-.6-2.2a4.2,4.2,0,0,1,.7-1.8c.2-.4.4-.8.6-.7s.5,1.1.4,1.8a3.5,3.5,0,0,1-.4,1.7C19.7,36.3,19.5,36.9,19.2,36.9Z"/><path class="cls-41" d="M20.4,36.5c.3.2,1.2-.4,2-.9a10.9,10.9,0,0,0,1.7-1.3c.6-.7.6-.7.6-.8s-1.5.4-2.2.6a5.4,5.4,0,0,0-1.8,1.1C20.4,35.6,20.2,36.3,20.4,36.5Z"/><path class="cls-42" d="M21,33.3c-.4-.3.1-1.4.1-1.5a3.9,3.9,0,0,1,1.5-1.7c.3-.1.8-.3,1-.2s-.1.8-.7,1.9a3,3,0,0,1-1,1.3C21.8,33.1,21.2,33.5,21,33.3Z"/><path class="cls-43" d="M38.3,34a7.1,7.1,0,0,1,4-1,7.5,7.5,0,0,1,4.1,1,3.4,3.4,0,0,1,1.5,3c0,.4-.1.8-.1,1.2a2.7,2.7,0,0,1-.6,1,8.6,8.6,0,0,1-.7,1l-1.3,1.2-2.9,2.2-1.8,1.3-1.4,1h5.5a3.5,3.5,0,0,0,2.3-.7,5,5,0,0,0,.9-2.2h.4L48,49.4H37.2V46.7l2.3-2.1a15.1,15.1,0,0,0,3.3-3.9,6.6,6.6,0,0,0,1-3.7,6.1,6.1,0,0,0-.4-2.8,1.6,1.6,0,0,0-1.5-.7,1.7,1.7,0,0,0-1.4.5,1.9,1.9,0,0,0-.5,1,2.9,2.9,0,0,0,.2.9h.7a3.6,3.6,0,0,1,.2,1.1,1.4,1.4,0,0,1-.6,1.2,2.5,2.5,0,0,1-1.5.5,1.9,1.9,0,0,1-1.5-.6,2.5,2.5,0,0,1-.5-1.5A3,3,0,0,1,38.3,34Z"/><path class="cls-43" d="M51.9,49.6a1.8,1.8,0,0,1-1.5-.6,2.2,2.2,0,0,1,0-2.8,2,2,0,0,1,1.5-.6,2.5,2.5,0,0,1,1.5.5,1.7,1.7,0,0,1,.5,1.5,2,2,0,0,1-.5,1.5A2.1,2.1,0,0,1,51.9,49.6Z"/><path class="cls-43" d="M69,45.2l4-11.5H71.2v-.4h3.5v.4h-1L68.1,49.6H66.2L60.3,33.7h-1v-.4h7.5v.4H65.1Z"/><path class="cls-43" d="M79.2,44V42.2a16.5,16.5,0,0,0-.2-2.9,1.1,1.1,0,0,0-1-.8,1.1,1.1,0,0,0-.7.3.6.6,0,0,0-.3.6,1.7,1.7,0,0,0,.1.7h.6a3.7,3.7,0,0,1,.2,1.2,1.7,1.7,0,0,1-.6,1.2,2.4,2.4,0,0,1-1.5.4A1.7,1.7,0,0,1,73.9,41a2.4,2.4,0,0,1,1.2-2.1,5.8,5.8,0,0,1,3.2-.7,3.7,3.7,0,0,1,3.4,1.5,4.1,4.1,0,0,1,3.5-1.5c3.3,0,4.9,1.8,4.8,5.3H83.5v.9a9.8,9.8,0,0,0,.5,3.4,2.2,2.2,0,0,0,2,1.1,3.3,3.3,0,0,0,3.5-2.8H90a5.3,5.3,0,0,1-1.6,2.6,5.5,5.5,0,0,1-3.4.9c-2.2,0-3.7-.6-4.7-1.8-.5,1.2-1.7,1.8-3.5,1.8s-3.5-.9-3.5-2.8a2.1,2.1,0,0,1,1.3-2.2,9.6,9.6,0,0,1,3.9-.6Zm-1.4,4.3a.8.8,0,0,0,.7.4,1.6,1.6,0,0,0,.9-.3,2,2,0,0,0,.6-1.1,6.2,6.2,0,0,1-.8-2.9h-.1c-1,0-1.5.7-1.5,2v.4A4,4,0,0,0,77.8,48.3ZM83.5,43h2.4V41.9a7.5,7.5,0,0,0-.3-2.6.8.8,0,0,0-.8-.7,1.1,1.1,0,0,0-1,.8,7.3,7.3,0,0,0-.3,2.5Z"/><path class="cls-43" d="M90.7,32.1h5.6V49h1.3v.4H90.8V49h1.3V32.6H90.7Z"/><path class="cls-43" d="M107.3,37.2l.6-.3c.1-.5-.1-.8-.5-.8s-1,.5-1,1.6a6.2,6.2,0,0,0,.1,1.3,3.5,3.5,0,0,1,1.8,3,3.4,3.4,0,0,1-1.3,2.9,5.1,5.1,0,0,1-3.4,1l-1.9-.2c-.6.4-1,.8-1,1s.5.3,1.5.3h2.3c3.5,0,5.3,1.2,5.3,3.7a4.1,4.1,0,0,1-1.6,3.3,9.1,9.1,0,0,1-4.9,1.1q-5.7,0-5.7-2.4c0-.9.6-1.5,1.8-1.9l1.3.7a4.9,4.9,0,0,0-.1,1.2c0,1.3.9,2,2.9,2a4.7,4.7,0,0,0,2.8-.7,1.9,1.9,0,0,0,.9-1.6c0-.7-.2-1.1-.6-1.3a3.8,3.8,0,0,0-2.3-.4h-2.2a4.5,4.5,0,0,1-2.7-.6,1.9,1.9,0,0,1-.8-1.5,2,2,0,0,1,.6-1.5,9.7,9.7,0,0,1,2-1.6,3.2,3.2,0,0,1-2.6-3.4,3.5,3.5,0,0,1,1.2-2.8,5.6,5.6,0,0,1,3.7-1.1,5.3,5.3,0,0,1,2.6.6,5.2,5.2,0,0,1-.2-1.1,2.6,2.6,0,0,1,.7-1.9,2.5,2.5,0,0,1,1.6-.6,1.9,1.9,0,0,1,1.3.5,1.4,1.4,0,0,1,.6,1.2,1.7,1.7,0,0,1-.5,1.2,1.5,1.5,0,0,1-1,.3,1.4,1.4,0,0,1-.9-.3A1,1,0,0,1,107.3,37.2Zm-4.9,4.3v1.3a5.1,5.1,0,0,0,.3,2.1c.1.4.4.5.8.5a.8.8,0,0,0,.8-.5,9.5,9.5,0,0,0,.2-2.2V41.5a10.6,10.6,0,0,0-.2-2.3c-.2-.4-.4-.6-.8-.6s-.6.2-.8.6A6,6,0,0,0,102.4,41.5Z"/><path class="cls-43" d="M114.7,49.6V45.5h.3a5.3,5.3,0,0,0,1.6,2.8,4.1,4.1,0,0,0,2.5.8q2.4,0,2.4-1.5a1,1,0,0,0-.6-.9,6.2,6.2,0,0,0-2.3-.8,12.7,12.7,0,0,1-2.6-1.1,3.2,3.2,0,0,1-1.3-2.7,3.8,3.8,0,0,1,1.1-2.8,4.2,4.2,0,0,1,3-1.1,6.8,6.8,0,0,1,2.3.5,1.1,1.1,0,0,0,.7.2h.4a1.6,1.6,0,0,0,.3-.6h.3v3.5h-.3q-1.2-3-3.6-3a2.4,2.4,0,0,0-1.6.4.9.9,0,0,0-.5.9,1.1,1.1,0,0,0,.1.6l.3.3.3.2h.3l.4.2h.5a9.5,9.5,0,0,1,2.2.7,3.3,3.3,0,0,1,1.3.7,3,3,0,0,1,1.3,2.8,3.4,3.4,0,0,1-1.2,2.9,4.3,4.3,0,0,1-3.1,1,6.7,6.7,0,0,1-2.8-.6c-.2-.2-.3-.2-.4-.2a1.4,1.4,0,0,0-1,.8Z"/><path class="cls-43" d="M129.5,38.4v1.9a3.2,3.2,0,0,1,3.2-2.1,4,4,0,0,1,3.1,1.4,7.5,7.5,0,0,1,1.1,4.4,6.2,6.2,0,0,1-1.2,4.2,4.3,4.3,0,0,1-3.6,1.4,3.2,3.2,0,0,1-1.6-.3,1.4,1.4,0,0,1-.9-.8v5.9h2.9v.5H124v-.5h1.3V38.9h-1.2v-.5Zm2.7,1.6c-.2-.5-.5-.8-.9-.8a1.4,1.4,0,0,0-1.2.9,3.7,3.7,0,0,0-.5,2.3v4.2a3.3,3.3,0,0,0,.4,1.7,1.2,1.2,0,0,0,1.1.7c.5,0,.9-.4,1-1.1a13.3,13.3,0,0,0,.3-3.5V43.2A20,20,0,0,0,132.2,40Z"/><path class="cls-43" d="M137.5,38.4h5.6V49h1.3v.4h-6.9V49h1.3V38.9h-1.3Zm3.4-1.5a2.1,2.1,0,0,1-1.7-.7,2,2,0,0,1-.5-1.5,2.5,2.5,0,0,1,.5-1.5,2.4,2.4,0,0,1,1.7-.6,3,3,0,0,1,1.8.5,2.1,2.1,0,0,1,.6,1.6,2.3,2.3,0,0,1-.6,1.6A2.4,2.4,0,0,1,140.9,36.9Z"/><path class="cls-43" d="M144.7,32.1h5.7V49h1.3v.4h-6.9V49h1.3V32.6h-1.4Z"/><path class="cls-43" d="M153.3,46.1V38.9H152v-.5h1.3V35.5l4.2-1.1v4h3v.5h-3v7.7a5.7,5.7,0,0,0,.2,1.6,1.1,1.1,0,0,0,1,.5,1.5,1.5,0,0,0,1.2-.7,4.3,4.3,0,0,0,.6-1.9h.4a4,4,0,0,1-1,2.5,3.4,3.4,0,0,1-2.7.9,4.6,4.6,0,0,1-2.9-.7A3.3,3.3,0,0,1,153.3,46.1Z"/><path class="cls-43" d="M160.8,38.9v-.5h6.7v.5h-1.3l2.6,7.6,2.6-7.6h-1.5v-.5h3.2v.5H172l-4.3,12.4a8.2,8.2,0,0,1-1.7,3,3.2,3.2,0,0,1-2.3.8,3.8,3.8,0,0,1-2.2-.6,1.9,1.9,0,0,1-.7-1.6,1.6,1.6,0,0,1,.5-1.4,1.4,1.4,0,0,1,1.3-.5c1.3,0,1.9.5,1.9,1.5a3.1,3.1,0,0,1-.1.9h-.8a.8.8,0,0,0-.1.8.5.5,0,0,0,.6.4,2.1,2.1,0,0,0,1.7-.9,9.8,9.8,0,0,0,1.4-2.9l.5-1.4h-2l-3.9-10.5Z"/><path class="cls-43" d="M178.7,38.4v1.9a3.1,3.1,0,0,1,3.1-2.1,3.7,3.7,0,0,1,3.1,1.4A7.5,7.5,0,0,1,186,44a6.2,6.2,0,0,1-1.2,4.2,4.2,4.2,0,0,1-3.5,1.4,3.7,3.7,0,0,1-1.7-.3,1.4,1.4,0,0,1-.9-.8v5.9h3v.5h-8.5v-.5h1.2V38.9h-1.2v-.5Zm2.6,1.6a.9.9,0,0,0-.9-.8q-.6,0-1.2.9a4.6,4.6,0,0,0-.5,2.3v4.2a3.3,3.3,0,0,0,.4,1.7,1.4,1.4,0,0,0,1.2.7c.5,0,.8-.4,1-1.1a13.3,13.3,0,0,0,.3-3.5V43.2A11.2,11.2,0,0,0,181.3,40Z"/><path class="cls-43" d="M188.3,48.1a5.8,5.8,0,0,1-1.5-4.3,5.1,5.1,0,0,1,1.7-4.1,6,6,0,0,1,4.2-1.5c3.5,0,5.2,1.8,5,5.3h-6.5v.9a7.7,7.7,0,0,0,.6,3.4,2.2,2.2,0,0,0,2,1.1,3.3,3.3,0,0,0,3.5-2.8h.4a5.1,5.1,0,0,1-1.5,2.6,5.6,5.6,0,0,1-3.5.9A6,6,0,0,1,188.3,48.1Zm3-5.1h2.3V41.9a8.3,8.3,0,0,0-.2-2.6.9.9,0,0,0-.9-.7c-.4,0-.7.3-.9.8a7.3,7.3,0,0,0-.3,2.5Z"/></svg>