<svg id="Layer_1" data-name="Layer 1" xmlns="http://www.w3.org/2000/svg" xmlns:xlink="http://www.w3.org/1999/xlink" width="214" height="87" viewBox="0 0 214 87"><defs><style>.cls-1{fill:url(#linear-gradient);}.cls-2{fill:#fff;}</style><linearGradient id="linear-gradient" x1="33.55" y1="43.5" x2="79.72" y2="43.5" gradientTransform="matrix(-1, 0, 0, 1, 115.27, 0)" gradientUnits="userSpaceOnUse"><stop offset="0" stop-color="#ffc425"/><stop offset="1" stop-color="#feb700"/></linearGradient></defs><title>Artboard 3 copy 2</title><path class="cls-1" d="M81.7,43.4c.3,1-2.4,1.9-5.8,6.4l-.4.6c-.9,1.2-2.2,3.4-5.3,9.2s-3.2,8.5-4.4,8.5-2.5-4.3-2.7-5.1c-.7-2.6-.1-3-.7-5.1s-.9-2.6-2.7-5.7-2.4-3.7-2.7-6.5-.3-4.4-1.4-7.1c-.4-1-.9-1.9-1.7-2a2.7,2.7,0,0,0-1.7.3l-1,.7c-.8.5-1.3-.1-2.7,0s-1.8.8-3.4.7-.9-.2-1.3,0-.5,1.1-1,1.7-3.3.6-4.4.3S36,39.8,35.6,39s0-.7,0-2.4a8.5,8.5,0,0,1,0-1.7c.3-1,1.3-1.5,2.4-2a50.3,50.3,0,0,0,4.4-3.1,28.4,28.4,0,0,0,3.7-3,20.5,20.5,0,0,1,2.4-2.1l1.7-1c1.1-.5,1.3-.3,2-.7s1.3-1.6,3.1-3,1.6-1.3,2-1-.9,4.1-.3,4.4,2.3-2.3,2.7-2.1-.8,2-.4,2.4,2.9-1.2,3.4-.7-.3,1.1,0,1.4,1.7-.7,2.1-.3-.3,1,0,1.3,1.6-.1,1.7,0-2.2,1.1-2.1,1.7,1.1.4,2.7,1,2.5,1.1,2.4,1.4-2-.2-2,0a8.4,8.4,0,0,0,2.7,1.1c1,.3,1.7.4,1.7.6s-1.7.3-1.7.6,2.9.8,3,1.7-.8,1-.6,1.4.3.2.9.3,2.4-.5,2.4-.3-1.8,1.3-1.6,1.7,3.2-.6,3.3-.4-2.4,1.2-2.3,1.7,5.6.3,5.7,1.1-5.2,1.8-5.1,2.7S81.4,42,81.7,43.4Z"/><path class="cls-2" d="M59.9,33.5a7.5,7.5,0,0,1,4.1-1c3.5,0,5.2,1.2,5.2,3.7A2.9,2.9,0,0,1,68,38.6,6.6,6.6,0,0,1,64.5,40h0a6.8,6.8,0,0,1,4.2,1.3,3.6,3.6,0,0,1,1.4,2.9,4,4,0,0,1-1.8,3.5,8.2,8.2,0,0,1-5,1.3,8.5,8.5,0,0,1-2.3-.3,4.1,4.1,0,0,1-1.9-1.1,2.4,2.4,0,0,1-.8-1.9,2.6,2.6,0,0,1,.5-1.8,1.9,1.9,0,0,1,1.5-.6,2.5,2.5,0,0,1,1.5.5,1.7,1.7,0,0,1,.5,1.2,2,2,0,0,1-.2,1.1h-.7a2.2,2.2,0,0,0-.1.8c0,1.1.6,1.6,1.9,1.6a2,2,0,0,0,1.9-1,7.8,7.8,0,0,0,.5-3,6.3,6.3,0,0,0-.5-2.8,3.2,3.2,0,0,0-1.4-1.4,5.6,5.6,0,0,1-2,.3v-.5a3.8,3.8,0,0,0,2.7-.9,4.5,4.5,0,0,0,.6-2.7,6.3,6.3,0,0,0-.4-2.8,1.2,1.2,0,0,0-1.2-.9,1.4,1.4,0,0,0-1.3.6,1.4,1.4,0,0,0-.4,1c0,.3.1.6.1.8h.7a5,5,0,0,1,.2,1.2,1.4,1.4,0,0,1-.6,1.2,2.5,2.5,0,0,1-1.5.5,2,2,0,0,1-1.5-.6,2.5,2.5,0,0,1-.5-1.6A3.1,3.1,0,0,1,59.9,33.5Z"/><path class="cls-2" d="M73.8,49.1a1.8,1.8,0,0,1-1.5-.6,1.9,1.9,0,0,1-.5-1.4,1.9,1.9,0,0,1,2-2,2,2,0,0,1,1.4.5,1.7,1.7,0,0,1,.6,1.4,2.1,2.1,0,0,1-.5,1.5A2,2,0,0,1,73.8,49.1Z"/><path class="cls-2" d="M90.9,44.7l4-11.5H93.1v-.4h3.5v.4H95.5L90,49.1H88L82.2,33.2H81.1v-.4h7.5v.4H87Z"/><path class="cls-2" d="M101.1,43.5V41.7a8.9,8.9,0,0,0-.3-2.9.9.9,0,0,0-.9-.8l-.7.2a.7.7,0,0,0-.4.6,2.4,2.4,0,0,0,.2.8h.5a2.2,2.2,0,0,1,.2,1.2,1.4,1.4,0,0,1-.6,1.1,1.6,1.6,0,0,1-1.4.5c-1.3,0-2-.6-2-1.9a2.4,2.4,0,0,1,1.2-2.1,6.1,6.1,0,0,1,3.2-.7,4.1,4.1,0,0,1,3.5,1.4,4.2,4.2,0,0,1,3.5-1.4c3.3,0,4.9,1.7,4.7,5.2h-6.5v.9a7.4,7.4,0,0,0,.6,3.4,2.1,2.1,0,0,0,2,1.2,3.4,3.4,0,0,0,3.5-2.9h.4a4.6,4.6,0,0,1-1.6,2.6,5.3,5.3,0,0,1-3.4.9,5.6,5.6,0,0,1-4.6-1.8q-.7,1.8-3.6,1.8c-2.3,0-3.5-.9-3.5-2.8a2.3,2.3,0,0,1,1.3-2.2,10.2,10.2,0,0,1,4-.6Zm-1.4,4.3a.8.8,0,0,0,.7.4,1.2,1.2,0,0,0,.8-.4,2,2,0,0,0,.7-1,5.5,5.5,0,0,1-.8-2.9h-.2c-.9,0-1.4.7-1.4,2.1v.4A4,4,0,0,0,99.7,47.8Zm5.7-5.3h2.3V41.4a8.3,8.3,0,0,0-.2-2.6.9.9,0,0,0-.9-.7c-.4,0-.7.3-.9.8a6.9,6.9,0,0,0-.3,2.5Z"/><path class="cls-2" d="M112.6,31.6h5.6V48.5h1.3v.4h-6.9v-.4h1.3V32h-1.3Z"/><path class="cls-2" d="M129.1,36.7l.7-.4c.1-.4-.1-.7-.6-.7s-1,.5-1,1.5a7.8,7.8,0,0,0,.2,1.4,3.4,3.4,0,0,1,1.7,3,3.7,3.7,0,0,1-1.2,2.9,6,6,0,0,1-3.4,1l-1.9-.2c-.7.4-1,.7-1,1s.5.3,1.5.3h2.3c3.5,0,5.2,1.2,5.2,3.7a3.6,3.6,0,0,1-1.6,3.2c-1,.8-2.6,1.2-4.9,1.2s-5.6-.8-5.6-2.4.5-1.5,1.7-1.9l1.4.6a6.9,6.9,0,0,0-.2,1.3c0,1.3,1,2,3,2a4.1,4.1,0,0,0,2.7-.7,1.8,1.8,0,0,0,1-1.6,1.6,1.6,0,0,0-.6-1.4,6,6,0,0,0-2.3-.3h-2.3a4.3,4.3,0,0,1-2.6-.6,1.7,1.7,0,0,1-.8-1.5,2.5,2.5,0,0,1,.5-1.6,11.6,11.6,0,0,1,2.1-1.5,3.3,3.3,0,0,1-2.7-3.5,3.2,3.2,0,0,1,1.3-2.7,5,5,0,0,1,3.7-1.1,4.9,4.9,0,0,1,2.5.6,4.9,4.9,0,0,1-.1-1.2,2.1,2.1,0,0,1,.7-1.8,2.4,2.4,0,0,1,1.5-.6,2,2,0,0,1,1.4.5,1.7,1.7,0,0,1,.5,1.2,1.2,1.2,0,0,1-.4,1.1,1.3,1.3,0,0,1-1,.4,1.7,1.7,0,0,1-1-.3A1.9,1.9,0,0,1,129.1,36.7ZM124.3,41v1.3a5.6,5.6,0,0,0,.2,2.1,1,1,0,0,0,.8.5.8.8,0,0,0,.8-.5,5.4,5.4,0,0,0,.3-2.2V41a5.3,5.3,0,0,0-.3-2.3.7.7,0,0,0-.7-.6,1,1,0,0,0-.9.6A10.6,10.6,0,0,0,124.3,41Z"/><path class="cls-2" d="M136.1,31.6h5.5V40a3.9,3.9,0,0,1,1.1-1.7,3.7,3.7,0,0,1,2.3-.6c2.4,0,3.6,1.3,3.6,3.8v7h1.3v.4h-6.5v-.4h.9V41a3.9,3.9,0,0,0-.2-1.8.5.5,0,0,0-.6-.4,1.4,1.4,0,0,0-1.3,1,4.1,4.1,0,0,0-.6,2.3v6.4h1v.4h-6.5v-.4h1.2V32h-1.2Z"/><path class="cls-2" d="M151.8,47.6a5.9,5.9,0,0,1-1.5-4.3,5.4,5.4,0,0,1,1.7-4.2,6.5,6.5,0,0,1,4.3-1.4c3.4,0,5.1,1.7,5,5.2h-6.5v.9a7.4,7.4,0,0,0,.6,3.4,1.9,1.9,0,0,0,2,1.2c1.7,0,2.9-1,3.5-2.9h.4a4.6,4.6,0,0,1-1.6,2.6,5.5,5.5,0,0,1-3.4.9A6.1,6.1,0,0,1,151.8,47.6Zm3-5.1h2.4V41.4a13.4,13.4,0,0,0-.2-2.6,1.1,1.1,0,0,0-.9-.7,1.1,1.1,0,0,0-1,.8,6.9,6.9,0,0,0-.3,2.5Z"/><path class="cls-2" d="M162.4,49.1V45h.3a5.3,5.3,0,0,0,1.6,2.8,4.1,4.1,0,0,0,2.5.8q2.4,0,2.4-1.5a1.1,1.1,0,0,0-.6-1,6.9,6.9,0,0,0-2.3-.7,7.9,7.9,0,0,1-2.6-1.2,2.7,2.7,0,0,1-1.3-2.6,3.8,3.8,0,0,1,1.1-2.8,4,4,0,0,1,2.9-1.1,6.9,6.9,0,0,1,2.4.5l.6.2c.2,0,.3,0,.4-.2a1.5,1.5,0,0,0,.4-.6h.3v3.6h-.3q-1.2-3-3.6-3a2.7,2.7,0,0,0-1.7.4,1.1,1.1,0,0,0-.5.9,1.4,1.4,0,0,0,.2.6l.2.2.3.2.4.2h.4l.4.2,2.3.6,1.3.7a3.5,3.5,0,0,1,1.3,2.9,3.6,3.6,0,0,1-1.2,2.9,4.5,4.5,0,0,1-3.1,1,5.5,5.5,0,0,1-2.8-.7h-.4c-.4,0-.7.2-1,.8Z"/><path class="cls-2" d="M172.8,45.6V38.3h-1.3v-.4h1.3V35l4.2-1.1v4h3v.4h-3v7.8a3.5,3.5,0,0,0,.3,1.6c.1.3.4.5.9.5a1.5,1.5,0,0,0,1.2-.7,4.7,4.7,0,0,0,.7-1.9h.3a4.3,4.3,0,0,1-1,2.5,3.4,3.4,0,0,1-2.7.9,4.8,4.8,0,0,1-2.9-.8A3.1,3.1,0,0,1,172.8,45.6Z"/></svg>