<svg id="_Layer_" data-name="&lt;Layer&gt;" xmlns="http://www.w3.org/2000/svg" viewBox="0 0 342.792 122.6283"><title>Artboard 1 copy</title><path d="M110.343,66.8473c-2,11.3-2.7,15.3-2.7,15.3h-9.7l1.3-7.1h0l.8-4.7h-5.5c-.8,0-2.4,0-3.1.1a5.3293,5.3293,0,0,0-4,3.3c-.9,2.7-1,4-1.8,8.4h-9.6c.8-4.8,1.3-6.6,1.7-8.5,1.1-5,5.8-9.5,13.7-9.5h9.7c1.3-7,0-7.5-19.3-6.3l1-6.1a154.0375,154.0375,0,0,1,21.4-.4C111.443,51.8473,112.243,56.2473,110.343,66.8473Zm-35.6-11.5a87.7477,87.7477,0,0,1-2,11.2c-1.4,5.4-2.6,14-13.5,15.1-5.4.6-8.1.4-27.8.4,0,0,5-28.4,6.2-35h-8.6l1.3-7.4c22.1-.2,29.9-.5,36.5.7C76.843,42.4473,75.043,49.8473,74.743,55.3473Zm-26.5-8.2-4.8,27.3c11.3,0,16.3.8,18-5.4a97.4328,97.4328,0,0,0,2.9-15.9C64.843,46.3473,59.443,47.1473,48.243,47.1473Zm72.9,4.5s-5.3,30.3-5.4,30.4h9.7c0-.1,4.3-24.5,4.3-24.5,9.1-.5,11-.6,9.4,8.2,0,.1-2.8,16.1-2.9,16.3h9.7c0-.2,2.6-14.9,2.9-16.3C151.743,49.6473,147.143,50.1473,121.143,51.6473Zm91,14.2-.3,1.9c-1.9,11-5.5,14.1-12.6,14.6-1.7.1-3.5.2-4.9.2h-1.7c-1.3,0-2.9-.1-4.6-.2-6.9-.5-9.4-3.6-7.4-14.6l.3-1.9c1.9-11.1,5.5-14.1,12.6-14.6,1.7-.1,3.4-.2,4.7-.2h1.9c1.3,0,2.9.1,4.5.2C211.543,51.6473,214.143,54.7473,212.143,65.8473Zm-13.1-8.7h-1.9c-4.1,0-5.3,1.9-6.5,8.6h0l-.3,1.9h0c-1.2,6.7-.7,8.6,3.4,8.6h1.9c4.1,0,5.3-1.9,6.4-8.6h0l.3-1.9h0C203.643,59.1473,203.143,57.1473,199.043,57.1473Zm75.3,8.7-.3,1.9c-1.9,11-5.5,14.1-12.6,14.6-1.7.1-3.5.2-4.9.2h-1.7c-1.3,0-2.9-.1-4.6-.2-6.9-.5-9.4-3.6-7.4-14.6l.3-1.9c1.9-11.1,5.5-14.1,12.6-14.6,1.7-.1,3.4-.2,4.7-.2h1.9c1.3,0,2.9.1,4.5.2C273.743,51.6473,276.343,54.7473,274.343,65.8473Zm-13.1-8.7h-1.9c-4.1,0-5.3,1.9-6.5,8.6h0l-.3,1.9h0c-1.2,6.7-.7,8.6,3.4,8.6h1.9c4.1,0,5.3-1.9,6.4-8.6h0l.3-1.9h0C265.843,59.1473,265.343,57.1473,261.243,57.1473Zm-83.4.3,1-5.7h-10.3l1.4-7.8h-9.6l-4.6,26.3c-1.8,12.1,3.8,12.1,11,12.4h6.7l1.1-6.2h-4.8c-1.4,0-3.3,0-4.2-1.3-.8-1.2-.4-3.8-.2-4.9,0,0,1.9-10.7,2.2-12.6C168.443,57.4473,177.843,57.4473,177.843,57.4473Zm62.1,0,1-5.7h-10.3l1.4-7.8h-9.6l-4.6,26.3c-1.8,12.1,3.8,12.1,11,12.4h6.7l1.1-6.2h-4.8c-1.4,0-3.3,0-4.2-1.3-.8-1.2-.4-3.8-.2-4.9,0,0,1.9-10.7,2.2-12.6C230.443,57.4473,239.943,57.4473,239.943,57.4473Z" style="fill:#fff"/><path d="M285.743,46.8473l-1.3-2.1h-.7v2.1h-1.1v-5.6h2c1.3,0,2.1.5,2.1,1.7a1.5883,1.5883,0,0,1-1.1,1.5h0l1.6,2.3h-1.5Zm-1.3-4.8h-.7v1.9h.7c.7,0,1-.2,1-.9C285.443,42.2473,285.143,42.0473,284.443,42.0473Z" style="fill:#fff"/><path d="M278.543,44.2473a5.9,5.9,0,0,0,11.8,0,5.8256,5.8256,0,0,0-5.8-5.9A5.9976,5.9976,0,0,0,278.543,44.2473Zm1.2,0a4.8,4.8,0,1,1,4.8,4.8A4.7386,4.7386,0,0,1,279.743,44.2473Z" style="fill:#fff"/><path d="M15.7585,26.0659l2.8374-7.0879h3.7168l-5.36,11.3281H13.445L11.6335,18.978h3.5391Z" style="fill:#fff"/><path d="M25.1189,30.3061H21.6638L23.632,18.978h3.4551ZM23.9357,16.12a1.5973,1.5973,0,0,1,.5391-1.2773,1.9358,1.9358,0,0,1,1.356-.5127,1.9987,1.9987,0,0,1,1.3452.46,1.5708,1.5708,0,0,1,.56,1.2041,1.6013,1.6013,0,0,1-.5336,1.2827,1.9433,1.9433,0,0,1-1.3614.5074,2.0236,2.0236,0,0,1-1.3349-.4551A1.5521,1.5521,0,0,1,23.9357,16.12Z" style="fill:#fff"/><path d="M27.8718,24.6211a8.2374,8.2374,0,0,1,1.6333-4.2925,4.0489,4.0489,0,0,1,3.4131-1.56,3.0878,3.0878,0,0,1,2.3974,1.2144l1.1-5.7583H39.87L37.0852,30.3061H34.0178l.1465-1.2251a3.5363,3.5363,0,0,1-2.8164,1.4449,3.1219,3.1219,0,0,1-2.56-1.209,5.3328,5.3328,0,0,1-.9893-3.188,9.7653,9.7653,0,0,1,.042-1.2881Zm3.4341.2407a8.2006,8.2006,0,0,0-.0733,1.1729q0,1.7379,1.1724,1.769a2.196,2.196,0,0,0,1.8115-.9736l.7749-4.3448a1.3955,1.3955,0,0,0-1.3823-.9946,1.7611,1.7611,0,0,0-1.5547.8325A5.3645,5.3645,0,0,0,31.3059,24.8618Z" style="fill:#fff"/><path d="M44.739,30.5156a5.2683,5.2683,0,0,1-2.7066-.7173A4.5183,4.5183,0,0,1,40.237,27.83a5.2864,5.2864,0,0,1-.4814-2.78l.0312-.293a6.9452,6.9452,0,0,1,1.9419-4.4233,5.3732,5.3732,0,0,1,4.0679-1.5655,4.382,4.382,0,0,1,2.4917.7393A4.1324,4.1324,0,0,1,49.8064,21.49a6.07,6.07,0,0,1,.3139,2.836l-.1987,1.4365H43.1789a2.21,2.21,0,0,0,.5025,1.4448,1.846,1.846,0,0,0,1.4033.5864,3.5638,3.5638,0,0,0,2.69-1.1518L49.22,28.5522a4.26,4.26,0,0,1-1.7851,1.4258,6.2757,6.2757,0,0,1-2.5074.5376Zm.8374-9.0249a1.77,1.77,0,0,0-1.272.4585,3.8431,3.8431,0,0,0-.937,1.604h3.4448l.0625-.3022a2.2984,2.2984,0,0,0,.021-.6875A1.2122,1.2122,0,0,0,45.5764,21.4907Z" style="fill:#fff"/><path d="M58.7155,22.1714a9.8127,9.8127,0,0,0-1.0678-.105,2.66,2.66,0,0,0-2.3662,1.0679l-1.2769,7.1718H50.56L52.528,18.978l3.2144-.0107-.2617,1.4868a3.1446,3.1446,0,0,1,2.6172-1.7168,4.9363,4.9363,0,0,1,1.0678.1465Z" style="fill:#fff"/><path d="M63.9611,30.5156a5.2679,5.2679,0,0,1-2.7065-.7173A4.5183,4.5183,0,0,1,59.4592,27.83a5.2874,5.2874,0,0,1-.4815-2.78l.0313-.293a6.9447,6.9447,0,0,1,1.9419-4.4233,5.3731,5.3731,0,0,1,4.0679-1.5655,4.3822,4.3822,0,0,1,2.4917.7393,4.1322,4.1322,0,0,1,1.518,1.9819,6.07,6.07,0,0,1,.314,2.836l-.1987,1.4365H62.4011a2.21,2.21,0,0,0,.5024,1.4448,1.8463,1.8463,0,0,0,1.4033.5864,3.5639,3.5639,0,0,0,2.6905-1.1518l1.4448,1.9106a4.2593,4.2593,0,0,1-1.7852,1.4258,6.2752,6.2752,0,0,1-2.5073.5376Zm.8374-9.0249a1.77,1.77,0,0,0-1.2719.4585,3.8431,3.8431,0,0,0-.937,1.604h3.4448l.0625-.3022a2.2984,2.2984,0,0,0,.021-.6875A1.2123,1.2123,0,0,0,64.7985,21.4907Z" style="fill:#fff"/><path d="M81.5085,16.1616l-.4922,2.8164h1.8115l-.43,2.45H80.5871l-.8794,5.2036a1.3882,1.3882,0,0,0,.0679.8062q.1413.2724.707.293a8.0736,8.0736,0,0,0,.9-.0523l-.2514,2.5547a5.5742,5.5742,0,0,1-1.8531.2617,3.0525,3.0525,0,0,1-2.3974-.9424,3.2166,3.2166,0,0,1-.65-2.5019l.9214-5.6226H75.75l.4189-2.45H77.572l.4922-2.8164Z" style="fill:#fff"/><path d="M85.9265,30.3061H82.4714L84.44,18.978h3.455ZM84.7434,16.12a1.5969,1.5969,0,0,1,.539-1.2773,1.9358,1.9358,0,0,1,1.356-.5127,1.9987,1.9987,0,0,1,1.3452.46,1.5712,1.5712,0,0,1,.56,1.2041,1.6017,1.6017,0,0,1-.5337,1.2827,1.9431,1.9431,0,0,1-1.3614.5074,2.0236,2.0236,0,0,1-1.3349-.4551A1.5517,1.5517,0,0,1,84.7434,16.12Z" style="fill:#fff"/><path d="M91.7478,30.3061H88.2927l2.7847-16.0815h3.455Z" style="fill:#fff"/><path d="M94.47,28.7148a1.6575,1.6575,0,0,1,.5445-1.3193,2.0328,2.0328,0,0,1,2.6694-.0469,1.6314,1.6314,0,0,1,.5654,1.2407,1.6732,1.6732,0,0,1-.5337,1.3135,2.0457,2.0457,0,0,1-2.6909.0474A1.6534,1.6534,0,0,1,94.47,28.7148Z" style="fill:#fff"/><path d="M100.8562,28.7148a1.6571,1.6571,0,0,1,.5444-1.3193,2.0328,2.0328,0,0,1,2.6694-.0469,1.6318,1.6318,0,0,1,.5655,1.2407,1.6739,1.6739,0,0,1-.5337,1.3135,2.0458,2.0458,0,0,1-2.691.0474A1.653,1.653,0,0,1,100.8562,28.7148Z" style="fill:#fff"/><path d="M107.2429,28.7148a1.6574,1.6574,0,0,1,.5444-1.3193,2.0328,2.0328,0,0,1,2.6694-.0469,1.6318,1.6318,0,0,1,.5655,1.2407,1.6739,1.6739,0,0,1-.5337,1.3135,2.0457,2.0457,0,0,1-2.6909.0474A1.6531,1.6531,0,0,1,107.2429,28.7148Z" style="fill:#fff"/><path d="M154.218,108.5146a4.43,4.43,0,0,1-2.272-.6015,3.7986,3.7986,0,0,1-1.5073-1.6524,4.441,4.441,0,0,1-.4043-2.334l.0263-.246a5.8283,5.8283,0,0,1,1.63-3.7129,4.5106,4.5106,0,0,1,3.4146-1.3145,3.6824,3.6824,0,0,1,2.0918.62,3.4719,3.4719,0,0,1,1.2744,1.6641,5.0958,5.0958,0,0,1,.2637,2.3808l-.167,1.2061h-5.66a1.8535,1.8535,0,0,0,.4219,1.2129,1.55,1.55,0,0,0,1.1777.4922,2.993,2.993,0,0,0,2.2588-.9668l1.2129,1.6035a3.5752,3.5752,0,0,1-1.4985,1.1973,5.267,5.267,0,0,1-2.105.4511Zm.7031-7.5761a1.4857,1.4857,0,0,0-1.0679.3847,3.2305,3.2305,0,0,0-.7866,1.3467h2.8916l.0527-.2539a1.9261,1.9261,0,0,0,.0176-.5771A1.0171,1.0171,0,0,0,154.9211,100.9385Z" style="fill:#fff"/><path d="M163.3762,98.82l-.2022,1.1426a3.38,3.38,0,0,1,2.751-1.3184,2.2724,2.2724,0,0,1,1.9644.98,4.1047,4.1047,0,0,1,.47,2.73l-1.002,5.9854h-2.9l1.0108-6.01a3.1192,3.1192,0,0,0,.0176-.5635q-.0617-.8364-.9844-.8359a1.8059,1.8059,0,0,0-1.3975.6777l-1.1865,6.7315h-2.8916l1.6523-9.51Z" style="fill:#fff"/><path d="M173.9318,103.5664a6.9171,6.9171,0,0,1,1.3711-3.6035,3.3978,3.3978,0,0,1,2.8653-1.31,2.5916,2.5916,0,0,1,2.0127,1.0195l.9228-4.8339h2.9l-2.3379,13.5H179.091l.1231-1.0284a2.9676,2.9676,0,0,1-2.3643,1.2129,2.619,2.619,0,0,1-2.1489-1.0146,4.4779,4.4779,0,0,1-.8306-2.6768,8.226,8.226,0,0,1,.0352-1.081Zm2.8829.2021a6.9093,6.9093,0,0,0-.0616.9844q0,1.4591.9844,1.4854a1.844,1.844,0,0,0,1.52-.8174l.65-3.6475a1.1708,1.1708,0,0,0-1.16-.8349,1.4783,1.4783,0,0,0-1.3051.6992A4.5028,4.5028,0,0,0,176.8147,103.7685Z" style="fill:#fff"/><path d="M188.091,108.5146a4.4292,4.4292,0,0,1-2.2719-.6015,3.7989,3.7989,0,0,1-1.5074-1.6524,4.4419,4.4419,0,0,1-.4043-2.334l.0264-.246a5.8278,5.8278,0,0,1,1.63-3.7129,4.51,4.51,0,0,1,3.4145-1.3145,3.6822,3.6822,0,0,1,2.0918.62,3.4713,3.4713,0,0,1,1.2744,1.6641,5.0932,5.0932,0,0,1,.2637,2.3808l-.167,1.2061h-5.66a1.854,1.854,0,0,0,.4218,1.2129,1.55,1.55,0,0,0,1.1778.4922,2.993,2.993,0,0,0,2.2588-.9668l1.2128,1.6035a3.5752,3.5752,0,0,1-1.4985,1.1973,5.267,5.267,0,0,1-2.105.4511Zm.7031-7.5761a1.4855,1.4855,0,0,0-1.0678.3847,3.2284,3.2284,0,0,0-.7866,1.3467h2.8916l.0527-.2539a1.9327,1.9327,0,0,0,.0176-.5771A1.0172,1.0172,0,0,0,188.7941,100.9385Z" style="fill:#fff"/><path d="M196.01,108.3389h-2.9l2.3379-13.5h2.9Z" style="fill:#fff"/><path d="M207.6467,108.3389a2.58,2.58,0,0,1-.1231-.8614,2.933,2.933,0,0,1-2.3291,1.0371,2.8661,2.8661,0,0,1-2.0566-.8261,2.4837,2.4837,0,0,1-.7647-1.96,2.7918,2.7918,0,0,1,1.292-2.3779,6.0993,6.0993,0,0,1,3.41-.83l.9668.0176.1055-.5362.0351-.4658a.7549.7549,0,0,0-.8-.8261,1.1113,1.1113,0,0,0-1.1689,1.0458l-2.9.0088a2.7585,2.7585,0,0,1,.624-1.666,3.7149,3.7149,0,0,1,1.5776-1.09,5.5308,5.5308,0,0,1,2.1226-.3555,4.252,4.252,0,0,1,1.894.4531,2.8228,2.8228,0,0,1,1.2173,1.1856,3.0334,3.0334,0,0,1,.3076,1.7539l-.7119,4.4736-.0439.5449a2.401,2.401,0,0,0,.167,1.1075l-.0088.167Zm-1.6524-1.9161a1.865,1.865,0,0,0,1.5557-.7822l.29-1.5293-.747-.0088a1.9748,1.9748,0,0,0-1.1953.4082,1.5533,1.5533,0,0,0-.5889,1.0684.78.78,0,0,0,.1362.5937A.6953.6953,0,0,0,205.9943,106.4228Z" style="fill:#fff"/><path d="M212.27,108.3389l1.292-7.4532h-1.3359l.3516-2.0566,1.3359-.0088.1142-.835a3.8815,3.8815,0,0,1,1.2129-2.417,3.9372,3.9372,0,0,1,2.7686-.9316,8.4847,8.4847,0,0,1,1.4326.1943l-.22,2.1963a2.7958,2.7958,0,0,0-.6856-.1054,1.8007,1.8007,0,0,0-1.059.2929,1.31,1.31,0,0,0-.5318.8448l-.1318.7695h1.8017l-.3515,2.0566h-1.8018l-1.292,7.4532Z" style="fill:#fff"/><path d="M222.6232,108.3389l2.2149-12.7969,3.7612.0088a4.9082,4.9082,0,0,1,2.9.874,4.7077,4.7077,0,0,1,1.7578,2.3867,6.5343,6.5343,0,0,1,.2725,2.8652l-.0615.5362a7.5609,7.5609,0,0,1-1.1426,3.12,6.5469,6.5469,0,0,1-2.3291,2.1934,6.3467,6.3467,0,0,1-3.0757.8125ZM227.44,97.915l-1.3975,8.042.8789.0088a2.9968,2.9968,0,0,0,2.4829-1.1953,6.6946,6.6946,0,0,0,1.1113-3.6563l.0176-.29a3.4928,3.4928,0,0,0-.4394-2.1357,1.7841,1.7841,0,0,0-1.503-.7647Z" style="fill:#fff"/><path d="M239.2253,108.3389a2.58,2.58,0,0,1-.123-.8614,2.9332,2.9332,0,0,1-2.3291,1.0371,2.8662,2.8662,0,0,1-2.0567-.8261,2.4833,2.4833,0,0,1-.7646-1.96,2.7915,2.7915,0,0,1,1.292-2.3779,6.0987,6.0987,0,0,1,3.41-.83l.9668.0176.1055-.5362.0351-.4658a.7549.7549,0,0,0-.8-.8261,1.1113,1.1113,0,0,0-1.1689,1.0458l-2.9.0088a2.7585,2.7585,0,0,1,.624-1.666,3.7167,3.7167,0,0,1,1.5781-1.09,5.5283,5.5283,0,0,1,2.1221-.3555,4.2539,4.2539,0,0,1,1.8945.4531,2.8216,2.8216,0,0,1,1.2168,1.1856,3.0342,3.0342,0,0,1,.3077,1.7539l-.712,4.4736-.0439.5449a2.4023,2.4023,0,0,0,.167,1.1075l-.0088.167Zm-1.6523-1.9161a1.8648,1.8648,0,0,0,1.5556-.7822l.29-1.5293-.7471-.0088a1.975,1.975,0,0,0-1.1953.4082,1.5533,1.5533,0,0,0-.5889,1.0684.78.78,0,0,0,.1367.5937A.6945.6945,0,0,0,237.573,106.4228Z" style="fill:#fff"/><path d="M247.5046,98.82l-.2022,1.1426a3.38,3.38,0,0,1,2.751-1.3184,2.2733,2.2733,0,0,1,1.9649.98,4.1049,4.1049,0,0,1,.47,2.73l-1.002,5.9854h-2.9l1.0107-6.01a3.1192,3.1192,0,0,0,.0176-.5635q-.0615-.8364-.9844-.8359a1.8059,1.8059,0,0,0-1.3975.6777l-1.1865,6.7315H243.154l1.6524-9.51Z" style="fill:#fff"/><path d="M258.51,105.6142q.1143-.58-.8965-.87l-.625-.1582a4.8047,4.8047,0,0,1-2.2412-1.1338,2.244,2.244,0,0,1-.668-1.7314,2.7563,2.7563,0,0,1,1.2178-2.2275,4.6262,4.6262,0,0,1,2.8613-.84,4.2857,4.2857,0,0,1,2.7188.8525,2.78,2.78,0,0,1,1.06,2.25l-2.8828-.0087q.0351-1.125-.9941-1.125a1.42,1.42,0,0,0-.8174.26,1.0064,1.0064,0,0,0-.4483.6895q-.1494.7119,1.2578.9756a7.2572,7.2572,0,0,1,1.8887.6728,2.8126,2.8126,0,0,1,1.02.9444,2.35,2.35,0,0,1,.3261,1.3535,2.5418,2.5418,0,0,1-.5625,1.5381,3.6417,3.6417,0,0,1-1.5527,1.081,5.5515,5.5515,0,0,1-2.2012.3779,4.4664,4.4664,0,0,1-1.9111-.4306,3.4022,3.4022,0,0,1-1.38-1.1475,2.9747,2.9747,0,0,1-.5146-1.665l2.6894.0176a1.1108,1.1108,0,0,0,1.2656,1.248,1.6627,1.6627,0,0,0,.9151-.2412A1.0466,1.0466,0,0,0,258.51,105.6142Z" style="fill:#fff"/><path d="M266.5944,104.832l-1.0546.9141-.4483,2.5928H262.2L264.5466,94.83h2.8916l-1.3359,7.207.3515-.4219,2.6279-2.7861h3.6651l-4.043,4.043,2.4522,5.4668h-3.1729Z" style="fill:#fff"/><path d="M276.3679,108.5146a4.4316,4.4316,0,0,1-2.2725-.6015,3.7975,3.7975,0,0,1-1.5068-1.6524,4.441,4.441,0,0,1-.4043-2.334l.0264-.246a5.823,5.823,0,0,1,1.6308-3.7129,4.508,4.508,0,0,1,3.4141-1.3145,3.6824,3.6824,0,0,1,2.0918.62,3.4719,3.4719,0,0,1,1.2744,1.6641,5.0958,5.0958,0,0,1,.2637,2.3808l-.167,1.2061h-5.66a1.8541,1.8541,0,0,0,.4219,1.2129,1.55,1.55,0,0,0,1.1777.4922,2.993,2.993,0,0,0,2.2588-.9668l1.2129,1.6035a3.5705,3.5705,0,0,1-1.499,1.1973,5.2612,5.2612,0,0,1-2.1045.4511Zm.7031-7.5761a1.483,1.483,0,0,0-1.0674.3847,3.22,3.22,0,0,0-.7871,1.3467h2.8916l.0527-.2539a1.9261,1.9261,0,0,0,.0176-.5771A1.0171,1.0171,0,0,0,277.071,100.9385Z" style="fill:#fff"/><path d="M292.84,104.876q.1934-.9932-1.0723-1.5381l-1.4414-.5977q-3.0323-1.3623-2.8828-3.709a3.2725,3.2725,0,0,1,.7383-1.9111,4.3859,4.3859,0,0,1,1.872-1.3057,6.89,6.89,0,0,1,2.61-.4482,4.4423,4.4423,0,0,1,3.0547,1.1074,3.6825,3.6825,0,0,1,1.1377,2.874h-2.9883a1.799,1.799,0,0,0-.3115-1.1826,1.3565,1.3565,0,0,0-1.1123-.4609,2.33,2.33,0,0,0-1.336.3516,1.4259,1.4259,0,0,0-.6855.9931q-.1671.879,1.3056,1.4414a14.3912,14.3912,0,0,1,2.14.9668,3.534,3.534,0,0,1,1.9687,3.3926,3.4737,3.4737,0,0,1-.7119,1.9424,4.12,4.12,0,0,1-1.7793,1.292,6.5814,6.5814,0,0,1-2.5537.4394,6.1626,6.1626,0,0,1-1.9248-.3252,4.234,4.234,0,0,1-1.52-.8965,3.8945,3.8945,0,0,1-1.2305-3.12l3.0147.0088a2.0654,2.0654,0,0,0,.3779,1.49,1.8155,1.8155,0,0,0,1.45.5048,2.18,2.18,0,0,0,1.2617-.3466A1.4454,1.4454,0,0,0,292.84,104.876Z" style="fill:#fff"/><path d="M306.0935,103.5928a7.89,7.89,0,0,1-.7823,2.6582,4.3444,4.3444,0,0,1-1.4814,1.7324,3.4207,3.4207,0,0,1-1.9727.54,2.5834,2.5834,0,0,1-2.0214-.9843l-.8614,4.456h-2.8916l2.2852-13.166L301.04,98.82l-.1495.9053a2.7954,2.7954,0,0,1,2.2588-1.0723,2.664,2.664,0,0,1,2.167.9932,4.3946,4.3946,0,0,1,.83,2.6631A10.2921,10.2921,0,0,1,306.0935,103.5928Zm-2.8125-1.1778q-.0439-1.45-.9844-1.4765a1.7042,1.7042,0,0,0-1.5205.747l-.6768,3.77a1.1735,1.1735,0,0,0,1.2129.7823q1.5381.0262,1.89-2.6455Q303.2809,102.7491,303.281,102.415Z" style="fill:#fff"/><path d="M309.6618,108.3389h-2.9l1.6524-9.51h2.9ZM308.6687,96.43a1.34,1.34,0,0,1,.4521-1.0723,1.6264,1.6264,0,0,1,1.1387-.4307,1.6767,1.6767,0,0,1,1.1289.3868,1.3184,1.3184,0,0,1,.4707,1.0107,1.3448,1.3448,0,0,1-.4483,1.0772,1.63,1.63,0,0,1-1.1425.4257,1.69,1.69,0,0,1-1.12-.3828A1.2973,1.2973,0,0,1,308.6687,96.43Z" style="fill:#fff"/><path d="M314.5485,108.3389h-2.9l2.3378-13.5h2.9Z" style="fill:#fff"/></svg>