<svg xmlns="http://www.w3.org/2000/svg" width="165" height="247" viewBox="0 0 165 247"><defs><style>.cls-1,.cls-2{fill:#fff;}.cls-2{opacity:0.4;}</style></defs><title>location_pin</title><g id="Layer_4" data-name="Layer 4"><path class="cls-1" d="M81.3,198.5c-10.2-13-20.8-25.1-30-38.1-15.1-21.6-26.5-44.8-29.9-71.6C17.2,55.9,40.8,25.3,76.3,20.7c29.8-3.9,60.8,16.6,66.7,50.2,3.3,18.7-1.4,36.1-8.4,52.9-11,26.1-27.1,48.8-46.7,69C86.4,194.4,84.6,195.7,81.3,198.5ZM119.2,82A36.6,36.6,0,1,0,46,81.9c.1,20,16.6,36.6,36.6,36.5A36.7,36.7,0,0,0,119.2,82Z"/><ellipse class="cls-2" cx="82.5" cy="224" rx="48.5" ry="8"/></g></svg>