<svg xmlns="http://www.w3.org/2000/svg" viewBox="0 0 1920 996"><title>pattern_background2</title><g id="Layer_7" data-name="Layer 7"><rect width="1920" height="996" style="fill:#f2f2f2"/></g><g id="Layer_6" data-name="Layer 6"><polygon points="191.779 165.775 191.781 165.771 191.777 165.771 143.891 82.83 96 -0.119 48.109 82.83 0.223 165.771 0.219 165.771 0.221 165.775 0.219 165.779 0.223 165.779 48.109 248.72 96 331.669 143.891 248.72 191.777 165.779 191.781 165.779 191.779 165.775" style="fill:#ccc;opacity:0.2"/><polygon points="191.779 497.775 191.781 497.771 191.777 497.771 143.891 414.83 96 331.881 48.109 414.83 0.223 497.771 0.219 497.771 0.221 497.775 0.219 497.779 0.223 497.779 48.109 580.72 96 663.669 143.891 580.72 191.777 497.779 191.781 497.779 191.779 497.775" style="fill:#ccc;opacity:0.2"/><polygon points="191.779 829.775 191.781 829.771 191.777 829.771 143.891 746.83 96 663.881 48.109 746.83 0.223 829.771 0.219 829.771 0.221 829.775 0.219 829.779 0.223 829.779 48.109 912.72 96 995.669 143.891 912.72 191.777 829.779 191.781 829.779 191.779 829.775" style="fill:#ccc;opacity:0.2"/><polygon points="383.779 165.775 383.781 165.771 383.777 165.771 335.891 82.83 288 -0.119 240.109 82.83 192.223 165.771 192.219 165.771 192.221 165.775 192.219 165.779 192.223 165.779 240.109 248.72 288 331.669 335.891 248.72 383.777 165.779 383.781 165.779 383.779 165.775" style="fill:#ccc;opacity:0.2"/><polygon points="383.779 497.775 383.781 497.771 383.777 497.771 335.891 414.83 288 331.881 240.109 414.83 192.223 497.771 192.219 497.771 192.221 497.775 192.219 497.779 192.223 497.779 240.109 580.72 288 663.669 335.891 580.72 383.777 497.779 383.781 497.779 383.779 497.775" style="fill:#ccc;opacity:0.2"/><polygon points="383.779 829.775 383.781 829.771 383.777 829.771 335.891 746.83 288 663.881 240.109 746.83 192.223 829.771 192.219 829.771 192.221 829.775 192.219 829.779 192.223 829.779 240.109 912.72 288 995.669 335.891 912.72 383.777 829.779 383.781 829.779 383.779 829.775" style="fill:#ccc;opacity:0.2"/><polygon points="575.779 165.775 575.781 165.771 575.777 165.771 527.891 82.83 480 -0.119 432.109 82.83 384.223 165.771 384.219 165.771 384.221 165.775 384.219 165.779 384.223 165.779 432.109 248.72 480 331.669 527.891 248.72 575.777 165.779 575.781 165.779 575.779 165.775" style="fill:#ccc;opacity:0.2"/><polygon points="575.779 497.775 575.781 497.771 575.777 497.771 527.891 414.83 480 331.881 432.109 414.83 384.223 497.771 384.219 497.771 384.221 497.775 384.219 497.779 384.223 497.779 432.109 580.72 480 663.669 527.891 580.72 575.777 497.779 575.781 497.779 575.779 497.775" style="fill:#ccc;opacity:0.2"/><polygon points="575.779 829.775 575.781 829.771 575.777 829.771 527.891 746.83 480 663.881 432.109 746.83 384.223 829.771 384.219 829.771 384.221 829.775 384.219 829.779 384.223 829.779 432.109 912.72 480 995.669 527.891 912.72 575.777 829.779 575.781 829.779 575.779 829.775" style="fill:#ccc;opacity:0.2"/><polygon points="767.779 165.775 767.781 165.771 767.777 165.771 719.891 82.83 672 -0.119 624.109 82.83 576.223 165.771 576.219 165.771 576.221 165.775 576.219 165.779 576.223 165.779 624.109 248.72 672 331.669 719.891 248.72 767.777 165.779 767.781 165.779 767.779 165.775" style="fill:#ccc;opacity:0.2"/><polygon points="767.779 497.775 767.781 497.771 767.777 497.771 719.891 414.83 672 331.881 624.109 414.83 576.223 497.771 576.219 497.771 576.221 497.775 576.219 497.779 576.223 497.779 624.109 580.72 672 663.669 719.891 580.72 767.777 497.779 767.781 497.779 767.779 497.775" style="fill:#ccc;opacity:0.2"/><polygon points="767.779 829.775 767.781 829.771 767.777 829.771 719.891 746.83 672 663.881 624.109 746.83 576.223 829.771 576.219 829.771 576.221 829.775 576.219 829.779 576.223 829.779 624.109 912.72 672 995.669 719.891 912.72 767.777 829.779 767.781 829.779 767.779 829.775" style="fill:#ccc;opacity:0.2"/><polygon points="959.779 165.775 959.781 165.771 959.777 165.771 911.891 82.83 864 -0.119 816.109 82.83 768.223 165.771 768.219 165.771 768.221 165.775 768.219 165.779 768.223 165.779 816.109 248.72 864 331.669 911.891 248.72 959.777 165.779 959.781 165.779 959.779 165.775" style="fill:#ccc;opacity:0.2"/><polygon points="959.779 497.775 959.781 497.771 959.777 497.771 911.891 414.83 864 331.881 816.109 414.83 768.223 497.771 768.219 497.771 768.221 497.775 768.219 497.779 768.223 497.779 816.109 580.72 864 663.669 911.891 580.72 959.777 497.779 959.781 497.779 959.779 497.775" style="fill:#ccc;opacity:0.2"/><polygon points="959.779 829.775 959.781 829.771 959.777 829.771 911.891 746.83 864 663.881 816.109 746.83 768.223 829.771 768.219 829.771 768.221 829.775 768.219 829.779 768.223 829.779 816.109 912.72 864 995.669 911.891 912.72 959.777 829.779 959.781 829.779 959.779 829.775" style="fill:#ccc;opacity:0.2"/><polygon points="1151.779 165.775 1151.781 165.771 1151.777 165.771 1103.891 82.83 1056 -0.119 1008.109 82.83 960.223 165.771 960.219 165.771 960.221 165.775 960.219 165.779 960.223 165.779 1008.109 248.72 1056 331.669 1103.891 248.72 1151.777 165.779 1151.781 165.779 1151.779 165.775" style="fill:#ccc;opacity:0.2"/><polygon points="1151.779 497.775 1151.781 497.771 1151.777 497.771 1103.891 414.83 1056 331.881 1008.109 414.83 960.223 497.771 960.219 497.771 960.221 497.775 960.219 497.779 960.223 497.779 1008.109 580.72 1056 663.669 1103.891 580.72 1151.777 497.779 1151.781 497.779 1151.779 497.775" style="fill:#ccc;opacity:0.2"/><polygon points="1151.779 829.775 1151.781 829.771 1151.777 829.771 1103.891 746.83 1056 663.881 1008.109 746.83 960.223 829.771 960.219 829.771 960.221 829.775 960.219 829.779 960.223 829.779 1008.109 912.72 1056 995.669 1103.891 912.72 1151.777 829.779 1151.781 829.779 1151.779 829.775" style="fill:#ccc;opacity:0.2"/><polygon points="1343.779 165.775 1343.781 165.771 1343.777 165.771 1295.891 82.83 1248 -0.119 1200.109 82.83 1152.223 165.771 1152.219 165.771 1152.221 165.775 1152.219 165.779 1152.223 165.779 1200.109 248.72 1248 331.669 1295.891 248.72 1343.777 165.779 1343.781 165.779 1343.779 165.775" style="fill:#ccc;opacity:0.2"/><polygon points="1343.779 497.775 1343.781 497.771 1343.777 497.771 1295.891 414.83 1248 331.881 1200.109 414.83 1152.223 497.771 1152.219 497.771 1152.221 497.775 1152.219 497.779 1152.223 497.779 1200.109 580.72 1248 663.669 1295.891 580.72 1343.777 497.779 1343.781 497.779 1343.779 497.775" style="fill:#ccc;opacity:0.2"/><polygon points="1343.779 829.775 1343.781 829.771 1343.777 829.771 1295.891 746.83 1248 663.881 1200.109 746.83 1152.223 829.771 1152.219 829.771 1152.221 829.775 1152.219 829.779 1152.223 829.779 1200.109 912.72 1248 995.669 1295.891 912.72 1343.777 829.779 1343.781 829.779 1343.779 829.775" style="fill:#ccc;opacity:0.2"/><polygon points="1535.779 165.775 1535.781 165.771 1535.777 165.771 1487.891 82.83 1440 -0.119 1392.109 82.83 1344.223 165.771 1344.219 165.771 1344.221 165.775 1344.219 165.779 1344.223 165.779 1392.109 248.72 1440 331.669 1487.891 248.72 1535.777 165.779 1535.781 165.779 1535.779 165.775" style="fill:#ccc;opacity:0.2"/><polygon points="1535.779 497.775 1535.781 497.771 1535.777 497.771 1487.891 414.83 1440 331.881 1392.109 414.83 1344.223 497.771 1344.219 497.771 1344.221 497.775 1344.219 497.779 1344.223 497.779 1392.109 580.72 1440 663.669 1487.891 580.72 1535.777 497.779 1535.781 497.779 1535.779 497.775" style="fill:#ccc;opacity:0.2"/><polygon points="1535.779 829.775 1535.781 829.771 1535.777 829.771 1487.891 746.83 1440 663.881 1392.109 746.83 1344.223 829.771 1344.219 829.771 1344.221 829.775 1344.219 829.779 1344.223 829.779 1392.109 912.72 1440 995.669 1487.891 912.72 1535.777 829.779 1535.781 829.779 1535.779 829.775" style="fill:#ccc;opacity:0.2"/><polygon points="1727.779 165.775 1727.781 165.771 1727.777 165.771 1679.891 82.83 1632 -0.119 1584.109 82.83 1536.223 165.771 1536.219 165.771 1536.221 165.775 1536.219 165.779 1536.223 165.779 1584.109 248.72 1632 331.669 1679.891 248.72 1727.777 165.779 1727.781 165.779 1727.779 165.775" style="fill:#ccc;opacity:0.2"/><polygon points="1727.779 497.775 1727.781 497.771 1727.777 497.771 1679.891 414.83 1632 331.881 1584.109 414.83 1536.223 497.771 1536.219 497.771 1536.221 497.775 1536.219 497.779 1536.223 497.779 1584.109 580.72 1632 663.669 1679.891 580.72 1727.777 497.779 1727.781 497.779 1727.779 497.775" style="fill:#ccc;opacity:0.2"/><polygon points="1727.779 829.775 1727.781 829.771 1727.777 829.771 1679.891 746.83 1632 663.881 1584.109 746.83 1536.223 829.771 1536.219 829.771 1536.221 829.775 1536.219 829.779 1536.223 829.779 1584.109 912.72 1632 995.669 1679.891 912.72 1727.777 829.779 1727.781 829.779 1727.779 829.775" style="fill:#ccc;opacity:0.2"/><polygon points="1919.779 165.775 1919.781 165.771 1919.777 165.771 1871.891 82.83 1824 -0.119 1776.109 82.83 1728.223 165.771 1728.219 165.771 1728.221 165.775 1728.219 165.779 1728.223 165.779 1776.109 248.72 1824 331.669 1871.891 248.72 1919.777 165.779 1919.781 165.779 1919.779 165.775" style="fill:#ccc;opacity:0.2"/><polygon points="1919.779 497.775 1919.781 497.771 1919.777 497.771 1871.891 414.83 1824 331.881 1776.109 414.83 1728.223 497.771 1728.219 497.771 1728.221 497.775 1728.219 497.779 1728.223 497.779 1776.109 580.72 1824 663.669 1871.891 580.72 1919.777 497.779 1919.781 497.779 1919.779 497.775" style="fill:#ccc;opacity:0.2"/><polygon points="1919.779 829.775 1919.781 829.771 1919.777 829.771 1871.891 746.83 1824 663.881 1776.109 746.83 1728.223 829.771 1728.219 829.771 1728.221 829.775 1728.219 829.779 1728.223 829.779 1776.109 912.72 1824 995.669 1871.891 912.72 1919.777 829.779 1919.781 829.779 1919.779 829.775" style="fill:#ccc;opacity:0.2"/></g><g id="Layer_3" data-name="Layer 3"><circle cx="1631" cy="146" r="17" style="fill:#f2f2f2"/><path d="M1631,170a24,24,0,1,1,24-24A24.0275,24.0275,0,0,1,1631,170Zm0-46a22,22,0,1,0,22,22A22.0248,22.0248,0,0,0,1631,124Z" style="fill:#f2f2f2"/><path d="M1673,142c-1.645-1.7231-4.2361-.5585-5-2-.6932-1.3083,1.2745-2.5816,2-6,.1724-.8122,1.0717-5.0493-1-7-1.45-1.3654-2.9755-.311-7-2-1.71-.7176-2.5735-1.0948-3-2-.8893-1.8872,1.3628-3.33,1-6-.3376-2.485-2.7985-4.9874-5-5-2.0969-.012-2.83,2.2411-5,2a4.7408,4.7408,0,0,1-3-2c-2.127-2.783-.3043-5.6345-2-7-1.4364-1.1568-4.469-.5-6,1-1.1871,1.1627-.7893,2.1636-2,3a5.1785,5.1785,0,0,1-5,0c-2.4232-1.24-2.0789-3.4557-4-4-2.2013-.6237-4.6888,1.7083-5,2-2.0236,1.897-1.6008,3.5162-3,4-1.85.6395-3.0291-2.0381-6-2a5.7721,5.7721,0,0,0-5,3c-1.09,2.4657,1.1479,4.8645,0,6-.5228.5171-1.2258.2559-4,0-3.3607-.31-5.0411-.4651-6,0a6.5073,6.5073,0,0,0-3,7c.5485,1.9017,2.1089,2.3308,2,4a4.5562,4.5562,0,0,1-2,3c-2.1516,1.6014-3.9894.6352-5,2-.9116,1.2312-.2721,3.1736,0,4,.889,2.7,2.6649,2.8145,3,5a6.5068,6.5068,0,0,1-1,4c-1.2659,2.4165-2.6072,2.3387-3,4a5.4549,5.4549,0,0,0,2,5c1.8109,1.5019,3.1573.4719,5,2a5.3893,5.3893,0,0,1,2,5c-.3647,1.4432-1.4323,1.3812-2,3a4.9526,4.9526,0,0,0,1,5c1.0685.9958,2.5172.9974,5,1,3.2476.0034,4.1576-.7382,5,0,.7671.6722.3019,1.5408,1,5,.3248,1.61.4976,2.4266,1,3a4.3647,4.3647,0,0,0,5,1c1.1476-.648.9642-1.6315,2-2a3.631,3.631,0,0,1,4,2c.67,1.5522,2.329,3.57,3,5,.7758,1.6527,4.3359,2.9285,5,3,.2915.0314.7286.3487,3-2,1.9182-1.9836.1409-5.9413,2-7a4.296,4.296,0,0,1,4,0c1.87,1.0311,1.3374,2.99,3,4,1.6471,1,4.4152.4407,6-1,2.5774-2.3428,1.1255-6.1976,3-7,1.5927-.6818,2.8914,1.994,6,2,2.537.0049,5.4291-1.77,6-4,.6364-2.4854-1.9534-4.1971-1-6,.439-.83,1.135-.7454,4-2,3.0756-1.3469,4.6134-2.02,5-3,.6443-1.6329-1.1733-2.6246-2-7-.369-1.9531-.5645-2.9874,0-4,1.0748-1.9282,3.4153-1.1044,5-3C1674.5549,147.14,1674.5652,143.64,1673,142Zm-42,33a29,29,0,1,1,29-29A29,29,0,0,1,1631,175Z" style="fill:#f2f2f2"/><path d="M1609.5,187.5s4.9518-4.0774,8-3c2.0758.7337,2.2,2.7775,5,5a16.73,16.73,0,0,0,7,3L1623,227l-10-10-12,4Z" style="fill:#f2f2f2"/><path d="M1635,189a18.99,18.99,0,0,1,2-3c1.7855-.4662,3.0029,2.7077,6,3,2.0223.1972,3.6875-1.0315,5-2,3.7209-2.7457,4-5,4-5l8,27-11-5-9,12Z" style="fill:#f2f2f2"/><circle cx="95" cy="146" r="17" style="fill:#f2f2f2"/><path d="M95,170a24,24,0,1,1,24-24A24.0275,24.0275,0,0,1,95,170Zm0-46a22,22,0,1,0,22,22A22.0248,22.0248,0,0,0,95,124Z" style="fill:#f2f2f2"/><path d="M137,142c-1.645-1.7231-4.2361-.5585-5-2-.6932-1.3083,1.2745-2.5816,2-6,.1724-.8122,1.0717-5.0493-1-7-1.45-1.3654-2.9755-.311-7-2-1.71-.7176-2.5735-1.0948-3-2-.8893-1.8872,1.3628-3.33,1-6-.3376-2.485-2.7985-4.9874-5-5-2.0969-.012-2.83,2.2411-5,2a4.7408,4.7408,0,0,1-3-2c-2.127-2.783-.3043-5.6345-2-7-1.4364-1.1568-4.469-.5-6,1-1.1871,1.1627-.7893,2.1636-2,3a5.1785,5.1785,0,0,1-5,0c-2.4232-1.24-2.0789-3.4557-4-4-2.2013-.6237-4.6888,1.7083-5,2-2.0236,1.897-1.6008,3.5162-3,4-1.85.6395-3.0291-2.0381-6-2a5.7721,5.7721,0,0,0-5,3c-1.09,2.4657,1.1479,4.8645,0,6-.5228.5171-1.2258.2559-4,0-3.3607-.31-5.0411-.4651-6,0a6.5073,6.5073,0,0,0-3,7c.5485,1.9017,2.1089,2.3308,2,4a4.5562,4.5562,0,0,1-2,3c-2.1516,1.6014-3.9894.6352-5,2-.9116,1.2312-.2721,3.1736,0,4,.889,2.7,2.6649,2.8145,3,5a6.5068,6.5068,0,0,1-1,4c-1.2659,2.4165-2.6072,2.3387-3,4a5.4549,5.4549,0,0,0,2,5c1.8109,1.5019,3.1573.4719,5,2a5.3893,5.3893,0,0,1,2,5c-.3647,1.4432-1.4323,1.3812-2,3a4.9526,4.9526,0,0,0,1,5c1.0685.9958,2.5172.9974,5,1,3.2476.0034,4.1576-.7382,5,0,.7671.6722.3019,1.5408,1,5,.3248,1.61.4976,2.4266,1,3a4.3647,4.3647,0,0,0,5,1c1.1476-.648.9642-1.6315,2-2a3.631,3.631,0,0,1,4,2c.67,1.5522,2.329,3.57,3,5,.7758,1.6527,4.3359,2.9285,5,3,.2915.0314.7286.3487,3-2,1.9182-1.9836.1409-5.9413,2-7a4.296,4.296,0,0,1,4,0c1.87,1.0311,1.3374,2.99,3,4,1.6471,1,4.4152.4407,6-1,2.5774-2.3428,1.1255-6.1976,3-7,1.5927-.6818,2.8914,1.994,6,2,2.537.0049,5.4291-1.77,6-4,.6364-2.4854-1.9534-4.1971-1-6,.439-.83,1.135-.7454,4-2,3.0756-1.3469,4.6134-2.02,5-3,.6443-1.6329-1.1733-2.6246-2-7-.369-1.9531-.5645-2.9874,0-4,1.0748-1.9282,3.4153-1.1044,5-3C138.5549,147.14,138.5652,143.64,137,142ZM95,175a29,29,0,1,1,29-29A29,29,0,0,1,95,175Z" style="fill:#f2f2f2"/><path d="M73.5,187.5s4.9518-4.0774,8-3c2.0758.7337,2.2,2.7775,5,5a16.73,16.73,0,0,0,7,3L87,227,77,217l-12,4Z" style="fill:#f2f2f2"/><path d="M99,189a18.99,18.99,0,0,1,2-3c1.7855-.4662,3.0029,2.7077,6,3,2.0223.1972,3.6875-1.0315,5-2,3.7209-2.7457,4-5,4-5l8,27-11-5-9,12Z" style="fill:#f2f2f2"/><circle cx="1439" cy="485" r="17" style="fill:#f2f2f2"/><path d="M1439,509a24,24,0,1,1,24-24A24.0275,24.0275,0,0,1,1439,509Zm0-46a22,22,0,1,0,22,22A22.0248,22.0248,0,0,0,1439,463Z" style="fill:#f2f2f2"/><path d="M1481,481c-1.645-1.7231-4.2361-.5585-5-2-.6932-1.3083,1.2745-2.5816,2-6,.1724-.8122,1.0717-5.0493-1-7-1.45-1.3654-2.9755-.311-7-2-1.71-.7176-2.5735-1.0948-3-2-.8893-1.8872,1.3628-3.33,1-6-.3376-2.485-2.7985-4.9874-5-5-2.0969-.012-2.83,2.2411-5,2a4.7408,4.7408,0,0,1-3-2c-2.127-2.783-.3043-5.6345-2-7-1.4364-1.1568-4.469-.5-6,1-1.1871,1.1627-.7893,2.1636-2,3a5.1785,5.1785,0,0,1-5,0c-2.4232-1.24-2.0789-3.4557-4-4-2.2013-.6237-4.6888,1.7083-5,2-2.0236,1.897-1.6008,3.5162-3,4-1.85.6395-3.0291-2.0381-6-2a5.7721,5.7721,0,0,0-5,3c-1.09,2.4657,1.1479,4.8645,0,6-.5228.5171-1.2258.2559-4,0-3.3607-.31-5.0411-.4651-6,0a6.5073,6.5073,0,0,0-3,7c.5485,1.9017,2.1089,2.3308,2,4a4.5562,4.5562,0,0,1-2,3c-2.1516,1.6014-3.9894.6352-5,2-.9116,1.2312-.2721,3.1736,0,4,.889,2.7,2.6649,2.8145,3,5a6.5068,6.5068,0,0,1-1,4c-1.2659,2.4165-2.6072,2.3387-3,4a5.4549,5.4549,0,0,0,2,5c1.8109,1.5019,3.1573.4719,5,2a5.3893,5.3893,0,0,1,2,5c-.3647,1.4432-1.4323,1.3812-2,3a4.9526,4.9526,0,0,0,1,5c1.0685.9958,2.5172.9974,5,1,3.2476.0034,4.1576-.7382,5,0,.7671.6722.3019,1.5408,1,5,.3248,1.61.4976,2.4266,1,3a4.3647,4.3647,0,0,0,5,1c1.1476-.648.9642-1.6315,2-2a3.631,3.631,0,0,1,4,2c.67,1.5522,2.329,3.57,3,5,.7758,1.6527,4.3359,2.9285,5,3,.2915.0314.7286.3487,3-2,1.9182-1.9836.1409-5.9413,2-7a4.296,4.296,0,0,1,4,0c1.87,1.0311,1.3374,2.99,3,4,1.6471,1,4.4152.4407,6-1,2.5774-2.3428,1.1255-6.1976,3-7,1.5927-.6818,2.8914,1.994,6,2,2.537.0049,5.4291-1.77,6-4,.6364-2.4854-1.9534-4.1971-1-6,.439-.83,1.135-.7454,4-2,3.0756-1.3469,4.6134-2.02,5-3,.6443-1.6329-1.1733-2.6246-2-7-.369-1.9531-.5645-2.9874,0-4,1.0748-1.9282,3.4153-1.1044,5-3C1482.5549,486.14,1482.5652,482.64,1481,481Zm-42,33a29,29,0,1,1,29-29A29,29,0,0,1,1439,514Z" style="fill:#f2f2f2"/><path d="M1417.5,526.5s4.9518-4.0774,8-3c2.0758.7337,2.2,2.7775,5,5a16.73,16.73,0,0,0,7,3L1431,566l-10-10-12,4Z" style="fill:#f2f2f2"/><path d="M1443,528a18.99,18.99,0,0,1,2-3c1.7855-.4662,3.0029,2.7077,6,3,2.0223.1972,3.6875-1.0315,5-2,3.7209-2.7457,4-5,4-5l8,27-11-5-9,12Z" style="fill:#f2f2f2"/><circle cx="870" cy="820" r="17" style="fill:#f2f2f2"/><path d="M870,844a24,24,0,1,1,24-24A24.0275,24.0275,0,0,1,870,844Zm0-46a22,22,0,1,0,22,22A22.0248,22.0248,0,0,0,870,798Z" style="fill:#f2f2f2"/><path d="M912,816c-1.645-1.7231-4.2361-.5585-5-2-.6932-1.3083,1.2745-2.5816,2-6,.1724-.8122,1.0717-5.0493-1-7-1.45-1.3654-2.9755-.311-7-2-1.71-.7176-2.5735-1.0948-3-2-.8893-1.8872,1.3628-3.33,1-6-.3376-2.485-2.7985-4.9874-5-5-2.0969-.012-2.83,2.2411-5,2a4.7408,4.7408,0,0,1-3-2c-2.127-2.783-.3043-5.6345-2-7-1.4364-1.1568-4.469-.5-6,1-1.1871,1.1627-.7893,2.1636-2,3a5.1785,5.1785,0,0,1-5,0c-2.4232-1.24-2.0789-3.4557-4-4-2.2013-.6237-4.6888,1.7083-5,2-2.0236,1.897-1.6008,3.5162-3,4-1.85.6395-3.0291-2.0381-6-2a5.7721,5.7721,0,0,0-5,3c-1.09,2.4657,1.1479,4.8645,0,6-.5228.5171-1.2258.2559-4,0-3.3607-.31-5.0411-.4651-6,0a6.5073,6.5073,0,0,0-3,7c.5485,1.9017,2.1089,2.3308,2,4a4.5562,4.5562,0,0,1-2,3c-2.1516,1.6014-3.9894.6352-5,2-.9116,1.2312-.2721,3.1736,0,4,.889,2.7,2.6649,2.8145,3,5a6.5068,6.5068,0,0,1-1,4c-1.2659,2.4165-2.6072,2.3387-3,4a5.4549,5.4549,0,0,0,2,5c1.8109,1.5019,3.1573.4719,5,2a5.3893,5.3893,0,0,1,2,5c-.3647,1.4432-1.4323,1.3812-2,3a4.9526,4.9526,0,0,0,1,5c1.0685.9958,2.5172.9974,5,1,3.2476.0034,4.1576-.7382,5,0,.7671.6722.3019,1.5408,1,5,.3248,1.61.4976,2.4266,1,3a4.3647,4.3647,0,0,0,5,1c1.1476-.648.9642-1.6315,2-2a3.631,3.631,0,0,1,4,2c.67,1.5522,2.329,3.57,3,5,.7758,1.6527,4.3359,2.9285,5,3,.2915.0314.7286.3487,3-2,1.9182-1.9836.1409-5.9413,2-7a4.296,4.296,0,0,1,4,0c1.87,1.0311,1.3374,2.99,3,4,1.6471,1,4.4152.4407,6-1,2.5774-2.3428,1.1255-6.1976,3-7,1.5927-.6818,2.8914,1.994,6,2,2.537.0049,5.4291-1.77,6-4,.6364-2.4854-1.9534-4.1971-1-6,.439-.83,1.135-.7454,4-2,3.0756-1.3469,4.6134-2.02,5-3,.6443-1.6329-1.1733-2.6246-2-7-.369-1.9531-.5645-2.9874,0-4,1.0748-1.9282,3.4153-1.1044,5-3C913.5549,821.14,913.5652,817.64,912,816Zm-42,33a29,29,0,1,1,29-29A29,29,0,0,1,870,849Z" style="fill:#f2f2f2"/><path d="M848.5,861.5s4.9518-4.0774,8-3c2.0758.7337,2.2,2.7775,5,5a16.73,16.73,0,0,0,7,3L862,901l-10-10-12,4Z" style="fill:#f2f2f2"/><path d="M874,863a18.99,18.99,0,0,1,2-3c1.7855-.4662,3.0029,2.7077,6,3,2.0223.1972,3.6875-1.0315,5-2,3.7209-2.7457,4-5,4-5l8,27-11-5-9,12Z" style="fill:#f2f2f2"/><path d="M1423.5,114.5c-.1105.9781,3.0692,3.0229,6,2,1.6763-.5851,3.3306-2.1945,3-3C1431.8621,111.9454,1423.67,112.9952,1423.5,114.5Z" style="fill:#f2f2f2"/><path d="M1420.5,137.5c-.0691,1.6178-.08,2.9071,1,21,1.03,17.25,2.6213,21.4033,0,21-13-2-22,6-30,9-6.1753,2.3157-4.2169-12.4252-3-24,.7905-7.5193,2.2408-19.8616,11-32,7.4846-10.3721,21.4833-17.4557,25-15C1426.9442,119.2068,1421.1205,122.9723,1420.5,137.5Z" style="fill:#f2f2f2"/><path d="M1428.5,120.5c-2.2618,2.7006-4.7445,7.7593-5,17-.2338,8.4568-.4395,12.8249,0,17,2,19,1.0884,25.1731,5,23,9-5,12.3555,3.7136,18,1,5.0814-2.4428,5.0951-4.8552,12-9,7.8356-4.7034,10.2756-3.072,13-6,6.9365-7.4549.9785-28.6261-12-40-2.639-2.3127-10.2188-8.9553-20-8C1437.7555,115.67,1432.0807,116.2246,1428.5,120.5Z" style="fill:#f2f2f2"/><path d="M1455.5,116.5c.2719-.3214,13.9542,5.6235,20,18,6.3816,13.064.7279,26.0742,8,30,1.7783.96,2.88.5942,9,3,7.2257,2.84,7.8746,4.2091,8,5,.3961,2.4994-3.5165,5.0377-5,6-10.1967,6.6149-22.9222,4.9932-30,4-7.4222-1.0416-12.5757-.986-13-3-.5282-2.5076,6.317-6.899,12-9,4.297-1.5886,5.8147-1.0859,8-3,3.2153-2.8164,3.6614-7.1736,4-11a37.2661,37.2661,0,0,0-3-18c-2.7031-6.0692-6.4519-10.0737-12-16C1457.6478,118.3851,1455.3784,116.6437,1455.5,116.5Z" style="fill:#f2f2f2"/><path d="M1400.5,188.5c3.3743.6891,3.6581,4.815,8,12,3.1427,5.2,6.7328,10.9711,13,13a13.5367,13.5367,0,0,0,9,0c2.5555-1.002,5.0118-3.07,8-9,5.376-10.6689.5869-19.0862,6-23,1.2356-.8934,3.1313-1.6682,4-1,1.2507.9621-.3518,4.3592-2,11-1.6462,6.633-.803,6.2885-2,10-1.2189,3.7792-2.9431,9.1257-8,13-1.4666,1.1237-6.9794,5.0087-14,4-5.44-.7816-8.9319-4.0916-12-7-5.3191-5.0422-3.9454-7.033-10-13-3.7-3.6463-6.3934-5.0521-6-7C1394.88,189.6213,1397.98,187.9853,1400.5,188.5Z" style="fill:#f2f2f2"/><path d="M91.5,446.5c-.1105.9781,3.0692,3.0229,6,2,1.6763-.5851,3.3306-2.1945,3-3C99.8621,443.9454,91.67,444.9952,91.5,446.5Z" style="fill:#f2f2f2"/><path d="M88.5,469.5c-.0691,1.6178-.08,2.9071,1,21,1.0295,17.25,2.6213,21.4033,0,21-13-2-22,6-30,9-6.1753,2.3157-4.2169-12.4252-3-24,.7905-7.5193,2.2408-19.8616,11-32,7.4846-10.3721,21.4833-17.4557,25-15C94.9442,451.2068,89.1205,454.9723,88.5,469.5Z" style="fill:#f2f2f2"/><path d="M96.5,452.5c-2.2618,2.7006-4.7445,7.7593-5,17-.2338,8.4568-.4395,12.8249,0,17,2,19,1.0884,25.1731,5,23,9-5,12.3555,3.7136,18,1,5.0814-2.4428,5.0951-4.8552,12-9,7.8356-4.7034,10.2756-3.072,13-6,6.9365-7.4549.9785-28.6261-12-40-2.639-2.3127-10.2188-8.9553-20-8C105.7555,447.67,100.0807,448.2246,96.5,452.5Z" style="fill:#f2f2f2"/><path d="M123.5,448.5c.2719-.3214,13.9542,5.6235,20,18,6.3816,13.064.7279,26.0742,8,30,1.7783.96,2.88.5942,9,3,7.2257,2.84,7.8746,4.2091,8,5,.3961,2.4994-3.5165,5.0377-5,6-10.1967,6.6149-22.9222,4.9932-30,4-7.4222-1.0416-12.5757-.986-13-3-.5282-2.5076,6.317-6.899,12-9,4.297-1.5886,5.8147-1.0859,8-3,3.2153-2.8164,3.6614-7.1736,4-11a37.2661,37.2661,0,0,0-3-18c-2.7031-6.0692-6.4519-10.0737-12-16C125.6478,450.3851,123.3784,448.6437,123.5,448.5Z" style="fill:#f2f2f2"/><path d="M68.5,520.5c3.3743.6891,3.6581,4.815,8,12,3.1427,5.2,6.7328,10.9711,13,13a13.5367,13.5367,0,0,0,9,0c2.5555-1.002,5.0118-3.07,8-9,5.376-10.6689.5869-19.0862,6-23,1.2356-.8934,3.1313-1.6682,4-1,1.2507.9621-.3518,4.3592-2,11-1.6462,6.633-.803,6.2885-2,10-1.2189,3.7792-2.9431,9.1257-8,13-1.4666,1.1237-6.9794,5.0087-14,4-5.44-.7816-8.9319-4.0916-12-7-5.3191-5.0422-3.9454-7.033-10-13-3.7-3.6463-6.3934-5.0521-6-7C62.88,521.6213,65.98,519.9853,68.5,520.5Z" style="fill:#f2f2f2"/><path d="M1622.5,450.5c-.1105.9781,3.0692,3.0229,6,2,1.6763-.5851,3.3306-2.1945,3-3C1630.8621,447.9454,1622.67,448.9952,1622.5,450.5Z" style="fill:#f2f2f2"/><path d="M1619.5,473.5c-.0691,1.6178-.08,2.9071,1,21,1.03,17.25,2.6213,21.4033,0,21-13-2-22,6-30,9-6.1753,2.3157-4.2169-12.4252-3-24,.7905-7.5193,2.2408-19.8616,11-32,7.4846-10.3721,21.4833-17.4557,25-15C1625.9442,455.2068,1620.1205,458.9723,1619.5,473.5Z" style="fill:#f2f2f2"/><path d="M1627.5,456.5c-2.2618,2.7006-4.7445,7.7593-5,17-.2338,8.4568-.4395,12.8249,0,17,2,19,1.0884,25.1731,5,23,9-5,12.3555,3.7136,18,1,5.0814-2.4428,5.0951-4.8552,12-9,7.8356-4.7034,10.2756-3.072,13-6,6.9365-7.4549.9785-28.6261-12-40-2.639-2.3127-10.2188-8.9553-20-8C1636.7555,451.67,1631.0807,452.2246,1627.5,456.5Z" style="fill:#f2f2f2"/><path d="M1654.5,452.5c.2719-.3214,13.9542,5.6235,20,18,6.3816,13.064.7279,26.0742,8,30,1.7783.96,2.88.5942,9,3,7.2257,2.84,7.8746,4.2091,8,5,.3961,2.4994-3.5165,5.0377-5,6-10.1967,6.6149-22.9222,4.9932-30,4-7.4222-1.0416-12.5757-.986-13-3-.5282-2.5076,6.317-6.899,12-9,4.297-1.5886,5.8147-1.0859,8-3,3.2153-2.8164,3.6614-7.1736,4-11a37.2661,37.2661,0,0,0-3-18c-2.7031-6.0692-6.4519-10.0737-12-16C1656.6478,454.3851,1654.3784,452.6437,1654.5,452.5Z" style="fill:#f2f2f2"/><path d="M1599.5,524.5c3.3743.6891,3.6581,4.815,8,12,3.1427,5.2,6.7328,10.9711,13,13a13.5367,13.5367,0,0,0,9,0c2.5555-1.002,5.0118-3.07,8-9,5.376-10.6689.5869-19.0862,6-23,1.2356-.8934,3.1313-1.6682,4-1,1.2507.9621-.3518,4.3592-2,11-1.6462,6.633-.803,6.2885-2,10-1.2189,3.7792-2.9431,9.1257-8,13-1.4666,1.1237-6.9794,5.0087-14,4-5.44-.7816-8.9319-4.0916-12-7-5.3191-5.0422-3.9454-7.033-10-13-3.7-3.6463-6.3934-5.0521-6-7C1593.88,525.6213,1596.98,523.9853,1599.5,524.5Z" style="fill:#f2f2f2"/><path d="M660.5,776.5c-.1105.9781,3.0692,3.0229,6,2,1.6763-.5851,3.3306-2.1945,3-3C668.8621,773.9454,660.67,774.9952,660.5,776.5Z" style="fill:#f2f2f2"/><path d="M657.5,799.5c-.0691,1.6178-.08,2.9071,1,21,1.0295,17.25,2.6213,21.4033,0,21-13-2-22,6-30,9-6.1753,2.3157-4.2169-12.4252-3-24,.79-7.5193,2.2408-19.8616,11-32,7.4846-10.3721,21.4833-17.4557,25-15C663.9442,781.2068,658.1205,784.9723,657.5,799.5Z" style="fill:#f2f2f2"/><path d="M665.5,782.5c-2.2618,2.7006-4.7445,7.7593-5,17-.2338,8.4568-.4395,12.8249,0,17,2,19,1.0884,25.1731,5,23,9-5,12.3555,3.7136,18,1,5.0814-2.4428,5.0951-4.8552,12-9,7.8356-4.7034,10.2756-3.072,13-6,6.9365-7.4549.9785-28.6261-12-40-2.639-2.3127-10.2188-8.9553-20-8C674.7555,777.67,669.0807,778.2246,665.5,782.5Z" style="fill:#f2f2f2"/><path d="M692.5,778.5c.2719-.3214,13.9542,5.6235,20,18,6.3816,13.064.7279,26.0742,8,30,1.7783.96,2.88.5942,9,3,7.2257,2.84,7.8746,4.2091,8,5,.3961,2.4994-3.5165,5.0377-5,6-10.1967,6.6149-22.9222,4.9932-30,4-7.4222-1.0416-12.5757-.986-13-3-.5282-2.5076,6.317-6.899,12-9,4.297-1.5886,5.8147-1.0859,8-3,3.2153-2.8164,3.6614-7.1736,4-11a37.2661,37.2661,0,0,0-3-18c-2.7031-6.0692-6.4519-10.0737-12-16C694.6478,780.3851,692.3784,778.6437,692.5,778.5Z" style="fill:#f2f2f2"/><path d="M637.5,850.5c3.3743.6891,3.6581,4.815,8,12,3.1427,5.2,6.7328,10.9711,13,13a13.5367,13.5367,0,0,0,9,0c2.5555-1.002,5.0118-3.07,8-9,5.376-10.6689.5869-19.0862,6-23,1.2356-.8934,3.1313-1.6682,4-1,1.2507.9621-.3518,4.3592-2,11-1.6462,6.633-.803,6.2885-2,10-1.2189,3.7792-2.9431,9.1257-8,13-1.4666,1.1237-6.9794,5.0087-14,4-5.44-.7816-8.9319-4.0916-12-7-5.3191-5.0422-3.9454-7.033-10-13-3.7-3.6463-6.3934-5.0521-6-7C631.88,851.6213,634.98,849.9853,637.5,850.5Z" style="fill:#f2f2f2"/><path d="M329.5,518.5c3.0143-8.1457,7.38-19.9433,5-34a41.8963,41.8963,0,0,0-7-18c-6.5161-9.22-15.2566-13.0134-20-15a46.6323,46.6323,0,0,0-22-4,47.1169,47.1169,0,0,0-24,9c-4.0823,2.8239-10.58,7.431-15,16-5.1093,9.9043-4.4229,19.245-4,25,.4523,6.1539,1.41,19.1938,10,30,2.0764,2.6122,7.2383,8.4147,6,10-.6743.8633-2.7008-.2228-4,1-1.342,1.2632-1.0651,4.1971,0,6,2.4725,4.1854,10.7511,4.9144,13,2,1.668-2.1616-.842-5.2122-4-15a118.0648,118.0648,0,0,1-4-17c-1.2875-8.6852-2.1189-14.2935,0-21a30.5739,30.5739,0,0,1,13-17c10.7411-6.5348,21.792-3.634,24-3a31.288,31.288,0,0,1,16,11c4.1655,5.5289,5.2487,10.9813,6,15,1.5845,8.4755.2333,15.1789-1,21-3.0316,14.3091-11.4307,18.4391-9,23,2.3711,4.4491,12.3335,5.381,15,2,1.2694-1.61,1.3671-4.8075,0-6-1.0426-.9095-2.4633-.2392-3-1-.8724-1.2366,1.8126-4.4325,3-6C325.0909,530.4,326.5636,526.4353,329.5,518.5Zm-49.4336-52.47c-1.7268,2.3154-5.957-.0156-10.8423,2.448-4.6388,2.3392-5.7955,6.9476-7.2283,6.5279-.9345-.2736-1.1455-2.44-.9035-4.08,1.0827-7.34,12.6645-13.8053,17.167-11.4239C280.4841,460.6789,281.4022,464.2388,280.0664,466.03ZM291,464a4.79,4.79,0,0,1-6-1,5.0192,5.0192,0,0,1-1-3,4.8859,4.8859,0,0,1,1-4,4.5746,4.5746,0,0,1,4-1,5.1224,5.1224,0,0,1,4,4A4.833,4.833,0,0,1,291,464Zm23.6917,10.006c-1.4329.42-2.59-4.1887-7.2283-6.5279-4.8853-2.4636-9.1157-.1326-10.8423-2.448-1.3359-1.7913-.4177-5.3512,1.8071-6.5279,4.5025-2.3814,16.0841,4.0844,17.1669,11.4239C315.8372,471.566,315.6261,473.7324,314.6917,474.006Z" style="fill:#f2f2f2"/><path d="M1865.5,518.5c3.0143-8.1457,7.38-19.9433,5-34a41.8963,41.8963,0,0,0-7-18c-6.5161-9.22-15.2566-13.0134-20-15a46.6323,46.6323,0,0,0-22-4,47.1169,47.1169,0,0,0-24,9c-4.0823,2.8239-10.58,7.431-15,16-5.1093,9.9043-4.4229,19.245-4,25,.4523,6.1539,1.41,19.1938,10,30,2.0764,2.6122,7.2383,8.4147,6,10-.6743.8633-2.7008-.2228-4,1-1.342,1.2632-1.0651,4.1971,0,6,2.4725,4.1854,10.7511,4.9144,13,2,1.668-2.1616-.842-5.2122-4-15a118.0648,118.0648,0,0,1-4-17c-1.2875-8.6852-2.1189-14.2935,0-21a30.5739,30.5739,0,0,1,13-17c10.7411-6.5348,21.792-3.634,24-3a31.288,31.288,0,0,1,16,11c4.1655,5.5289,5.2487,10.9813,6,15,1.5845,8.4755.2333,15.1789-1,21-3.0316,14.3091-11.4307,18.4391-9,23,2.3711,4.4491,12.3335,5.381,15,2,1.2694-1.61,1.3671-4.8075,0-6-1.0426-.9095-2.4633-.2392-3-1-.8724-1.2366,1.8126-4.4325,3-6C1861.0909,530.4,1862.5636,526.4353,1865.5,518.5Zm-49.4336-52.47c-1.7268,2.3154-5.957-.0156-10.8423,2.448-4.6388,2.3392-5.7955,6.9476-7.2283,6.5279-.9345-.2736-1.1455-2.44-.9035-4.08,1.0827-7.34,12.6645-13.8053,17.167-11.4239C1816.4841,460.6789,1817.4022,464.2388,1816.0664,466.03ZM1827,464a4.79,4.79,0,0,1-6-1,5.0192,5.0192,0,0,1-1-3,4.8859,4.8859,0,0,1,1-4,4.5746,4.5746,0,0,1,4-1,5.1224,5.1224,0,0,1,4,4A4.833,4.833,0,0,1,1827,464Zm23.6917,10.006c-1.4329.42-2.59-4.1887-7.2283-6.5279-4.8853-2.4636-9.1157-.1326-10.8423-2.448-1.3359-1.7913-.4177-5.3512,1.8071-6.5279,4.5025-2.3814,16.0841,4.0844,17.1669,11.4239C1851.8372,471.566,1851.6261,473.7324,1850.6917,474.006Z" style="fill:#f2f2f2"/><path d="M518.5,850.5c3.0143-8.1457,7.38-19.9433,5-34a41.8963,41.8963,0,0,0-7-18c-6.5161-9.22-15.2566-13.0134-20-15a46.6323,46.6323,0,0,0-22-4,47.1169,47.1169,0,0,0-24,9c-4.0823,2.8239-10.58,7.431-15,16-5.1093,9.9043-4.4229,19.245-4,25,.4523,6.1539,1.41,19.1938,10,30,2.0764,2.6122,7.2383,8.4147,6,10-.6743.8633-2.7008-.2228-4,1-1.342,1.2632-1.0651,4.1971,0,6,2.4725,4.1854,10.7511,4.9144,13,2,1.668-2.1616-.842-5.2122-4-15a118.0648,118.0648,0,0,1-4-17c-1.2875-8.6852-2.1189-14.2935,0-21a30.5739,30.5739,0,0,1,13-17c10.7411-6.5348,21.792-3.634,24-3a31.288,31.288,0,0,1,16,11c4.1655,5.5289,5.2487,10.9813,6,15,1.5845,8.4755.2333,15.1789-1,21-3.0316,14.3091-11.4307,18.4391-9,23,2.3711,4.4491,12.3335,5.381,15,2,1.2694-1.61,1.3671-4.8075,0-6-1.0426-.9095-2.4633-.2392-3-1-.8724-1.2366,1.8126-4.4325,3-6C514.0909,862.4,515.5636,858.4353,518.5,850.5Zm-49.4336-52.47c-1.7268,2.3154-5.957-.0156-10.8423,2.448-4.6388,2.3392-5.7955,6.9476-7.2283,6.5279-.9345-.2736-1.1455-2.44-.9035-4.08,1.0827-7.34,12.6645-13.8053,17.167-11.4239C469.4841,792.6789,470.4022,796.2388,469.0664,798.03ZM480,796a4.79,4.79,0,0,1-6-1,5.0192,5.0192,0,0,1-1-3,4.8859,4.8859,0,0,1,1-4,4.5746,4.5746,0,0,1,4-1,5.1224,5.1224,0,0,1,4,4A4.833,4.833,0,0,1,480,796Zm23.6917,10.006c-1.4329.42-2.59-4.1887-7.2283-6.5279-4.8853-2.4636-9.1157-.1326-10.8423-2.448-1.3359-1.7913-.4177-5.3512,1.8071-6.5279,4.5025-2.3814,16.0841,4.0844,17.1669,11.4239C504.8372,803.566,504.6261,805.7324,503.6917,806.006Z" style="fill:#f2f2f2"/><path d="M1290.5,186.5c3.0143-8.1457,7.38-19.9433,5-34a41.8963,41.8963,0,0,0-7-18c-6.5161-9.22-15.2566-13.0134-20-15a46.6323,46.6323,0,0,0-22-4,47.1169,47.1169,0,0,0-24,9c-4.0823,2.8239-10.58,7.431-15,16-5.1093,9.9043-4.4229,19.245-4,25,.4523,6.1539,1.41,19.1938,10,30,2.0764,2.6122,7.2383,8.4147,6,10-.6743.8633-2.7008-.2228-4,1-1.342,1.2632-1.0651,4.1971,0,6,2.4725,4.1854,10.7511,4.9144,13,2,1.668-2.1616-.842-5.2122-4-15a118.0648,118.0648,0,0,1-4-17c-1.2875-8.6852-2.1189-14.2935,0-21a30.5739,30.5739,0,0,1,13-17c10.7411-6.5348,21.792-3.634,24-3a31.288,31.288,0,0,1,16,11c4.1655,5.5289,5.2487,10.9813,6,15,1.5845,8.4755.2333,15.1789-1,21-3.0316,14.3091-11.4307,18.4391-9,23,2.3711,4.4491,12.3335,5.381,15,2,1.2694-1.61,1.3671-4.8075,0-6-1.0426-.91-2.4633-.2392-3-1-.8724-1.2366,1.8126-4.4325,3-6C1286.0909,198.4,1287.5636,194.4353,1290.5,186.5Zm-49.4336-52.47c-1.7268,2.3154-5.957-.0156-10.8423,2.448-4.6388,2.3392-5.7955,6.9476-7.2283,6.5279-.9345-.2736-1.1455-2.44-.9035-4.08,1.0827-7.3395,12.6645-13.8053,17.167-11.4239C1241.4841,128.6789,1242.4022,132.2388,1241.0664,134.03ZM1252,132a4.79,4.79,0,0,1-6-1,5.0192,5.0192,0,0,1-1-3,4.8859,4.8859,0,0,1,1-4,4.5746,4.5746,0,0,1,4-1,5.1224,5.1224,0,0,1,4,4A4.833,4.833,0,0,1,1252,132Zm23.6917,10.006c-1.4329.42-2.59-4.1887-7.2283-6.5279-4.8853-2.4636-9.1157-.1326-10.8423-2.448-1.3359-1.7913-.4177-5.3512,1.8071-6.5279,4.5025-2.3814,16.0841,4.0844,17.1669,11.4239C1276.8372,139.566,1276.6261,141.7324,1275.6917,142.006Z" style="fill:#f2f2f2"/><polygon points="1056 79.633 1059.047 85.807 1065.859 86.796 1060.93 91.602 1062.093 98.387 1056 95.183 1049.907 98.387 1051.07 91.602 1046.141 86.796 1052.953 85.807 1056 79.633" style="fill:#f2f2f2"/><polygon points="1028.761 97.439 1031.744 97.123 1033.174 94.486 1034.397 97.225 1037.347 97.771 1035.12 99.78 1035.512 102.754 1032.913 101.257 1030.206 102.549 1030.827 99.614 1028.761 97.439" style="fill:#f2f2f2"/><polygon points="1073.761 97.439 1076.744 97.123 1078.174 94.486 1079.397 97.225 1082.347 97.771 1080.12 99.78 1080.512 102.754 1077.913 101.257 1075.206 102.549 1075.827 99.614 1073.761 97.439" style="fill:#f2f2f2"/><path d="M1099.5,127.5l-17.5.5.5-3.5A260.4663,260.4663,0,0,1,1048,126c-10.66-.334-21.5-1.5-21.5-1.5v4h-17s-.468,20.0277,2,26c1.6528,3.9993,4.1885,9.9514,10,15,2.8347,2.4626,3.52,2.1661,13,8,10.9667,6.749,12.212,8.4767,13,10,2.6695,5.1606,1.59,10.8762,1,14a25.5663,25.5663,0,0,1-4,10,32.9848,32.9848,0,0,1-5,6h29a10.5841,10.5841,0,0,0-1-3c-5.9148-11.5-6.4614-12.2221-7-14-.1216-.4017-2.0311-7.031,1-13,1.9053-3.752,4.8564-5.4583,9-8,12.6024-7.73,18.9036-11.5952,22-15,6.9314-7.6218,8.3961-16.3862,9-20C1102.2814,139.8239,1099.5,127.5,1099.5,127.5ZM1038.8326,175c-1.4264,1.2283-10.2576-3.438-15.8326-11-3.0883-4.189-5.8326-8-7-17-.9683-7.4645-1.1674-13-1.1674-13h16s-.2719,3.19-1,7c-1.2057,6.3076.4955,11.4417,3,19C1036.2117,170.1978,1039.9012,174.08,1038.8326,175ZM1054,165a14,14,0,1,1,14-14A14,14,0,0,1,1054,165Zm38.853-18c-1.1674,9-3.9117,12.811-7,17-5.5749,7.562-14.4062,12.2283-15.8325,11-1.0687-.92,2.6209-4.8022,6-15,2.5045-7.5583,4.2057-12.6924,3-19-.7282-3.81-1-7-1-7h16S1093.8213,139.5355,1092.853,147Z" style="fill:#f2f2f2"/><ellipse cx="1054" cy="230" rx="22" ry="3" style="fill:#f2f2f2"/><rect x="1034" y="222" width="40" height="8" style="fill:#f2f2f2"/><polygon points="1079 121 1030 121 1033 116 1077 116 1079 121" style="fill:#f2f2f2"/><ellipse cx="1055" cy="116" rx="17" ry="4" style="fill:#f2f2f2"/><polygon points="480 420.633 483.047 426.807 489.859 427.796 484.93 432.602 486.093 439.387 480 436.183 473.907 439.387 475.07 432.602 470.141 427.796 476.953 426.807 480 420.633" style="fill:#f2f2f2"/><polygon points="452.761 438.439 455.744 438.123 457.174 435.486 458.397 438.225 461.347 438.771 459.12 440.78 459.512 443.754 456.913 442.257 454.206 443.549 454.827 440.614 452.761 438.439" style="fill:#f2f2f2"/><polygon points="497.761 438.439 500.744 438.123 502.174 435.486 503.397 438.225 506.347 438.771 504.12 440.78 504.512 443.754 501.913 442.257 499.206 443.549 499.827 440.614 497.761 438.439" style="fill:#f2f2f2"/><path d="M523.5,468.5,506,469l.5-3.5A260.4663,260.4663,0,0,1,472,467c-10.66-.334-21.5-1.5-21.5-1.5v4h-17s-.468,20.0277,2,26c1.6528,3.9993,4.1885,9.9514,10,15,2.8347,2.4626,3.52,2.1661,13,8,10.9667,6.749,12.212,8.4767,13,10,2.67,5.1606,1.59,10.8762,1,14a25.5663,25.5663,0,0,1-4,10,32.9848,32.9848,0,0,1-5,6h29a10.5841,10.5841,0,0,0-1-3c-5.9148-11.5-6.4614-12.2221-7-14-.1216-.4017-2.0311-7.031,1-13,1.9053-3.752,4.8564-5.4583,9-8,12.6024-7.73,18.9036-11.5952,22-15,6.9314-7.6218,8.3961-16.3862,9-20C526.2814,480.8239,523.5,468.5,523.5,468.5ZM462.8326,516c-1.4264,1.2283-10.2576-3.438-15.8326-11-3.0883-4.189-5.8326-8-7-17-.9683-7.4645-1.1674-13-1.1674-13h16s-.2719,3.19-1,7c-1.2057,6.3076.4955,11.4417,3,19C460.2117,511.1978,463.9012,515.08,462.8326,516ZM478,506a14,14,0,1,1,14-14A14,14,0,0,1,478,506Zm38.853-18c-1.1674,9-3.9117,12.811-7,17-5.5749,7.562-14.4062,12.2283-15.8325,11-1.0687-.92,2.6209-4.8022,6-15,2.5045-7.5583,4.2057-12.6924,3-19-.7282-3.81-1-7-1-7h16S517.8213,480.5355,516.853,488Z" style="fill:#f2f2f2"/><ellipse cx="478" cy="571" rx="22" ry="3" style="fill:#f2f2f2"/><rect x="458" y="563" width="40" height="8" style="fill:#f2f2f2"/><polygon points="503 462 454 462 457 457 501 457 503 462" style="fill:#f2f2f2"/><ellipse cx="479" cy="457" rx="17" ry="4" style="fill:#f2f2f2"/><polygon points="289 755.633 292.047 761.807 298.859 762.796 293.93 767.602 295.093 774.387 289 771.183 282.907 774.387 284.07 767.602 279.141 762.796 285.953 761.807 289 755.633" style="fill:#f2f2f2"/><polygon points="261.761 773.439 264.744 773.123 266.174 770.486 267.397 773.225 270.347 773.771 268.12 775.78 268.512 778.754 265.913 777.257 263.206 778.549 263.827 775.614 261.761 773.439" style="fill:#f2f2f2"/><polygon points="306.761 773.439 309.744 773.123 311.174 770.486 312.397 773.225 315.347 773.771 313.12 775.78 313.512 778.754 310.913 777.257 308.206 778.549 308.827 775.614 306.761 773.439" style="fill:#f2f2f2"/><path d="M332.5,803.5,315,804l.5-3.5A260.4663,260.4663,0,0,1,281,802c-10.66-.334-21.5-1.5-21.5-1.5v4h-17s-.468,20.0277,2,26c1.6528,3.9993,4.1885,9.9514,10,15,2.8347,2.4626,3.52,2.1661,13,8,10.9667,6.749,12.212,8.4767,13,10,2.67,5.1606,1.59,10.8762,1,14a25.5663,25.5663,0,0,1-4,10,32.9848,32.9848,0,0,1-5,6h29a10.5841,10.5841,0,0,0-1-3c-5.9148-11.5-6.4614-12.2221-7-14-.1216-.4017-2.0311-7.031,1-13,1.9053-3.752,4.8564-5.4583,9-8,12.6024-7.73,18.9036-11.5952,22-15,6.9314-7.6218,8.3961-16.3862,9-20C335.2814,815.8239,332.5,803.5,332.5,803.5ZM271.8326,851c-1.4264,1.2283-10.2576-3.438-15.8326-11-3.0883-4.189-5.8326-8-7-17-.9683-7.4645-1.1674-13-1.1674-13h16s-.2719,3.19-1,7c-1.2057,6.3076.4955,11.4417,3,19C269.2117,846.1978,272.9012,850.08,271.8326,851ZM287,841a14,14,0,1,1,14-14A14,14,0,0,1,287,841Zm38.853-18c-1.1674,9-3.9117,12.811-7,17-5.5749,7.562-14.4062,12.2283-15.8325,11-1.0687-.92,2.6209-4.8022,6-15,2.5045-7.5583,4.2057-12.6924,3-19-.7282-3.81-1-7-1-7h16S326.8213,815.5355,325.853,823Z" style="fill:#f2f2f2"/><ellipse cx="287" cy="906" rx="22" ry="3" style="fill:#f2f2f2"/><rect x="267" y="898" width="40" height="8" style="fill:#f2f2f2"/><polygon points="312 797 263 797 266 792 310 792 312 797" style="fill:#f2f2f2"/><ellipse cx="288" cy="792" rx="17" ry="4" style="fill:#f2f2f2"/><polygon points="1824 762.633 1827.047 768.807 1833.859 769.796 1828.93 774.602 1830.093 781.387 1824 778.183 1817.907 781.387 1819.07 774.602 1814.141 769.796 1820.953 768.807 1824 762.633" style="fill:#f2f2f2"/><polygon points="1796.761 780.439 1799.744 780.123 1801.174 777.486 1802.397 780.225 1805.347 780.771 1803.12 782.78 1803.512 785.754 1800.913 784.257 1798.206 785.549 1798.827 782.614 1796.761 780.439" style="fill:#f2f2f2"/><polygon points="1841.761 780.439 1844.744 780.123 1846.174 777.486 1847.397 780.225 1850.347 780.771 1848.12 782.78 1848.512 785.754 1845.913 784.257 1843.206 785.549 1843.827 782.614 1841.761 780.439" style="fill:#f2f2f2"/><path d="M1867.5,810.5l-17.5.5.5-3.5A260.4663,260.4663,0,0,1,1816,809c-10.66-.334-21.5-1.5-21.5-1.5v4h-17s-.468,20.0277,2,26c1.6528,3.9993,4.1885,9.9514,10,15,2.8347,2.4626,3.52,2.1661,13,8,10.9667,6.749,12.212,8.4767,13,10,2.6695,5.1606,1.59,10.8762,1,14a25.5663,25.5663,0,0,1-4,10,32.9848,32.9848,0,0,1-5,6h29a10.5841,10.5841,0,0,0-1-3c-5.9148-11.5-6.4614-12.2221-7-14-.1216-.4017-2.0311-7.031,1-13,1.9053-3.752,4.8564-5.4583,9-8,12.6024-7.73,18.9036-11.5952,22-15,6.9314-7.6218,8.3961-16.3862,9-20C1870.2814,822.8239,1867.5,810.5,1867.5,810.5ZM1806.8326,858c-1.4264,1.2283-10.2576-3.438-15.8326-11-3.0883-4.189-5.8326-8-7-17-.9683-7.4645-1.1674-13-1.1674-13h16s-.2719,3.19-1,7c-1.2057,6.3076.4955,11.4417,3,19C1804.2117,853.1978,1807.9012,857.08,1806.8326,858ZM1822,848a14,14,0,1,1,14-14A14,14,0,0,1,1822,848Zm38.853-18c-1.1674,9-3.9117,12.811-7,17-5.5749,7.562-14.4062,12.2283-15.8325,11-1.0687-.92,2.6209-4.8022,6-15,2.5045-7.5583,4.2057-12.6924,3-19-.7282-3.81-1-7-1-7h16S1861.8213,822.5355,1860.853,830Z" style="fill:#f2f2f2"/><ellipse cx="1822" cy="913" rx="22" ry="3" style="fill:#f2f2f2"/><rect x="1802" y="905" width="40" height="8" style="fill:#f2f2f2"/><polygon points="1847 804 1798 804 1801 799 1845 799 1847 804" style="fill:#f2f2f2"/><ellipse cx="1823" cy="799" rx="17" ry="4" style="fill:#f2f2f2"/><path d="M674.4064,207.3494c-.8412-.8363.6613-4.226,3.0733-6.1465,1.4893-1.1859,3.8934-2.2638,4.61-1.5366.7788.79-.5317,3.6176-2.305,5.3782C678.0325,206.784,675.1837,208.1224,674.4064,207.3494Z" style="fill:#f2f2f2"/><path d="M675.1747,209.6544c-.0566.8809,2.0545,1.6521,3.8416,2.305a13.1783,13.1783,0,0,0,7.6832.7683c1.4175-.3279,1.52-.66,1.5366-.7683.0982-.65-1.6677-1.4-3.8416-2.305-4.206-1.7516-5.6649-1.6029-6.1465-1.5366C677.056,208.2818,675.2263,208.8519,675.1747,209.6544Z" style="fill:#f2f2f2"/><path d="M684.3945,205.0445c.87.7154,3.5114-1.2864,3.8416-1.5367a8.0857,8.0857,0,0,0,3.0733-3.8415c.3953-1.1469.8158-3.3593,0-3.8416-1.1-.65-3.8088,2.2233-4.61,3.0732a8.801,8.801,0,0,0-2.305,3.8416C684.1962,203.4857,683.8919,204.6309,684.3945,205.0445Z" style="fill:#f2f2f2"/><path d="M683.6262,207.3494c.1314.9091,2.6583,1.2632,4.61,1.5367a18.1728,18.1728,0,0,0,5.3783,0c.8-.1313,5.2826-.8669,5.3782-2.305.0761-1.1457-2.6712-2.157-3.0733-2.3049a11.1038,11.1038,0,0,0-6.9149,0C686.8844,204.85,683.4673,206.25,683.6262,207.3494Z" style="fill:#f2f2f2"/><path d="M698.9926,185.8365c-1.3041-.0882-2.4133,2.3756-3.0733,3.8416-.3393.7537-.4924,1.2626-1.5366,7.6832-.2241,1.3781-.33,2.0718,0,2.305.7665.5424,3.1445-1.25,4.61-3.0733.6562-.8163,2.8331-3.5245,2.3049-6.9149C701.0653,188.1872,700.2094,185.9189,698.9926,185.8365Z" style="fill:#f2f2f2"/><path d="M697.4559,201.2029c.4236,1.2649,3.9815,1.1963,6.1466.7683a8.4693,8.4693,0,0,0,5.3782-3.0733c.327-.4583,1.1682-1.6377.7684-2.3049-.1151-.192-.5167-.6483-4.61,0-4.0081.6347-5.0279,1.2947-5.3782,1.5366C699.58,198.2547,697.0611,200.0238,697.4559,201.2029Z" style="fill:#f2f2f2"/><path d="M703.6025,189.6781c-.83-.0465-1.3888-2.4353-1.5366-3.8416-.1642-1.5615.1444-2.855.7683-5.3782.6178-2.4989.939-3.75,1.5366-3.8416.8291-.1267,1.9153,1.5636,2.305,3.0733.415,1.6076.0162,2.9175-.7683,5.3782C705.145,187.46,704.423,189.7241,703.6025,189.6781Z" style="fill:#f2f2f2"/><path d="M705.1391,190.4464c.3014-1.0865,1.1759-1.98,3.0733-3.0733,1.715-.9885,1.9144-.7856,5.3782-2.3049,1.5574-.6831,2.1076-.9831,2.305-.7683.4188.4556-1.2647,2.6666-2.305,3.8416a9.7608,9.7608,0,0,1-3.8415,3.0732c-1.7163.67-4.15.8815-4.61,0A1.0042,1.0042,0,0,1,705.1391,190.4464Z" style="fill:#f2f2f2"/><path d="M710.5174,180.4583c-1.09-1.7407,2.5952-5.6408,3.0732-6.1466,1.6674-1.7643,5.0619-4.6506,6.1466-3.8416.974.7265-.321,4.1292-1.5366,6.1466-.51.8461-3.1522,5.0107-6.1466,4.61A2.0975,2.0975,0,0,1,710.5174,180.4583Z" style="fill:#f2f2f2"/><path d="M706.6758,165.0919c-.6331.1987-.6868,2.184-.7683,6.1465-.0729,3.5389.075,4.8022.7683,6.1466.2852.5532,1.2315,2.3883,2.3049,2.305,1.3149-.1022,2.0938-3.0261,2.305-4.61a10.7865,10.7865,0,0,0-1.5366-6.9148C709.5215,167.778,707.7453,164.7562,706.6758,165.0919Z" style="fill:#f2f2f2"/><path d="M715.8956,168.9335c1.1441.3259,2.919-2.8014,3.0733-3.0733a14.1522,14.1522,0,0,0,1.5366-5.3782c.3228-2.1453.6533-4.342,0-4.61-.719-.2949-2.2538,1.9008-3.0733,3.0732a11.9272,11.9272,0,0,0-2.3049,4.61C714.6805,165.6976,714.8753,168.6428,715.8956,168.9335Z" style="fill:#f2f2f2"/><path d="M705.9075,155.1037c-.5472.3427.17,2.3412,1.5366,6.1466a14.9845,14.9845,0,0,0,2.305,4.61c.8263,1.0527,2.01,2.5605,3.0732,2.305,1.0763-.2587,1.6991-2.2446,1.5367-3.8416-.0977-.96-.5-1.9892-3.8416-5.3783C707.783,156.172,706.4159,154.7853,705.9075,155.1037Z" style="fill:#f2f2f2"/><path d="M715.8956,156.64c1.0042-.46,1.2265-1.7987,1.5366-3.8416a13.1018,13.1018,0,0,0,0-5.3782c-.0977-.4155-.7264-3.0868-1.5366-3.0733-.3731.0062-.6006.5787-1.5366,3.0733-1.4245,3.7964-1.4993,4.0739-1.5367,4.61-.0218.3139-.2294,3.8251,1.5367,4.61A2.0411,2.0411,0,0,0,715.8956,156.64Z" style="fill:#f2f2f2"/><path d="M702.8342,145.8839c-.6018.6613.9561,2.9783,1.5366,3.8416a15.1571,15.1571,0,0,0,3.8416,3.8416c1.605,1.21,2.4075,1.8154,3.0733,1.5366.9449-.3956,1.2544-2.3651.7683-3.8416-.5351-1.6252-1.9563-2.416-4.61-3.8415C705.6523,146.458,703.4086,145.2526,702.8342,145.8839Z" style="fill:#f2f2f2"/><path d="M712.054,145.8839c1.4357-.3139,1.5321-4.3405,1.5366-4.61a8.2078,8.2078,0,0,0-.7683-3.8416c-.5191-1.0784-1.9141-3.3309-3.0732-3.0733-1.1941.2654-1.46,3.0442-1.5367,3.8416a8.339,8.339,0,0,0,.7683,4.61C709.47,143.7981,710.886,146.1393,712.054,145.8839Z" style="fill:#f2f2f2"/><path d="M698.9926,138.969c-.3984.7434,1.753,2.5976,2.3049,3.0733a13.9951,13.9951,0,0,0,3.8416,2.305c1.6348.6726,3.3127,1.363,3.8416.7683.5746-.6461-.3724-2.623-1.5366-3.8416-1.485-1.5543-3.3631-1.9164-5.3782-2.305C700.7686,138.7189,699.2805,138.432,698.9926,138.969Z" style="fill:#f2f2f2"/><path d="M706.6758,135.8958c.8115-.4952.4309-2.4253,0-4.61a8.288,8.288,0,0,0-1.5367-3.8415c-.2724-.3351-1.4883-1.83-2.3049-1.5367-.8607.31-.8051,2.4361-.7683,3.8416a7.0363,7.0363,0,0,0,.7683,3.8416C703.7974,135.1548,705.8037,136.4279,706.6758,135.8958Z" style="fill:#f2f2f2"/><path d="M692.0777,133.5908c-.1028.8941,1.8909,1.78,3.0733,2.305a10.164,10.164,0,0,0,6.1465.7683c1.2855-.2741,1.4794-.6251,1.5367-.7683.3513-.8781-1.0707-2.3394-2.305-3.0733a7.1974,7.1974,0,0,0-4.61-.7683C695.6093,132.0861,692.2079,132.459,692.0777,133.5908Z" style="fill:#f2f2f2"/><path d="M698.9926,128.9809c.7308-.5068-.08-3.39-1.5367-5.3782a10.7058,10.7058,0,0,0-3.8415-3.0733c-1.1129-.6155-1.9368-1.0711-2.305-.7683-.6413.5273.4784,3.0432,1.5366,4.61a12.17,12.17,0,0,0,3.0733,3.0733C697.2559,128.4378,698.4721,129.3418,698.9926,128.9809Z" style="fill:#f2f2f2"/><path d="M695.9193,129.7492c-.2644.9085-3.0807.8313-5.3782.7683a26.3447,26.3447,0,0,1-5.3783-.7683c-2.2211-.4742-2.3-.6821-2.3049-.7683-.0337-.6347,3.6329-1.2458,5.3782-1.5366,3.5861-.5977,4.6439-.3261,5.3783,0C694.7766,127.96,696.1217,129.0538,695.9193,129.7492Z" style="fill:#f2f2f2"/><path d="M690.5411,123.6027c.43-1.0762-2.046-2.8869-2.305-3.0733a8.32,8.32,0,0,0-5.3782-1.5367c-.7654.061-2.1492.1713-2.305.7684-.167.64,1.1783,1.4567,3.8416,3.0732,2.0208,1.2266,2.8644,1.5259,3.8416,1.5367C688.5067,124.374,690.2249,124.3929,690.5411,123.6027Z" style="fill:#f2f2f2"/><path d="M669.1686,207.3494c.8412-.8363-.6613-4.226-3.0733-6.1465-1.4893-1.1859-3.8934-2.2638-4.61-1.5366-.7788.79.5317,3.6176,2.305,5.3782C665.5425,206.784,668.3913,208.1224,669.1686,207.3494Z" style="fill:#f2f2f2"/><path d="M668.4,209.6544c.0566.8809-2.0545,1.6521-3.8416,2.305a13.1783,13.1783,0,0,1-7.6832.7683c-1.4175-.3279-1.52-.66-1.5366-.7683-.0982-.65,1.6677-1.4,3.8416-2.305,4.206-1.7516,5.6649-1.6029,6.1465-1.5366C666.519,208.2818,668.3487,208.8519,668.4,209.6544Z" style="fill:#f2f2f2"/><path d="M659.1805,205.0445c-.87.7154-3.5114-1.2864-3.8416-1.5367a8.0851,8.0851,0,0,1-3.0733-3.8415c-.3953-1.1469-.8158-3.3593,0-3.8416,1.1-.65,3.8088,2.2233,4.61,3.0732a8.801,8.801,0,0,1,2.305,3.8416C659.3788,203.4857,659.6831,204.6309,659.1805,205.0445Z" style="fill:#f2f2f2"/><path d="M659.9488,207.3494c-.1315.9091-2.6583,1.2632-4.61,1.5367a18.1728,18.1728,0,0,1-5.3783,0c-.8-.1313-5.2826-.8669-5.3782-2.305-.0761-1.1457,2.6712-2.157,3.0733-2.3049a11.1038,11.1038,0,0,1,6.9149,0C656.6906,204.85,660.1077,206.25,659.9488,207.3494Z" style="fill:#f2f2f2"/><path d="M644.5824,185.8365c1.3041-.0882,2.4133,2.3756,3.0733,3.8416.3393.7537.4924,1.2626,1.5366,7.6832.2241,1.3781.3295,2.0718,0,2.305-.7665.5424-3.1445-1.25-4.61-3.0733-.6562-.8163-2.8331-3.5245-2.3049-6.9149C642.51,188.1872,643.3656,185.9189,644.5824,185.8365Z" style="fill:#f2f2f2"/><path d="M646.119,201.2029c-.4235,1.2649-3.9814,1.1963-6.1465.7683a8.4693,8.4693,0,0,1-5.3782-3.0733c-.327-.4583-1.1682-1.6377-.7684-2.3049.1151-.192.5167-.6483,4.61,0,4.0081.6347,5.0279,1.2947,5.3782,1.5366C643.9952,198.2547,646.5139,200.0238,646.119,201.2029Z" style="fill:#f2f2f2"/><path d="M639.9725,189.6781c.83-.0465,1.3888-2.4353,1.5366-3.8416.1642-1.5615-.1444-2.855-.7683-5.3782-.6178-2.4989-.939-3.75-1.5366-3.8416-.8291-.1267-1.9153,1.5636-2.305,3.0733-.415,1.6076-.0163,2.9175.7683,5.3782C638.43,187.46,639.152,189.7241,639.9725,189.6781Z" style="fill:#f2f2f2"/><path d="M638.4359,190.4464c-.3014-1.0865-1.1759-1.98-3.0733-3.0733-1.715-.9885-1.9144-.7856-5.3783-2.3049-1.5573-.6831-2.1075-.9831-2.3049-.7683-.4188.4556,1.2647,2.6666,2.3049,3.8416a9.7618,9.7618,0,0,0,3.8416,3.0732c1.7163.67,4.15.8815,4.61,0A1.0042,1.0042,0,0,0,638.4359,190.4464Z" style="fill:#f2f2f2"/><path d="M633.0576,180.4583c1.0905-1.7407-2.5952-5.6408-3.0733-6.1466-1.6673-1.7643-5.0618-4.6506-6.1465-3.8416-.974.7265.321,4.1292,1.5366,6.1466.51.8461,3.1522,5.0107,6.1466,4.61A2.0975,2.0975,0,0,0,633.0576,180.4583Z" style="fill:#f2f2f2"/><path d="M636.8992,165.0919c.6331.1987.6868,2.184.7683,6.1465.0729,3.5389-.075,4.8022-.7683,6.1466-.2852.5532-1.2315,2.3883-2.3049,2.305-1.3149-.1022-2.0938-3.0261-2.305-4.61a10.7865,10.7865,0,0,1,1.5366-6.9148C634.0535,167.778,635.83,164.7562,636.8992,165.0919Z" style="fill:#f2f2f2"/><path d="M627.6794,168.9335c-1.1441.3259-2.919-2.8014-3.0733-3.0733a14.1522,14.1522,0,0,1-1.5366-5.3782c-.3228-2.1453-.6533-4.342,0-4.61.719-.2949,2.2537,1.9008,3.0733,3.0732a11.9272,11.9272,0,0,1,2.3049,4.61C628.8945,165.6976,628.7,168.6428,627.6794,168.9335Z" style="fill:#f2f2f2"/><path d="M637.6675,155.1037c.5472.3427-.17,2.3412-1.5366,6.1466a14.9845,14.9845,0,0,1-2.305,4.61c-.8263,1.0527-2.01,2.5605-3.0732,2.305-1.0763-.2587-1.6991-2.2446-1.5367-3.8416.0977-.96.5-1.9892,3.8416-5.3783C635.7919,156.172,637.1591,154.7853,637.6675,155.1037Z" style="fill:#f2f2f2"/><path d="M627.6794,156.64c-1.0042-.46-1.2265-1.7987-1.5366-3.8416a13.1018,13.1018,0,0,1,0-5.3782c.0977-.4155.7264-3.0868,1.5366-3.0733.3731.0062.6006.5787,1.5366,3.0733,1.4245,3.7964,1.4993,4.0739,1.5367,4.61.0218.3139.2294,3.8251-1.5367,4.61A2.0411,2.0411,0,0,1,627.6794,156.64Z" style="fill:#f2f2f2"/><path d="M640.7408,145.8839c.6018.6613-.9561,2.9783-1.5366,3.8416a15.1571,15.1571,0,0,1-3.8416,3.8416c-1.605,1.21-2.4075,1.8154-3.0733,1.5366-.9449-.3956-1.2544-2.3651-.7683-3.8416.5351-1.6252,1.9562-2.416,4.61-3.8415C637.9227,146.458,640.1664,145.2526,640.7408,145.8839Z" style="fill:#f2f2f2"/><path d="M631.521,145.8839c-1.4357-.3139-1.5322-4.3405-1.5367-4.61a8.21,8.21,0,0,1,.7684-3.8416c.5191-1.0784,1.9141-3.3309,3.0732-3.0733,1.1941.2654,1.46,3.0442,1.5367,3.8416a8.339,8.339,0,0,1-.7683,4.61C634.1055,143.7981,632.689,146.1393,631.521,145.8839Z" style="fill:#f2f2f2"/><path d="M644.5824,138.969c.3984.7434-1.753,2.5976-2.3049,3.0733a13.9969,13.9969,0,0,1-3.8416,2.305c-1.6348.6726-3.3127,1.363-3.8416.7683-.5746-.6461.3724-2.623,1.5366-3.8416,1.485-1.5543,3.3631-1.9164,5.3782-2.305C642.8064,138.7189,644.2945,138.432,644.5824,138.969Z" style="fill:#f2f2f2"/><path d="M636.8992,135.8958c-.8115-.4952-.4309-2.4253,0-4.61a8.288,8.288,0,0,1,1.5367-3.8415c.2724-.3351,1.4883-1.83,2.3049-1.5367.8607.31.8051,2.4361.7683,3.8416a7.0363,7.0363,0,0,1-.7683,3.8416C639.7776,135.1548,637.7713,136.4279,636.8992,135.8958Z" style="fill:#f2f2f2"/><path d="M651.4973,133.5908c.1028.8941-1.8909,1.78-3.0733,2.305a10.164,10.164,0,0,1-6.1465.7683c-1.2855-.2741-1.4794-.6251-1.5367-.7683-.3513-.8781,1.0707-2.3394,2.305-3.0733a7.1974,7.1974,0,0,1,4.61-.7683C647.9657,132.0861,651.3671,132.459,651.4973,133.5908Z" style="fill:#f2f2f2"/><path d="M644.5824,128.9809c-.7308-.5068.08-3.39,1.5366-5.3782a10.7069,10.7069,0,0,1,3.8416-3.0733c1.1129-.6155,1.9368-1.0711,2.305-.7683.6413.5273-.4784,3.0432-1.5366,4.61a12.17,12.17,0,0,1-3.0733,3.0733C646.3191,128.4378,645.1029,129.3418,644.5824,128.9809Z" style="fill:#f2f2f2"/><path d="M647.6557,129.7492c.2644.9085,3.0807.8313,5.3782.7683a26.3447,26.3447,0,0,0,5.3783-.7683c2.2211-.4742,2.3-.6821,2.3049-.7683.0337-.6347-3.6329-1.2458-5.3782-1.5366-3.5861-.5977-4.6439-.3261-5.3783,0C648.7984,127.96,647.4533,129.0538,647.6557,129.7492Z" style="fill:#f2f2f2"/><path d="M653.0339,123.6027c-.4305-1.0762,2.046-2.8869,2.305-3.0733a8.32,8.32,0,0,1,5.3782-1.5367c.7654.061,2.1492.1713,2.305.7684.167.64-1.1783,1.4567-3.8416,3.0732-2.0208,1.2266-2.8644,1.5259-3.8416,1.5367C655.0683,124.374,653.35,124.3929,653.0339,123.6027Z" style="fill:#f2f2f2"/><path d="M867.4064,539.3494c-.8412-.8363.6613-4.226,3.0733-6.1465,1.4893-1.1859,3.8934-2.2638,4.61-1.5366.7788.79-.5317,3.6176-2.305,5.3782C871.0325,538.784,868.1837,540.1224,867.4064,539.3494Z" style="fill:#f2f2f2"/><path d="M868.1747,541.6544c-.0566.8809,2.0545,1.6521,3.8416,2.305a13.1783,13.1783,0,0,0,7.6832.7683c1.4175-.3279,1.52-.66,1.5366-.7683.0982-.65-1.6677-1.4-3.8416-2.305-4.206-1.7516-5.6649-1.6029-6.1465-1.5366C870.056,540.2818,868.2263,540.8519,868.1747,541.6544Z" style="fill:#f2f2f2"/><path d="M877.3945,537.0445c.87.7154,3.5114-1.2864,3.8416-1.5367a8.0857,8.0857,0,0,0,3.0733-3.8415c.3953-1.1469.8158-3.3593,0-3.8416-1.1-.65-3.8088,2.2233-4.61,3.0732a8.801,8.801,0,0,0-2.305,3.8416C877.1962,535.4857,876.8919,536.6309,877.3945,537.0445Z" style="fill:#f2f2f2"/><path d="M876.6262,539.3494c.1314.9091,2.6583,1.2632,4.61,1.5367a18.1728,18.1728,0,0,0,5.3783,0c.8-.1313,5.2826-.8669,5.3782-2.305.0761-1.1457-2.6712-2.157-3.0733-2.3049a11.1038,11.1038,0,0,0-6.9149,0C879.8844,536.85,876.4673,538.25,876.6262,539.3494Z" style="fill:#f2f2f2"/><path d="M891.9926,517.8365c-1.3041-.0882-2.4133,2.3756-3.0733,3.8416-.3393.7537-.4924,1.2626-1.5366,7.6832-.2241,1.3781-.33,2.0718,0,2.305.7665.5424,3.1445-1.25,4.61-3.0733.6562-.8163,2.8331-3.5245,2.3049-6.9149C894.0653,520.1872,893.2094,517.9189,891.9926,517.8365Z" style="fill:#f2f2f2"/><path d="M890.4559,533.2029c.4236,1.2649,3.9815,1.1963,6.1466.7683a8.4693,8.4693,0,0,0,5.3782-3.0733c.327-.4583,1.1682-1.6377.7684-2.3049-.1151-.192-.5167-.6483-4.61,0-4.0081.6347-5.0279,1.2947-5.3782,1.5366C892.58,530.2547,890.0611,532.0238,890.4559,533.2029Z" style="fill:#f2f2f2"/><path d="M896.6025,521.6781c-.83-.0465-1.3888-2.4353-1.5366-3.8416-.1642-1.5615.1444-2.855.7683-5.3782.6178-2.4989.939-3.75,1.5366-3.8416.8291-.1267,1.9153,1.5636,2.305,3.0733.415,1.6076.0162,2.9175-.7683,5.3782C898.145,519.46,897.423,521.7241,896.6025,521.6781Z" style="fill:#f2f2f2"/><path d="M898.1391,522.4464c.3014-1.0865,1.1759-1.98,3.0733-3.0733,1.715-.9885,1.9144-.7856,5.3782-2.3049,1.5574-.6831,2.1076-.9831,2.305-.7683.4188.4556-1.2647,2.6666-2.305,3.8416a9.7608,9.7608,0,0,1-3.8415,3.0732c-1.7163.67-4.15.8815-4.61,0A1.0042,1.0042,0,0,1,898.1391,522.4464Z" style="fill:#f2f2f2"/><path d="M903.5174,512.4583c-1.09-1.7407,2.5952-5.6408,3.0732-6.1466,1.6674-1.7643,5.0619-4.6506,6.1466-3.8416.974.7265-.321,4.1292-1.5366,6.1466-.51.8461-3.1522,5.0107-6.1466,4.61A2.0975,2.0975,0,0,1,903.5174,512.4583Z" style="fill:#f2f2f2"/><path d="M899.6758,497.0919c-.6331.1987-.6868,2.184-.7683,6.1465-.0729,3.5389.075,4.8022.7683,6.1466.2852.5532,1.2315,2.3883,2.3049,2.305,1.3149-.1022,2.0938-3.0261,2.305-4.61a10.7865,10.7865,0,0,0-1.5366-6.9148C902.5215,499.778,900.7453,496.7562,899.6758,497.0919Z" style="fill:#f2f2f2"/><path d="M908.8956,500.9335c1.1441.3259,2.919-2.8014,3.0733-3.0733a14.1522,14.1522,0,0,0,1.5366-5.3782c.3228-2.1453.6533-4.342,0-4.61-.719-.2949-2.2538,1.9008-3.0733,3.0732a11.9272,11.9272,0,0,0-2.3049,4.61C907.6805,497.6976,907.8753,500.6428,908.8956,500.9335Z" style="fill:#f2f2f2"/><path d="M898.9075,487.1037c-.5472.3427.17,2.3412,1.5366,6.1466a14.9845,14.9845,0,0,0,2.305,4.61c.8263,1.0527,2.01,2.56,3.0732,2.305,1.0763-.2587,1.6991-2.2446,1.5367-3.8416-.0977-.96-.5-1.9892-3.8416-5.3783C900.783,488.172,899.4159,486.7853,898.9075,487.1037Z" style="fill:#f2f2f2"/><path d="M908.8956,488.64c1.0042-.46,1.2265-1.7987,1.5366-3.8416a13.1018,13.1018,0,0,0,0-5.3782c-.0977-.4155-.7264-3.0868-1.5366-3.0733-.3731.0062-.6006.5787-1.5366,3.0733-1.4245,3.7964-1.4993,4.0739-1.5367,4.61-.0218.3139-.2294,3.8251,1.5367,4.61A2.0411,2.0411,0,0,0,908.8956,488.64Z" style="fill:#f2f2f2"/><path d="M895.8342,477.8839c-.6018.6613.9561,2.9783,1.5366,3.8416a15.1571,15.1571,0,0,0,3.8416,3.8416c1.605,1.21,2.4075,1.8154,3.0733,1.5366.9449-.3956,1.2544-2.3651.7683-3.8416-.5351-1.6252-1.9563-2.416-4.61-3.8415C898.6523,478.458,896.4086,477.2526,895.8342,477.8839Z" style="fill:#f2f2f2"/><path d="M905.054,477.8839c1.4357-.3139,1.5321-4.34,1.5366-4.61a8.2078,8.2078,0,0,0-.7683-3.8416c-.5191-1.0784-1.9141-3.3309-3.0732-3.0733-1.1941.2654-1.46,3.0442-1.5367,3.8416a8.339,8.339,0,0,0,.7683,4.61C902.47,475.7981,903.886,478.1393,905.054,477.8839Z" style="fill:#f2f2f2"/><path d="M891.9926,470.969c-.3984.7434,1.753,2.5976,2.3049,3.0733a13.9951,13.9951,0,0,0,3.8416,2.305c1.6348.6726,3.3127,1.363,3.8416.7683.5746-.6461-.3724-2.623-1.5366-3.8416-1.485-1.5543-3.3631-1.9164-5.3782-2.305C893.7686,470.7189,892.2805,470.432,891.9926,470.969Z" style="fill:#f2f2f2"/><path d="M899.6758,467.8958c.8115-.4952.4309-2.4253,0-4.61a8.288,8.288,0,0,0-1.5367-3.8415c-.2724-.3351-1.4883-1.83-2.3049-1.5367-.8607.31-.8051,2.4361-.7683,3.8416a7.0363,7.0363,0,0,0,.7683,3.8416C896.7974,467.1548,898.8037,468.4279,899.6758,467.8958Z" style="fill:#f2f2f2"/><path d="M885.0777,465.5908c-.1028.8941,1.8909,1.78,3.0733,2.305a10.164,10.164,0,0,0,6.1465.7683c1.2855-.2741,1.4794-.6251,1.5367-.7683.3513-.8781-1.0707-2.3394-2.305-3.0733a7.1974,7.1974,0,0,0-4.61-.7683C888.6093,464.0861,885.2079,464.459,885.0777,465.5908Z" style="fill:#f2f2f2"/><path d="M891.9926,460.9809c.7308-.5068-.08-3.39-1.5367-5.3782a10.7058,10.7058,0,0,0-3.8415-3.0733c-1.1129-.6155-1.9368-1.0711-2.305-.7683-.6413.5273.4784,3.0432,1.5366,4.61a12.17,12.17,0,0,0,3.0733,3.0733C890.2559,460.4378,891.4721,461.3418,891.9926,460.9809Z" style="fill:#f2f2f2"/><path d="M888.9193,461.7492c-.2644.9085-3.0807.8313-5.3782.7683a26.3447,26.3447,0,0,1-5.3783-.7683c-2.2211-.4742-2.3-.6821-2.3049-.7683-.0337-.6347,3.6329-1.2458,5.3782-1.5366,3.5861-.5977,4.6439-.3261,5.3783,0C887.7766,459.96,889.1217,461.0538,888.9193,461.7492Z" style="fill:#f2f2f2"/><path d="M883.5411,455.6027c.43-1.0762-2.046-2.8869-2.305-3.0733a8.32,8.32,0,0,0-5.3782-1.5367c-.7654.061-2.1492.1713-2.305.7684-.167.64,1.1783,1.4567,3.8416,3.0732,2.0208,1.2266,2.8644,1.5259,3.8416,1.5367C881.5067,456.374,883.2249,456.3929,883.5411,455.6027Z" style="fill:#f2f2f2"/><path d="M862.1686,539.3494c.8412-.8363-.6613-4.226-3.0733-6.1465-1.4893-1.1859-3.8934-2.2638-4.61-1.5366-.7788.79.5317,3.6176,2.305,5.3782C858.5425,538.784,861.3913,540.1224,862.1686,539.3494Z" style="fill:#f2f2f2"/><path d="M861.4,541.6544c.0566.8809-2.0545,1.6521-3.8416,2.305a13.1783,13.1783,0,0,1-7.6832.7683c-1.4175-.3279-1.52-.66-1.5366-.7683-.0982-.65,1.6677-1.4,3.8416-2.305,4.206-1.7516,5.6649-1.6029,6.1465-1.5366C859.519,540.2818,861.3487,540.8519,861.4,541.6544Z" style="fill:#f2f2f2"/><path d="M852.1805,537.0445c-.87.7154-3.5114-1.2864-3.8416-1.5367a8.0851,8.0851,0,0,1-3.0733-3.8415c-.3953-1.1469-.8158-3.3593,0-3.8416,1.1-.65,3.8088,2.2233,4.61,3.0732a8.801,8.801,0,0,1,2.305,3.8416C852.3788,535.4857,852.6831,536.6309,852.1805,537.0445Z" style="fill:#f2f2f2"/><path d="M852.9488,539.3494c-.1315.9091-2.6583,1.2632-4.61,1.5367a18.1728,18.1728,0,0,1-5.3783,0c-.8-.1313-5.2826-.8669-5.3782-2.305-.0761-1.1457,2.6712-2.157,3.0733-2.3049a11.1038,11.1038,0,0,1,6.9149,0C849.6906,536.85,853.1077,538.25,852.9488,539.3494Z" style="fill:#f2f2f2"/><path d="M837.5824,517.8365c1.3041-.0882,2.4133,2.3756,3.0733,3.8416.3393.7537.4924,1.2626,1.5366,7.6832.2241,1.3781.3295,2.0718,0,2.305-.7665.5424-3.1445-1.25-4.61-3.0733-.6562-.8163-2.8331-3.5245-2.3049-6.9149C835.51,520.1872,836.3656,517.9189,837.5824,517.8365Z" style="fill:#f2f2f2"/><path d="M839.119,533.2029c-.4235,1.2649-3.9814,1.1963-6.1465.7683a8.4693,8.4693,0,0,1-5.3782-3.0733c-.327-.4583-1.1682-1.6377-.7684-2.3049.1151-.192.5167-.6483,4.61,0,4.0081.6347,5.0279,1.2947,5.3782,1.5366C836.9952,530.2547,839.5139,532.0238,839.119,533.2029Z" style="fill:#f2f2f2"/><path d="M832.9725,521.6781c.83-.0465,1.3888-2.4353,1.5366-3.8416.1642-1.5615-.1444-2.855-.7683-5.3782-.6178-2.4989-.939-3.75-1.5366-3.8416-.8291-.1267-1.9153,1.5636-2.305,3.0733-.415,1.6076-.0163,2.9175.7683,5.3782C831.43,519.46,832.152,521.7241,832.9725,521.6781Z" style="fill:#f2f2f2"/><path d="M831.4359,522.4464c-.3014-1.0865-1.1759-1.98-3.0733-3.0733-1.715-.9885-1.9144-.7856-5.3783-2.3049-1.5573-.6831-2.1075-.9831-2.3049-.7683-.4188.4556,1.2647,2.6666,2.3049,3.8416a9.7618,9.7618,0,0,0,3.8416,3.0732c1.7163.67,4.15.8815,4.61,0A1.0042,1.0042,0,0,0,831.4359,522.4464Z" style="fill:#f2f2f2"/><path d="M826.0576,512.4583c1.0905-1.7407-2.5952-5.6408-3.0733-6.1466-1.6673-1.7643-5.0618-4.6506-6.1465-3.8416-.974.7265.321,4.1292,1.5366,6.1466.51.8461,3.1522,5.0107,6.1466,4.61A2.0975,2.0975,0,0,0,826.0576,512.4583Z" style="fill:#f2f2f2"/><path d="M829.8992,497.0919c.6331.1987.6868,2.184.7683,6.1465.0729,3.5389-.075,4.8022-.7683,6.1466-.2852.5532-1.2315,2.3883-2.3049,2.305-1.3149-.1022-2.0938-3.0261-2.305-4.61a10.7865,10.7865,0,0,1,1.5366-6.9148C827.0535,499.778,828.83,496.7562,829.8992,497.0919Z" style="fill:#f2f2f2"/><path d="M820.6794,500.9335c-1.1441.3259-2.919-2.8014-3.0733-3.0733a14.1522,14.1522,0,0,1-1.5366-5.3782c-.3228-2.1453-.6533-4.342,0-4.61.719-.2949,2.2537,1.9008,3.0733,3.0732a11.9272,11.9272,0,0,1,2.3049,4.61C821.8945,497.6976,821.7,500.6428,820.6794,500.9335Z" style="fill:#f2f2f2"/><path d="M830.6675,487.1037c.5472.3427-.17,2.3412-1.5366,6.1466a14.9845,14.9845,0,0,1-2.305,4.61c-.8263,1.0527-2.01,2.56-3.0732,2.305-1.0763-.2587-1.6991-2.2446-1.5367-3.8416.0977-.96.5-1.9892,3.8416-5.3783C828.7919,488.172,830.1591,486.7853,830.6675,487.1037Z" style="fill:#f2f2f2"/><path d="M820.6794,488.64c-1.0042-.46-1.2265-1.7987-1.5366-3.8416a13.1018,13.1018,0,0,1,0-5.3782c.0977-.4155.7264-3.0868,1.5366-3.0733.3731.0062.6006.5787,1.5366,3.0733,1.4245,3.7964,1.4993,4.0739,1.5367,4.61.0218.3139.2294,3.8251-1.5367,4.61A2.0411,2.0411,0,0,1,820.6794,488.64Z" style="fill:#f2f2f2"/><path d="M833.7408,477.8839c.6018.6613-.9561,2.9783-1.5366,3.8416a15.1571,15.1571,0,0,1-3.8416,3.8416c-1.605,1.21-2.4075,1.8154-3.0733,1.5366-.9449-.3956-1.2544-2.3651-.7683-3.8416.5351-1.6252,1.9562-2.416,4.61-3.8415C830.9227,478.458,833.1664,477.2526,833.7408,477.8839Z" style="fill:#f2f2f2"/><path d="M824.521,477.8839c-1.4357-.3139-1.5322-4.34-1.5367-4.61a8.21,8.21,0,0,1,.7684-3.8416c.5191-1.0784,1.9141-3.3309,3.0732-3.0733,1.1941.2654,1.46,3.0442,1.5367,3.8416a8.339,8.339,0,0,1-.7683,4.61C827.1055,475.7981,825.689,478.1393,824.521,477.8839Z" style="fill:#f2f2f2"/><path d="M837.5824,470.969c.3984.7434-1.753,2.5976-2.3049,3.0733a13.9969,13.9969,0,0,1-3.8416,2.305c-1.6348.6726-3.3127,1.363-3.8416.7683-.5746-.6461.3724-2.623,1.5366-3.8416,1.485-1.5543,3.3631-1.9164,5.3782-2.305C835.8064,470.7189,837.2945,470.432,837.5824,470.969Z" style="fill:#f2f2f2"/><path d="M829.8992,467.8958c-.8115-.4952-.4309-2.4253,0-4.61a8.288,8.288,0,0,1,1.5367-3.8415c.2724-.3351,1.4883-1.83,2.3049-1.5367.8607.31.8051,2.4361.7683,3.8416a7.0363,7.0363,0,0,1-.7683,3.8416C832.7776,467.1548,830.7713,468.4279,829.8992,467.8958Z" style="fill:#f2f2f2"/><path d="M844.4973,465.5908c.1028.8941-1.8909,1.78-3.0733,2.305a10.164,10.164,0,0,1-6.1465.7683c-1.2855-.2741-1.4794-.6251-1.5367-.7683-.3513-.8781,1.0707-2.3394,2.305-3.0733a7.1974,7.1974,0,0,1,4.61-.7683C840.9657,464.0861,844.3671,464.459,844.4973,465.5908Z" style="fill:#f2f2f2"/><path d="M837.5824,460.9809c-.7308-.5068.08-3.39,1.5366-5.3782a10.7069,10.7069,0,0,1,3.8416-3.0733c1.1129-.6155,1.9368-1.0711,2.305-.7683.6413.5273-.4784,3.0432-1.5366,4.61a12.17,12.17,0,0,1-3.0733,3.0733C839.3191,460.4378,838.1029,461.3418,837.5824,460.9809Z" style="fill:#f2f2f2"/><path d="M840.6557,461.7492c.2644.9085,3.0807.8313,5.3782.7683a26.3447,26.3447,0,0,0,5.3783-.7683c2.2211-.4742,2.3-.6821,2.3049-.7683.0337-.6347-3.6329-1.2458-5.3782-1.5366-3.5861-.5977-4.6439-.3261-5.3783,0C841.7984,459.96,840.4533,461.0538,840.6557,461.7492Z" style="fill:#f2f2f2"/><path d="M846.0339,455.6027c-.4305-1.0762,2.046-2.8869,2.305-3.0733a8.32,8.32,0,0,1,5.3782-1.5367c.7654.061,2.1492.1713,2.305.7684.167.64-1.1783,1.4567-3.8416,3.0732-2.0208,1.2266-2.8644,1.5259-3.8416,1.5367C848.0683,456.374,846.35,456.3929,846.0339,455.6027Z" style="fill:#f2f2f2"/><path d="M1445.4064,871.3494c-.8412-.8363.6613-4.226,3.0733-6.1465,1.4893-1.1859,3.8934-2.2638,4.61-1.5366.7788.79-.5317,3.6176-2.305,5.3782C1449.0325,870.784,1446.1837,872.1224,1445.4064,871.3494Z" style="fill:#f2f2f2"/><path d="M1446.1747,873.6544c-.0566.8809,2.0545,1.6521,3.8416,2.305a13.1783,13.1783,0,0,0,7.6832.7683c1.4175-.3279,1.52-.66,1.5366-.7683.0982-.65-1.6677-1.4-3.8416-2.305-4.206-1.7516-5.6649-1.6029-6.1465-1.5366C1448.056,872.2818,1446.2263,872.8519,1446.1747,873.6544Z" style="fill:#f2f2f2"/><path d="M1455.3945,869.0445c.8695.7154,3.5114-1.2864,3.8416-1.5367a8.0857,8.0857,0,0,0,3.0733-3.8415c.3953-1.1469.8158-3.3593,0-3.8416-1.1-.65-3.8088,2.2233-4.61,3.0732a8.801,8.801,0,0,0-2.305,3.8416C1455.1962,867.4857,1454.8919,868.6309,1455.3945,869.0445Z" style="fill:#f2f2f2"/><path d="M1454.6262,871.3494c.1314.9091,2.6583,1.2632,4.61,1.5367a18.1728,18.1728,0,0,0,5.3783,0c.8-.1313,5.2826-.8669,5.3782-2.305.0761-1.1457-2.6712-2.157-3.0733-2.3049a11.1038,11.1038,0,0,0-6.9149,0C1457.8844,868.85,1454.4673,870.25,1454.6262,871.3494Z" style="fill:#f2f2f2"/><path d="M1469.9926,849.8365c-1.3041-.0882-2.4133,2.3756-3.0733,3.8416-.3393.7537-.4924,1.2626-1.5366,7.6832-.2241,1.3781-.33,2.0718,0,2.305.7665.5424,3.1445-1.25,4.61-3.0733.6562-.8163,2.8331-3.5245,2.3049-6.9149C1472.0653,852.1872,1471.2094,849.9189,1469.9926,849.8365Z" style="fill:#f2f2f2"/><path d="M1468.4559,865.2029c.4236,1.2649,3.9815,1.1963,6.1466.7683a8.4693,8.4693,0,0,0,5.3782-3.0733c.327-.4583,1.1682-1.6377.7684-2.3049-.1151-.192-.5167-.6483-4.61,0-4.0081.6347-5.0279,1.2947-5.3782,1.5366C1470.58,862.2547,1468.0611,864.0238,1468.4559,865.2029Z" style="fill:#f2f2f2"/><path d="M1474.6025,853.6781c-.83-.0465-1.3888-2.4353-1.5366-3.8416-.1642-1.5615.1444-2.855.7683-5.3782.6178-2.4989.939-3.75,1.5366-3.8416.8291-.1267,1.9153,1.5636,2.305,3.0733.415,1.6076.0162,2.9175-.7683,5.3782C1476.145,851.46,1475.423,853.7241,1474.6025,853.6781Z" style="fill:#f2f2f2"/><path d="M1476.1391,854.4464c.3014-1.0865,1.1759-1.98,3.0733-3.0733,1.715-.9885,1.9144-.7856,5.3782-2.3049,1.5574-.6831,2.1076-.9831,2.305-.7683.4188.4556-1.2647,2.6666-2.305,3.8416a9.7608,9.7608,0,0,1-3.8415,3.0732c-1.7163.67-4.15.8815-4.61,0A1.0042,1.0042,0,0,1,1476.1391,854.4464Z" style="fill:#f2f2f2"/><path d="M1481.5174,844.4583c-1.0905-1.7407,2.5952-5.6408,3.0732-6.1466,1.6674-1.7643,5.0619-4.6506,6.1466-3.8416.974.7265-.321,4.1292-1.5366,6.1466-.51.8461-3.1522,5.0107-6.1466,4.61A2.0975,2.0975,0,0,1,1481.5174,844.4583Z" style="fill:#f2f2f2"/><path d="M1477.6758,829.0919c-.6331.1987-.6868,2.184-.7683,6.1465-.0729,3.5389.075,4.8022.7683,6.1466.2852.5532,1.2315,2.3883,2.3049,2.305,1.3149-.1022,2.0938-3.0261,2.305-4.61a10.7865,10.7865,0,0,0-1.5366-6.9148C1480.5215,831.778,1478.7453,828.7562,1477.6758,829.0919Z" style="fill:#f2f2f2"/><path d="M1486.8956,832.9335c1.1441.3259,2.919-2.8014,3.0733-3.0733a14.1522,14.1522,0,0,0,1.5366-5.3782c.3228-2.1453.6533-4.342,0-4.61-.719-.2949-2.2538,1.9008-3.0733,3.0732a11.9272,11.9272,0,0,0-2.3049,4.61C1485.6805,829.6976,1485.8753,832.6428,1486.8956,832.9335Z" style="fill:#f2f2f2"/><path d="M1476.9075,819.1037c-.5472.3427.17,2.3412,1.5366,6.1466a14.9845,14.9845,0,0,0,2.305,4.61c.8263,1.0527,2.01,2.5605,3.0732,2.305,1.0763-.2587,1.6991-2.2446,1.5367-3.8416-.0977-.96-.5-1.9892-3.8416-5.3783C1478.783,820.172,1477.4159,818.7853,1476.9075,819.1037Z" style="fill:#f2f2f2"/><path d="M1486.8956,820.64c1.0042-.46,1.2265-1.7987,1.5366-3.8416a13.1018,13.1018,0,0,0,0-5.3782c-.0977-.4155-.7264-3.0868-1.5366-3.0733-.3731.0062-.6006.5787-1.5366,3.0733-1.4245,3.7964-1.4993,4.0739-1.5367,4.61-.0218.3139-.2294,3.8251,1.5367,4.61A2.0411,2.0411,0,0,0,1486.8956,820.64Z" style="fill:#f2f2f2"/><path d="M1473.8342,809.8839c-.6018.6613.9561,2.9783,1.5366,3.8416a15.1571,15.1571,0,0,0,3.8416,3.8416c1.605,1.21,2.4075,1.8154,3.0733,1.5366.9449-.3956,1.2544-2.3651.7683-3.8416-.5351-1.6252-1.9563-2.416-4.61-3.8415C1476.6523,810.458,1474.4086,809.2526,1473.8342,809.8839Z" style="fill:#f2f2f2"/><path d="M1483.054,809.8839c1.4357-.3139,1.5321-4.3405,1.5366-4.61a8.2078,8.2078,0,0,0-.7683-3.8416c-.5191-1.0784-1.9141-3.3309-3.0732-3.0733-1.1941.2654-1.46,3.0442-1.5367,3.8416a8.339,8.339,0,0,0,.7683,4.61C1480.47,807.7981,1481.886,810.1393,1483.054,809.8839Z" style="fill:#f2f2f2"/><path d="M1469.9926,802.969c-.3984.7434,1.753,2.5976,2.3049,3.0733a13.9951,13.9951,0,0,0,3.8416,2.305c1.6348.6726,3.3127,1.363,3.8416.7683.5746-.6461-.3724-2.623-1.5366-3.8416-1.485-1.5543-3.3631-1.9164-5.3782-2.305C1471.7686,802.7189,1470.2805,802.432,1469.9926,802.969Z" style="fill:#f2f2f2"/><path d="M1477.6758,799.8958c.8115-.4952.4309-2.4253,0-4.61a8.288,8.288,0,0,0-1.5367-3.8415c-.2724-.3351-1.4883-1.83-2.3049-1.5367-.8607.31-.8051,2.4361-.7683,3.8416a7.0363,7.0363,0,0,0,.7683,3.8416C1474.7974,799.1548,1476.8037,800.4279,1477.6758,799.8958Z" style="fill:#f2f2f2"/><path d="M1463.0777,797.5908c-.1028.8941,1.8909,1.78,3.0733,2.305a10.164,10.164,0,0,0,6.1465.7683c1.2855-.2741,1.4794-.6251,1.5367-.7683.3513-.8781-1.0707-2.3394-2.305-3.0733a7.1974,7.1974,0,0,0-4.61-.7683C1466.6093,796.0861,1463.2079,796.459,1463.0777,797.5908Z" style="fill:#f2f2f2"/><path d="M1469.9926,792.9809c.7308-.5068-.08-3.39-1.5367-5.3782a10.7058,10.7058,0,0,0-3.8415-3.0733c-1.1129-.6155-1.9368-1.0711-2.305-.7683-.6413.5273.4784,3.0432,1.5366,4.61a12.17,12.17,0,0,0,3.0733,3.0733C1468.2559,792.4378,1469.4721,793.3418,1469.9926,792.9809Z" style="fill:#f2f2f2"/><path d="M1466.9193,793.7492c-.2644.9085-3.0807.8313-5.3782.7683a26.3447,26.3447,0,0,1-5.3783-.7683c-2.2211-.4742-2.3-.6821-2.3049-.7683-.0337-.6347,3.6329-1.2458,5.3782-1.5366,3.5861-.5977,4.6439-.3261,5.3783,0C1465.7766,791.96,1467.1217,793.0538,1466.9193,793.7492Z" style="fill:#f2f2f2"/><path d="M1461.5411,787.6027c.4305-1.0762-2.046-2.8869-2.305-3.0733a8.32,8.32,0,0,0-5.3782-1.5367c-.7654.061-2.1492.1713-2.305.7684-.167.64,1.1783,1.4567,3.8416,3.0732,2.0208,1.2266,2.8644,1.5259,3.8416,1.5367C1459.5067,788.374,1461.2249,788.3929,1461.5411,787.6027Z" style="fill:#f2f2f2"/><path d="M1440.1686,871.3494c.8412-.8363-.6613-4.226-3.0733-6.1465-1.4893-1.1859-3.8934-2.2638-4.61-1.5366-.7788.79.5317,3.6176,2.305,5.3782C1436.5425,870.784,1439.3913,872.1224,1440.1686,871.3494Z" style="fill:#f2f2f2"/><path d="M1439.4,873.6544c.0566.8809-2.0545,1.6521-3.8416,2.305a13.1783,13.1783,0,0,1-7.6832.7683c-1.4175-.3279-1.52-.66-1.5366-.7683-.0982-.65,1.6677-1.4,3.8416-2.305,4.206-1.7516,5.6649-1.6029,6.1465-1.5366C1437.519,872.2818,1439.3487,872.8519,1439.4,873.6544Z" style="fill:#f2f2f2"/><path d="M1430.1805,869.0445c-.87.7154-3.5114-1.2864-3.8416-1.5367a8.0851,8.0851,0,0,1-3.0733-3.8415c-.3953-1.1469-.8158-3.3593,0-3.8416,1.1-.65,3.8088,2.2233,4.61,3.0732a8.801,8.801,0,0,1,2.305,3.8416C1430.3788,867.4857,1430.6831,868.6309,1430.1805,869.0445Z" style="fill:#f2f2f2"/><path d="M1430.9488,871.3494c-.1315.9091-2.6583,1.2632-4.61,1.5367a18.1728,18.1728,0,0,1-5.3783,0c-.8-.1313-5.2826-.8669-5.3782-2.305-.0761-1.1457,2.6712-2.157,3.0733-2.3049a11.1038,11.1038,0,0,1,6.9149,0C1427.6906,868.85,1431.1077,870.25,1430.9488,871.3494Z" style="fill:#f2f2f2"/><path d="M1415.5824,849.8365c1.3041-.0882,2.4133,2.3756,3.0733,3.8416.3393.7537.4924,1.2626,1.5366,7.6832.2241,1.3781.33,2.0718,0,2.305-.7665.5424-3.1445-1.25-4.61-3.0733-.6562-.8163-2.8331-3.5245-2.3049-6.9149C1413.51,852.1872,1414.3656,849.9189,1415.5824,849.8365Z" style="fill:#f2f2f2"/><path d="M1417.119,865.2029c-.4235,1.2649-3.9814,1.1963-6.1465.7683a8.4693,8.4693,0,0,1-5.3782-3.0733c-.327-.4583-1.1682-1.6377-.7684-2.3049.1151-.192.5167-.6483,4.61,0,4.0081.6347,5.0279,1.2947,5.3782,1.5366C1414.9952,862.2547,1417.5139,864.0238,1417.119,865.2029Z" style="fill:#f2f2f2"/><path d="M1410.9725,853.6781c.83-.0465,1.3888-2.4353,1.5366-3.8416.1642-1.5615-.1444-2.855-.7683-5.3782-.6178-2.4989-.939-3.75-1.5366-3.8416-.8291-.1267-1.9153,1.5636-2.305,3.0733-.415,1.6076-.0163,2.9175.7683,5.3782C1409.43,851.46,1410.152,853.7241,1410.9725,853.6781Z" style="fill:#f2f2f2"/><path d="M1409.4359,854.4464c-.3014-1.0865-1.1759-1.98-3.0733-3.0733-1.715-.9885-1.9144-.7856-5.3783-2.3049-1.5573-.6831-2.1075-.9831-2.3049-.7683-.4188.4556,1.2647,2.6666,2.3049,3.8416a9.7618,9.7618,0,0,0,3.8416,3.0732c1.7163.67,4.15.8815,4.61,0A1.0042,1.0042,0,0,0,1409.4359,854.4464Z" style="fill:#f2f2f2"/><path d="M1404.0576,844.4583c1.0905-1.7407-2.5952-5.6408-3.0733-6.1466-1.6673-1.7643-5.0618-4.6506-6.1465-3.8416-.974.7265.321,4.1292,1.5366,6.1466.51.8461,3.1522,5.0107,6.1466,4.61A2.0975,2.0975,0,0,0,1404.0576,844.4583Z" style="fill:#f2f2f2"/><path d="M1407.8992,829.0919c.6331.1987.6868,2.184.7683,6.1465.0729,3.5389-.075,4.8022-.7683,6.1466-.2852.5532-1.2315,2.3883-2.3049,2.305-1.3149-.1022-2.0938-3.0261-2.305-4.61a10.7865,10.7865,0,0,1,1.5366-6.9148C1405.0535,831.778,1406.83,828.7562,1407.8992,829.0919Z" style="fill:#f2f2f2"/><path d="M1398.6794,832.9335c-1.1441.3259-2.919-2.8014-3.0733-3.0733a14.1522,14.1522,0,0,1-1.5366-5.3782c-.3228-2.1453-.6533-4.342,0-4.61.719-.2949,2.2537,1.9008,3.0733,3.0732a11.9272,11.9272,0,0,1,2.3049,4.61C1399.8945,829.6976,1399.7,832.6428,1398.6794,832.9335Z" style="fill:#f2f2f2"/><path d="M1408.6675,819.1037c.5472.3427-.17,2.3412-1.5366,6.1466a14.9845,14.9845,0,0,1-2.305,4.61c-.8263,1.0527-2.01,2.5605-3.0732,2.305-1.0763-.2587-1.6991-2.2446-1.5367-3.8416.0977-.96.5-1.9892,3.8416-5.3783C1406.7919,820.172,1408.1591,818.7853,1408.6675,819.1037Z" style="fill:#f2f2f2"/><path d="M1398.6794,820.64c-1.0042-.46-1.2265-1.7987-1.5366-3.8416a13.1018,13.1018,0,0,1,0-5.3782c.0977-.4155.7264-3.0868,1.5366-3.0733.3731.0062.6006.5787,1.5366,3.0733,1.4245,3.7964,1.4993,4.0739,1.5367,4.61.0218.3139.2294,3.8251-1.5367,4.61A2.0411,2.0411,0,0,1,1398.6794,820.64Z" style="fill:#f2f2f2"/><path d="M1411.7408,809.8839c.6018.6613-.9561,2.9783-1.5366,3.8416a15.1571,15.1571,0,0,1-3.8416,3.8416c-1.605,1.21-2.4075,1.8154-3.0733,1.5366-.9449-.3956-1.2544-2.3651-.7683-3.8416.5351-1.6252,1.9562-2.416,4.61-3.8415C1408.9227,810.458,1411.1664,809.2526,1411.7408,809.8839Z" style="fill:#f2f2f2"/><path d="M1402.521,809.8839c-1.4357-.3139-1.5322-4.3405-1.5367-4.61a8.21,8.21,0,0,1,.7684-3.8416c.5191-1.0784,1.9141-3.3309,3.0732-3.0733,1.1941.2654,1.46,3.0442,1.5367,3.8416a8.339,8.339,0,0,1-.7683,4.61C1405.1055,807.7981,1403.689,810.1393,1402.521,809.8839Z" style="fill:#f2f2f2"/><path d="M1415.5824,802.969c.3984.7434-1.753,2.5976-2.3049,3.0733a13.9969,13.9969,0,0,1-3.8416,2.305c-1.6348.6726-3.3127,1.363-3.8416.7683-.5746-.6461.3724-2.623,1.5366-3.8416,1.485-1.5543,3.3631-1.9164,5.3782-2.305C1413.8064,802.7189,1415.2945,802.432,1415.5824,802.969Z" style="fill:#f2f2f2"/><path d="M1407.8992,799.8958c-.8115-.4952-.4309-2.4253,0-4.61a8.288,8.288,0,0,1,1.5367-3.8415c.2724-.3351,1.4883-1.83,2.3049-1.5367.8607.31.8051,2.4361.7683,3.8416a7.0363,7.0363,0,0,1-.7683,3.8416C1410.7776,799.1548,1408.7713,800.4279,1407.8992,799.8958Z" style="fill:#f2f2f2"/><path d="M1422.4973,797.5908c.1028.8941-1.8909,1.78-3.0733,2.305a10.164,10.164,0,0,1-6.1465.7683c-1.2855-.2741-1.4794-.6251-1.5367-.7683-.3513-.8781,1.0707-2.3394,2.305-3.0733a7.1974,7.1974,0,0,1,4.61-.7683C1418.9657,796.0861,1422.3671,796.459,1422.4973,797.5908Z" style="fill:#f2f2f2"/><path d="M1415.5824,792.9809c-.7308-.5068.08-3.39,1.5366-5.3782a10.7069,10.7069,0,0,1,3.8416-3.0733c1.1129-.6155,1.9368-1.0711,2.305-.7683.6413.5273-.4784,3.0432-1.5366,4.61a12.17,12.17,0,0,1-3.0733,3.0733C1417.3191,792.4378,1416.1029,793.3418,1415.5824,792.9809Z" style="fill:#f2f2f2"/><path d="M1418.6557,793.7492c.2644.9085,3.0807.8313,5.3782.7683a26.3447,26.3447,0,0,0,5.3783-.7683c2.2211-.4742,2.3-.6821,2.3049-.7683.0337-.6347-3.6329-1.2458-5.3782-1.5366-3.5861-.5977-4.6439-.3261-5.3783,0C1419.7984,791.96,1418.4533,793.0538,1418.6557,793.7492Z" style="fill:#f2f2f2"/><path d="M1424.0339,787.6027c-.43-1.0762,2.046-2.8869,2.305-3.0733a8.32,8.32,0,0,1,5.3782-1.5367c.7654.061,2.1492.1713,2.305.7684.167.64-1.1783,1.4567-3.8416,3.0732-2.0208,1.2266-2.8644,1.5259-3.8416,1.5367C1426.0683,788.374,1424.35,788.3929,1424.0339,787.6027Z" style="fill:#f2f2f2"/><path d="M863,136c-3.095-.94-.4686-9.2674-5-18-.6513-1.2552-4.6855-9.03-10-9-2.4549.0137-5.3366,3.0093-11,9-5.2824,5.5877-5.6388,6.97-9,9-3.8533,2.327-5.6571,1.8822-7,4-1.9611,3.0926-1.02,8.6228,2,12,2.6069,2.9154,5.2747,2.562,19,7,4.246,1.3729,5.9874,2.0524,6,3,.0181,1.3663-3.5712,2.2549-12,5-12.6119,4.1074-14.1765,5.2446-15,7-1.7934,3.823.598,9.1517,3,12,2.83,3.3558,4.8878,2.3358,8,6,3.1632,3.7242,2.0052,5.9174,5,9,.183.1883,4.2983,4.3189,9,4,8.39-.5691,12.5084-14.891,15-14,1.688.6037.6682,7.4886,0,12-1.2815,8.6516-1.9222,12.9774-5,17-1.7731,2.3174-3.8354,3.9514-4,7-.11,2.0346.6275,4.664,2,5,2.8173.69,7.29-8.5347,8-10a46.5559,46.5559,0,0,0,5-22c-.1471-5.9185-1.4156-10.9129-1-11,.4222-.0885,1.2181,5.1726,5,11,1.8563,2.86,3.27,4.9737,6,6,4.32,1.6238,8.5572-.7438,9-1,3.8116-2.2054,2.864-4.7711,7-9,3.9769-4.0662,5.953-2.8188,10-7,1.95-2.0144,5.4832-5.6651,5-10-.5856-5.2531-6.722-8.39-8-9-4.7-2.2446-7.6246-.8527-15-4-2.9964-1.2787-4.0217-2.1519-4-3,.0459-1.7918,4.7521-2.9414,5-3,3.061-.7241,4.854-.0753,7,0a16.5008,16.5008,0,0,0,14-8c1.493-2.6116,3.1846-7.6361,1-11-1.6349-2.5175-1.76-2.5175-7-6-2.6045-1.7311-5.4158-2.6-7-6a40.4294,40.4294,0,0,0-4-7,9.4852,9.4852,0,0,0-8-4c-3.3939.1628-5.5421,2.4188-8,5-1.74,1.827-5.2671,5.5313-6,11-.5648,4.2146.9109,6.6358-1,9C866.2191,134.9662,864.4533,136.4415,863,136Z" style="fill:#f2f2f2"/><path d="M674,477c-3.095-.94-.4686-9.2674-5-18-.6513-1.2552-4.6855-9.03-10-9-2.4549.0137-5.3366,3.0093-11,9-5.2824,5.5877-5.6388,6.97-9,9-3.8533,2.327-5.6571,1.8822-7,4-1.9611,3.0926-1.02,8.6228,2,12,2.6069,2.9154,5.2747,2.562,19,7,4.246,1.3729,5.9874,2.0524,6,3,.0181,1.3663-3.5712,2.2549-12,5-12.6119,4.1074-14.1765,5.2446-15,7-1.7934,3.823.598,9.1517,3,12,2.83,3.3558,4.8878,2.3358,8,6,3.1632,3.7242,2.0052,5.9174,5,9,.183.1883,4.2983,4.3189,9,4,8.39-.5691,12.5084-14.891,15-14,1.688.6037.6682,7.4886,0,12-1.2815,8.6516-1.9222,12.9774-5,17-1.7731,2.3174-3.8354,3.9514-4,7-.11,2.0346.6275,4.664,2,5,2.8173.69,7.29-8.5347,8-10a46.5559,46.5559,0,0,0,5-22c-.1471-5.9185-1.4156-10.9129-1-11,.4222-.0885,1.2181,5.1726,5,11,1.8563,2.86,3.27,4.9737,6,6,4.32,1.6238,8.5572-.7438,9-1,3.8116-2.2054,2.864-4.7711,7-9,3.9769-4.0662,5.953-2.8188,10-7,1.95-2.0144,5.4832-5.6651,5-10-.5856-5.2531-6.722-8.39-8-9-4.7-2.2446-7.6246-.8527-15-4-2.9964-1.2787-4.0217-2.1519-4-3,.0459-1.7918,4.7521-2.9414,5-3,3.061-.7241,4.854-.0753,7,0a16.5008,16.5008,0,0,0,14-8c1.493-2.6116,3.1846-7.6361,1-11-1.6349-2.5175-1.76-2.5175-7-6-2.6045-1.7311-5.4158-2.6-7-6a40.4294,40.4294,0,0,0-4-7,9.4852,9.4852,0,0,0-8-4c-3.3939.1628-5.5421,2.4188-8,5-1.74,1.827-5.2671,5.5313-6,11-.5648,4.2146.9109,6.6358-1,9C677.2191,475.9662,675.4533,477.4415,674,477Z" style="fill:#f2f2f2"/><path d="M95,803c-3.095-.94-.4686-9.2674-5-18-.6513-1.2552-4.6855-9.03-10-9-2.4549.0137-5.3366,3.0093-11,9-5.2824,5.5877-5.6388,6.97-9,9-3.8533,2.327-5.6571,1.8822-7,4-1.9611,3.0926-1.02,8.6228,2,12,2.6069,2.9154,5.2747,2.562,19,7,4.246,1.3729,5.9874,2.0524,6,3,.0181,1.3663-3.5712,2.2549-12,5-12.6119,4.1074-14.1765,5.2446-15,7-1.7934,3.823.598,9.1517,3,12,2.83,3.3558,4.8878,2.3358,8,6,3.1632,3.7242,2.0052,5.9174,5,9,.183.1883,4.2983,4.3189,9,4,8.39-.5691,12.5084-14.891,15-14,1.688.6037.6682,7.4886,0,12-1.2815,8.6516-1.9222,12.9774-5,17-1.7731,2.3174-3.8354,3.9514-4,7-.11,2.0346.6275,4.664,2,5,2.8173.69,7.29-8.5347,8-10a46.5559,46.5559,0,0,0,5-22c-.1471-5.9185-1.4156-10.9129-1-11,.4222-.0885,1.2181,5.1726,5,11,1.8563,2.86,3.27,4.9737,6,6,4.32,1.6238,8.5572-.7438,9-1,3.8116-2.2054,2.864-4.7711,7-9,3.9769-4.0662,5.953-2.8188,10-7,1.95-2.0144,5.4832-5.6651,5-10-.5856-5.2531-6.722-8.39-8-9-4.7-2.2446-7.6246-.8527-15-4-2.9964-1.2787-4.0217-2.1519-4-3,.0459-1.7918,4.7521-2.9414,5-3,3.061-.7241,4.854-.0753,7,0a16.5008,16.5008,0,0,0,14-8c1.493-2.6116,3.1846-7.6361,1-11-1.6349-2.5175-1.76-2.5175-7-6-2.6045-1.7311-5.4158-2.6-7-6a40.4294,40.4294,0,0,0-4-7,9.4852,9.4852,0,0,0-8-4c-3.3939.1628-5.5421,2.4188-8,5-1.74,1.827-5.2671,5.5313-6,11-.5648,4.2146.9109,6.6358-1,9C98.2191,801.9662,96.4533,803.4415,95,803Z" style="fill:#f2f2f2"/><path d="M1633,818c-3.095-.94-.4686-9.2674-5-18-.6513-1.2552-4.6855-9.03-10-9-2.4549.0137-5.3366,3.0093-11,9-5.2824,5.5877-5.6388,6.97-9,9-3.8533,2.327-5.6571,1.8822-7,4-1.9611,3.0926-1.02,8.6228,2,12,2.6069,2.9154,5.2747,2.562,19,7,4.246,1.3729,5.9874,2.0524,6,3,.0181,1.3663-3.5712,2.2549-12,5-12.6119,4.1074-14.1765,5.2446-15,7-1.7934,3.823.598,9.1517,3,12,2.83,3.3558,4.8878,2.3358,8,6,3.1632,3.7242,2.0052,5.9174,5,9,.183.1883,4.2983,4.3189,9,4,8.39-.5691,12.5084-14.891,15-14,1.688.6037.6682,7.4886,0,12-1.2815,8.6516-1.9222,12.9774-5,17-1.7731,2.3174-3.8354,3.9514-4,7-.11,2.0346.6275,4.664,2,5,2.8173.69,7.29-8.5347,8-10a46.5559,46.5559,0,0,0,5-22c-.1471-5.9185-1.4156-10.9129-1-11,.4222-.0885,1.2181,5.1726,5,11,1.8563,2.86,3.27,4.9737,6,6,4.32,1.6238,8.5572-.7438,9-1,3.8116-2.2054,2.864-4.7711,7-9,3.9769-4.0662,5.953-2.8188,10-7,1.95-2.0144,5.4832-5.6651,5-10-.5856-5.2531-6.722-8.39-8-9-4.7-2.2446-7.6246-.8527-15-4-2.9964-1.2787-4.0217-2.1519-4-3,.0459-1.7918,4.7521-2.9414,5-3,3.061-.7241,4.854-.0753,7,0a16.5008,16.5008,0,0,0,14-8c1.493-2.6116,3.1846-7.6361,1-11-1.6349-2.5175-1.76-2.5175-7-6-2.6045-1.7311-5.4158-2.6-7-6a40.4294,40.4294,0,0,0-4-7,9.4852,9.4852,0,0,0-8-4c-3.3939.1628-5.5421,2.4188-8,5-1.74,1.827-5.2671,5.5313-6,11-.5648,4.2146.9109,6.6358-1,9C1636.2191,816.9662,1634.4533,818.4415,1633,818Z" style="fill:#f2f2f2"/><path d="M419.9926,175.855c-.6392,2.5424,6.06,4.7894,14.4722,16.1748.3795.5137.6206.8455,1.0784,1.5005,2.2126,3.1655,5.5523,8.5348,13.3938,23.1874,7.2847,13.612,7.9544,21.4184,11.067,21.2826,3.6921-.1611,6.3407-10.87,6.81-12.77,1.6182-6.5425.1252-7.6505,1.7026-12.77,1.9688-6.3889,2.2994-6.4773,6.81-14.4722,2.2258-3.9447,6.0038-9.1316,6.81-16.1748.7827-6.8336.7728-11.0549,3.4053-17.8774.9973-2.5847,2.2914-4.6957,4.2565-5.1078a7.5225,7.5225,0,0,1,4.2565.8513,26.9259,26.9259,0,0,1,2.5539,1.7026c2.12,1.14,3.2585-.1345,6.81,0,4.2307.16,4.6061,2.0438,8.513,1.7026,1.5975-.1395,2.3751-.5277,3.4053,0,1.68.8607,1.2264,2.7205,2.5539,4.2565,2.4078,2.7862,8.0908,1.5163,11.067.8513,3.1506-.704,5.8709-1.3118,6.81-3.4052.52-1.1586-.0059-1.6573,0-5.9591.0042-3.0836.2751-3.288,0-4.2566-.7182-2.529-3.2792-3.6508-5.9591-5.1078-2.7668-1.5042-5.5335-3.5567-11.067-7.6617a83.4574,83.4574,0,0,1-9.3644-7.6618,47.8141,47.8141,0,0,0-5.9591-5.1078,25.7427,25.7427,0,0,0-4.2565-2.5539c-2.7609-1.2841-3.3121-.87-5.1079-1.7027-3.5193-1.6316-3.1463-4.03-7.6617-7.6617-1.5875-1.2767-4.0273-3.2388-5.1079-2.5539-1.9774,1.2534,2.3334,10.272.8513,11.067-1.3116.7035-5.9176-5.7-6.81-5.1079-.7211.4785,2.05,4.8106.8513,5.9592-1.4367,1.3772-7.2828-3.0663-8.5131-1.7027-.7013.7774.7475,2.7215,0,3.4053-.9755.8924-4.2024-1.7249-5.1078-.8513-.6814.6574.7537,2.5187,0,3.4052-.912,1.0727-4.0878-.3894-4.2565,0-.2207.5094,5.36,2.6747,5.1078,4.2565-.1615,1.0143-2.5876.9507-6.81,2.5539-3.0092,1.1425-6.1388,2.8307-5.9592,3.4053.213.681,4.9918-.4686,5.1079,0,.1.4033-3.2928,1.8548-6.8682,2.8584-2.4412.6853-4.2043.9474-4.1988,1.3981.0084.6936,4.1945.8465,4.2565,1.7026.0834,1.1509-7.411,1.8647-7.6617,4.2565-.1421,1.3548,2.1239,2.4479,1.7026,3.4052-.1762.4-.7511.6153-2.2783.6895-3.6232.1761-6.0233-1.07-6.2348-.6895-.3077.5532,4.6208,3.4019,4.2565,4.2566-.4389,1.03-8.2723-1.5177-8.513-.8513-.2186.6051,6.2058,2.8053,5.9591,4.2565-.3546,2.0867-14.19.7787-14.4722,2.5539-.28,1.7587,13.04,4.6722,12.77,6.81C434.1965,173.7219,420.8694,172.3676,419.9926,175.855Z" style="fill:#f2f2f2"/><path d="M1005.9926,507.855c-.6392,2.5424,6.06,4.7894,14.4722,16.1748.38.5137.6206.8455,1.0784,1.5,2.2126,3.1655,5.5523,8.5348,13.3938,23.1874,7.2847,13.612,7.9544,21.4184,11.067,21.2826,3.6921-.1611,6.3407-10.87,6.81-12.77,1.6182-6.5425.1252-7.65,1.7026-12.77,1.9688-6.3889,2.2994-6.4773,6.8105-14.4722,2.2258-3.9447,6.0038-9.1316,6.81-16.1748.7827-6.8336.7728-11.0549,3.4053-17.8774.9973-2.5847,2.2914-4.6957,4.2565-5.1078a7.5225,7.5225,0,0,1,4.2565.8513,26.9259,26.9259,0,0,1,2.5539,1.7026c2.12,1.14,3.2585-.1345,6.81,0,4.2307.16,4.6061,2.0438,8.513,1.7026,1.5975-.1395,2.3751-.5277,3.4053,0,1.68.8607,1.2264,2.7205,2.5539,4.2565,2.4078,2.7862,8.0908,1.5163,11.067.8513,3.1506-.704,5.8709-1.3118,6.81-3.4052.52-1.1586-.0059-1.6573,0-5.9591.0042-3.0836.2751-3.288,0-4.2566-.7182-2.529-3.2792-3.6508-5.9591-5.1078-2.7668-1.5042-5.5335-3.5567-11.067-7.6617a83.4574,83.4574,0,0,1-9.3644-7.6618,47.8141,47.8141,0,0,0-5.9591-5.1078,25.7427,25.7427,0,0,0-4.2565-2.5539c-2.7609-1.2841-3.3121-.87-5.1079-1.7027-3.5193-1.6316-3.1463-4.03-7.6617-7.6617-1.5875-1.2767-4.0273-3.2388-5.1079-2.5539-1.9774,1.2534,2.3334,10.272.8513,11.067-1.3116.7035-5.9176-5.7-6.81-5.1079-.7211.4785,2.0495,4.8106.8513,5.9592-1.4367,1.3772-7.2828-3.0663-8.5131-1.7027-.7013.7774.7475,2.7215,0,3.4053-.9755.8924-4.2024-1.7249-5.1078-.8513-.6814.6574.7537,2.5187,0,3.4052-.912,1.0727-4.0878-.3894-4.2565,0-.2207.5094,5.36,2.6747,5.1078,4.2565-.1615,1.0143-2.5876.9507-6.81,2.5539-3.0092,1.1425-6.1388,2.8307-5.9592,3.4053.213.681,4.9918-.4686,5.1079,0,.1.4033-3.2928,1.8548-6.8682,2.8584-2.4412.6853-4.2043.9474-4.1988,1.3981.0084.6936,4.1945.8465,4.2565,1.7026.0834,1.1509-7.411,1.8647-7.6617,4.2565-.1421,1.3548,2.1239,2.4479,1.7026,3.4052-.1762.4-.7511.6153-2.2783.69-3.6232.1761-6.0233-1.07-6.2348-.69-.3077.5532,4.6208,3.4019,4.2565,4.2566-.4389,1.03-8.2723-1.5177-8.513-.8513-.2186.6051,6.2058,2.8053,5.9591,4.2565-.3546,2.0867-14.19.7787-14.4722,2.5539-.28,1.7587,13.04,4.6722,12.77,6.81C1020.1965,505.7219,1006.8694,504.3676,1005.9926,507.855Z" style="fill:#f2f2f2"/><path d="M1198.9926,844.855c-.6392,2.5424,6.06,4.7894,14.4722,16.1748.38.5137.6206.8455,1.0784,1.5,2.2126,3.1655,5.5523,8.5348,13.3938,23.1874,7.2847,13.612,7.9544,21.4184,11.067,21.2826,3.6921-.1611,6.3407-10.87,6.81-12.77,1.6182-6.5425.1252-7.65,1.7026-12.77,1.9688-6.3889,2.2994-6.4773,6.8105-14.4722,2.2258-3.9447,6.0038-9.1316,6.81-16.1748.7827-6.8336.7728-11.0549,3.4053-17.8774.9973-2.5847,2.2914-4.6957,4.2565-5.1078a7.5225,7.5225,0,0,1,4.2565.8513,26.9259,26.9259,0,0,1,2.5539,1.7026c2.12,1.14,3.2585-.1345,6.81,0,4.2307.16,4.6061,2.0438,8.513,1.7026,1.5975-.1395,2.3751-.5277,3.4053,0,1.68.8607,1.2264,2.72,2.5539,4.2565,2.4078,2.7862,8.0908,1.5163,11.067.8513,3.1506-.704,5.8709-1.3118,6.81-3.4052.52-1.1586-.0059-1.6573,0-5.9591.0042-3.0836.2751-3.288,0-4.2566-.7182-2.529-3.2792-3.6508-5.9591-5.1078-2.7668-1.5042-5.5335-3.5567-11.067-7.6617a83.4574,83.4574,0,0,1-9.3644-7.6618,47.8141,47.8141,0,0,0-5.9591-5.1078,25.7427,25.7427,0,0,0-4.2565-2.5539c-2.7609-1.2841-3.3121-.87-5.1079-1.7027-3.5193-1.6316-3.1463-4.03-7.6617-7.6617-1.5875-1.2767-4.0273-3.2388-5.1079-2.5539-1.9774,1.2534,2.3334,10.272.8513,11.067-1.3116.7035-5.9176-5.7-6.81-5.1079-.7211.4785,2.0495,4.8106.8513,5.9592-1.4367,1.3772-7.2828-3.0663-8.5131-1.7027-.7013.7774.7475,2.7215,0,3.4053-.9755.8924-4.2024-1.7249-5.1078-.8513-.6814.6574.7537,2.5187,0,3.4052-.912,1.0727-4.0878-.3894-4.2565,0-.2207.5094,5.36,2.6747,5.1078,4.2565-.1615,1.0143-2.5876.9507-6.81,2.5539-3.0092,1.1425-6.1388,2.8307-5.9592,3.4053.213.681,4.9918-.4686,5.1079,0,.1.4033-3.2928,1.8548-6.8682,2.8584-2.4412.6853-4.2043.9474-4.1988,1.3981.0084.6936,4.1945.8465,4.2565,1.7026.0834,1.1509-7.411,1.8647-7.6617,4.2565-.1421,1.3548,2.1239,2.4479,1.7026,3.4052-.1762.4-.7511.6153-2.2783.6895-3.6232.1761-6.0233-1.07-6.2348-.6895-.3077.5532,4.6208,3.4019,4.2565,4.2566-.4389,1.03-8.2723-1.5177-8.513-.8513-.2186.6051,6.2058,2.8053,5.9591,4.2565-.3546,2.0867-14.19.7787-14.4722,2.5539-.28,1.7587,13.04,4.6722,12.77,6.81C1213.1965,842.7219,1199.8694,841.3676,1198.9926,844.855Z" style="fill:#f2f2f2"/><path d="M1852.752,137.4316a14.7663,14.7663,0,0,0,5.03-5.03c1.1572-1.6637.9146-6.4017.9146-6.4017h19.2051s1.8223,2.8564.9145,10.06a67.72,67.72,0,0,1-5.4871,19.2052c-5.2186,11.9069-7.8279,17.86-12.8035,23.7777-4.1027,4.8794-9.6951,9.9975-17.376,11.8889-1.4878.3664-4.7649,1.1733-5.4872,0-1.0771-1.75,4.3275-4.1428,9.6026-7.7735,3.9944-2.7492,4.2927-3.3859,7.7735-5.9444,4.2934-3.1559,6.5338-8.5952,9.1453-12.8034a74.9239,74.9239,0,0,0,6.4017-13.718,55.2361,55.2361,0,0,0,3.6581-20.12h-10.9744s1.6366,4.3542,0,5.4872c-5.9444,4.1154-14.5839,10.7649-16.4615,8.2308C1845.63,142.7013,1848.7166,139.4974,1852.752,137.4316Z" style="fill:#f2f2f2"/><path d="M1796.1663,137.8889a14.7681,14.7681,0,0,1-5.03-5.03c-1.1572-1.6638-.9145-6.4017-.9145-6.4017h-19.2051s-1.8223,2.8563-.9146,10.06a67.7188,67.7188,0,0,0,5.4872,19.2051c5.2186,11.907,7.8278,17.86,12.8034,23.7778,4.1028,4.8793,9.6951,9.9975,17.3761,11.8889,1.4878.3663,4.7648,1.1733,5.4872,0,1.0771-1.75-4.3275-4.1429-9.6026-7.7735-3.9944-2.7493-4.2927-3.3859-7.7735-5.9445-4.2934-3.1558-6.5338-8.5952-9.1453-12.8034a74.9137,74.9137,0,0,1-6.4017-13.7179,55.2338,55.2338,0,0,1-3.6581-20.12h10.9743s-1.6365,4.3542,0,5.4872c5.9445,4.1154,14.584,10.7648,16.4616,8.2308C1803.2883,143.1586,1800.2018,139.9547,1796.1663,137.8889Z" style="fill:#f2f2f2"/><path d="M1793.7649,128.7436a123.53,123.53,0,0,0,.9145,18.2906c1.336,11.4292,2.3669,19.9315,5.4872,31.094,2.65,9.4806,3.9751,14.2208,6.4017,17.3761,5.8122,7.5575,12.3765,8.0943,15.547,16.4615.3916,1.0334,2.6907,7.1011,0,10.06a10.02,10.02,0,0,1-7.3163,3.6582c-6.9819.4333-10.0369-1.096-11.8888.9145-.8827.9582-1.2536.6326-.9146,1.8291.8714,3.0751,6.3287,4.5726,10.9744,4.5726h20.12c5.1435,0,7.3163,0,11.8889-.9145,2.1234-.4247,4.8884-2.914,4.5727-4.5727-.3745-1.9676-5.1546-1.6685-6.4017-1.829-5.7126-.7355-7.5982.61-10.9744-.9146a9.0716,9.0716,0,0,1-4.5726-5.4871c-.7867-2.93.3758-5.6546,1.829-8.2308,4.2821-7.5913,9.233-10.4015,10.9744-11.8889,7.0159-5.9928,9.9313-15.5513,13.7179-30.1795,4.2632-16.469.9146-40.2393.9146-40.2393Z" style="fill:#f2f2f2"/><path d="M316.752,137.4316a14.7663,14.7663,0,0,0,5.03-5.03c1.1572-1.6637.9146-6.4017.9146-6.4017h19.2051s1.8223,2.8564.9145,10.06a67.72,67.72,0,0,1-5.4871,19.2052c-5.2186,11.9069-7.8279,17.86-12.8035,23.7777-4.1027,4.8794-9.6951,9.9975-17.376,11.8889-1.4878.3664-4.7649,1.1733-5.4872,0-1.0771-1.75,4.3275-4.1428,9.6026-7.7735,3.9944-2.7492,4.2927-3.3859,7.7735-5.9444,4.2934-3.1559,6.5338-8.5952,9.1453-12.8034a74.9239,74.9239,0,0,0,6.4017-13.718,55.2361,55.2361,0,0,0,3.6581-20.12H327.2691s1.6366,4.3542,0,5.4872c-5.9444,4.1154-14.5839,10.7649-16.4615,8.2308C309.63,142.7013,312.7166,139.4974,316.752,137.4316Z" style="fill:#f2f2f2"/><path d="M260.1663,137.8889a14.7681,14.7681,0,0,1-5.03-5.03c-1.1572-1.6638-.9145-6.4017-.9145-6.4017H235.0168s-1.8223,2.8563-.9146,10.06a67.7188,67.7188,0,0,0,5.4872,19.2051c5.2186,11.907,7.8278,17.86,12.8034,23.7778,4.1028,4.8793,9.6951,9.9975,17.3761,11.8889,1.4878.3663,4.7648,1.1733,5.4872,0,1.0771-1.75-4.3275-4.1429-9.6026-7.7735-3.9944-2.7493-4.2927-3.3859-7.7735-5.9445-4.2934-3.1558-6.5338-8.5952-9.1453-12.8034A74.9137,74.9137,0,0,1,242.333,151.15a55.2338,55.2338,0,0,1-3.6581-20.12h10.9743s-1.6365,4.3542,0,5.4872c5.9445,4.1154,14.584,10.7648,16.4616,8.2308C267.2883,143.1586,264.2018,139.9547,260.1663,137.8889Z" style="fill:#f2f2f2"/><path d="M257.7649,128.7436a123.53,123.53,0,0,0,.9145,18.2906c1.336,11.4292,2.3669,19.9315,5.4872,31.094,2.65,9.4806,3.9751,14.2208,6.4017,17.3761,5.8122,7.5575,12.3765,8.0943,15.547,16.4615.3916,1.0334,2.6907,7.1011,0,10.06a10.02,10.02,0,0,1-7.3163,3.6582c-6.9819.4333-10.0369-1.096-11.8888.9145-.8827.9582-1.2536.6326-.9146,1.8291C266.867,231.5025,272.3243,233,276.97,233h20.12c5.1435,0,7.3163,0,11.8889-.9145,2.1234-.4247,4.8884-2.914,4.5727-4.5727-.3745-1.9676-5.1546-1.6685-6.4017-1.829-5.7126-.7355-7.5982.61-10.9744-.9146a9.0716,9.0716,0,0,1-4.5726-5.4871c-.7867-2.93.3758-5.6546,1.829-8.2308,4.2821-7.5913,9.233-10.4015,10.9744-11.8889,7.0159-5.9928,9.9313-15.5513,13.7179-30.1795,4.2632-16.469.9146-40.2393.9146-40.2393Z" style="fill:#f2f2f2"/><path d="M1276.752,471.4316a14.7663,14.7663,0,0,0,5.03-5.03c1.1572-1.6637.9146-6.4017.9146-6.4017h19.2051s1.8223,2.8564.9145,10.06a67.72,67.72,0,0,1-5.4871,19.2052c-5.2186,11.9069-7.8279,17.86-12.8035,23.7777-4.1027,4.8794-9.6951,9.9975-17.376,11.8889-1.4878.3664-4.7649,1.1733-5.4872,0-1.0771-1.75,4.3275-4.1428,9.6026-7.7735,3.9944-2.7492,4.2927-3.3859,7.7735-5.9444,4.2934-3.1559,6.5338-8.5952,9.1453-12.8034a74.9239,74.9239,0,0,0,6.4017-13.718,55.2361,55.2361,0,0,0,3.6581-20.12h-10.9744s1.6366,4.3542,0,5.4872c-5.9444,4.1154-14.5839,10.7649-16.4615,8.2308C1269.63,476.7013,1272.7166,473.4974,1276.752,471.4316Z" style="fill:#f2f2f2"/><path d="M1220.1663,471.8889a14.7681,14.7681,0,0,1-5.03-5.03c-1.1572-1.6638-.9145-6.4017-.9145-6.4017h-19.2051s-1.8223,2.8563-.9146,10.06a67.7188,67.7188,0,0,0,5.4872,19.2051c5.2186,11.907,7.8278,17.86,12.8034,23.7778,4.1028,4.8793,9.6951,9.9975,17.3761,11.8889,1.4878.3663,4.7648,1.1733,5.4872,0,1.0771-1.75-4.3275-4.1429-9.6026-7.7735-3.9944-2.7493-4.2927-3.3859-7.7735-5.9445-4.2934-3.1558-6.5338-8.5952-9.1453-12.8034a74.9137,74.9137,0,0,1-6.4017-13.7179,55.2338,55.2338,0,0,1-3.6581-20.12h10.9743s-1.6365,4.3542,0,5.4872c5.9445,4.1154,14.584,10.7648,16.4616,8.2308C1227.2883,477.1586,1224.2018,473.9547,1220.1663,471.8889Z" style="fill:#f2f2f2"/><path d="M1217.7649,462.7436a123.53,123.53,0,0,0,.9145,18.2906c1.336,11.4292,2.3669,19.9315,5.4872,31.094,2.65,9.4806,3.9751,14.2208,6.4017,17.3761,5.8122,7.5575,12.3765,8.0943,15.547,16.4615.3916,1.0334,2.6907,7.1011,0,10.06a10.02,10.02,0,0,1-7.3163,3.6582c-6.9819.4333-10.0369-1.096-11.8888.9145-.8827.9582-1.2536.6326-.9146,1.8291.8714,3.0751,6.3287,4.5726,10.9744,4.5726h20.12c5.1435,0,7.3163,0,11.8889-.9145,2.1234-.4247,4.8884-2.914,4.5727-4.5727-.3745-1.9676-5.1546-1.6685-6.4017-1.829-5.7126-.7355-7.5982.61-10.9744-.9146a9.0716,9.0716,0,0,1-4.5726-5.4871c-.7867-2.93.3758-5.6546,1.829-8.2308,4.2821-7.5913,9.233-10.4015,10.9744-11.8889,7.0159-5.9928,9.9313-15.5513,13.7179-30.18,4.2632-16.469.9146-40.2393.9146-40.2393Z" style="fill:#f2f2f2"/><path d="M1084.752,805.4316a14.7663,14.7663,0,0,0,5.03-5.03c1.1572-1.6637.9146-6.4017.9146-6.4017h19.2051s1.8223,2.8564.9145,10.06a67.72,67.72,0,0,1-5.4871,19.2052c-5.2186,11.9069-7.8279,17.86-12.8035,23.7777-4.1027,4.8794-9.6951,9.9975-17.376,11.8889-1.4878.3664-4.7649,1.1733-5.4872,0-1.0771-1.75,4.3275-4.1428,9.6026-7.7735,3.9944-2.7492,4.2927-3.3859,7.7735-5.9444,4.2934-3.1559,6.5338-8.5952,9.1453-12.8034a74.9239,74.9239,0,0,0,6.4017-13.718,55.2361,55.2361,0,0,0,3.6581-20.12h-10.9744s1.6366,4.3542,0,5.4872c-5.9444,4.1154-14.5839,10.7649-16.4615,8.2308C1077.63,810.7013,1080.7166,807.4974,1084.752,805.4316Z" style="fill:#f2f2f2"/><path d="M1028.1663,805.8889a14.7681,14.7681,0,0,1-5.03-5.03c-1.1572-1.6638-.9145-6.4017-.9145-6.4017h-19.2051s-1.8223,2.8563-.9146,10.06a67.7188,67.7188,0,0,0,5.4872,19.2051c5.2186,11.907,7.8278,17.86,12.8034,23.7778,4.1028,4.8793,9.6951,9.9975,17.3761,11.8889,1.4878.3663,4.7648,1.1733,5.4872,0,1.0771-1.75-4.3275-4.1429-9.6026-7.7735-3.9944-2.7493-4.2927-3.3859-7.7735-5.9445-4.2934-3.1558-6.5338-8.5952-9.1453-12.8034a74.9137,74.9137,0,0,1-6.4017-13.7179,55.2338,55.2338,0,0,1-3.6581-20.12h10.9743s-1.6365,4.3542,0,5.4872c5.9445,4.1154,14.584,10.7648,16.4616,8.2308C1035.2883,811.1586,1032.2018,807.9547,1028.1663,805.8889Z" style="fill:#f2f2f2"/><path d="M1025.7649,796.7436a123.53,123.53,0,0,0,.9145,18.2906c1.336,11.4292,2.3669,19.9315,5.4872,31.094,2.65,9.4806,3.9751,14.2208,6.4017,17.3761,5.8122,7.5575,12.3765,8.0943,15.547,16.4615.3916,1.0334,2.6907,7.1011,0,10.06a10.02,10.02,0,0,1-7.3163,3.6582c-6.9819.4333-10.0369-1.096-11.8888.9145-.8827.9582-1.2536.6326-.9146,1.8291.8714,3.0751,6.3287,4.5726,10.9744,4.5726h20.12c5.1435,0,7.3163,0,11.8889-.9145,2.1234-.4247,4.8884-2.914,4.5727-4.5727-.3745-1.9676-5.1546-1.6685-6.4017-1.829-5.7126-.7355-7.5982.61-10.9744-.9146a9.0716,9.0716,0,0,1-4.5726-5.4871c-.7867-2.93.3758-5.6546,1.829-8.2308,4.2821-7.5913,9.233-10.4015,10.9744-11.8889,7.0159-5.9928,9.9313-15.5513,13.7179-30.18,4.2632-16.469.9146-40.2393.9146-40.2393Z" style="fill:#f2f2f2"/></g></svg>